<svg width="51" height="60" viewBox="0 0 51 60" fill="none" xmlns="http://www.w3.org/2000/svg">
<path d="M22.9608 4.97778C22.9608 7.75015 20.7502 9.98677 17.9778 9.98677C15.2106 9.98677 13 7.75015 13 4.97778C13 2.23662 15.2106 0 17.9778 0C20.7502 0 22.9608 2.23662 22.9608 4.97778Z" fill="#F3EFF5"/>
<path d="M49.3003 60L51 58.6778L46.0665 54.8165C44.7178 53.7674 42.9078 53.1784 40.9675 53.1784H12.1383C10.8698 53.1784 9.63144 52.7806 8.73899 52.0903L3.80545 48.2485C2.91299 47.5348 2.40159 46.6143 2.40159 45.6041V10.5485C2.40159 9.56178 2.91299 8.61791 3.80545 7.90416L5.01878 6.9603C5.90621 6.26605 7.14962 5.86823 8.41811 5.86823H14.3745V4H8.41811C6.50285 4 4.66781 4.58894 3.31911 5.63811L2.10578 6.58197C0.757076 7.65065 0 9.05864 0 10.5485V45.6041C0 47.094 0.757076 48.5215 2.10578 49.5707L7.03932 53.4086C8.38803 54.4577 10.2481 55.0467 12.1383 55.0467H40.9675C42.261 55.0467 43.4743 55.4445 44.3668 56.1582L49.3003 60Z" fill="#F3EFF5"/>
</svg>
