<svg xmlns="http://www.w3.org/2000/svg" xmlns:xlink="http://www.w3.org/1999/xlink" width="400" zoomAndPan="magnify" viewBox="0 0 300 299.999988" height="400" preserveAspectRatio="xMidYMid meet" version="1.0"><path stroke-linecap="butt" transform="matrix(-3.281732, 1.709888, -1.716501, -3.294425, 129.829611, 183.902959)" fill="none" stroke-linejoin="miter" d="M 0.00027926 0.000331571 L 16.530201 -0.0000677824 " stroke="#f3eff5" stroke-width="1" stroke-opacity="1" stroke-miterlimit="4"/><path stroke-linecap="butt" transform="matrix(-3.281732, 1.709888, -1.716501, -3.294425, 63.275302, 218.579893)" fill-opacity="1" fill="#f3eff5" fill-rule="nonzero" stroke-linejoin="miter" d="M -0.50023 -0.000608987 C -0.499524 0.0981719 -0.509194 0.19631 -0.528753 0.292873 C -0.548312 0.389435 -0.576784 0.482558 -0.614209 0.574591 C -0.652082 0.665205 -0.698381 0.751446 -0.753105 0.833315 C -0.807829 0.915183 -0.870003 0.990813 -0.939627 1.060206 C -1.008315 1.130084 -1.0849 1.192305 -1.167025 1.246909 C -1.248213 1.302 -1.335387 1.348054 -1.426676 1.386044 C -1.516541 1.423588 -1.610968 1.451649 -1.70715 1.471686 C -1.80378 1.490304 -1.901677 1.499965 -2.000352 1.499735 C -2.098091 1.499992 -2.196609 1.490359 -2.292609 1.471361 C -2.389545 1.451878 -2.483027 1.423515 -2.573992 1.385788 C -2.664957 1.348061 -2.751532 1.30194 -2.833717 1.247427 C -2.915414 1.191981 -2.991337 1.130047 -3.060998 1.060691 C -3.130658 0.991336 -3.192184 0.915531 -3.247 0.833723 C -3.301815 0.751915 -3.348048 0.665077 -3.386185 0.57414 C -3.422898 0.482756 -3.452492 0.389139 -3.471182 0.292881 C -3.490808 0.196137 -3.500506 0.0986179 -3.500276 0.000322903 C -3.500046 -0.0979721 -3.490376 -0.19611 -3.470817 -0.292673 C -3.452194 -0.389722 -3.423722 -0.482844 -3.385849 -0.573458 C -3.348424 -0.665491 -3.302125 -0.751733 -3.247401 -0.833601 C -3.192677 -0.915469 -3.130503 -0.9911 -3.06088 -1.060492 C -2.991256 -1.129884 -2.915606 -1.192591 -2.833482 -1.247196 C -2.751358 -1.3018 -2.665119 -1.34834 -2.574318 -1.385398 C -2.483029 -1.423388 -2.389538 -1.451935 -2.29242 -1.471486 C -2.19579 -1.490104 -2.09883 -1.500251 -2.000154 -1.500022 C -1.901479 -1.499792 -1.803898 -1.490645 -1.706962 -1.471162 C -1.610962 -1.452164 -1.516543 -1.423315 -1.425578 -1.385588 C -1.334613 -1.347861 -1.248038 -1.301741 -1.166789 -1.247713 C -1.085092 -1.192268 -1.009169 -1.130333 -0.939509 -1.060978 C -0.869848 -0.991622 -0.807386 -0.915331 -0.752571 -0.833523 C -0.697755 -0.751716 -0.651523 -0.664877 -0.614322 -0.574426 C -0.576672 -0.482556 -0.548014 -0.389425 -0.528388 -0.292681 C -0.509698 -0.196423 -0.5 -0.098904 -0.50023 -0.000608987 Z M -0.50023 -0.000608987 " stroke="#f3eff5" stroke-width="1" stroke-opacity="1" stroke-miterlimit="4"/><path stroke-linecap="butt" transform="matrix(-0.493202, 3.702733, -3.682261, -0.490475, 69.496457, 213.55781)" fill="none" stroke-linejoin="miter" d="M 0.000220886 0.000069097 L 9.179467 0.000103145 " stroke="#f3eff5" stroke-width="1" stroke-opacity="1" stroke-miterlimit="4"/><path stroke-linecap="butt" transform="matrix(-0.493202, 3.702733, -3.682261, -0.490475, 63.119854, 261.430467)" fill-opacity="1" fill="#f3eff5" fill-rule="nonzero" stroke-linejoin="miter" d="M -0.500285 -0.000160742 C -0.499883 0.0984426 -0.509087 0.196211 -0.52907 0.29224 C -0.547879 0.389173 -0.576569 0.483187 -0.614104 0.574141 C -0.65164 0.665096 -0.698158 0.75195 -0.75276 0.833521 C -0.807363 0.915093 -0.87005 0.991382 -0.938886 1.061069 C -1.008897 1.129853 -1.085058 1.192034 -1.166331 1.247475 C -1.248779 1.302012 -1.335441 1.348627 -1.425419 1.386138 C -1.516433 1.423789 -1.610763 1.452336 -1.707373 1.471641 C -1.80412 1.489903 -1.901972 1.499827 -2.000031 1.500231 C -2.098227 1.499592 -2.196491 1.490476 -2.292888 1.471563 C -2.389423 1.451607 -2.482779 1.4238 -2.574267 1.386195 C -2.664719 1.348451 -2.751092 1.301674 -2.833249 1.246907 C -2.915406 1.192139 -2.991136 1.130146 -3.060438 1.060927 C -3.129878 0.990666 -3.192614 0.915263 -3.246712 0.833399 C -3.301846 0.751674 -3.348203 0.66453 -3.385507 0.574052 C -3.423986 0.482671 -3.452237 0.388858 -3.471297 0.292754 C -3.490495 0.195608 -3.500226 0.0982538 -3.499591 -0.000488365 C -3.499854 -0.0980493 -3.490651 -0.195818 -3.470805 -0.292889 C -3.451858 -0.38878 -3.423168 -0.482793 -3.385633 -0.573748 C -3.348098 -0.664703 -3.30158 -0.751556 -3.246977 -0.833128 C -3.192513 -0.915742 -3.130724 -0.99085 -3.060851 -1.060676 C -2.990978 -1.130502 -2.914818 -1.192683 -2.833407 -1.247082 C -2.750959 -1.301619 -2.665333 -1.348095 -2.574319 -1.385745 C -2.483304 -1.423395 -2.388974 -1.451942 -2.292365 -1.471247 C -2.195755 -1.490552 -2.09894 -1.500337 -1.999707 -1.499838 C -1.901649 -1.500242 -1.804283 -1.489944 -1.706849 -1.47117 C -1.610452 -1.452256 -1.516959 -1.423407 -1.42547 -1.385801 C -1.335019 -1.348058 -1.248783 -1.302323 -1.166626 -1.247556 C -1.084469 -1.192789 -1.00874 -1.130795 -0.9393 -1.060534 C -0.869998 -0.991315 -0.807123 -0.91487 -0.753026 -0.833006 C -0.697892 -0.751281 -0.651673 -0.66518 -0.614231 -0.573659 C -0.576926 -0.483181 -0.547639 -0.389507 -0.528441 -0.292361 C -0.509381 -0.196257 -0.49965 -0.0989029 -0.500285 -0.000160742 Z M -0.500285 -0.000160742 " stroke="#f3eff5" stroke-width="1" stroke-opacity="1" stroke-miterlimit="4"/><path stroke-linecap="butt" transform="matrix(-3.423484, 1.471741, -1.467142, -3.412786, 69.820224, 213.311555)" fill="none" stroke-linejoin="miter" d="M 0.0000783709 -0.000242992 L 9.210311 -0.000128781 " stroke="#f3eff5" stroke-width="1" stroke-opacity="1" stroke-miterlimit="4"/><path stroke-linecap="butt" transform="matrix(-3.423484, 1.471741, -1.467142, -3.412786, 25.45117, 232.385635)" fill-opacity="1" fill="#f3eff5" fill-rule="nonzero" stroke-linejoin="miter" d="M -0.500424 0.00020592 C -0.500397 0.0986529 -0.509315 0.196676 -0.528692 0.292478 C -0.548483 0.389245 -0.575978 0.482691 -0.613931 0.573915 C -0.651885 0.66514 -0.698091 0.751661 -0.752551 0.833478 C -0.807012 0.915295 -0.869311 0.991442 -0.939036 1.060953 C -1.008761 1.130464 -1.084534 1.192789 -1.166904 1.246545 C -1.248725 1.301683 -1.334804 1.348118 -1.426103 1.385434 C -1.516852 1.424131 -1.611031 1.452192 -1.707127 1.471415 C -1.804187 1.490222 -1.901786 1.49964 -1.999925 1.499668 C -2.098065 1.499696 -2.195781 1.490749 -2.292246 1.470897 C -2.389126 1.45201 -2.482828 1.423047 -2.574182 1.385941 C -2.665121 1.347868 -2.751372 1.301517 -2.832933 1.246886 C -2.915457 1.19184 -2.990818 1.130726 -3.061075 1.060368 C -3.130369 0.990424 -3.192912 0.91538 -3.246915 0.833717 C -3.301881 0.751639 -3.34817 0.665291 -3.385369 0.573706 C -3.422982 0.483087 -3.452333 0.389164 -3.471496 0.292766 C -3.490658 0.196369 -3.500046 0.0984637 -3.500074 0.0000167285 C -3.500102 -0.0984303 -3.490221 -0.196038 -3.471393 -0.293221 C -3.452016 -0.389023 -3.423144 -0.483019 -3.385191 -0.574244 C -3.348614 -0.664917 -3.302407 -0.751438 -3.246984 -0.83284 C -3.19211 -0.915623 -3.130225 -0.990804 -3.0605 -1.060315 C -2.990775 -1.129826 -2.915002 -1.192151 -2.833181 -1.247289 C -2.75136 -1.302427 -2.664732 -1.34748 -2.573982 -1.386177 C -2.482683 -1.423493 -2.389468 -1.45197 -2.292408 -1.470777 C -2.196312 -1.489999 -2.098299 -1.500383 -2.00016 -1.500411 C -1.901057 -1.500024 -1.803755 -1.490111 -1.706875 -1.471225 C -1.611373 -1.451787 -1.517256 -1.423791 -1.426317 -1.385718 C -1.334963 -1.348612 -1.248713 -1.30226 -1.166189 -1.247214 C -1.084627 -1.192583 -1.008718 -1.130088 -0.939424 -1.060145 C -0.869716 -0.991168 -0.807586 -0.915157 -0.752621 -0.833079 C -0.698618 -0.751417 -0.652329 -0.665068 -0.613753 -0.574034 C -0.576139 -0.483415 -0.548166 -0.388941 -0.529003 -0.292544 C -0.509841 -0.196146 -0.500452 -0.0982411 -0.500424 0.00020592 Z M -0.500424 0.00020592 " stroke="#f3eff5" stroke-width="1" stroke-opacity="1" stroke-miterlimit="4"/><path stroke-linecap="butt" transform="matrix(-1.136071, 3.547814, -3.537826, -1.132872, 151.180467, 108.873258)" fill="none" stroke-linejoin="miter" d="M 0.000509301 0.0000568575 L 18.38983 -0.000209893 " stroke="#f3eff5" stroke-width="1" stroke-opacity="1" stroke-miterlimit="4"/><path stroke-linecap="butt" transform="matrix(-1.136071, 3.547814, -3.537826, -1.132872, 126.028136, 187.420972)" fill-opacity="1" fill="#f3eff5" fill-rule="nonzero" stroke-linejoin="miter" d="M -0.499771 -0.000493433 C -0.499951 0.0989369 -0.509719 0.195925 -0.528436 0.292475 C -0.548151 0.389345 -0.576455 0.483453 -0.614668 0.574118 C -0.651561 0.665463 -0.698004 0.751042 -0.753036 0.833858 C -0.807388 0.915352 -0.870291 0.990758 -0.939427 1.060437 C -1.008563 1.130116 -1.084572 1.192065 -1.167133 1.247284 C -1.248696 1.302183 -1.335133 1.348711 -1.425768 1.385544 C -1.517081 1.4237 -1.610593 1.451521 -1.707662 1.47165 C -1.804053 1.490458 -1.901324 1.499611 -2.000154 1.500431 C -2.098306 1.49993 -2.19602 1.490455 -2.292618 1.470684 C -2.388896 1.451915 -2.482738 1.42353 -2.574146 1.385531 C -2.665235 1.348533 -2.751571 1.30228 -2.833155 1.246772 C -2.915418 1.192586 -2.991291 1.130828 -3.061094 1.060496 C -3.130577 0.991164 -3.192351 0.914941 -3.247095 0.833149 C -3.30184 0.751356 -3.348236 0.664674 -3.385965 0.574104 C -3.423693 0.483535 -3.451755 0.388757 -3.471508 0.292415 C -3.490263 0.195753 -3.500389 0.098528 -3.499889 0.0000990815 C -3.500387 -0.0980091 -3.48994 -0.19632 -3.471224 -0.292869 C -3.452507 -0.389419 -3.423883 -0.482525 -3.385991 -0.574192 C -3.347778 -0.664856 -3.301656 -0.751436 -3.247303 -0.83293 C -3.192271 -0.915746 -3.130367 -0.990832 -3.060232 -1.060831 C -2.991096 -1.13051 -2.915088 -1.192459 -2.833525 -1.247358 C -2.751963 -1.302257 -2.665205 -1.347783 -2.573892 -1.385939 C -2.483577 -1.423774 -2.389066 -1.451915 -2.292676 -1.470722 C -2.196606 -1.490531 -2.098336 -1.500005 -2.000184 -1.499504 C -1.901353 -1.500324 -1.803639 -1.490849 -1.707042 -1.471078 C -1.610764 -1.452309 -1.516921 -1.423925 -1.425513 -1.385925 C -1.335104 -1.347605 -1.248767 -1.301352 -1.166504 -1.247167 C -1.08524 -1.19266 -1.009047 -1.1299 -0.939564 -1.060569 C -0.870081 -0.991238 -0.807309 -0.915336 -0.752564 -0.833543 C -0.69782 -0.75175 -0.651423 -0.665068 -0.614693 -0.574178 C -0.576645 -0.482607 -0.547904 -0.389151 -0.52915 -0.292489 C -0.509397 -0.196147 -0.500269 -0.0986016 -0.499771 -0.000493433 Z M -0.499771 -0.000493433 " stroke="#f3eff5" stroke-width="1" stroke-opacity="1" stroke-miterlimit="4"/><path stroke-linecap="butt" transform="matrix(-3.541358, 1.087479, -1.090477, -3.551122, 66.31807, 194.720286)" fill="none" stroke-linejoin="miter" d="M 0.00030768 0.000526677 L 13.299796 -0.000017486 " stroke="#f3eff5" stroke-width="1" stroke-opacity="1" stroke-miterlimit="4"/><path stroke-linecap="butt" transform="matrix(-3.541358, 1.087479, -1.090477, -3.551122, 5.939656, 213.261251)" fill-opacity="1" fill="#f3eff5" fill-rule="nonzero" stroke-linejoin="miter" d="M -0.500057 -0.000366206 C -0.499692 0.0987462 -0.509715 0.195777 -0.528422 0.292349 C -0.548446 0.389617 -0.576225 0.483411 -0.614083 0.574118 C -0.651941 0.664824 -0.698562 0.751748 -0.752318 0.833186 C -0.807392 0.915321 -0.869291 0.990966 -0.939333 1.060817 C -1.009376 1.130668 -1.084617 1.192326 -1.166684 1.247495 C -1.248442 1.301658 -1.33439 1.347938 -1.425537 1.386026 C -1.516684 1.424114 -1.611402 1.452308 -1.707677 1.471225 C -1.803951 1.490143 -1.901781 1.499784 -2.000159 1.500458 C -2.098227 1.500126 -2.195525 1.49013 -2.292363 1.471475 C -2.388892 1.451814 -2.482635 1.423107 -2.573901 1.386358 C -2.664858 1.348604 -2.752021 1.302111 -2.833375 1.247498 C -2.915736 1.192576 -2.99128 1.129841 -3.060315 1.0603 C -3.130359 0.99045 -3.192187 0.915416 -3.247508 0.833574 C -3.301821 0.752042 -3.347919 0.665324 -3.386111 0.574428 C -3.422987 0.482835 -3.451568 0.389382 -3.471546 0.293064 C -3.490206 0.196049 -3.499874 0.0984883 -3.500549 0.000381177 C -3.499907 -0.0984225 -3.490891 -0.195762 -3.470867 -0.29303 C -3.45216 -0.389602 -3.423374 -0.483087 -3.385516 -0.573794 C -3.348665 -0.664809 -3.302045 -0.751733 -3.247281 -0.832863 C -3.192207 -0.914998 -3.130308 -0.990642 -3.060265 -1.060493 C -2.991231 -1.130653 -2.914981 -1.192003 -2.832914 -1.247171 C -2.751157 -1.301334 -2.664899 -1.34862 -2.574062 -1.385702 C -2.482915 -1.42379 -2.389204 -1.452293 -2.29293 -1.47121 C -2.196655 -1.490128 -2.098826 -1.499769 -1.99944 -1.500134 C -1.901372 -1.499802 -1.803764 -1.490811 -1.707235 -1.471151 C -1.610707 -1.45149 -1.516655 -1.423788 -1.425698 -1.386034 C -1.334741 -1.34828 -1.248585 -1.302096 -1.166224 -1.247174 C -1.084871 -1.192561 -1.009017 -1.130831 -0.938974 -1.060982 C -0.869938 -0.99144 -0.807411 -0.915092 -0.753099 -0.833559 C -0.697778 -0.751718 -0.65168 -0.665001 -0.614495 -0.574413 C -0.576302 -0.483517 -0.54803 -0.389059 -0.529061 -0.293049 C -0.509392 -0.195726 -0.499725 -0.0981647 -0.500057 -0.000366206 Z M -0.500057 -0.000366206 " stroke="#f3eff5" stroke-width="1" stroke-opacity="1" stroke-miterlimit="4"/><path stroke-linecap="butt" transform="matrix(-3.652787, -0.74493, 0.742295, -3.639864, 96.279279, 200.7849)" fill="none" stroke-linejoin="miter" d="M 0.000494917 -0.000171579 L 6.815779 0.000161901 " stroke="#f3eff5" stroke-width="1" stroke-opacity="1" stroke-miterlimit="4"/><path stroke-linecap="butt" transform="matrix(-3.652787, -0.74493, 0.742295, -3.639864, 57.685662, 192.914324)" fill-opacity="1" fill="#f3eff5" fill-rule="nonzero" stroke-linejoin="miter" d="M -0.499824 0.000412649 C -0.500278 0.0981654 -0.509364 0.195538 -0.529135 0.292952 C -0.54809 0.389125 -0.576095 0.482858 -0.614178 0.574361 C -0.651444 0.664623 -0.69797 0.751414 -0.752939 0.833494 C -0.807909 0.915574 -0.869477 0.991493 -0.938881 1.060429 C -1.009101 1.130606 -1.085313 1.192351 -1.166071 1.247513 C -1.248065 1.301856 -1.334814 1.348585 -1.42571 1.385432 C -1.517423 1.42352 -1.611021 1.452334 -1.707739 1.471055 C -1.804248 1.490806 -1.901824 1.500044 -2.000258 1.499799 C -2.098691 1.499554 -2.19572 1.490435 -2.292579 1.471624 C -2.389648 1.451782 -2.483049 1.423677 -2.574228 1.385459 C -2.665198 1.348271 -2.751682 1.30158 -2.833262 1.247446 C -2.915052 1.192281 -2.990702 1.130494 -3.060422 1.061054 C -3.13035 0.990584 -3.192694 0.915342 -3.246844 0.833057 C -3.30202 0.750982 -3.348375 0.664956 -3.386119 0.573947 C -3.423862 0.482939 -3.451547 0.388799 -3.47102 0.292977 C -3.490701 0.196126 -3.499906 0.0982036 -3.499662 -0.00057951 C -3.500235 -0.0981222 -3.490122 -0.195705 -3.471377 -0.292909 C -3.452423 -0.389082 -3.423391 -0.483025 -3.386334 -0.574317 C -3.348042 -0.664789 -3.301516 -0.751581 -3.247573 -0.833451 C -3.192604 -0.915531 -3.1298 -0.990629 -3.060605 -1.060596 C -2.991411 -1.130563 -2.915199 -1.192308 -2.833415 -1.24768 C -2.751421 -1.302022 -2.664463 -1.347722 -2.573776 -1.385599 C -2.483089 -1.423476 -2.389492 -1.452291 -2.292774 -1.471012 C -2.196265 -1.490763 -2.098689 -1.500001 -2.000255 -1.499756 C -1.901822 -1.49951 -1.803766 -1.490602 -1.707933 -1.471581 C -1.610864 -1.451739 -1.517463 -1.423634 -1.426284 -1.385416 C -1.335315 -1.348228 -1.248831 -1.301536 -1.166224 -1.247612 C -1.084434 -1.192448 -1.008784 -1.130661 -0.939064 -1.061221 C -0.869136 -0.990751 -0.807819 -0.915299 -0.752642 -0.833224 C -0.698492 -0.750939 -0.652137 -0.664913 -0.614394 -0.573904 C -0.576651 -0.482895 -0.547939 -0.388965 -0.528466 -0.293144 C -0.509812 -0.196083 -0.49958 -0.0983704 -0.499824 0.000412649 Z M -0.499824 0.000412649 " stroke="#f3eff5" stroke-width="1" stroke-opacity="1" stroke-miterlimit="4"/><path stroke-linecap="butt" transform="matrix(-3.587289, -0.862414, 0.868324, -3.611873, 66.316575, 194.804266)" fill="none" stroke-linejoin="miter" d="M 0.0000177936 -0.000120811 L 7.731334 -0.0000167847 " stroke="#f3eff5" stroke-width="1" stroke-opacity="1" stroke-miterlimit="4"/><path stroke-linecap="butt" transform="matrix(-3.587289, -0.862414, 0.868324, -3.611873, 25.1304, 184.902758)" fill-opacity="1" fill="#f3eff5" fill-rule="nonzero" stroke-linejoin="miter" d="M -0.500335 0.000615294 C -0.499432 0.0988164 -0.509566 0.196408 -0.528677 0.292899 C -0.547789 0.38939 -0.576373 0.482736 -0.614183 0.573958 C -0.651992 0.66518 -0.698492 0.751988 -0.752901 0.833114 C -0.807063 0.915262 -0.869381 0.990706 -0.939608 1.060468 C -1.008805 1.129984 -1.08513 1.19255 -1.166522 1.247674 C -1.248162 1.301775 -1.33487 1.348435 -1.426112 1.385362 C -1.517106 1.423311 -1.610328 1.452059 -1.707054 1.470828 C -1.803532 1.49062 -1.901456 1.499942 -2.000577 1.499816 C -2.098422 1.500467 -2.195653 1.490157 -2.292806 1.471175 C -2.388928 1.451948 -2.482913 1.423559 -2.573731 1.385761 C -2.664549 1.347963 -2.751952 1.301779 -2.833634 1.24774 C -2.915564 1.192679 -2.990495 1.130539 -3.060735 1.06079 C -3.129946 0.990796 -3.19294 0.914991 -3.247412 0.833906 C -3.302132 0.7518 -3.348082 0.665436 -3.385509 0.573793 C -3.423719 0.483418 -3.451882 0.389563 -3.471027 0.292473 C -3.489925 0.196406 -3.499558 0.0981259 -3.500461 -0.0000752385 C -3.500335 -0.0985222 -3.490201 -0.196114 -3.47109 -0.292605 C -3.451978 -0.389096 -3.423641 -0.483464 -3.385585 -0.573663 C -3.347775 -0.664885 -3.302304 -0.751448 -3.247113 -0.833842 C -3.192704 -0.914968 -3.130633 -0.991434 -3.060407 -1.061196 C -2.991209 -1.130712 -2.915667 -1.19201 -2.833245 -1.247379 C -2.751605 -1.301481 -2.664897 -1.34814 -2.573902 -1.38609 C -2.482908 -1.424039 -2.389439 -1.451765 -2.292961 -1.471556 C -2.196235 -1.490326 -2.098311 -1.499648 -2.000467 -1.500299 C -1.901345 -1.500173 -1.804114 -1.489863 -1.706961 -1.470881 C -1.610839 -1.451654 -1.516854 -1.423264 -1.426036 -1.385466 C -1.335218 -1.347668 -1.249092 -1.302261 -1.167162 -1.2472 C -1.084203 -1.192385 -1.009272 -1.130245 -0.939032 -1.060496 C -0.869822 -0.990501 -0.808104 -0.915473 -0.752355 -0.833612 C -0.697635 -0.751505 -0.651685 -0.665142 -0.614258 -0.573499 C -0.576048 -0.483124 -0.547886 -0.389269 -0.52874 -0.292179 C -0.509842 -0.196111 -0.500456 -0.0988541 -0.500335 0.000615294 Z M -0.500335 0.000615294 " stroke="#f3eff5" stroke-width="1" stroke-opacity="1" stroke-miterlimit="4"/><path stroke-linecap="butt" transform="matrix(-3.726794, 0.188251, -0.187405, -3.710053, 130.433623, 178.655287)" fill="none" stroke-linejoin="miter" d="M 0.0000209408 -0.0002585 L 12.178515 -0.000353911 " stroke="#f3eff5" stroke-width="1" stroke-opacity="1" stroke-miterlimit="4"/><path stroke-linecap="butt" transform="matrix(-3.726794, 0.188251, -0.187405, -3.710053, 71.069736, 181.653926)" fill-opacity="1" fill="#f3eff5" fill-rule="nonzero" stroke-linejoin="miter" d="M -0.50014 0.00031816 C -0.499824 0.0982523 -0.509962 0.195656 -0.528465 0.292635 C -0.548013 0.389561 -0.576812 0.482859 -0.61387 0.573633 C -0.652025 0.665403 -0.698281 0.751498 -0.752689 0.832968 C -0.80715 0.915488 -0.869658 0.991283 -0.939167 1.060405 C -1.00873 1.130577 -1.085188 1.191976 -1.166557 1.246809 C -1.248971 1.301589 -1.335145 1.347754 -1.426176 1.386304 C -1.517155 1.423803 -1.610795 1.451691 -1.707149 1.471018 C -1.803502 1.490345 -1.901472 1.500114 -2.000011 1.500379 C -2.098498 1.499593 -2.195517 1.490459 -2.293054 1.470769 C -2.389597 1.452183 -2.483522 1.423201 -2.573887 1.385976 C -2.665245 1.347648 -2.751007 1.302234 -2.833156 1.247528 C -2.915305 1.192821 -2.990759 1.130031 -3.060616 1.060155 C -3.130526 0.991329 -3.192748 0.915523 -3.247334 0.833787 C -3.301868 0.751001 -3.347879 0.665488 -3.386255 0.574046 C -3.423586 0.482657 -3.452447 0.389592 -3.471687 0.292803 C -3.489882 0.196067 -3.49966 0.0987061 -3.499923 -0.00027821 C -3.500239 -0.0982123 -3.490101 -0.195616 -3.471598 -0.292595 C -3.45205 -0.389521 -3.423251 -0.48282 -3.386193 -0.573593 C -3.348038 -0.665363 -3.301782 -0.751458 -3.247374 -0.832928 C -3.192913 -0.915448 -3.130405 -0.991243 -3.060896 -1.060365 C -2.991333 -1.130537 -2.914822 -1.192986 -2.833506 -1.246769 C -2.751092 -1.301549 -2.664918 -1.347714 -2.573887 -1.386264 C -2.482908 -1.423763 -2.389268 -1.451651 -2.292914 -1.470978 C -2.196561 -1.490305 -2.098591 -1.500074 -2.000052 -1.500339 C -1.901565 -1.499553 -1.8035 -1.490366 -1.707009 -1.470729 C -1.610466 -1.452143 -1.516541 -1.423161 -1.426176 -1.385936 C -1.334818 -1.347609 -1.248011 -1.302141 -1.166907 -1.247488 C -1.084758 -1.192781 -1.009304 -1.129991 -0.939394 -1.061165 C -0.869537 -0.991289 -0.807315 -0.915483 -0.752729 -0.833747 C -0.698195 -0.750961 -0.652184 -0.665448 -0.613808 -0.574006 C -0.576477 -0.482617 -0.547616 -0.389552 -0.528376 -0.292763 C -0.509136 -0.195974 -0.500403 -0.0986662 -0.50014 0.00031816 Z M -0.50014 0.00031816 " stroke="#f3eff5" stroke-width="1" stroke-opacity="1" stroke-miterlimit="4"/><path stroke-linecap="butt" transform="matrix(-3.47631, -1.332926, 1.329951, -3.46855, 130.155463, 180.145737)" fill="none" stroke-linejoin="miter" d="M -0.0000813053 0.000378951 L 8.825103 -0.00008283 " stroke="#f3eff5" stroke-width="1" stroke-opacity="1" stroke-miterlimit="4"/><path stroke-linecap="butt" transform="matrix(-3.47631, -1.332926, 1.329951, -3.46855, 86.441015, 163.384249)" fill-opacity="1" fill="#f3eff5" fill-rule="nonzero" stroke-linejoin="miter" d="M -0.500136 0.000032546 C -0.499785 0.0978762 -0.509378 0.196163 -0.528686 0.292551 C -0.547993 0.38894 -0.576037 0.483055 -0.614171 0.574291 C -0.651326 0.66515 -0.697968 0.751772 -0.753117 0.833779 C -0.807287 0.91541 -0.869359 0.991069 -0.939335 1.060755 C -1.009311 1.130441 -1.084627 1.192044 -1.166867 1.247298 C -1.248127 1.302175 -1.335102 1.347987 -1.426062 1.386321 C -1.517398 1.423672 -1.611135 1.451811 -1.707273 1.470737 C -1.80439 1.490039 -1.901574 1.500357 -1.999574 1.499727 C -2.098555 1.499474 -2.196246 1.490842 -2.29242 1.471491 C -2.389573 1.452516 -2.482874 1.423051 -2.573531 1.385813 C -2.665542 1.34797 -2.751595 1.302206 -2.833419 1.246933 C -2.914868 1.192643 -2.991338 1.130808 -3.060868 1.060675 C -3.130399 0.990543 -3.192844 0.915435 -3.246619 0.833617 C -3.30175 0.751193 -3.348063 0.665381 -3.385332 0.573841 C -3.42358 0.482677 -3.451655 0.388731 -3.471518 0.292755 C -3.490402 0.196402 -3.499717 0.0986242 -3.500444 -0.000201256 C -3.499816 -0.0984214 -3.489848 -0.195726 -3.470915 -0.293097 C -3.451608 -0.389485 -3.423188 -0.482619 -3.386034 -0.573478 C -3.347899 -0.664713 -3.302237 -0.750959 -3.247088 -0.832966 C -3.191939 -0.914974 -3.129866 -0.990632 -3.061245 -1.060924 C -2.991269 -1.13061 -2.914974 -1.192589 -2.833714 -1.247467 C -2.751099 -1.301739 -2.665479 -1.348156 -2.574143 -1.385507 C -2.483183 -1.423841 -2.389446 -1.45198 -2.292328 -1.471282 C -2.19619 -1.490208 -2.098631 -1.499544 -2.000026 -1.500272 C -1.901046 -1.500019 -1.803959 -1.490028 -1.706805 -1.471054 C -1.610631 -1.451703 -1.516727 -1.423597 -1.425695 -1.385377 C -1.335038 -1.348139 -1.24861 -1.301393 -1.167161 -1.247102 C -1.084357 -1.192206 -1.008867 -1.129995 -0.939712 -1.060844 C -0.869202 -0.991088 -0.807737 -0.915603 -0.752606 -0.83318 C -0.697851 -0.751738 -0.652142 -0.664568 -0.614269 -0.574386 C -0.576021 -0.483223 -0.547946 -0.389276 -0.529062 -0.292923 C -0.509803 -0.195589 -0.499508 -0.0981876 -0.500136 0.000032546 Z M -0.500136 0.000032546 " stroke="#f3eff5" stroke-width="1" stroke-opacity="1" stroke-miterlimit="4"/><path stroke-linecap="butt" transform="matrix(-0.169871, 3.708746, -3.710892, -0.16997, 108.355075, 195.292338)" fill="none" stroke-linejoin="miter" d="M 0.000164953 -0.000113725 L 12.461212 -0.0000024016 " stroke="#f3eff5" stroke-width="1" stroke-opacity="1" stroke-miterlimit="4"/><path stroke-linecap="butt" transform="matrix(-0.169871, 3.708746, -3.710892, -0.16997, 105.601301, 255.414529)" fill-opacity="1" fill="#f3eff5" fill-rule="nonzero" stroke-linejoin="miter" d="M -0.500436 -0.000320607 C -0.500115 0.0986133 -0.509349 0.195879 -0.529143 0.292576 C -0.547885 0.389225 -0.576231 0.483155 -0.614181 0.574367 C -0.652179 0.664528 -0.697679 0.751875 -0.752927 0.833353 C -0.807124 0.914782 -0.86997 0.991344 -0.93946 1.060842 C -1.008949 1.130339 -1.085082 1.192772 -1.166855 1.247043 C -1.24858 1.302363 -1.334942 1.348422 -1.425894 1.38627 C -1.516894 1.423068 -1.610381 1.451558 -1.707455 1.470739 C -1.803477 1.489872 -1.902035 1.499646 -1.999975 1.499919 C -2.098966 1.50024 -2.196337 1.48996 -2.293041 1.471229 C -2.388695 1.452449 -2.482728 1.423069 -2.573944 1.386192 C -2.665209 1.348264 -2.751604 1.301692 -2.83308 1.247526 C -2.915656 1.192358 -2.991163 1.13055 -3.0607 1.061101 C -3.130286 0.990601 -3.192708 0.915563 -3.247009 0.833837 C -3.30241 0.751109 -3.348496 0.664797 -3.385315 0.573849 C -3.423185 0.48295 -3.451691 0.389517 -3.470883 0.2925 C -3.490027 0.196533 -3.499807 0.098032 -3.50008 0.00014856 C -3.500401 -0.0987853 -3.490116 -0.196099 -3.471373 -0.292748 C -3.45158 -0.389445 -3.423234 -0.483375 -3.386287 -0.573488 C -3.348337 -0.6647 -3.301738 -0.751045 -3.247589 -0.833525 C -3.192341 -0.915002 -3.130546 -0.991516 -3.061056 -1.061014 C -2.990516 -1.130559 -2.915434 -1.192944 -2.833661 -1.247215 C -2.751888 -1.301485 -2.664523 -1.348642 -2.573523 -1.38544 C -2.482571 -1.423288 -2.389084 -1.451778 -2.293061 -1.470911 C -2.195988 -1.490092 -2.098481 -1.499819 -1.99949 -1.500139 C -1.90155 -1.500412 -1.804179 -1.490132 -1.707475 -1.471401 C -1.610722 -1.451619 -1.516738 -1.423289 -1.425473 -1.385361 C -1.335307 -1.348436 -1.248913 -1.301864 -1.166337 -1.246696 C -1.084861 -1.19253 -1.009353 -1.130722 -0.939768 -1.060223 C -0.869179 -0.990822 -0.807809 -0.915735 -0.752408 -0.833007 C -0.698106 -0.751281 -0.65202 -0.664969 -0.61415 -0.57407 C -0.57628 -0.48317 -0.547774 -0.389737 -0.528582 -0.29272 C -0.50939 -0.195703 -0.499658 -0.0982522 -0.500436 -0.000320607 Z M -0.500436 -0.000320607 " stroke="#f3eff5" stroke-width="1" stroke-opacity="1" stroke-miterlimit="4"/><path stroke-linecap="butt" transform="matrix(1.174405, 3.542489, -3.526066, 1.16896, 150.187669, 112.919216)" fill="none" stroke-linejoin="miter" d="M -0.000331356 -0.0000624523 L 14.367754 -0.000361049 " stroke="#f3eff5" stroke-width="1" stroke-opacity="1" stroke-miterlimit="4"/><path stroke-linecap="butt" transform="matrix(1.174405, 3.542489, -3.526066, 1.16896, 171.465474, 177.101822)" fill-opacity="1" fill="#f3eff5" fill-rule="nonzero" stroke-linejoin="miter" d="M -0.499577 -0.0000389278 C -0.500079 0.0983899 -0.509187 0.196168 -0.52889 0.292633 C -0.547599 0.389429 -0.576242 0.482916 -0.614157 0.574424 C -0.651742 0.664933 -0.697939 0.751466 -0.75242 0.833024 C -0.807229 0.915581 -0.869662 0.991167 -0.939056 1.061111 C -1.009113 1.129727 -1.084807 1.192034 -1.166803 1.246703 C -1.248799 1.301372 -1.334779 1.348067 -1.425408 1.385458 C -1.51736 1.423517 -1.610651 1.452268 -1.707269 1.471048 C -1.804215 1.490826 -1.901178 1.500628 -2.000144 1.499793 C -2.098446 1.500287 -2.195441 1.490138 -2.292782 1.471011 C -2.38913 1.452215 -2.483177 1.423107 -2.574589 1.386014 C -2.664679 1.348254 -2.751804 1.30151 -2.832984 1.246776 C -2.915488 1.19271 -2.990723 1.129986 -3.060344 1.060269 C -3.130293 0.991551 -3.192311 0.915504 -3.246727 0.833126 C -3.301472 0.751747 -3.34795 0.665366 -3.386162 0.573984 C -3.423381 0.482933 -3.451998 0.389207 -3.47102 0.293138 C -3.490707 0.19574 -3.500463 0.0983251 -3.499962 -0.000103732 C -3.49946 -0.0985326 -3.490351 -0.196311 -3.470649 -0.292776 C -3.45194 -0.389572 -3.423296 -0.483059 -3.385711 -0.573568 C -3.347796 -0.665075 -3.301599 -0.751608 -3.247119 -0.833167 C -3.192309 -0.915723 -3.129876 -0.99131 -3.060812 -1.060256 C -2.991419 -1.130201 -2.915724 -1.192507 -2.833729 -1.247176 C -2.751733 -1.301845 -2.664759 -1.348209 -2.57413 -1.385601 C -2.483172 -1.423991 -2.389216 -1.451412 -2.29227 -1.471191 C -2.195652 -1.489971 -2.09869 -1.499773 -2.000388 -1.500267 C -1.901422 -1.499432 -1.804097 -1.490281 -1.70775 -1.471485 C -1.610409 -1.452358 -1.517355 -1.423581 -1.426272 -1.385489 C -1.33486 -1.348396 -1.248728 -1.301984 -1.166554 -1.246919 C -1.085373 -1.192185 -1.008815 -1.130128 -0.939195 -1.060412 C -0.869574 -0.990695 -0.807227 -0.915647 -0.752811 -0.833269 C -0.698067 -0.75189 -0.651917 -0.664511 -0.61437 -0.574458 C -0.576158 -0.483075 -0.547541 -0.38935 -0.528848 -0.292282 C -0.509825 -0.196213 -0.500068 -0.0987987 -0.499577 -0.0000389278 Z M -0.499577 -0.0000389278 " stroke="#f3eff5" stroke-width="1" stroke-opacity="1" stroke-miterlimit="4"/><path stroke-linecap="butt" transform="matrix(-1.320708, 3.477076, -3.472711, -1.319049, 148.449735, 196.867777)" fill="none" stroke-linejoin="miter" d="M -0.0000987635 0.000186357 L 18.624163 0.000315873 " stroke="#f3eff5" stroke-width="1" stroke-opacity="1" stroke-miterlimit="4"/><path stroke-linecap="butt" transform="matrix(-1.320708, 3.477076, -3.472711, -1.319049, 118.900631, 274.662779)" fill-opacity="1" fill="#f3eff5" fill-rule="nonzero" stroke-linejoin="miter" d="M -0.499758 -0.000528601 C -0.500322 0.0986721 -0.509623 0.195571 -0.528879 0.292882 C -0.548508 0.38921 -0.576874 0.483236 -0.61435 0.573978 C -0.651826 0.664719 -0.697804 0.75082 -0.752891 0.833637 C -0.807369 0.915097 -0.869739 0.99056 -0.939629 1.061008 C -1.00891 1.130101 -1.085102 1.192822 -1.166613 1.247443 C -1.248124 1.302065 -1.334955 1.348585 -1.426497 1.38565 C -1.516684 1.423323 -1.610228 1.45215 -1.7075 1.471146 C -1.803791 1.489769 -1.901102 1.499781 -1.999805 1.500199 C -2.098881 1.499634 -2.195658 1.490321 -2.292847 1.471041 C -2.389054 1.451387 -2.482962 1.422985 -2.574571 1.385835 C -2.665199 1.348312 -2.751192 1.302277 -2.833904 1.247121 C -2.915262 1.192574 -2.99063 1.130125 -3.060618 1.061131 C -3.129996 0.99078 -3.192266 0.915475 -3.247192 0.832879 C -3.301744 0.751265 -3.347834 0.665308 -3.385833 0.574024 C -3.423832 0.482741 -3.451641 0.388706 -3.471222 0.292668 C -3.489822 0.196256 -3.499821 0.098823 -3.500239 -0.00000423627 C -3.500283 -0.0978485 -3.490373 -0.196104 -3.470744 -0.292432 C -3.45247 -0.389369 -3.423731 -0.482412 -3.385646 -0.57451 C -3.34817 -0.665252 -3.302193 -0.751353 -3.246733 -0.833187 C -3.192627 -0.91563 -3.130257 -0.991093 -3.060976 -1.060185 C -2.991086 -1.130633 -2.915503 -1.191999 -2.83301 -1.246993 C -2.751499 -1.301614 -2.664668 -1.348135 -2.574481 -1.385809 C -2.483312 -1.423856 -2.389396 -1.451699 -2.292496 -1.471679 C -2.196205 -1.490302 -2.098895 -1.500314 -1.999819 -1.499749 C -1.901115 -1.500167 -1.803965 -1.489871 -1.707149 -1.471573 C -1.610943 -1.45192 -1.517034 -1.423518 -1.426407 -1.385995 C -1.334424 -1.347862 -1.248431 -1.301827 -1.167073 -1.24728 C -1.084361 -1.192124 -1.009366 -1.130658 -0.939006 -1.06068 C -0.87 -0.991312 -0.807357 -0.915025 -0.752805 -0.833411 C -0.698252 -0.751798 -0.651789 -0.664858 -0.614163 -0.574557 C -0.576164 -0.483273 -0.548355 -0.389239 -0.528774 -0.293201 C -0.509802 -0.195806 -0.499802 -0.0983729 -0.499758 -0.000528601 Z M -0.499758 -0.000528601 " stroke="#f3eff5" stroke-width="1" stroke-opacity="1" stroke-miterlimit="4"/><path stroke-linecap="butt" transform="matrix(-2.238046, 2.973324, -2.967963, -2.234011, 167.949177, 171.79027)" fill="none" stroke-linejoin="miter" d="M -0.000265963 0.000186515 L 6.634137 0.0000377538 " stroke="#f3eff5" stroke-width="1" stroke-opacity="1" stroke-miterlimit="4"/><path stroke-linecap="butt" transform="matrix(-2.238046, 2.973324, -2.967963, -2.234011, 144.708657, 202.666126)" fill-opacity="1" fill="#f3eff5" fill-rule="nonzero" stroke-linejoin="miter" d="M -0.500024 -0.000132033 C -0.499644 0.0982918 -0.508922 0.196101 -0.528489 0.292457 C -0.548056 0.388812 -0.577073 0.483081 -0.613863 0.573998 C -0.652124 0.664707 -0.698157 0.752065 -0.753019 0.832919 C -0.808088 0.915245 -0.869677 0.990642 -0.939463 1.060376 C -1.009249 1.130109 -1.084717 1.192281 -1.166704 1.247524 C -1.248483 1.301294 -1.335313 1.348344 -1.425308 1.385935 C -1.516772 1.423318 -1.610771 1.452083 -1.707096 1.470757 C -1.80426 1.490064 -1.90165 1.500328 -2.000528 1.499868 C -2.098774 1.500249 -2.195569 1.490322 -2.292589 1.471352 C -2.38877 1.45175 -2.483076 1.424153 -2.573622 1.385823 C -2.665007 1.348126 -2.751369 1.301377 -2.832915 1.247048 C -2.915093 1.19188 -2.991193 1.130812 -3.0608 1.0609 C -3.130408 0.990988 -3.192468 0.915384 -3.247611 0.833249 C -3.302124 0.751954 -3.347618 0.665176 -3.385773 0.574178 C -3.423927 0.483181 -3.452009 0.389852 -3.471281 0.292513 C -3.489921 0.196013 -3.500167 0.0984479 -3.500547 0.0000240871 C -3.500088 -0.0990321 -3.490179 -0.196002 -3.471243 -0.293197 C -3.451676 -0.389552 -3.423498 -0.483189 -3.385237 -0.573898 C -3.348447 -0.664815 -3.301782 -0.751333 -3.247552 -0.833027 C -3.192482 -0.915353 -3.130055 -0.991383 -3.061107 -1.060484 C -2.991321 -1.130217 -2.915015 -1.193021 -2.833236 -1.246792 C -2.751249 -1.302035 -2.665258 -1.348452 -2.573793 -1.385835 C -2.48296 -1.424058 -2.3898 -1.452191 -2.292636 -1.471498 C -2.19631 -1.490172 -2.098289 -1.499595 -2.000043 -1.499976 C -1.901797 -1.500357 -1.803532 -1.490222 -1.707351 -1.47062 C -1.61033 -1.45165 -1.516863 -1.42342 -1.425478 -1.385723 C -1.335564 -1.348234 -1.248363 -1.302117 -1.166186 -1.246949 C -1.084639 -1.19262 -1.008746 -1.13008 -0.939139 -1.060168 C -0.870163 -0.991096 -0.807472 -0.914652 -0.752959 -0.833357 C -0.697816 -0.751222 -0.651483 -0.665076 -0.614167 -0.573446 C -0.576643 -0.483289 -0.54793 -0.38912 -0.52929 -0.292621 C -0.509179 -0.195914 -0.500404 -0.0985558 -0.500024 -0.000132033 Z M -0.500024 -0.000132033 " stroke="#f3eff5" stroke-width="1" stroke-opacity="1" stroke-miterlimit="4"/><path stroke-linecap="butt" transform="matrix(1.095814, 3.534349, -3.548155, 1.100094, 149.177411, 196.86741)" fill="none" stroke-linejoin="miter" d="M -0.000187709 0.000401243 L 16.329526 0.000342795 " stroke="#f3eff5" stroke-width="1" stroke-opacity="1" stroke-miterlimit="4"/><path stroke-linecap="butt" transform="matrix(1.095814, 3.534349, -3.548155, 1.100094, 171.181002, 267.836023)" fill-opacity="1" fill="#f3eff5" fill-rule="nonzero" stroke-linejoin="miter" d="M -0.499645 0.000189501 C -0.500244 0.0979867 -0.509847 0.196306 -0.528838 0.292827 C -0.547828 0.389348 -0.576902 0.482754 -0.614042 0.57367 C -0.652503 0.665279 -0.698092 0.751383 -0.752444 0.83368 C -0.807804 0.915666 -0.86998 0.991143 -0.939284 1.061116 C -1.009284 1.129773 -1.085091 1.192233 -1.166394 1.247491 C -1.248392 1.301433 -1.334877 1.348485 -1.425919 1.385322 C -1.517273 1.423163 -1.61016 1.451724 -1.706909 1.471386 C -1.803344 1.490043 -1.901625 1.500424 -1.999804 1.499828 C -2.098296 1.500235 -2.195678 1.489976 -2.292576 1.47106 C -2.389474 1.452143 -2.483246 1.423182 -2.574517 1.386187 C -2.665475 1.348187 -2.751603 1.30177 -2.8329 1.246937 C -2.915519 1.192797 -2.990979 1.129859 -3.061225 1.060825 C -3.13015 0.991097 -3.192853 0.915585 -3.247006 0.833905 C -3.302168 0.751915 -3.348082 0.665074 -3.386072 0.574074 C -3.424061 0.483075 -3.452421 0.389545 -3.470838 0.292481 C -3.490577 0.196109 -3.49999 0.098522 -3.5004 0.000413352 C -3.499488 -0.0983883 -3.490197 -0.195703 -3.471206 -0.292224 C -3.451903 -0.389749 -3.423838 -0.483467 -3.38569 -0.574072 C -3.34855 -0.664987 -3.301639 -0.751784 -3.2476 -0.833077 C -3.19224 -0.915063 -3.130065 -0.99054 -3.060761 -1.060513 C -2.991456 -1.130486 -2.915649 -1.192945 -2.833651 -1.246888 C -2.75134 -1.301834 -2.665167 -1.347882 -2.573813 -1.385723 C -2.483467 -1.423876 -2.389571 -1.452125 -2.293136 -1.470783 C -2.196387 -1.490445 -2.098419 -1.499822 -1.999928 -1.500229 C -1.901748 -1.499632 -1.804053 -1.490378 -1.707155 -1.471461 C -1.61057 -1.45154 -1.516486 -1.423584 -1.425528 -1.385584 C -1.335578 -1.347895 -1.248129 -1.302172 -1.166831 -1.247339 C -1.084525 -1.192195 -1.008753 -1.130261 -0.939828 -1.060533 C -0.869582 -0.991499 -0.807191 -0.914982 -0.753038 -0.833303 C -0.697877 -0.751312 -0.651649 -0.665475 -0.613973 -0.573472 C -0.576992 -0.482784 -0.547624 -0.388943 -0.528893 -0.292882 C -0.509467 -0.195506 -0.499741 -0.0989235 -0.499645 0.000189501 Z M -0.499645 0.000189501 " stroke="#f3eff5" stroke-width="1" stroke-opacity="1" stroke-miterlimit="4"/><path stroke-linecap="butt" transform="matrix(0.32509, 3.704294, -3.700559, 0.324762, 138.944659, 222.819006)" fill="none" stroke-linejoin="miter" d="M 0.000365428 -0.000144586 L 8.637949 -0.000307274 " stroke="#f3eff5" stroke-width="1" stroke-opacity="1" stroke-miterlimit="4"/><path stroke-linecap="butt" transform="matrix(0.32509, 3.704294, -3.700559, 0.324762, 142.971849, 268.707633)" fill-opacity="1" fill="#f3eff5" fill-rule="nonzero" stroke-linejoin="miter" d="M -0.500021 0.000189979 C -0.500191 0.0983444 -0.509778 0.195671 -0.528783 0.292171 C -0.547881 0.389718 -0.576121 0.483296 -0.614642 0.573858 C -0.652116 0.664513 -0.697687 0.75129 -0.752308 0.83305 C -0.807976 0.914717 -0.869463 0.990595 -0.938863 1.060501 C -1.00931 1.130314 -1.084345 1.192335 -1.166155 1.247428 C -1.24892 1.301381 -1.335228 1.347634 -1.426125 1.386094 C -1.51693 1.423507 -1.611186 1.452172 -1.707755 1.471134 C -1.804324 1.490096 -1.901113 1.499538 -2.000307 1.500324 C -2.098363 1.500155 -2.195592 1.490557 -2.29304 1.471441 C -2.389443 1.452416 -2.482834 1.4231 -2.574444 1.385496 C -2.665007 1.347984 -2.751697 1.302367 -2.833374 1.247691 C -2.915051 1.193014 -2.990761 1.130417 -3.060596 1.060947 C -3.13043 0.991477 -3.192297 0.915318 -3.247334 0.833426 C -3.302371 0.751533 -3.348577 0.665139 -3.385952 0.574242 C -3.423328 0.483345 -3.451964 0.388994 -3.470906 0.292327 C -3.489849 0.19566 -3.500328 0.0986816 -3.500067 -0.00052032 C -3.499898 -0.0986747 -3.49031 -0.196002 -3.471305 -0.292501 C -3.452299 -0.389001 -3.42406 -0.482578 -3.385447 -0.574189 C -3.347972 -0.664844 -3.302402 -0.751621 -3.246734 -0.833288 C -3.192113 -0.915047 -3.130625 -0.990926 -3.060179 -1.060739 C -2.990779 -1.130645 -2.915743 -1.192666 -2.832887 -1.247666 C -2.751169 -1.301711 -2.664861 -1.347964 -2.574056 -1.385377 C -2.483159 -1.423837 -2.388994 -1.451455 -2.292333 -1.471464 C -2.195764 -1.490426 -2.098975 -1.499868 -1.999873 -1.499607 C -1.901726 -1.500485 -1.80345 -1.490796 -1.70714 -1.470724 C -1.610737 -1.451699 -1.517255 -1.423431 -1.425645 -1.385826 C -1.335081 -1.348314 -1.248484 -1.30165 -1.166807 -1.246974 C -1.08513 -1.192297 -1.009328 -1.130748 -0.939585 -1.06023 C -0.86975 -0.99076 -0.807791 -0.915649 -0.752754 -0.833756 C -0.697717 -0.751864 -0.651511 -0.665469 -0.614228 -0.573525 C -0.576853 -0.482628 -0.548125 -0.389324 -0.529182 -0.292657 C -0.509193 -0.195899 -0.499852 -0.0979644 -0.500021 0.000189979 Z M -0.500021 0.000189979 " stroke="#f3eff5" stroke-width="1" stroke-opacity="1" stroke-miterlimit="4"/><path stroke-linecap="butt" transform="matrix(2.999628, 2.168163, -2.176134, 3.010656, 168.055144, 170.671071)" fill="none" stroke-linejoin="miter" d="M 0.0000272541 0.00024747 L 20.139078 0.0000218231 " stroke="#f3eff5" stroke-width="1" stroke-opacity="1" stroke-miterlimit="4"/><path stroke-linecap="butt" transform="matrix(2.999628, 2.168163, -2.176134, 3.010656, 239.715162, 222.467677)" fill-opacity="1" fill="#f3eff5" fill-rule="nonzero" stroke-linejoin="miter" d="M -0.500234 -0.0000914091 C -0.500291 0.0985576 -0.50919 0.195789 -0.528641 0.292835 C -0.548091 0.389882 -0.576765 0.48319 -0.614044 0.573613 C -0.652178 0.664652 -0.698679 0.751337 -0.752692 0.833052 C -0.807561 0.915383 -0.869705 0.991276 -0.939124 1.060731 C -1.008543 1.130187 -1.084382 1.192588 -1.167259 1.247082 C -1.248662 1.301814 -1.334774 1.348259 -1.426214 1.385565 C -1.517035 1.423724 -1.610854 1.452365 -1.707672 1.471488 C -1.803634 1.489995 -1.901976 1.499837 -1.999514 1.500016 C -2.098526 1.49996 -2.196115 1.491094 -2.292663 1.471098 C -2.388592 1.451955 -2.483099 1.424002 -2.574473 1.386008 C -2.664372 1.34825 -2.751376 1.301919 -2.833155 1.246635 C -2.91517 1.192819 -2.990487 1.130287 -3.060816 1.06027 C -3.130526 0.991105 -3.192302 0.914928 -3.247234 0.833823 C -3.301929 0.75125 -3.347689 0.664837 -3.385989 0.574349 C -3.423433 0.483244 -3.452179 0.389769 -3.470517 0.29269 C -3.490329 0.195374 -3.499588 0.0982445 -3.500386 0.000211515 C -3.500329 -0.0984375 -3.490576 -0.196285 -3.470506 -0.292479 C -3.451911 -0.388909 -3.423855 -0.48307 -3.385721 -0.574109 C -3.347588 -0.665148 -3.301942 -0.751217 -3.247073 -0.833548 C -3.193059 -0.915263 -3.130915 -0.991156 -3.060641 -1.061227 C -2.991222 -1.130682 -2.914765 -1.192231 -2.833362 -1.246962 C -2.751103 -1.302309 -2.664991 -1.348755 -2.573552 -1.386061 C -2.483586 -1.423604 -2.389148 -1.451393 -2.292949 -1.471368 C -2.196131 -1.490491 -2.098644 -1.499717 -1.999632 -1.49966 C -1.901239 -1.500456 -1.803887 -1.490121 -1.707102 -1.471594 C -1.610555 -1.451598 -1.516903 -1.423029 -1.426148 -1.385888 C -1.334774 -1.347893 -1.248389 -1.302415 -1.16661 -1.247131 C -1.084832 -1.191847 -1.00866 -1.12993 -0.938949 -1.060766 C -0.870094 -0.990985 -0.807464 -0.915424 -0.752768 -0.832851 C -0.697836 -0.751746 -0.652076 -0.665333 -0.614632 -0.574229 C -0.577188 -0.483124 -0.547823 -0.388796 -0.52863 -0.292333 C -0.509437 -0.19587 -0.500177 -0.0987404 -0.500234 -0.0000914091 Z M -0.500234 -0.0000914091 " stroke="#f3eff5" stroke-width="1" stroke-opacity="1" stroke-miterlimit="4"/><path stroke-linecap="butt" transform="matrix(0.000000000000000228, 3.728174, -3.714783, 0.000000000000000227, 195.788529, 191.124872)" fill="none" stroke-linejoin="miter" d="M 0.0000342282 -0.000143559 L 13.588498 -0.000143559 " stroke="#f3eff5" stroke-width="1" stroke-opacity="1" stroke-miterlimit="4"/><path stroke-linecap="butt" transform="matrix(0.000000000000000228, 3.728174, -3.714783, 0.000000000000000227, 195.788529, 255.765154)" fill-opacity="1" fill="#f3eff5" fill-rule="nonzero" stroke-linejoin="miter" d="M -0.499658 -0.000143559 C -0.499658 0.0987014 -0.509088 0.196495 -0.528995 0.292185 C -0.547855 0.388927 -0.576144 0.482514 -0.613864 0.573998 C -0.651584 0.665483 -0.697685 0.751709 -0.753217 0.833729 C -0.807701 0.91575 -0.869519 0.991461 -0.939719 1.060862 C -1.008871 1.130264 -1.08431 1.192305 -1.167084 1.246985 C -1.24881 1.301665 -1.334726 1.347933 -1.425882 1.385789 C -1.517037 1.423644 -1.610288 1.452036 -1.707731 1.470964 C -1.804125 1.489892 -1.901567 1.500407 -2.000057 1.500407 C -2.098547 1.500407 -2.195989 1.489892 -2.292383 1.470964 C -2.388778 1.452036 -2.483077 1.423644 -2.574232 1.385789 C -2.665388 1.347933 -2.751304 1.301665 -2.83303 1.246985 C -2.914756 1.192305 -2.991243 1.130264 -3.060395 1.060862 C -3.130595 0.991461 -3.192414 0.91575 -3.246897 0.833729 C -3.302429 0.751709 -3.348531 0.665483 -3.38625 0.573998 C -3.42397 0.482514 -3.452259 0.388927 -3.471119 0.292185 C -3.489979 0.196495 -3.500456 0.0987014 -3.500456 -0.000143559 C -3.500456 -0.0989885 -3.489979 -0.19573 -3.471119 -0.292472 C -3.452259 -0.389214 -3.42397 -0.482801 -3.38625 -0.574286 C -3.348531 -0.664718 -3.302429 -0.750945 -3.246897 -0.832965 C -3.192414 -0.914985 -3.130595 -0.990696 -3.060395 -1.061149 C -2.991243 -1.130551 -2.914756 -1.192592 -2.83303 -1.247272 C -2.751304 -1.301953 -2.665388 -1.34822 -2.574232 -1.386076 C -2.483077 -1.423931 -2.388778 -1.452323 -2.292383 -1.471251 C -2.195989 -1.490179 -2.098547 -1.499642 -2.000057 -1.499642 C -1.901567 -1.499642 -1.804125 -1.490179 -1.707731 -1.471251 C -1.610288 -1.452323 -1.517037 -1.423931 -1.425882 -1.386076 C -1.334726 -1.34822 -1.24881 -1.301953 -1.167084 -1.247272 C -1.08431 -1.192592 -1.008871 -1.130551 -0.939719 -1.061149 C -0.869519 -0.990696 -0.807701 -0.914985 -0.753217 -0.832965 C -0.697685 -0.750945 -0.651584 -0.664718 -0.613864 -0.574286 C -0.576144 -0.482801 -0.547855 -0.389214 -0.528995 -0.292472 C -0.509088 -0.19573 -0.499658 -0.0989885 -0.499658 -0.000143559 Z M -0.499658 -0.000143559 " stroke="#f3eff5" stroke-width="1" stroke-opacity="1" stroke-miterlimit="4"/><path stroke-linecap="butt" transform="matrix(0.549004, 3.688719, -3.67431, 0.54686, 234.094132, 215.087224)" fill="none" stroke-linejoin="miter" d="M -0.000356283 0.0000506438 L 9.000892 0.000136921 " stroke="#f3eff5" stroke-width="1" stroke-opacity="1" stroke-miterlimit="4"/><path stroke-linecap="butt" transform="matrix(0.549004, 3.688719, -3.67431, 0.54686, 241.094151, 262.119852)" fill-opacity="1" fill="#f3eff5" fill-rule="nonzero" stroke-linejoin="miter" d="M -0.499483 -0.000103304 C -0.500355 0.098637 -0.509515 0.196139 -0.529035 0.292093 C -0.547673 0.389242 -0.576363 0.482762 -0.614224 0.57385 C -0.652084 0.664937 -0.69777 0.751666 -0.753353 0.833726 C -0.807746 0.914902 -0.869811 0.990678 -0.939547 1.061056 C -1.009129 1.130393 -1.085038 1.192407 -1.166238 1.247251 C -1.248474 1.301941 -1.33481 1.348575 -1.426129 1.385961 C -1.517448 1.423346 -1.610642 1.451946 -1.707782 1.471452 C -1.803732 1.490072 -1.901557 1.499908 -2.000066 1.500072 C -2.098575 1.500237 -2.195541 1.490001 -2.292311 1.47129 C -2.388926 1.451538 -2.483272 1.423621 -2.574003 1.385612 C -2.664889 1.348643 -2.751125 1.301738 -2.833019 1.246977 C -2.914913 1.192216 -2.991429 1.129753 -3.06065 1.060938 C -3.130753 0.990929 -3.192525 0.914722 -3.247154 0.833204 C -3.301784 0.751686 -3.348237 0.66501 -3.385631 0.574373 C -3.423906 0.482541 -3.452395 0.388982 -3.470942 0.292656 C -3.490526 0.196175 -3.500323 0.0979665 -3.499605 0.000266231 C -3.499769 -0.0986289 -3.490609 -0.196131 -3.470935 -0.293125 C -3.452451 -0.389234 -3.42376 -0.482754 -3.3859 -0.573842 C -3.34804 -0.664929 -3.302354 -0.751658 -3.246771 -0.833718 C -3.192377 -0.914893 -3.130313 -0.99067 -3.060577 -1.061048 C -2.990995 -1.130385 -2.915086 -1.192399 -2.83285 -1.247088 C -2.75165 -1.301932 -2.665314 -1.348567 -2.573994 -1.385953 C -2.482675 -1.423338 -2.389482 -1.451938 -2.292341 -1.471444 C -2.196391 -1.490064 -2.098567 -1.499899 -2.000058 -1.500064 C -1.901549 -1.500229 -1.803546 -1.489838 -1.707813 -1.471282 C -1.611198 -1.45153 -1.516852 -1.423613 -1.426121 -1.385604 C -1.335235 -1.348635 -1.248999 -1.30173 -1.167105 -1.246969 C -1.085211 -1.192208 -1.008694 -1.129745 -0.939473 -1.06093 C -0.869371 -0.990921 -0.807445 -0.915754 -0.752969 -0.833196 C -0.698339 -0.751677 -0.651887 -0.665002 -0.614493 -0.574365 C -0.576218 -0.482533 -0.547729 -0.388974 -0.529182 -0.292648 C -0.509598 -0.196167 -0.499801 -0.0979584 -0.499483 -0.000103304 Z M -0.499483 -0.000103304 " stroke="#f3eff5" stroke-width="1" stroke-opacity="1" stroke-miterlimit="4"/><path stroke-linecap="butt" transform="matrix(3.518044, 1.126389, -1.132736, 3.53787, 232.257556, 218.589942)" fill="none" stroke-linejoin="miter" d="M 0.0000580514 -0.0000462953 L 8.519847 0.000253799 " stroke="#f3eff5" stroke-width="1" stroke-opacity="1" stroke-miterlimit="4"/><path stroke-linecap="butt" transform="matrix(3.518044, 1.126389, -1.132736, 3.53787, 275.421927, 232.41007)" fill-opacity="1" fill="#f3eff5" fill-rule="nonzero" stroke-linejoin="miter" d="M -0.499637 0.000105125 C -0.500145 0.098534 -0.509677 0.196524 -0.528556 0.293073 C -0.547758 0.38862 -0.576306 0.482727 -0.614523 0.574391 C -0.652055 0.664734 -0.698572 0.751312 -0.753066 0.833805 C -0.807883 0.915297 -0.869992 0.991382 -0.939717 1.061058 C -1.008434 1.130414 -1.085089 1.19236 -1.166338 1.246935 C -1.248594 1.301831 -1.334759 1.348034 -1.42584 1.385866 C -1.516921 1.423697 -1.610905 1.452515 -1.707106 1.470999 C -1.803991 1.490804 -1.90108 1.499632 -1.999741 1.500129 C -2.098724 1.499623 -2.195937 1.490825 -2.292345 1.47073 C -2.389438 1.451957 -2.483068 1.423248 -2.573919 1.385926 C -2.665093 1.347603 -2.751837 1.302348 -2.832781 1.247518 C -2.915054 1.192007 -2.991568 1.130246 -3.06063 1.060591 C -3.130699 0.991257 -3.192994 0.915032 -3.247192 0.832916 C -3.302397 0.751121 -3.347854 0.665118 -3.385898 0.574548 C -3.423258 0.482655 -3.452239 0.389198 -3.471149 0.292535 C -3.490059 0.195872 -3.500266 0.0986462 -3.499758 0.000217283 C -3.500257 -0.0978909 -3.490725 -0.195881 -3.470839 -0.29275 C -3.45196 -0.389299 -3.423412 -0.483406 -3.38588 -0.573748 C -3.34867 -0.665092 -3.302153 -0.75167 -3.247336 -0.833162 C -3.192842 -0.915655 -3.13041 -0.990739 -3.060686 -1.060415 C -2.990961 -1.130091 -2.915636 -1.192718 -2.83338 -1.247614 C -2.751124 -1.30251 -2.664637 -1.347712 -2.573555 -1.385543 C -2.482474 -1.423375 -2.389498 -1.451872 -2.292612 -1.471678 C -2.196411 -1.490161 -2.098638 -1.500311 -1.999655 -1.499806 C -1.902001 -1.499982 -1.803459 -1.490503 -1.707373 -1.471409 C -1.611287 -1.452316 -1.51665 -1.423928 -1.425476 -1.385604 C -1.334624 -1.348282 -1.248565 -1.301705 -1.166614 -1.247195 C -1.084663 -1.192686 -1.009157 -1.130604 -0.939088 -1.06127 C -0.869704 -0.990614 -0.807731 -0.91539 -0.752526 -0.833595 C -0.698328 -0.75148 -0.651542 -0.664796 -0.614504 -0.573905 C -0.576459 -0.483334 -0.548486 -0.389556 -0.528569 -0.293214 C -0.509659 -0.196551 -0.500136 -0.0980031 -0.499637 0.000105125 Z M -0.499637 0.000105125 " stroke="#f3eff5" stroke-width="1" stroke-opacity="1" stroke-miterlimit="4"/><path stroke-linecap="butt" transform="matrix(3.640227, 0.731065, -0.731434, 3.642062, 204.017524, 196.663314)" fill="none" stroke-linejoin="miter" d="M -0.000461659 0.00029831 L 21.065044 -0.000202965 " stroke="#f3eff5" stroke-width="1" stroke-opacity="1" stroke-miterlimit="4"/><path stroke-linecap="butt" transform="matrix(3.640227, 0.731065, -0.731434, 3.642062, 294.351133, 214.804991)" fill-opacity="1" fill="#f3eff5" fill-rule="nonzero" stroke-linejoin="miter" d="M -0.499836 0.000501835 C -0.500583 0.0982528 -0.509997 0.195598 -0.529108 0.292745 C -0.548426 0.388861 -0.576617 0.483541 -0.614303 0.573691 C -0.651782 0.664872 -0.697725 0.751316 -0.753162 0.833232 C -0.807567 0.91494 -0.869611 0.990674 -0.939295 1.060433 C -1.008978 1.130193 -1.084444 1.192533 -1.166726 1.24766 C -1.248182 1.30155 -1.335422 1.34802 -1.425558 1.385418 C -1.516725 1.423024 -1.610788 1.451558 -1.707747 1.47102 C -1.803674 1.490275 -1.901466 1.500252 -2.000297 1.499712 C -2.098922 1.500203 -2.196316 1.490795 -2.292481 1.471486 C -2.389677 1.452385 -2.483372 1.424 -2.573775 1.385302 C -2.665002 1.347842 -2.75149 1.301923 -2.83324 1.247545 C -2.915196 1.192136 -2.990968 1.130123 -3.060763 1.060475 C -3.130557 0.990826 -3.192929 0.915398 -3.247053 0.832951 C -3.302001 0.751743 -3.348287 0.665578 -3.385911 0.574457 C -3.423536 0.483335 -3.452084 0.38932 -3.471556 0.29241 C -3.490822 0.196531 -3.499772 0.0985815 -3.500263 0.00000657471 C -3.499723 -0.0987754 -3.49031 -0.196121 -3.470991 -0.292237 C -3.45188 -0.389384 -3.423482 -0.483032 -3.386003 -0.574213 C -3.348524 -0.665394 -3.30155 -0.752046 -3.247145 -0.833754 C -3.192739 -0.915463 -3.130695 -0.991196 -3.061011 -1.060956 C -2.991328 -1.130715 -2.915655 -1.192024 -2.833373 -1.247152 C -2.751092 -1.302279 -2.664884 -1.348542 -2.573717 -1.386148 C -2.48255 -1.423753 -2.389518 -1.45208 -2.29256 -1.471543 C -2.196632 -1.490798 -2.098633 -1.499744 -2.000009 -1.500235 C -1.901177 -1.499695 -1.803783 -1.490286 -1.707618 -1.470978 C -1.610422 -1.451876 -1.516727 -1.423492 -1.4255 -1.386032 C -1.335304 -1.348365 -1.248609 -1.301415 -1.166859 -1.247037 C -1.08511 -1.192659 -1.009338 -1.130645 -0.939543 -1.060997 C -0.869749 -0.991349 -0.80717 -0.91489 -0.753254 -0.833474 C -0.698098 -0.751234 -0.651812 -0.665069 -0.614188 -0.573948 C -0.576563 -0.482827 -0.548015 -0.388811 -0.52875 -0.292932 C -0.509277 -0.196023 -0.500327 -0.098073 -0.499836 0.000501835 Z M -0.499836 0.000501835 " stroke="#f3eff5" stroke-width="1" stroke-opacity="1" stroke-miterlimit="4"/><path stroke-linecap="butt" transform="matrix(3.634089, 0.712155, -0.71438, 3.645445, 165.866052, 169.163629)" fill="none" stroke-linejoin="miter" d="M 0.000323527 0.0000558268 L 14.307065 -0.000249584 " stroke="#f3eff5" stroke-width="1" stroke-opacity="1" stroke-miterlimit="4"/><path stroke-linecap="butt" transform="matrix(3.634089, 0.712155, -0.71438, 3.645445, 231.486155, 182.022876)" fill-opacity="1" fill="#f3eff5" fill-rule="nonzero" stroke-linejoin="miter" d="M -0.500242 0.000368346 C -0.500212 0.0989444 -0.509072 0.196043 -0.528689 0.293099 C -0.548509 0.389124 -0.576183 0.483468 -0.614188 0.574473 C -0.652193 0.665477 -0.697625 0.751504 -0.752557 0.832957 C -0.807285 0.915442 -0.869846 0.990884 -0.939004 1.060115 C -1.008994 1.130579 -1.08495 1.192566 -1.166669 1.247105 C -1.248388 1.301645 -1.334836 1.348536 -1.426417 1.385715 C -1.516761 1.423723 -1.611203 1.451817 -1.707268 1.471655 C -1.803536 1.490462 -1.90163 1.499981 -2.000514 1.500011 C -2.098363 1.499838 -2.195967 1.489974 -2.292089 1.471248 C -2.389449 1.451692 -2.483053 1.423901 -2.574342 1.386015 C -2.664596 1.347926 -2.751094 1.301603 -2.833837 1.247045 C -2.915544 1.192286 -2.991223 1.129919 -3.06067 1.060977 C -3.130319 0.991003 -3.192499 0.915283 -3.247209 0.833819 C -3.302123 0.751322 -3.348125 0.664941 -3.38542 0.573645 C -3.42375 0.482551 -3.451728 0.389435 -3.470796 0.292435 C -3.4909 0.195637 -3.500246 0.0988812 -3.500275 0.000305085 C -3.500305 -0.098271 -3.49041 -0.195571 -3.470793 -0.292628 C -3.452211 -0.389482 -3.423299 -0.482997 -3.385294 -0.574001 C -3.348325 -0.664804 -3.301857 -0.751033 -3.247128 -0.833518 C -3.192197 -0.91497 -3.130874 -0.991243 -3.060681 -1.060676 C -2.990488 -1.130108 -2.915568 -1.191892 -2.833016 -1.247666 C -2.751297 -1.302206 -2.664646 -1.348065 -2.574303 -1.386073 C -2.482721 -1.423252 -2.389517 -1.452175 -2.292214 -1.471184 C -2.195946 -1.48999 -2.09909 -1.500339 -2.000206 -1.500369 C -1.901322 -1.500399 -1.803717 -1.490535 -1.707393 -1.470776 C -1.611271 -1.45205 -1.516429 -1.42343 -1.426175 -1.385342 C -1.335089 -1.348487 -1.248591 -1.302164 -1.166883 -1.247404 C -1.085176 -1.192644 -1.009497 -1.130277 -0.938812 -1.060505 C -0.869366 -0.991563 -0.807186 -0.915844 -0.752273 -0.833347 C -0.698598 -0.75168 -0.65156 -0.665502 -0.614265 -0.574206 C -0.57697 -0.48291 -0.547754 -0.388964 -0.528889 -0.292996 C -0.509821 -0.195996 -0.500272 -0.0982078 -0.500242 0.000368346 Z M -0.500242 0.000368346 " stroke="#f3eff5" stroke-width="1" stroke-opacity="1" stroke-miterlimit="4"/><path stroke-linecap="butt" transform="matrix(3.665147, -0.522527, 0.524302, 3.677597, 169.442205, 170.683815)" fill="none" stroke-linejoin="miter" d="M -0.00020515 -0.0000892723 L 10.097068 -0.000427308 " stroke="#f3eff5" stroke-width="1" stroke-opacity="1" stroke-miterlimit="4"/><path stroke-linecap="butt" transform="matrix(3.665147, -0.522527, 0.524302, 3.677597, 220.19514, 163.448132)" fill-opacity="1" fill="#f3eff5" fill-rule="nonzero" stroke-linejoin="miter" d="M -0.499868 0.000437994 C -0.499989 0.0981408 -0.50966 0.195549 -0.528881 0.292662 C -0.547953 0.388735 -0.576426 0.483471 -0.613854 0.573749 C -0.65143 0.665068 -0.69796 0.751928 -0.753296 0.833289 C -0.807587 0.914797 -0.869639 0.990955 -0.939303 1.06072 C -1.008967 1.130485 -1.085049 1.192965 -1.166356 1.247267 C -1.248708 1.301421 -1.335388 1.348587 -1.425952 1.385642 C -1.516664 1.423737 -1.611259 1.451722 -1.707796 1.470933 C -1.804333 1.490144 -1.901619 1.499689 -1.999653 1.499568 C -2.098881 1.50034 -2.195576 1.49085 -2.29287 1.470653 C -2.389269 1.451645 -2.483283 1.423417 -2.573867 1.386116 C -2.665348 1.347626 -2.751458 1.301402 -2.833244 1.247294 C -2.914881 1.192146 -2.991297 1.130304 -3.060254 1.061024 C -3.130107 0.990556 -3.192799 0.914731 -3.247286 0.833699 C -3.301624 0.751626 -3.347906 0.665387 -3.385982 0.573941 C -3.423013 0.482644 -3.452286 0.389262 -3.471563 0.293052 C -3.49069 0.1958 -3.500268 0.0988437 -3.499997 0.0000998977 C -3.499727 -0.0986439 -3.490056 -0.196052 -3.470984 -0.292124 C -3.451763 -0.389238 -3.423439 -0.482934 -3.385862 -0.574252 C -3.348286 -0.665571 -3.301905 -0.75139 -3.247613 -0.832899 C -3.192129 -0.915301 -3.130077 -0.991458 -3.060562 -1.060182 C -2.990898 -1.129947 -2.914816 -1.192427 -2.833509 -1.246729 C -2.751009 -1.301924 -2.665521 -1.348198 -2.573764 -1.386145 C -2.483201 -1.423199 -2.389502 -1.452373 -2.292965 -1.471584 C -2.196428 -1.490795 -2.098098 -1.500192 -2.000063 -1.500071 C -1.902028 -1.49995 -1.804289 -1.490312 -1.706846 -1.471156 C -1.610447 -1.452148 -1.516433 -1.42392 -1.425998 -1.385578 C -1.335413 -1.348278 -1.248258 -1.301905 -1.166621 -1.246756 C -1.084835 -1.192649 -1.008568 -1.129766 -0.939611 -1.060487 C -0.869609 -0.991059 -0.807961 -0.915383 -0.752579 -0.833161 C -0.698241 -0.751089 -0.651959 -0.66485 -0.613734 -0.574444 C -0.576703 -0.483147 -0.547579 -0.388724 -0.529347 -0.292662 C -0.510071 -0.196452 -0.499597 -0.0983059 -0.499868 0.000437994 Z M -0.499868 0.000437994 " stroke="#f3eff5" stroke-width="1" stroke-opacity="1" stroke-miterlimit="4"/><path stroke-linecap="butt" transform="matrix(3.461069, -1.321662, 1.325211, 3.470364, 231.691233, 202.151967)" fill="none" stroke-linejoin="miter" d="M 0.00000746027 0.000111492 L 9.084449 -0.000248823 " stroke="#f3eff5" stroke-width="1" stroke-opacity="1" stroke-miterlimit="4"/><path stroke-linecap="butt" transform="matrix(3.461069, -1.321662, 1.325211, 3.470364, 276.112308, 185.189106)" fill-opacity="1" fill="#f3eff5" fill-rule="nonzero" stroke-linejoin="miter" d="M -0.499894 0.000508432 C -0.500113 0.0983525 -0.509341 0.196143 -0.52917 0.292146 C -0.548391 0.389507 -0.576476 0.483492 -0.614412 0.573725 C -0.651738 0.665317 -0.698163 0.751192 -0.753076 0.832708 C -0.80738 0.915582 -0.87003 0.990776 -0.939807 1.061003 C -1.009208 1.130249 -1.084985 1.192563 -1.16676 1.246966 C -1.248536 1.301368 -1.335326 1.348232 -1.426378 1.385594 C -1.516446 1.423331 -1.610775 1.451566 -1.707396 1.471049 C -1.804017 1.490531 -1.901193 1.499672 -1.999676 1.500436 C -2.098767 1.499843 -2.195835 1.491016 -2.292096 1.471239 C -2.389719 1.45207 -2.482595 1.423452 -2.574432 1.386226 C -2.664908 1.348392 -2.751014 1.302092 -2.833734 1.246951 C -2.91547 1.192185 -2.991241 1.130685 -3.060296 1.060488 C -3.130712 0.990897 -3.19221 0.915699 -3.247367 0.832785 C -3.301915 0.751228 -3.34792 0.665045 -3.385383 0.574237 C -3.42383 0.483054 -3.452141 0.388977 -3.471676 0.292615 C -3.490226 0.196628 -3.5 0.0983546 -3.499781 0.000510619 C -3.500171 -0.0986909 -3.489959 -0.196106 -3.471114 -0.292484 C -3.45227 -0.388863 -3.423199 -0.482473 -3.385873 -0.574064 C -3.347561 -0.66528 -3.302122 -0.75153 -3.247209 -0.833047 C -3.191919 -0.915546 -3.130255 -0.991114 -3.060854 -1.060359 C -2.991076 -1.130587 -2.9153 -1.192902 -2.833524 -1.247304 C -2.751748 -1.301706 -2.664958 -1.34857 -2.573906 -1.385933 C -2.482854 -1.423295 -2.38951 -1.451904 -2.292889 -1.471387 C -2.196268 -1.49087 -2.098107 -1.499636 -1.999624 -1.5004 C -1.901517 -1.500181 -1.80384 -1.489996 -1.707203 -1.471202 C -1.610565 -1.452408 -1.516704 -1.423416 -1.426228 -1.385582 C -1.334391 -1.348355 -1.248286 -1.302055 -1.16655 -1.247289 C -1.084815 -1.192523 -1.009419 -1.130041 -0.939003 -1.060451 C -0.869572 -0.991236 -0.807466 -0.91468 -0.752918 -0.833123 C -0.698369 -0.751566 -0.651379 -0.665009 -0.613917 -0.5742 C -0.576454 -0.483392 -0.548144 -0.389316 -0.528609 -0.292953 C -0.50945 -0.195609 -0.500284 -0.0986931 -0.499894 0.000508432 Z M -0.499894 0.000508432 " stroke="#f3eff5" stroke-width="1" stroke-opacity="1" stroke-miterlimit="4"/><path fill="#72b01d" d="M 0.125 150 C 0.125 67.144531 67.273438 0 150.125 0 C 232.980469 0 299.875 67.144531 299.875 150 Z M 0.125 150 " fill-opacity="1" fill-rule="nonzero"/></svg>