<svg xmlns="http://www.w3.org/2000/svg" xmlns:xlink="http://www.w3.org/1999/xlink" width="500" zoomAndPan="magnify" viewBox="0 0 375 374.999991" height="500" preserveAspectRatio="xMidYMid meet" version="1.0"><path fill="#72b01d" d="M 187.5 0 C 83.945312 0 0 83.945312 0 187.5 C 0 291.054688 83.945312 375 187.5 375 C 291.054688 375 375 291.054688 375 187.5 C 375 83.945312 291.054688 0 187.5 0 " fill-opacity="1" fill-rule="nonzero"/><path stroke-linecap="butt" transform="matrix(0.00000000000000023, -3.75392, 3.75, 0.00000000000000023, 187.497883, 328.947401)" fill="none" stroke-linejoin="miter" d="M -0.000484281 -0.000477023 L 73.970108 -0.000477023 " stroke="#f3eff5" stroke-width="1" stroke-opacity="1" stroke-miterlimit="4"/><path stroke-linecap="butt" transform="matrix(0.00000000000000023, -3.75392, 3.75, 0.00000000000000023, 187.497897, 37.193186)" fill-opacity="1" fill="#f3eff5" fill-rule="nonzero" stroke-linejoin="miter" d="M -0.500044 -0.000480863 C -0.500044 0.0984775 -0.50941 0.196394 -0.529181 0.292227 C -0.547911 0.389102 -0.576007 0.482853 -0.614508 0.574519 C -0.651969 0.665144 -0.697754 0.751603 -0.752905 0.832853 C -0.807015 0.915144 -0.86945 0.991186 -0.939169 1.060978 C -1.008887 1.130769 -1.08485 1.192228 -1.167055 1.247436 C -1.248221 1.301603 -1.334589 1.348478 -1.42616 1.385978 C -1.51669 1.423478 -1.610342 1.451603 -1.707116 1.471394 C -1.80389 1.490144 -1.901704 1.499519 -1.999519 1.499519 C -2.098374 1.499519 -2.196188 1.490144 -2.292962 1.471394 C -2.389736 1.451603 -2.483388 1.423478 -2.573918 1.385978 C -2.665489 1.348478 -2.751857 1.301603 -2.833022 1.247436 C -2.915228 1.192228 -2.99119 1.130769 -3.060909 1.060978 C -3.130628 0.991186 -3.192022 0.915144 -3.247173 0.832853 C -3.302323 0.751603 -3.348109 0.665144 -3.38557 0.574519 C -3.42303 0.482853 -3.452167 0.389102 -3.470897 0.292227 C -3.490668 0.196394 -3.500033 0.0984775 -3.500033 -0.000480863 C -3.500033 -0.0983975 -3.490668 -0.196314 -3.470897 -0.292148 C -3.452167 -0.389023 -3.42303 -0.482773 -3.38557 -0.574439 C -3.348109 -0.665064 -3.302323 -0.751523 -3.247173 -0.833814 C -3.192022 -0.915064 -3.130628 -0.991106 -3.060909 -1.060898 C -2.99119 -1.130689 -2.915228 -1.192148 -2.833022 -1.247356 C -2.751857 -1.301523 -2.665489 -1.348398 -2.573918 -1.385898 C -2.483388 -1.423398 -2.389736 -1.451523 -2.292962 -1.471314 C -2.196188 -1.490064 -2.098374 -1.500481 -1.999519 -1.500481 C -1.901704 -1.500481 -1.80389 -1.490064 -1.707116 -1.471314 C -1.610342 -1.451523 -1.51669 -1.423398 -1.42616 -1.385898 C -1.334589 -1.348398 -1.248221 -1.301523 -1.167055 -1.247356 C -1.08485 -1.192148 -1.008887 -1.130689 -0.939169 -1.060898 C -0.86945 -0.991106 -0.807015 -0.915064 -0.752905 -0.833814 C -0.697754 -0.751523 -0.651969 -0.665064 -0.614508 -0.574439 C -0.576007 -0.482773 -0.547911 -0.389023 -0.529181 -0.292148 C -0.50941 -0.196314 -0.500044 -0.0983975 -0.500044 -0.000480863 Z M -0.500044 -0.000480863 " stroke="#f3eff5" stroke-width="1" stroke-opacity="1" stroke-miterlimit="4"/><path stroke-linecap="butt" transform="matrix(-2.158027, -3.077591, 3.070378, -2.152969, 187.496095, 187.497967)" fill="none" stroke-linejoin="miter" d="M 0.000408147 0.000286595 L 20.194745 -0.000400638 " stroke="#f3eff5" stroke-width="1" stroke-opacity="1" stroke-miterlimit="4"/><path stroke-linecap="butt" transform="matrix(-2.158027, -3.077591, 3.070378, -2.152969, 135.821993, 113.804825)" fill-opacity="1" fill="#f3eff5" fill-rule="nonzero" stroke-linejoin="miter" d="M -0.500232 0.00027208 C -0.500226 0.0982386 -0.50916 0.196283 -0.528734 0.29321 C -0.547712 0.389284 -0.576735 0.483386 -0.614608 0.573813 C -0.651631 0.664837 -0.698356 0.751586 -0.752739 0.832953 C -0.807719 0.915173 -0.869759 0.991158 -0.939713 1.060309 C -1.008815 1.130059 -1.084381 1.19272 -1.166667 1.246842 C -1.248699 1.302415 -1.335405 1.348341 -1.425935 1.385218 C -1.517062 1.422949 -1.611161 1.452228 -1.707041 1.471351 C -1.804368 1.490729 -1.901176 1.500293 -1.999764 1.499702 C -2.098948 1.499962 -2.196166 1.490155 -2.292015 1.471133 C -2.389311 1.452365 -2.483193 1.423274 -2.574004 1.386165 C -2.665069 1.347604 -2.751361 1.30222 -2.833388 1.247111 C -2.915416 1.192003 -2.991222 1.129816 -3.060808 1.060552 C -3.130394 0.991287 -3.192908 0.915543 -3.246903 0.833064 C -3.301495 0.751438 -3.34791 0.665381 -3.385552 0.57404 C -3.423194 0.482699 -3.451554 0.388976 -3.471483 0.292274 C -3.490561 0.196169 -3.499507 0.0982806 -3.500364 -0.000283991 C -3.50037 -0.0982505 -3.490585 -0.195697 -3.471011 -0.292624 C -3.452033 -0.388697 -3.423861 -0.483398 -3.385988 -0.573824 C -3.347517 -0.665104 -3.30224 -0.751598 -3.24726 -0.833818 C -3.192877 -0.915185 -3.129986 -0.990572 -3.060884 -1.060321 C -2.991185 -1.130923 -2.915364 -1.192134 -2.833332 -1.247707 C -2.751046 -1.301829 -2.665191 -1.348353 -2.574064 -1.386083 C -2.482938 -1.423813 -2.389435 -1.45224 -2.292704 -1.470765 C -2.196228 -1.490741 -2.098569 -1.499707 -2.000236 -1.500566 C -1.901648 -1.499974 -1.80443 -1.490167 -1.707134 -1.471399 C -1.610434 -1.451779 -1.517403 -1.423286 -1.425741 -1.385578 C -1.33493 -1.348469 -1.248384 -1.301634 -1.167208 -1.247123 C -1.084584 -1.192868 -1.008777 -1.130681 -0.939788 -1.060564 C -0.869351 -0.990701 -0.807688 -0.915555 -0.752245 -0.83333 C -0.697653 -0.751704 -0.651835 -0.664794 -0.614193 -0.573454 C -0.575955 -0.482966 -0.547595 -0.389243 -0.529113 -0.292286 C -0.510035 -0.196181 -0.499642 -0.0985473 -0.500232 0.00027208 Z M -0.500232 0.00027208 " stroke="#f3eff5" stroke-width="1" stroke-opacity="1" stroke-miterlimit="4"/><path stroke-linecap="butt" transform="matrix(2.101575, -3.099304, 3.103743, 2.104585, 187.499889, 187.499798)" fill="none" stroke-linejoin="miter" d="M -0.0000279902 0.0000547197 L 20.284256 0.0000437677 " stroke="#f3eff5" stroke-width="1" stroke-opacity="1" stroke-miterlimit="4"/><path stroke-linecap="butt" transform="matrix(2.101575, -3.099304, 3.103743, 2.104585, 238.010175, 113.009575)" fill-opacity="1" fill="#f3eff5" fill-rule="nonzero" stroke-linejoin="miter" d="M -0.499628 0.000247245 C -0.499723 0.0984792 -0.509374 0.19563 -0.528859 0.293148 C -0.548067 0.389218 -0.576553 0.482762 -0.614317 0.573777 C -0.652081 0.664793 -0.697983 0.75125 -0.752885 0.833733 C -0.807509 0.914769 -0.869407 0.990662 -0.939163 1.060549 C -1.00892 1.130436 -1.08481 1.193149 -1.166553 1.24724 C -1.24916 1.301915 -1.334724 1.348524 -1.425279 1.385927 C -1.516697 1.423915 -1.610795 1.452389 -1.707571 1.47135 C -1.804347 1.490312 -1.901489 1.499453 -1.999862 1.499358 C -2.099098 1.499848 -2.196388 1.49021 -2.292597 1.47103 C -2.388805 1.45185 -2.482482 1.423405 -2.573628 1.385695 C -2.664774 1.347984 -2.751355 1.302149 -2.833093 1.246741 C -2.915108 1.192779 -2.99111 1.13097 -3.060234 1.060728 C -3.130221 0.991071 -3.193023 0.915291 -3.247191 0.833664 C -3.301945 0.751175 -3.347758 0.665149 -3.3858 0.573861 C -3.423256 0.483436 -3.451772 0.389473 -3.47076 0.292836 C -3.489748 0.196198 -3.499488 0.0983321 -3.499393 0.000100155 C -3.499884 -0.0989939 -3.490233 -0.196145 -3.471025 -0.292216 C -3.452403 -0.389149 -3.423054 -0.483276 -3.386153 -0.573708 C -3.348388 -0.664723 -3.301623 -0.751765 -3.247585 -0.833663 C -3.192097 -0.915284 -3.1302 -0.991177 -3.060443 -1.061064 C -2.991549 -1.130366 -2.915075 -1.192217 -2.833916 -1.24717 C -2.751309 -1.301845 -2.66516 -1.347592 -2.573742 -1.38558 C -2.483187 -1.422983 -2.38909 -1.451457 -2.292899 -1.47128 C -2.196123 -1.490242 -2.098117 -1.499967 -1.999744 -1.499873 C -1.901372 -1.499778 -1.804081 -1.490141 -1.70701 -1.471545 C -1.610801 -1.452365 -1.517124 -1.42392 -1.425978 -1.38621 C -1.334832 -1.348499 -1.249114 -1.302079 -1.166513 -1.247255 C -1.084776 -1.191847 -1.008774 -1.130038 -0.939373 -1.061243 C -0.870249 -0.991001 -0.807447 -0.915221 -0.753278 -0.833594 C -0.697661 -0.75169 -0.651848 -0.665663 -0.613806 -0.574376 C -0.576628 -0.482504 -0.548698 -0.389403 -0.528261 -0.292488 C -0.509273 -0.195851 -0.500118 -0.0988468 -0.499628 0.000247245 Z M -0.499628 0.000247245 " stroke="#f3eff5" stroke-width="1" stroke-opacity="1" stroke-miterlimit="4"/><path stroke-linecap="butt" transform="matrix(-1.036481, -3.615402, 3.604789, -1.033438, 187.498322, 187.498728)" fill="none" stroke-linejoin="miter" d="M -0.000448156 0.000336693 L 29.15336 -0.0000474214 " stroke="#f3eff5" stroke-width="1" stroke-opacity="1" stroke-miterlimit="4"/><path stroke-linecap="butt" transform="matrix(-1.036481, -3.615402, 3.604789, -1.033438, 153.394125, 68.538151)" fill-opacity="1" fill="#f3eff5" fill-rule="nonzero" stroke-linejoin="miter" d="M -0.500585 0.000302517 C -0.499389 0.098173 -0.510033 0.19589 -0.528951 0.292311 C -0.548155 0.389734 -0.577057 0.483285 -0.613946 0.57454 C -0.651833 0.665507 -0.698134 0.751888 -0.752847 0.833683 C -0.807561 0.915478 -0.870115 0.990684 -0.939797 1.060589 C -1.00948 1.130494 -1.084434 1.192382 -1.166942 1.24668 C -1.248738 1.302266 -1.335233 1.347832 -1.426002 1.385668 C -1.51677 1.423503 -1.61024 1.451893 -1.707697 1.471551 C -1.803869 1.490494 -1.901746 1.500279 -2.000041 1.500191 C -2.098336 1.500102 -2.196053 1.490428 -2.292191 1.471454 C -2.389328 1.452193 -2.482604 1.423207 -2.574589 1.385922 C -2.66529 1.347923 -2.751417 1.301486 -2.833258 1.247613 C -2.914813 1.192739 -2.991082 1.130715 -3.060783 1.060827 C -3.130483 0.990939 -3.192189 0.915765 -3.247612 0.833728 C -3.30175 0.750976 -3.348467 0.664941 -3.386192 0.573906 C -3.423916 0.48287 -3.452222 0.389125 -3.47111 0.292669 C -3.489998 0.196214 -3.499755 0.0980491 -3.499953 0.000465684 C -3.499864 -0.0981191 -3.490218 -0.196123 -3.4713 -0.292545 C -3.452382 -0.388966 -3.423481 -0.482517 -3.385593 -0.573484 C -3.348704 -0.664739 -3.302404 -0.75112 -3.247404 -0.833916 C -3.192691 -0.915711 -3.130137 -0.990917 -3.060454 -1.060822 C -2.990772 -1.130727 -2.914819 -1.192328 -2.83331 -1.246913 C -2.7518 -1.301498 -2.665018 -1.348065 -2.57425 -1.385901 C -2.483482 -1.423736 -2.389013 -1.451839 -2.292841 -1.470783 C -2.196382 -1.490728 -2.098506 -1.500512 -2.000211 -1.500424 C -1.901915 -1.500335 -1.804199 -1.490661 -1.707062 -1.4714 C -1.610924 -1.452427 -1.516649 -1.423153 -1.425662 -1.386155 C -1.334962 -1.348156 -1.248835 -1.30172 -1.166994 -1.247846 C -1.084441 -1.192685 -1.009455 -1.129947 -0.939469 -1.06106 C -0.869769 -0.991172 -0.80735 -0.914709 -0.752926 -0.83296 C -0.698501 -0.75121 -0.651785 -0.665174 -0.61406 -0.574139 C -0.576336 -0.483103 -0.548029 -0.389358 -0.529141 -0.292902 C -0.509255 -0.19616 -0.500497 -0.0982823 -0.500585 0.000302517 Z M -0.500585 0.000302517 " stroke="#f3eff5" stroke-width="1" stroke-opacity="1" stroke-miterlimit="4"/><path stroke-linecap="butt" transform="matrix(1.043662, -3.59262, 3.601125, 1.046132, 187.496404, 187.495197)" fill="none" stroke-linejoin="miter" d="M -0.000253258 -0.0000128076 L 29.330833 0.000418221 " stroke="#f3eff5" stroke-width="1" stroke-opacity="1" stroke-miterlimit="4"/><path stroke-linecap="butt" transform="matrix(1.043662, -3.59262, 3.601125, 1.046132, 222.021552, 68.648484)" fill-opacity="1" fill="#f3eff5" fill-rule="nonzero" stroke-linejoin="miter" d="M -0.500112 0.000110066 C -0.499675 0.0986939 -0.509428 0.195892 -0.529078 0.292704 C -0.547726 0.389226 -0.576854 0.483361 -0.614458 0.57453 C -0.652352 0.664697 -0.69772 0.751607 -0.753147 0.833839 C -0.807572 0.915781 -0.869341 0.991173 -0.939456 1.060307 C -1.009279 1.13044 -1.084732 1.192443 -1.166527 1.247605 C -1.248612 1.301767 -1.335033 1.348508 -1.426372 1.385827 C -1.516417 1.423855 -1.610378 1.452171 -1.70696 1.471484 C -1.803543 1.490798 -1.902035 1.499817 -1.99985 1.499962 C -2.098667 1.500398 -2.196095 1.490669 -2.293137 1.471065 C -2.388884 1.45217 -2.483242 1.423111 -2.574626 1.385596 C -2.665008 1.347791 -2.751121 1.30224 -2.833548 1.246944 C -2.915683 1.192647 -2.991545 1.130024 -3.060551 1.061075 C -3.129848 0.991126 -3.192288 0.914851 -3.247581 0.83325 C -3.301872 0.751358 -3.34772 0.664851 -3.38613 0.574018 C -3.423537 0.482894 -3.45192 0.389156 -3.471279 0.292801 C -3.490638 0.196447 -3.499679 0.0981875 -3.500116 -0.000396388 C -3.500261 -0.0979799 -3.4908 -0.196178 -3.47115 -0.292991 C -3.452502 -0.389512 -3.423082 -0.482647 -3.385479 -0.573816 C -3.347876 -0.664984 -3.302217 -0.750893 -3.24679 -0.833125 C -3.192365 -0.915067 -3.130596 -0.990459 -3.060772 -1.060593 C -2.990949 -1.130727 -2.915496 -1.192729 -2.83341 -1.246891 C -2.751616 -1.302054 -2.664904 -1.347794 -2.573856 -1.386113 C -2.482517 -1.423432 -2.389558 -1.451457 -2.292976 -1.47077 C -2.196394 -1.490084 -2.098193 -1.500103 -2.000378 -1.500249 C -1.90127 -1.499684 -1.803842 -1.489955 -1.707091 -1.471351 C -1.611053 -1.451456 -1.516986 -1.423397 -1.425602 -1.385883 C -1.33522 -1.348077 -1.248816 -1.301526 -1.16668 -1.24723 C -1.084545 -1.192934 -1.008683 -1.130311 -0.939386 -1.060361 C -0.869086 -0.990703 -0.80794 -0.915137 -0.752647 -0.833536 C -0.698356 -0.751645 -0.651505 -0.665428 -0.614098 -0.574304 C -0.576691 -0.483181 -0.548308 -0.389442 -0.528949 -0.293088 C -0.509299 -0.195733 -0.499546 -0.0987644 -0.500112 0.000110066 Z M -0.500112 0.000110066 " stroke="#f3eff5" stroke-width="1" stroke-opacity="1" stroke-miterlimit="4"/><path stroke-linecap="butt" transform="matrix(-2.362519, -2.92171, 2.915973, -2.35788, 188.230144, 239.110136)" fill="none" stroke-linejoin="miter" d="M 0.00010323 0.000194959 L 34.376422 0.000143332 " stroke="#f3eff5" stroke-width="1" stroke-opacity="1" stroke-miterlimit="4"/><path stroke-linecap="butt" transform="matrix(-2.362519, -2.92171, 2.915973, -2.35788, 98.154718, 127.714532)" fill-opacity="1" fill="#f3eff5" fill-rule="nonzero" stroke-linejoin="miter" d="M -0.500075 -0.0000743322 C -0.499943 0.0991631 -0.509702 0.195746 -0.529041 0.292604 C -0.548381 0.389462 -0.576957 0.482855 -0.614615 0.574248 C -0.651619 0.664832 -0.69786 0.751951 -0.752839 0.83333 C -0.80701 0.915364 -0.869264 0.990848 -0.938794 1.060438 C -1.008978 1.130837 -1.084476 1.192912 -1.166751 1.246817 C -1.248871 1.302188 -1.334999 1.347613 -1.426286 1.386179 C -1.516919 1.423935 -1.610752 1.452401 -1.707129 1.470768 C -1.804161 1.489944 -1.901467 1.499521 -1.999701 1.500308 C -2.098743 1.50044 -2.195945 1.490007 -2.292613 1.47063 C -2.389934 1.452062 -2.483144 1.42343 -2.574358 1.385698 C -2.664764 1.34862 -2.751711 1.302288 -2.83293 1.247201 C -2.915612 1.19227 -2.990948 1.129893 -3.060401 1.060226 C -3.130508 0.991369 -3.192461 0.915722 -3.247722 0.83344 C -3.302175 0.751814 -3.34832 0.664862 -3.386002 0.57405 C -3.423684 0.483238 -3.452094 0.389221 -3.471233 0.291999 C -3.490217 0.196242 -3.499775 0.0987444 -3.499907 -0.000493094 C -3.499884 -0.0982656 -3.49028 -0.196313 -3.471594 -0.292361 C -3.452255 -0.389219 -3.423678 -0.482612 -3.38602 -0.574006 C -3.348362 -0.665399 -3.301966 -0.751053 -3.247142 -0.833897 C -3.192164 -0.915276 -3.129909 -0.99076 -3.060379 -1.06035 C -2.990849 -1.12994 -2.915351 -1.192015 -2.833231 -1.247385 C -2.751764 -1.301945 -2.664983 -1.348181 -2.574349 -1.385937 C -2.482907 -1.423038 -2.389075 -1.451504 -2.292852 -1.471335 C -2.195821 -1.490512 -2.098515 -1.500088 -1.999472 -1.50022 C -1.901892 -1.500197 -1.804037 -1.490575 -1.707369 -1.471197 C -1.610701 -1.45182 -1.516838 -1.423997 -1.426277 -1.385455 C -1.335063 -1.347723 -1.248924 -1.302046 -1.166243 -1.247114 C -1.08437 -1.192837 -1.009034 -1.13046 -0.939581 -1.060793 C -0.870128 -0.991126 -0.807366 -0.914825 -0.752913 -0.833198 C -0.69846 -0.751571 -0.651661 -0.665429 -0.614633 -0.573807 C -0.576952 -0.482995 -0.548541 -0.388978 -0.528749 -0.292566 C -0.508956 -0.196154 -0.499398 -0.0986568 -0.500075 -0.0000743322 Z M -0.500075 -0.0000743322 " stroke="#f3eff5" stroke-width="1" stroke-opacity="1" stroke-miterlimit="4"/><path stroke-linecap="butt" transform="matrix(2.401377, -2.873873, 2.877635, 2.40452, 188.235621, 238.264276)" fill="none" stroke-linejoin="miter" d="M -0.000489821 -0.0000242196 L 34.500299 -0.000625618 " stroke="#f3eff5" stroke-width="1" stroke-opacity="1" stroke-miterlimit="4"/><path stroke-linecap="butt" transform="matrix(2.401377, -2.873873, 2.877635, 2.40452, 280.088981, 128.337764)" fill-opacity="1" fill="#f3eff5" fill-rule="nonzero" stroke-linejoin="miter" d="M -0.500011 -0.000538195 C -0.500012 0.0985571 -0.509498 0.196065 -0.529268 0.292652 C -0.547568 0.389371 -0.57669 0.482903 -0.614496 0.57418 C -0.651501 0.664789 -0.698528 0.751543 -0.752505 0.833238 C -0.807283 0.915601 -0.869549 0.990639 -0.938767 1.060618 C -1.009454 1.130465 -1.085359 1.19245 -1.167283 1.247242 C -1.248408 1.301365 -1.334751 1.347626 -1.426312 1.386026 C -1.517074 1.423757 -1.610653 1.451623 -1.707181 1.47109 C -1.803709 1.490557 -1.901586 1.500289 -2.00001 1.49962 C -2.098566 1.500418 -2.196201 1.490945 -2.292915 1.471201 C -2.388961 1.452256 -2.483416 1.42384 -2.574011 1.385416 C -2.664739 1.348459 -2.751606 1.301494 -2.833409 1.247587 C -2.915079 1.192213 -2.991015 1.130696 -3.060285 1.060901 C -3.130224 0.990307 -3.193091 0.915168 -3.247154 0.832683 C -3.302017 0.750865 -3.348338 0.664635 -3.386119 0.573993 C -3.4239 0.48335 -3.452471 0.389094 -3.471163 0.292024 C -3.490656 0.195622 -3.499732 0.0986727 -3.499731 -0.000422576 C -3.499861 -0.0980506 -3.490375 -0.195558 -3.471274 -0.292945 C -3.452305 -0.388864 -3.423851 -0.483196 -3.386046 -0.574473 C -3.347571 -0.66495 -3.302014 -0.751836 -3.246567 -0.833399 C -3.19259 -0.915095 -3.130192 -0.9916 -3.060306 -1.060779 C -2.991088 -1.130758 -2.915183 -1.192743 -2.833258 -1.247534 C -2.751334 -1.302326 -2.664991 -1.348587 -2.574229 -1.386318 C -2.482799 -1.42325 -2.389089 -1.452583 -2.292692 -1.470583 C -2.196164 -1.49005 -2.098287 -1.499783 -2.000532 -1.499913 C -1.901307 -1.499911 -1.803672 -1.490438 -1.707626 -1.471493 C -1.610912 -1.451749 -1.516457 -1.423333 -1.42653 -1.385708 C -1.335134 -1.347952 -1.248936 -1.301787 -1.166465 -1.24708 C -1.084662 -1.193173 -1.008858 -1.130189 -0.939588 -1.060394 C -0.869517 -0.991267 -0.807451 -0.915461 -0.752588 -0.833644 C -0.697725 -0.751826 -0.652203 -0.664928 -0.614423 -0.574285 C -0.575973 -0.482843 -0.548071 -0.389387 -0.528578 -0.292985 C -0.509886 -0.195915 -0.500141 -0.0981662 -0.500011 -0.000538195 Z M -0.500011 -0.000538195 " stroke="#f3eff5" stroke-width="1" stroke-opacity="1" stroke-miterlimit="4"/><path stroke-linecap="butt" transform="matrix(-3.256847, -1.880342, 1.875, -3.247595, 187.495144, 238.376572)" fill="none" stroke-linejoin="miter" d="M -0.00000972475 0.000489541 L 29.158009 -0.000379087 " stroke="#f3eff5" stroke-width="1" stroke-opacity="1" stroke-miterlimit="4"/><path stroke-linecap="butt" transform="matrix(-3.256847, -1.880342, 1.875, -3.247595, 80.319998, 176.498984)" fill-opacity="1" fill="#f3eff5" fill-rule="nonzero" stroke-linejoin="miter" d="M -0.499964 0.000488415 C -0.500175 0.0980385 -0.50966 0.196147 -0.528557 0.292488 C -0.548355 0.389351 -0.576285 0.482502 -0.614528 0.574408 C -0.652391 0.664891 -0.698387 0.751663 -0.753036 0.833822 C -0.808204 0.91508 -0.869706 0.991585 -0.9391 1.060631 C -1.009394 1.130198 -1.084742 1.19307 -1.166184 1.247441 C -1.248525 1.302333 -1.335159 1.347682 -1.425949 1.385815 C -1.516739 1.423948 -1.610923 1.452019 -1.707463 1.47183 C -1.803622 1.490219 -1.901238 1.499829 -1.999411 1.500138 C -2.099002 1.500066 -2.195932 1.490033 -2.292899 1.471602 C -2.389487 1.451748 -2.482893 1.422836 -2.574018 1.385386 C -2.665144 1.347936 -2.751669 1.301809 -2.833595 1.247005 C -2.915521 1.192201 -2.990909 1.130002 -3.060659 1.060931 C -3.130929 0.990958 -3.192722 0.914874 -3.246938 0.833201 C -3.302054 0.752048 -3.348694 0.664786 -3.3853 0.574119 C -3.423325 0.48307 -3.452215 0.389139 -3.470551 0.292705 C -3.490307 0.19589 -3.499889 0.0979961 -3.500197 -0.000456028 C -3.499986 -0.0980061 -3.490501 -0.196114 -3.471603 -0.292456 C -3.451806 -0.389318 -3.422976 -0.482991 -3.385632 -0.574376 C -3.347769 -0.664858 -3.301773 -0.75163 -3.247125 -0.83379 C -3.191957 -0.915047 -3.129935 -0.99065 -3.06106 -1.060599 C -2.990767 -1.130166 -2.914899 -1.192135 -2.833977 -1.247408 C -2.751636 -1.3023 -2.665001 -1.34765 -2.574212 -1.385783 C -2.482903 -1.423014 -2.389238 -1.451986 -2.292179 -1.470896 C -2.195639 -1.490708 -2.098922 -1.499796 -1.99985 -1.500626 C -1.901159 -1.500033 -1.804229 -1.490001 -1.707261 -1.47157 C -1.610674 -1.451716 -1.516368 -1.423325 -1.426142 -1.385354 C -1.335017 -1.347904 -1.248492 -1.301777 -1.166565 -1.246973 C -1.084639 -1.192168 -1.009251 -1.12997 -0.939501 -1.060899 C -0.869232 -0.990926 -0.807439 -0.914842 -0.753223 -0.833169 C -0.698106 -0.752016 -0.651467 -0.664753 -0.613961 -0.574607 C -0.576836 -0.483038 -0.547946 -0.389106 -0.52871 -0.293193 C -0.509854 -0.195858 -0.500272 -0.0979638 -0.499964 0.000488415 Z M -0.499964 0.000488415 " stroke="#f3eff5" stroke-width="1" stroke-opacity="1" stroke-miterlimit="4"/><path stroke-linecap="butt" transform="matrix(3.392408, -1.621542, 1.617216, 3.383358, 187.49945, 236.130306)" fill="none" stroke-linejoin="miter" d="M 0.00029258 -0.000273519 L 28.965535 -0.00039086 " stroke="#f3eff5" stroke-width="1" stroke-opacity="1" stroke-miterlimit="4"/><path stroke-linecap="butt" transform="matrix(3.392408, -1.621542, 1.617216, 3.383358, 298.483521, 183.080846)" fill-opacity="1" fill="#f3eff5" fill-rule="nonzero" stroke-linejoin="miter" d="M -0.499467 -0.0000380187 C -0.500505 0.0987557 -0.509938 0.195835 -0.528661 0.29308 C -0.547873 0.388936 -0.576417 0.482629 -0.614293 0.574158 C -0.651721 0.664748 -0.697585 0.751294 -0.752822 0.833348 C -0.80806 0.915402 -0.869451 0.991043 -0.93932 1.060312 C -1.009636 1.13052 -1.085211 1.192436 -1.166493 1.246999 C -1.249159 1.302052 -1.334762 1.348771 -1.426112 1.385808 C -1.516525 1.423294 -1.610811 1.451997 -1.707584 1.471426 C -1.80391 1.489914 -1.901786 1.499578 -1.999826 1.499927 C -2.098805 1.499826 -2.195625 1.490368 -2.292611 1.471595 C -2.389148 1.451882 -2.482591 1.423262 -2.574324 1.386224 C -2.665609 1.348247 -2.751925 1.30226 -2.83376 1.246875 C -2.915106 1.192879 -2.991034 1.129935 -3.060566 1.060819 C -3.12965 0.990763 -3.192786 0.915477 -3.246755 0.833038 C -3.30211 0.75109 -3.348704 0.665259 -3.385642 0.573664 C -3.423029 0.48301 -3.452103 0.389411 -3.471479 0.292379 C -3.489919 0.195796 -3.500005 0.0985981 -3.500353 0.000294921 C -3.500252 -0.098948 -3.49082 -0.196028 -3.471159 -0.292823 C -3.451947 -0.388679 -3.422955 -0.483312 -3.385527 -0.573901 C -3.348098 -0.664491 -3.302235 -0.751037 -3.246997 -0.833091 C -3.192698 -0.915594 -3.130369 -0.990786 -3.0605 -1.060055 C -2.991121 -1.130713 -2.915546 -1.192628 -2.833327 -1.246742 C -2.751598 -1.302244 -2.665058 -1.348514 -2.573708 -1.385551 C -2.482847 -1.423977 -2.389009 -1.45174 -2.292236 -1.471169 C -2.195462 -1.490597 -2.098972 -1.499771 -1.999994 -1.49967 C -1.901953 -1.500018 -1.804195 -1.490111 -1.707209 -1.471338 C -1.610672 -1.451625 -1.516781 -1.423944 -1.425496 -1.385967 C -1.335148 -1.348439 -1.248833 -1.302452 -1.166997 -1.247067 C -1.084714 -1.192622 -1.008786 -1.129678 -0.939254 -1.060562 C -0.869722 -0.991446 -0.807034 -0.91522 -0.752617 -0.833721 C -0.698648 -0.751283 -0.652053 -0.665451 -0.61373 -0.574347 C -0.576791 -0.482753 -0.547717 -0.389155 -0.529278 -0.292571 C -0.509453 -0.196479 -0.499815 -0.0983412 -0.499467 -0.0000380187 Z M -0.499467 -0.0000380187 " stroke="#f3eff5" stroke-width="1" stroke-opacity="1" stroke-miterlimit="4"/></svg>