<svg xmlns="http://www.w3.org/2000/svg" xmlns:xlink="http://www.w3.org/1999/xlink" width="400" zoomAndPan="magnify" viewBox="0 0 300 299.999988" height="400" preserveAspectRatio="xMidYMid meet" version="1.0"><defs><clipPath id="0f04455776"><path d="M 7.242188 197.117188 L 292.992188 197.117188 L 292.992188 270.230469 L 7.242188 270.230469 Z M 7.242188 197.117188 " clip-rule="nonzero"/></clipPath></defs><path stroke-linecap="butt" transform="matrix(2.295032, -2.943035, 2.957144, 2.306035, 196.184815, 146.79721)" fill="none" stroke-linejoin="miter" d="M -0.000130488 -0.000311636 L 13.937786 -0.000205832 " stroke="#f3eff5" stroke-width="1" stroke-opacity="1" stroke-miterlimit="4"/><path stroke-linecap="butt" transform="matrix(2.295032, -2.943035, 2.957144, 2.306035, 236.777931, 94.742644)" fill-opacity="1" fill="#f3eff5" fill-rule="nonzero" stroke-linejoin="miter" d="M -0.500393 -0.000205496 C -0.499991 0.0985545 -0.509873 0.196048 -0.528569 0.292457 C -0.54809 0.389506 -0.576886 0.483187 -0.614316 0.574321 C -0.651745 0.665454 -0.698268 0.751757 -0.752417 0.83341 C -0.807391 0.915704 -0.869626 0.990424 -0.939487 1.060494 C -1.009348 1.130565 -1.084176 1.192602 -1.166266 1.247065 C -1.248356 1.301528 -1.335414 1.347958 -1.426613 1.385713 C -1.516343 1.42365 -1.610859 1.452091 -1.707223 1.471398 C -1.803586 1.490706 -1.900972 1.500239 -1.99938 1.499998 C -2.098614 1.500398 -2.19575 1.489923 -2.29262 1.471316 C -2.388666 1.452069 -2.482796 1.42341 -2.574366 1.386159 C -2.665111 1.348268 -2.751828 1.301966 -2.833047 1.247436 C -2.91491 1.192083 -2.990814 1.130785 -3.060395 1.060617 C -3.130801 0.99109 -3.192953 0.915156 -3.247678 0.833458 C -3.301576 0.751119 -3.348229 0.664477 -3.386165 0.573713 C -3.424102 0.482949 -3.452036 0.389705 -3.471254 0.29234 C -3.490654 0.196436 -3.500052 0.0980527 -3.499809 0.000114198 C -3.500211 -0.0986458 -3.490329 -0.19614 -3.471634 -0.292548 C -3.452113 -0.389598 -3.423316 -0.483278 -3.385886 -0.574412 C -3.347814 -0.664724 -3.301934 -0.751848 -3.247785 -0.833502 C -3.192168 -0.914974 -3.12975 -0.991156 -3.060715 -1.060586 C -2.990854 -1.130656 -2.915382 -1.191871 -2.833936 -1.247156 C -2.751846 -1.301619 -2.664788 -1.348049 -2.573589 -1.385805 C -2.483215 -1.42292 -2.389343 -1.452182 -2.292979 -1.47149 C -2.195972 -1.489976 -2.098586 -1.499509 -1.999353 -1.499909 C -1.901588 -1.500489 -1.803627 -1.490654 -1.707582 -1.471407 C -1.610892 -1.451339 -1.517406 -1.423501 -1.425836 -1.38625 C -1.335091 -1.348359 -1.248374 -1.302058 -1.166511 -1.246706 C -1.084467 -1.192815 -1.008745 -1.130055 -0.939807 -1.060708 C -0.869401 -0.991181 -0.807249 -0.915248 -0.752525 -0.833549 C -0.6978 -0.751851 -0.651973 -0.664569 -0.614037 -0.573804 C -0.5761 -0.48304 -0.547522 -0.388975 -0.528948 -0.292431 C -0.509548 -0.196527 -0.500151 -0.098144 -0.500393 -0.000205496 Z M -0.500393 -0.000205496 " stroke="#f3eff5" stroke-width="1" stroke-opacity="1" stroke-miterlimit="4"/><path stroke-linecap="butt" transform="matrix(2.445725, -2.834684, 2.83928, 2.449691, 148.813206, 204.338537)" fill="none" stroke-linejoin="miter" d="M -0.000387442 0.0000851379 L 17.485379 0.000170868 " stroke="#f3eff5" stroke-width="1" stroke-opacity="1" stroke-miterlimit="4"/><path stroke-linecap="butt" transform="matrix(2.445725, -2.834684, 2.83928, 2.449691, 200.749941, 144.142006)" fill-opacity="1" fill="#f3eff5" fill-rule="nonzero" stroke-linejoin="miter" d="M -0.499801 -0.0000777044 C -0.499706 0.098897 -0.509803 0.195645 -0.528838 0.293213 C -0.547764 0.389312 -0.576883 0.483184 -0.613933 0.574257 C -0.651664 0.664541 -0.698008 0.751238 -0.752855 0.832878 C -0.807021 0.915307 -0.869583 0.991209 -0.939069 1.060694 C -1.008555 1.130179 -1.084175 1.192566 -1.166611 1.247066 C -1.248365 1.302355 -1.335356 1.348395 -1.42611 1.385297 C -1.516973 1.423667 -1.61081 1.452217 -1.707621 1.470947 C -1.803751 1.490466 -1.901383 1.500273 -1.999728 1.499688 C -2.098864 1.499783 -2.196559 1.490382 -2.292813 1.471487 C -2.389749 1.451802 -2.483092 1.423519 -2.573523 1.385849 C -2.665425 1.348071 -2.750791 1.30191 -2.833353 1.247832 C -2.915807 1.192284 -2.991151 1.130612 -3.060749 1.061239 C -3.130238 0.990396 -3.192726 0.914899 -3.246633 0.833385 C -3.302011 0.751763 -3.348127 0.664914 -3.385769 0.573518 C -3.42352 0.483591 -3.451327 0.389225 -3.471559 0.292462 C -3.490319 0.195808 -3.500142 0.0983332 -3.499556 0.000147134 C -3.499651 -0.0988276 -3.490236 -0.196364 -3.471309 -0.292463 C -3.451593 -0.389242 -3.423946 -0.483223 -3.385424 -0.574187 C -3.348375 -0.66526 -3.302031 -0.751957 -3.247183 -0.833597 C -3.192336 -0.915237 -3.129774 -0.99114 -3.060288 -1.060625 C -2.990802 -1.13011 -2.915182 -1.192497 -2.833427 -1.247785 C -2.751781 -1.301605 -2.664791 -1.347645 -2.573929 -1.386016 C -2.483174 -1.422917 -2.389337 -1.451467 -2.292418 -1.471666 C -2.195606 -1.490397 -2.098764 -1.499523 -2.00031 -1.500407 C -1.901965 -1.499822 -1.80427 -1.490421 -1.707334 -1.470737 C -1.611079 -1.451841 -1.516265 -1.42345 -1.425834 -1.38578 C -1.335403 -1.34811 -1.248566 -1.301841 -1.166794 -1.247082 C -1.085021 -1.192323 -1.008996 -1.129862 -0.939398 -1.060489 C -0.8698 -0.991116 -0.807312 -0.915618 -0.752724 -0.833315 C -0.698136 -0.751013 -0.651912 -0.665633 -0.614269 -0.574237 C -0.576627 -0.482841 -0.54803 -0.389156 -0.52927 -0.292501 C -0.509719 -0.196527 -0.499896 -0.0990524 -0.499801 -0.0000777044 Z M -0.499801 -0.0000777044 " stroke="#f3eff5" stroke-width="1" stroke-opacity="1" stroke-miterlimit="4"/><path stroke-linecap="butt" transform="matrix(3.769315, -0.132198, 0.13144, 3.747696, 196.252711, 149.423733)" fill="none" stroke-linejoin="miter" d="M 0.000334041 -0.000484094 L 11.960576 0.000314918 " stroke="#f3eff5" stroke-width="1" stroke-opacity="1" stroke-miterlimit="4"/><path stroke-linecap="butt" transform="matrix(3.769315, -0.132198, 0.13144, 3.747696, 255.470786, 147.346819)" fill-opacity="1" fill="#f3eff5" fill-rule="nonzero" stroke-linejoin="miter" d="M -0.500061 0.000303193 C -0.500368 0.0982692 -0.509991 0.195907 -0.528893 0.292174 C -0.547831 0.389483 -0.577011 0.483304 -0.614362 0.573709 C -0.65175 0.665156 -0.698272 0.751069 -0.752965 0.833566 C -0.807622 0.915023 -0.869343 0.991019 -0.939126 1.060476 C -1.008909 1.129934 -1.084685 1.192926 -1.166381 1.247372 C -1.248077 1.301817 -1.334658 1.347751 -1.42616 1.386216 C -1.51659 1.423676 -1.610834 1.451621 -1.706858 1.471164 C -1.803917 1.490671 -1.901648 1.499731 -2.000123 1.500427 C -2.098562 1.500082 -2.19564 1.490403 -2.29239 1.471356 C -2.389141 1.452308 -2.483495 1.423965 -2.574381 1.38532 C -2.665303 1.347717 -2.751794 1.301932 -2.833819 1.246923 C -2.914844 1.192992 -2.991403 1.129837 -3.060498 1.060692 C -3.130629 0.991511 -3.192225 0.915334 -3.247393 0.833131 C -3.301526 0.750963 -3.348268 0.664888 -3.385513 0.573935 C -3.423794 0.482947 -3.451614 0.3892 -3.471046 0.292622 C -3.490477 0.196045 -3.499522 0.098791 -3.500214 -0.000252543 C -3.499906 -0.0982186 -3.490284 -0.195856 -3.471382 -0.292124 C -3.452444 -0.389433 -3.423264 -0.483253 -3.385912 -0.573659 C -3.348525 -0.665105 -3.302003 -0.751018 -3.24731 -0.833516 C -3.192653 -0.914972 -3.129897 -0.990932 -3.061149 -1.060426 C -2.991365 -1.129883 -2.915589 -1.192876 -2.832858 -1.247284 C -2.751163 -1.30173 -2.664582 -1.347664 -2.574115 -1.386165 C -2.482649 -1.423589 -2.38944 -1.45157 -2.292382 -1.471077 C -2.196358 -1.490621 -2.098627 -1.499681 -2.000151 -1.500376 C -1.901712 -1.500031 -1.8036 -1.490316 -1.706849 -1.471269 C -1.611133 -1.452258 -1.51678 -1.423914 -1.425858 -1.386311 C -1.334972 -1.347666 -1.248481 -1.301881 -1.166456 -1.246872 C -1.084395 -1.192904 -1.008872 -1.129787 -0.939776 -1.060642 C -0.869646 -0.99146 -0.807015 -0.915247 -0.752882 -0.83308 C -0.697678 -0.751917 -0.652007 -0.664837 -0.613726 -0.573848 C -0.576481 -0.482896 -0.547625 -0.389113 -0.529229 -0.292572 C -0.509797 -0.195994 -0.499718 -0.0987039 -0.500061 0.000303193 Z M -0.500061 0.000303193 " stroke="#f3eff5" stroke-width="1" stroke-opacity="1" stroke-miterlimit="4"/><path stroke-linecap="butt" transform="matrix(0.000000000000000229, -3.742204, 3.75, 0.00000000000000023, 194.395303, 147.952723)" fill="none" stroke-linejoin="miter" d="M -0.000107392 -0.00020578 L 20.301476 -0.00020578 " stroke="#f3eff5" stroke-width="1" stroke-opacity="1" stroke-miterlimit="4"/><path stroke-linecap="butt" transform="matrix(0.000000000000000229, -3.742204, 3.75, 0.00000000000000023, 194.395303, 57.948826)" fill-opacity="1" fill="#f3eff5" fill-rule="nonzero" stroke-linejoin="miter" d="M -0.500103 -0.00020578 C -0.500103 0.0987526 -0.509497 0.195628 -0.52933 0.292503 C -0.548119 0.389378 -0.576303 0.483128 -0.613881 0.573753 C -0.651459 0.665419 -0.698432 0.751878 -0.752711 0.833128 C -0.808035 0.915419 -0.869621 0.991461 -0.939558 1.060211 C -1.009495 1.130003 -1.084652 1.192503 -1.167115 1.247711 C -1.248534 1.301878 -1.335172 1.347711 -1.425986 1.386253 C -1.5168 1.423753 -1.610745 1.451878 -1.707822 1.471669 C -1.803855 1.490419 -1.901976 1.499794 -2.000096 1.499794 C -2.098217 1.499794 -2.196338 1.490419 -2.292371 1.471669 C -2.389448 1.451878 -2.483393 1.423753 -2.574207 1.386253 C -2.665021 1.347711 -2.751659 1.301878 -2.833078 1.247711 C -2.915541 1.192503 -2.990698 1.130003 -3.060635 1.060211 C -3.130572 0.991461 -3.192158 0.915419 -3.247482 0.833128 C -3.301761 0.751878 -3.34769 0.665419 -3.386312 0.573753 C -3.42389 0.483128 -3.452074 0.389378 -3.470863 0.292503 C -3.490696 0.195628 -3.50009 0.0987526 -3.50009 -0.00020578 C -3.50009 -0.0981225 -3.490696 -0.196039 -3.470863 -0.292914 C -3.452074 -0.388747 -3.42389 -0.483539 -3.386312 -0.574164 C -3.34769 -0.664789 -3.301761 -0.751248 -3.247482 -0.833539 C -3.192158 -0.914789 -3.130572 -0.990831 -3.060635 -1.060623 C -2.990698 -1.130414 -2.915541 -1.192914 -2.833078 -1.247081 C -2.751659 -1.302289 -2.665021 -1.348123 -2.574207 -1.385623 C -2.483393 -1.423123 -2.389448 -1.452289 -2.292371 -1.471039 C -2.196338 -1.490831 -2.098217 -1.500206 -2.000096 -1.500206 C -1.901976 -1.500206 -1.803855 -1.490831 -1.707822 -1.471039 C -1.610745 -1.452289 -1.5168 -1.423123 -1.425986 -1.385623 C -1.335172 -1.348123 -1.248534 -1.302289 -1.167115 -1.247081 C -1.084652 -1.192914 -1.009495 -1.130414 -0.939558 -1.060623 C -0.869621 -0.990831 -0.808035 -0.914789 -0.752711 -0.833539 C -0.698432 -0.751248 -0.651459 -0.664789 -0.613881 -0.574164 C -0.576303 -0.483539 -0.548119 -0.388747 -0.52933 -0.292914 C -0.509497 -0.196039 -0.500103 -0.0981225 -0.500103 -0.00020578 Z M -0.500103 -0.00020578 " stroke="#f3eff5" stroke-width="1" stroke-opacity="1" stroke-miterlimit="4"/><path stroke-linecap="butt" transform="matrix(-2.640886, -2.640886, 2.65165, -2.65165, 149.800071, 200.29075)" fill="none" stroke-linejoin="miter" d="M 0.000185101 0.000452063 L 14.728022 0.000452063 " stroke="#f3eff5" stroke-width="1" stroke-opacity="1" stroke-miterlimit="4"/><path stroke-linecap="butt" transform="matrix(-2.640886, -2.640886, 2.65165, -2.65165, 101.00203, 151.492708)" fill-opacity="1" fill="#f3eff5" fill-rule="nonzero" stroke-linejoin="miter" d="M -0.500207 0.000452063 C -0.499468 0.0984158 -0.509822 0.195643 -0.529051 0.29287 C -0.54754 0.389361 -0.576383 0.482905 -0.614101 0.573503 C -0.65182 0.665574 -0.698413 0.751753 -0.752401 0.833512 C -0.807869 0.915271 -0.869254 0.991138 -0.939513 1.061112 C -1.009033 1.13035 -1.084469 1.192222 -1.166562 1.247464 C -1.247915 1.301971 -1.335184 1.347638 -1.425412 1.385939 C -1.516379 1.423505 -1.610305 1.452231 -1.707189 1.470645 C -1.804073 1.490532 -1.900957 1.500108 -2.000059 1.500108 C -2.098422 1.499371 -2.196046 1.490532 -2.29219 1.471382 C -2.389074 1.451494 -2.483739 1.423505 -2.573967 1.385203 C -2.664935 1.347638 -2.751464 1.301234 -2.833557 1.247464 C -2.915649 1.192222 -2.991086 1.13035 -3.060606 1.061112 C -3.130865 0.991138 -3.192249 0.915271 -3.247717 0.833512 C -3.301706 0.751753 -3.348299 0.665574 -3.386017 0.573503 C -3.423735 0.482905 -3.451839 0.388624 -3.471068 0.29287 C -3.490297 0.195643 -3.500651 0.0984158 -3.499911 0.000452063 C -3.499911 -0.0982483 -3.490297 -0.196212 -3.471808 -0.292703 C -3.451839 -0.389193 -3.423735 -0.483474 -3.386017 -0.574072 C -3.348299 -0.66467 -3.302446 -0.751585 -3.246978 -0.833345 C -3.192989 -0.915104 -3.130125 -0.990971 -3.060606 -1.060208 C -2.991086 -1.130919 -2.915649 -1.192791 -2.832817 -1.247297 C -2.751464 -1.301803 -2.664935 -1.348207 -2.573967 -1.385772 C -2.483 -1.423337 -2.389074 -1.452063 -2.29293 -1.471214 C -2.196046 -1.491101 -2.098422 -1.49994 -2.000059 -1.500677 C -1.901696 -1.49994 -1.803333 -1.490365 -1.707189 -1.471214 C -1.611044 -1.452063 -1.517119 -1.423337 -1.426151 -1.385772 C -1.335184 -1.348207 -1.248654 -1.301803 -1.166562 -1.24656 C -1.084469 -1.192791 -1.009033 -1.130919 -0.939513 -1.060208 C -0.869993 -0.990971 -0.80713 -0.915104 -0.753141 -0.833345 C -0.697673 -0.751585 -0.65182 -0.66467 -0.614101 -0.574072 C -0.576383 -0.483474 -0.54828 -0.389193 -0.528311 -0.292703 C -0.509822 -0.196212 -0.500207 -0.0982483 -0.500207 0.000452063 Z M -0.500207 0.000452063 " stroke="#f3eff5" stroke-width="1" stroke-opacity="1" stroke-miterlimit="4"/><path stroke-linecap="butt" transform="matrix(0.972879, -3.630833, 3.622221, 0.970571, 151.54495, 116.34407)" fill="none" stroke-linejoin="miter" d="M 0.000214874 0.000473613 L 18.597239 -0.000300426 " stroke="#f3eff5" stroke-width="1" stroke-opacity="1" stroke-miterlimit="4"/><path stroke-linecap="butt" transform="matrix(0.972879, -3.630833, 3.622221, 0.970571, 173.286275, 35.204309)" fill-opacity="1" fill="#f3eff5" fill-rule="nonzero" stroke-linejoin="miter" d="M -0.499885 0.000230175 C -0.500504 0.098532 -0.50996 0.195972 -0.529257 0.29282 C -0.547551 0.389399 -0.576223 0.483373 -0.61427 0.574472 C -0.651314 0.665303 -0.69827 0.751247 -0.752594 0.833778 C -0.807188 0.915302 -0.869686 0.991401 -0.939355 1.060799 C -1.009024 1.130196 -1.08486 1.192623 -1.167132 1.247072 C -1.248131 1.302258 -1.334832 1.348191 -1.42596 1.385608 C -1.517088 1.423025 -1.610368 1.452392 -1.707611 1.470961 C -1.803581 1.490267 -1.900967 1.500248 -2.00004 1.499897 C -2.098843 1.500552 -2.196321 1.490067 -2.292939 1.470724 C -2.389289 1.452388 -2.48304 1.423647 -2.573924 1.385509 C -2.664539 1.348378 -2.751283 1.301579 -2.833618 1.247126 C -2.914949 1.192403 -2.990867 1.129756 -3.060835 1.061197 C -3.130068 0.991362 -3.192347 0.915346 -3.247671 0.833148 C -3.301722 0.751686 -3.34855 0.66505 -3.385878 0.573705 C -3.422937 0.483366 -3.452504 0.388858 -3.47076 0.292391 C -3.49002 0.196193 -3.499977 0.0985745 -3.500362 0.000542315 C -3.500012 -0.0987657 -3.490555 -0.196206 -3.471258 -0.293054 C -3.451692 -0.388896 -3.42302 -0.48287 -3.385976 -0.5737 C -3.347929 -0.6648 -3.302245 -0.75148 -3.246648 -0.833275 C -3.192324 -0.915805 -3.130561 -0.990629 -3.06116 -1.061032 C -2.991491 -1.13043 -2.915655 -1.192856 -2.833383 -1.247306 C -2.751111 -1.301755 -2.66468 -1.348695 -2.574556 -1.385842 C -2.483427 -1.423259 -2.388874 -1.451889 -2.292905 -1.471195 C -2.195931 -1.49077 -2.098276 -1.499745 -2.000476 -1.50013 C -1.901404 -1.49978 -1.804195 -1.490301 -1.707576 -1.470958 C -1.610958 -1.451615 -1.517476 -1.423881 -1.425588 -1.386013 C -1.334704 -1.347875 -1.248229 -1.302082 -1.166898 -1.24736 C -1.084563 -1.192906 -1.008645 -1.130259 -0.939412 -1.060424 C -0.869175 -0.990859 -0.807165 -0.915849 -0.752845 -0.833381 C -0.697521 -0.751184 -0.651966 -0.665284 -0.614637 -0.573939 C -0.576306 -0.482863 -0.548012 -0.389092 -0.528752 -0.292894 C -0.509223 -0.19569 -0.500539 -0.0988082 -0.499885 0.000230175 Z M -0.499885 0.000230175 " stroke="#f3eff5" stroke-width="1" stroke-opacity="1" stroke-miterlimit="4"/><path stroke-linecap="butt" transform="matrix(2.734313, -2.538488, 2.551412, 2.748234, 106.066322, 156.252642)" fill="none" stroke-linejoin="miter" d="M -0.000213944 0.000262247 L 14.142973 0.000251029 " stroke="#f3eff5" stroke-width="1" stroke-opacity="1" stroke-miterlimit="4"/><path stroke-linecap="butt" transform="matrix(2.734313, -2.538488, 2.551412, 2.748234, 154.990306, 110.832493)" fill-opacity="1" fill="#f3eff5" fill-rule="nonzero" stroke-linejoin="miter" d="M -0.499605 0.000301709 C -0.49965 0.0983347 -0.509339 0.195987 -0.529441 0.29255 C -0.548064 0.389058 -0.577154 0.483005 -0.613751 0.57428 C -0.651829 0.665611 -0.697524 0.751326 -0.752974 0.833716 C -0.807712 0.915343 -0.870068 0.991355 -0.939329 1.060988 C -1.00859 1.130622 -1.084812 1.192404 -1.16646 1.247754 C -1.248162 1.301631 -1.334579 1.348312 -1.425763 1.386324 C -1.517003 1.422864 -1.610765 1.451389 -1.707815 1.471191 C -1.804153 1.490229 -1.901588 1.499726 -2.00012 1.499681 C -2.098652 1.499637 -2.196035 1.490705 -2.292322 1.471413 C -2.389376 1.451413 -2.483034 1.423179 -2.574062 1.386004 C -2.664378 1.348065 -2.751297 1.301892 -2.833339 1.247432 C -2.915382 1.192971 -2.991068 1.130168 -3.060344 1.060494 C -3.130332 0.991584 -3.192429 0.915748 -3.247348 0.83375 C -3.302267 0.751753 -3.348473 0.665011 -3.385966 0.573524 C -3.423404 0.48351 -3.452129 0.388752 -3.471265 0.292901 C -3.490455 0.195579 -3.5 0.0986378 -3.499955 0.000604821 C -3.499965 -0.0989003 -3.490276 -0.196553 -3.470886 -0.292352 C -3.452263 -0.38886 -3.423174 -0.482807 -3.385809 -0.573374 C -3.347731 -0.664704 -3.302091 -0.751892 -3.247353 -0.833519 C -3.192616 -0.915146 -3.13026 -0.991157 -3.060999 -1.060791 C -2.99097 -1.129715 -2.915516 -1.192207 -2.833101 -1.246847 C -2.751453 -1.302197 -2.664982 -1.347405 -2.573797 -1.385417 C -2.482612 -1.423429 -2.38885 -1.451954 -2.292512 -1.470993 C -2.196174 -1.490031 -2.098739 -1.499528 -2.000207 -1.499484 C -1.900963 -1.500202 -1.804293 -1.490507 -1.708006 -1.471215 C -1.610239 -1.451979 -1.516581 -1.423745 -1.426265 -1.385806 C -1.33447 -1.347921 -1.249031 -1.301694 -1.166988 -1.247234 C -1.084946 -1.192773 -1.009259 -1.12997 -0.939271 -1.06106 C -0.869996 -0.991386 -0.807899 -0.91555 -0.75298 -0.833553 C -0.698061 -0.751555 -0.651855 -0.664813 -0.613649 -0.57409 C -0.576923 -0.483312 -0.547486 -0.389317 -0.529063 -0.292704 C -0.50916 -0.196145 -0.500327 -0.09844 -0.499605 0.000301709 Z M -0.499605 0.000301709 " stroke="#f3eff5" stroke-width="1" stroke-opacity="1" stroke-miterlimit="4"/><path stroke-linecap="butt" transform="matrix(-1.105464, -3.565473, 3.627131, -1.124581, 150.864414, 116.324398)" fill="none" stroke-linejoin="miter" d="M 0.000135626 -0.000270875 L 16.141295 -0.000349689 " stroke="#f3eff5" stroke-width="1" stroke-opacity="1" stroke-miterlimit="4"/><path stroke-linecap="butt" transform="matrix(-1.105464, -3.565473, 3.627131, -1.124581, 128.875512, 45.403184)" fill-opacity="1" fill="#f3eff5" fill-rule="nonzero" stroke-linejoin="miter" d="M -0.500519 0.000239905 C -0.499733 0.098482 -0.509563 0.195643 -0.529317 0.29301 C -0.547762 0.389699 -0.576202 0.483341 -0.614638 0.573938 C -0.652073 0.664839 -0.697884 0.751033 -0.752381 0.833503 C -0.807878 0.915669 -0.86982 0.990485 -0.939139 1.0609 C -1.009148 1.130027 -1.084604 1.192109 -1.166506 1.246841 C -1.248408 1.301574 -1.335448 1.348279 -1.426005 1.385297 C -1.516872 1.423297 -1.610257 1.451914 -1.70716 1.470843 C -1.804374 1.490754 -1.901486 1.499927 -2.000118 1.500021 C -2.09875 1.500115 -2.196591 1.490758 -2.292333 1.47127 C -2.389075 1.451478 -2.483338 1.423826 -2.574191 1.385367 C -2.665355 1.34789 -2.751731 1.302179 -2.833008 1.247253 C -2.915285 1.192022 -2.991086 1.13015 -3.061098 1.060349 C -3.130111 0.990852 -3.192647 0.914714 -3.247017 0.833526 C -3.302076 0.751051 -3.34828 0.664814 -3.385318 0.573831 C -3.423355 0.482544 -3.451847 0.388781 -3.470794 0.292542 C -3.49074 0.195999 -3.500451 0.0982676 -3.500237 0.000330109 C -3.499713 -0.0985898 -3.490883 -0.196055 -3.471438 -0.29244 C -3.451993 -0.388824 -3.423243 -0.483449 -3.385808 -0.57435 C -3.348372 -0.665251 -3.301561 -0.751141 -3.247065 -0.833611 C -3.192878 -0.915099 -3.130625 -0.990898 -3.060306 -1.061007 C -2.991297 -1.130439 -2.914842 -1.192217 -2.83294 -1.246949 C -2.751038 -1.301682 -2.665308 -1.347709 -2.574441 -1.385709 C -2.482574 -1.423405 -2.389189 -1.452022 -2.292285 -1.470951 C -2.196382 -1.490184 -2.097959 -1.500035 -2.000327 -1.500434 C -1.901696 -1.500528 -1.804164 -1.490188 -1.707112 -1.471378 C -1.610371 -1.451586 -1.517418 -1.423256 -1.426254 -1.385779 C -1.33509 -1.348302 -1.249025 -1.301609 -1.166438 -1.247361 C -1.08516 -1.192435 -1.00936 -1.130562 -0.939347 -1.060761 C -0.869334 -0.99096 -0.807798 -0.915127 -0.752429 -0.833634 C -0.698369 -0.751464 -0.652165 -0.665226 -0.614128 -0.573939 C -0.57609 -0.482652 -0.547599 -0.388889 -0.528652 -0.29265 C -0.509706 -0.196412 -0.499995 -0.0986801 -0.500519 0.000239905 Z M -0.500519 0.000239905 " stroke="#f3eff5" stroke-width="1" stroke-opacity="1" stroke-miterlimit="4"/><path stroke-linecap="butt" transform="matrix(-2.084516, -3.1083, 3.114481, -2.088661, 106.060632, 159.212332)" fill="none" stroke-linejoin="miter" d="M 0.000031376 0.000620863 L 18.295875 -0.00023143 " stroke="#f3eff5" stroke-width="1" stroke-opacity="1" stroke-miterlimit="4"/><path stroke-linecap="butt" transform="matrix(-2.084516, -3.1083, 3.114481, -2.088661, 60.105327, 90.68663)" fill-opacity="1" fill="#f3eff5" fill-rule="nonzero" stroke-linejoin="miter" d="M -0.500439 -0.0000202878 C -0.49984 0.0982099 -0.509083 0.196124 -0.528452 0.292278 C -0.548403 0.389296 -0.576452 0.483403 -0.614331 0.573439 C -0.651926 0.66492 -0.697903 0.752044 -0.752549 0.833367 C -0.807776 0.915554 -0.869642 0.99079 -0.939309 1.060804 C -1.008977 1.130818 -1.084703 1.193015 -1.166486 1.247396 C -1.248269 1.301776 -1.334661 1.348054 -1.425664 1.38623 C -1.516951 1.42296 -1.610533 1.451884 -1.707562 1.470976 C -1.803724 1.490648 -1.901885 1.500202 -1.999729 1.499935 C -2.099021 1.499953 -2.195682 1.490443 -2.292027 1.471112 C -2.389819 1.452066 -2.482665 1.423788 -2.573747 1.385404 C -2.66541 1.347884 -2.751259 1.301713 -2.832744 1.247176 C -2.915095 1.192058 -2.99048 1.130315 -3.060634 1.060786 C -3.130787 0.991256 -3.192526 0.914816 -3.247014 0.833195 C -3.301503 0.751574 -3.347873 0.665353 -3.385543 0.573667 C -3.423795 0.482845 -3.451329 0.389164 -3.471039 0.293193 C -3.490169 0.196356 -3.499743 0.0983906 -3.500342 0.000160463 C -3.499492 -0.0983547 -3.49025 -0.196269 -3.47088 -0.292422 C -3.452377 -0.389156 -3.423462 -0.482683 -3.385868 -0.574164 C -3.348274 -0.665645 -3.302011 -0.751324 -3.246784 -0.833511 C -3.192138 -0.914834 -3.130558 -0.991515 -3.060605 -1.060084 C -2.990937 -1.130098 -2.915211 -1.192295 -2.833428 -1.246675 C -2.751064 -1.30192 -2.664671 -1.348198 -2.57425 -1.385509 C -2.483248 -1.423685 -2.388799 -1.452029 -2.292637 -1.471701 C -2.19619 -1.489927 -2.098896 -1.500062 -1.999604 -1.50008 C -1.90176 -1.499812 -1.803651 -1.490588 -1.707306 -1.471257 C -1.610962 -1.451926 -1.516667 -1.423933 -1.425586 -1.385548 C -1.33479 -1.348609 -1.248073 -1.301858 -1.166589 -1.247321 C -1.085105 -1.192783 -1.008852 -1.13046 -0.93928 -1.060065 C -0.869994 -0.991116 -0.807673 -0.915541 -0.752318 -0.83334 C -0.69783 -0.751719 -0.652041 -0.664633 -0.613789 -0.573811 C -0.576404 -0.48357 -0.548004 -0.389309 -0.528874 -0.292472 C -0.509745 -0.195636 -0.49959 -0.0985354 -0.500439 -0.0000202878 Z M -0.500439 -0.0000202878 " stroke="#f3eff5" stroke-width="1" stroke-opacity="1" stroke-miterlimit="4"/><path stroke-linecap="butt" transform="matrix(-0.125366, -3.73756, 3.747892, -0.125713, 107.485142, 155.3953)" fill="none" stroke-linejoin="miter" d="M 0.000212356 -0.000197551 L 22.323209 0.000248705 " stroke="#f3eff5" stroke-width="1" stroke-opacity="1" stroke-miterlimit="4"/><path stroke-linecap="butt" transform="matrix(-0.125366, -3.73756, 3.747892, -0.125713, 104.216445, 57.94523)" fill-opacity="1" fill="#f3eff5" fill-rule="nonzero" stroke-linejoin="miter" d="M -0.49958 -0.000462177 C -0.499775 0.0985453 -0.50933 0.196197 -0.52929 0.292459 C -0.548206 0.388756 -0.576448 0.482656 -0.614015 0.57416 C -0.651547 0.664623 -0.69837 0.751648 -0.752325 0.833224 C -0.807324 0.914764 -0.869456 0.990855 -0.93973 1.06042 C -1.008959 1.130019 -1.085251 1.192087 -1.166518 1.246693 C -1.248864 1.302304 -1.335071 1.348407 -1.426217 1.386006 C -1.517363 1.423605 -1.610282 1.451764 -1.707096 1.471455 C -1.803876 1.490105 -1.901419 1.500392 -1.999657 1.500232 C -2.098938 1.500038 -2.195816 1.490544 -2.292379 1.47168 C -2.388907 1.451776 -2.483067 1.423612 -2.57378 1.386183 C -2.665501 1.347679 -2.751758 1.302061 -2.833524 1.247213 C -2.91529 1.192366 -2.990547 1.13044 -3.060304 1.06036 C -3.130096 0.991321 -3.192336 0.91524 -3.247057 0.833156 C -3.301778 0.751072 -3.348008 0.665103 -3.385711 0.574208 C -3.423414 0.483313 -3.451616 0.389609 -3.471362 0.293062 C -3.490064 0.196549 -3.500343 0.0982332 -3.500184 0.000266827 C -3.499989 -0.0987407 -3.490434 -0.196393 -3.471518 -0.29269 C -3.451558 -0.388951 -3.423316 -0.482852 -3.385749 -0.574356 C -3.348217 -0.664818 -3.301394 -0.751844 -3.247439 -0.833419 C -3.19244 -0.914959 -3.130308 -0.99105 -3.061078 -1.06065 C -2.990805 -1.130215 -2.915557 -1.192317 -2.833246 -1.246888 C -2.751979 -1.301493 -2.664694 -1.348602 -2.573547 -1.386201 C -2.483445 -1.423835 -2.389482 -1.451959 -2.292668 -1.471651 C -2.195888 -1.490301 -2.09838 -1.499546 -2.000107 -1.500428 C -1.90187 -1.500269 -1.803948 -1.49074 -1.70742 -1.470835 C -1.610857 -1.451971 -1.516697 -1.423807 -1.42602 -1.385337 C -1.335307 -1.347909 -1.248006 -1.302256 -1.16624 -1.247409 C -1.084474 -1.192561 -1.009217 -1.130635 -0.93946 -1.060555 C -0.869668 -0.991517 -0.807429 -0.915435 -0.752707 -0.833351 C -0.697986 -0.751267 -0.651756 -0.665298 -0.614053 -0.574403 C -0.57635 -0.483509 -0.548183 -0.388764 -0.528437 -0.292216 C -0.509736 -0.195703 -0.500465 -0.0984635 -0.49958 -0.000462177 Z M -0.49958 -0.000462177 " stroke="#f3eff5" stroke-width="1" stroke-opacity="1" stroke-miterlimit="4"/><path stroke-linecap="butt" transform="matrix(-3.288017, -1.815735, 1.812807, -3.282716, 105.84084, 154.224508)" fill="none" stroke-linejoin="miter" d="M 0.000470483 0.00030392 L 21.411862 -0.000428946 " stroke="#f3eff5" stroke-width="1" stroke-opacity="1" stroke-miterlimit="4"/><path stroke-linecap="butt" transform="matrix(-3.288017, -1.815735, 1.812807, -3.282716, 23.108956, 108.537654)" fill-opacity="1" fill="#f3eff5" fill-rule="nonzero" stroke-linejoin="miter" d="M -0.500193 0.000170041 C -0.499433 0.098515 -0.509882 0.195921 -0.529219 0.292292 C -0.548053 0.389575 -0.576371 0.482585 -0.614078 0.573648 C -0.651785 0.664712 -0.698066 0.750998 -0.752419 0.833419 C -0.807274 0.914928 -0.869793 0.991156 -0.939567 1.060689 C -1.009342 1.130221 -1.084552 1.19205 -1.167017 1.247183 C -1.248573 1.301812 -1.334653 1.348235 -1.42576 1.385539 C -1.516365 1.423754 -1.611086 1.452348 -1.707602 1.471224 C -1.804117 1.4901 -1.901923 1.500171 -1.999702 1.499517 C -2.098391 1.499366 -2.196047 1.490315 -2.292263 1.470947 C -2.38939 1.452083 -2.483663 1.423311 -2.574579 1.385543 C -2.664993 1.348686 -2.75114 1.30233 -2.833931 1.246978 C -2.915308 1.192035 -2.990911 1.130327 -3.060331 1.06044 C -3.130662 0.991056 -3.192391 0.915725 -3.247435 0.833126 C -3.301977 0.751439 -3.348324 0.66522 -3.385568 0.573965 C -3.423722 0.483214 -3.451767 0.389252 -3.471523 0.293084 C -3.490369 0.196413 -3.500423 0.0984491 -3.500273 -0.000399435 C -3.49962 -0.0983361 -3.490583 -0.19615 -3.471246 -0.292522 C -3.45191 -0.388893 -3.423184 -0.483318 -3.385477 -0.574381 C -3.34777 -0.665445 -3.301488 -0.751731 -3.246633 -0.83324 C -3.192281 -0.915661 -3.130673 -0.991386 -3.060898 -1.060918 C -2.991123 -1.13045 -2.915003 -1.192783 -2.833448 -1.247412 C -2.751893 -1.302042 -2.6644 -1.348056 -2.573795 -1.386272 C -2.482688 -1.423575 -2.388876 -1.451665 -2.292864 -1.471453 C -2.196348 -1.49033 -2.098542 -1.5004 -1.999853 -1.500249 C -1.901164 -1.500099 -1.804418 -1.490544 -1.707292 -1.47168 C -1.611076 -1.452312 -1.516803 -1.42354 -1.425886 -1.385772 C -1.33497 -1.348004 -1.248823 -1.301648 -1.166535 -1.247208 C -1.085157 -1.192264 -1.009554 -1.130556 -0.939224 -1.061172 C -0.869803 -0.991285 -0.807571 -0.915042 -0.75303 -0.833355 C -0.698489 -0.751668 -0.652141 -0.665449 -0.613987 -0.574698 C -0.576743 -0.483444 -0.548196 -0.388569 -0.52844 -0.292402 C -0.509594 -0.195731 -0.500042 -0.0986785 -0.500193 0.000170041 Z M -0.500193 0.000170041 " stroke="#f3eff5" stroke-width="1" stroke-opacity="1" stroke-miterlimit="4"/><g clip-path="url(#0f04455776)"><path fill="#72b01d" d="M 292.867188 127.730469 C 292.867188 206.441406 228.914062 270.230469 150 270.230469 C 71.082031 270.230469 7.371094 206.441406 7.371094 127.730469 Z M 292.867188 127.730469 " fill-opacity="1" fill-rule="nonzero"/></g></svg>