<svg xmlns="http://www.w3.org/2000/svg" xmlns:xlink="http://www.w3.org/1999/xlink" width="400" zoomAndPan="magnify" viewBox="0 0 300 299.999988" height="400" preserveAspectRatio="xMidYMid meet" version="1.0"><defs><g/><clipPath id="b41bade971"><path d="M 89 157 L 235 157 L 235 253 L 89 253 Z M 89 157 " clip-rule="nonzero"/></clipPath><clipPath id="53b74424bd"><path d="M 223.234375 74.082031 L 244.207031 241.523438 L 76.765625 262.5 L 55.792969 95.058594 Z M 223.234375 74.082031 " clip-rule="nonzero"/></clipPath><clipPath id="087ed408a5"><path d="M 65 124 L 122 124 L 122 230 L 65 230 Z M 65 124 " clip-rule="nonzero"/></clipPath><clipPath id="d8340914f2"><path d="M 223.234375 74.082031 L 244.207031 241.523438 L 76.765625 262.5 L 55.792969 95.058594 Z M 223.234375 74.082031 " clip-rule="nonzero"/></clipPath><clipPath id="79b0e6bb2e"><path d="M 75 100 L 125 100 L 125 149 L 75 149 Z M 75 100 " clip-rule="nonzero"/></clipPath><clipPath id="3a6fe82bfc"><path d="M 223.234375 74.082031 L 244.207031 241.523438 L 76.765625 262.5 L 55.792969 95.058594 Z M 223.234375 74.082031 " clip-rule="nonzero"/></clipPath><clipPath id="a225125b42"><path d="M 96 83 L 234 83 L 234 164 L 96 164 Z M 96 83 " clip-rule="nonzero"/></clipPath><clipPath id="d0d3a1b2cc"><path d="M 223.234375 74.082031 L 244.207031 241.523438 L 76.765625 262.5 L 55.792969 95.058594 Z M 223.234375 74.082031 " clip-rule="nonzero"/></clipPath><clipPath id="4a49947232"><path d="M 191 157 L 234 157 L 234 164 L 191 164 Z M 191 157 " clip-rule="nonzero"/></clipPath><clipPath id="d18afe4065"><path d="M 223.234375 74.082031 L 244.207031 241.523438 L 76.765625 262.5 L 55.792969 95.058594 Z M 223.234375 74.082031 " clip-rule="nonzero"/></clipPath></defs><g clip-path="url(#b41bade971)"><g clip-path="url(#53b74424bd)"><path fill="#72b01d" d="M 233.71875 157.804688 C 233.992188 159.984375 234.179688 162.167969 234.285156 164.363281 C 234.386719 166.558594 234.402344 168.753906 234.332031 170.949219 C 234.265625 173.144531 234.109375 175.332031 233.867188 177.515625 C 233.628906 179.699219 233.304688 181.871094 232.894531 184.03125 C 232.484375 186.1875 231.992188 188.328125 231.414062 190.445312 C 230.835938 192.566406 230.179688 194.660156 229.4375 196.726562 C 228.699219 198.796875 227.878906 200.832031 226.980469 202.835938 C 226.082031 204.839844 225.105469 206.804688 224.050781 208.734375 C 223 210.660156 221.871094 212.546875 220.671875 214.386719 C 219.472656 216.226562 218.203125 218.015625 216.863281 219.757812 C 215.523438 221.496094 214.117188 223.183594 212.644531 224.8125 C 211.171875 226.445312 209.640625 228.015625 208.046875 229.527344 C 206.453125 231.039062 204.800781 232.484375 203.09375 233.867188 C 201.386719 235.25 199.628906 236.5625 197.820312 237.808594 C 196.007812 239.050781 194.152344 240.226562 192.253906 241.324219 C 190.351562 242.425781 188.410156 243.449219 186.429688 244.398438 C 184.445312 245.34375 182.433594 246.214844 180.382812 247.007812 C 178.332031 247.796875 176.257812 248.507812 174.152344 249.136719 C 172.046875 249.765625 169.921875 250.308594 167.773438 250.773438 C 165.625 251.234375 163.464844 251.613281 161.285156 251.90625 C 159.109375 252.203125 156.925781 252.410156 154.730469 252.535156 C 152.539062 252.65625 150.34375 252.695312 148.148438 252.644531 C 145.953125 252.597656 143.761719 252.464844 141.574219 252.246094 C 139.390625 252.023438 137.214844 251.722656 135.054688 251.332031 C 132.890625 250.941406 130.75 250.46875 128.625 249.914062 C 126.5 249.355469 124.398438 248.71875 122.324219 248 C 120.25 247.277344 118.203125 246.476562 116.191406 245.597656 C 114.179688 244.71875 112.203125 243.757812 110.265625 242.726562 C 108.328125 241.691406 106.433594 240.582031 104.582031 239.398438 C 102.730469 238.21875 100.929688 236.964844 99.175781 235.640625 C 97.421875 234.320312 95.722656 232.929688 94.078125 231.472656 C 92.433594 230.015625 90.847656 228.5 89.320312 226.921875 L 119.660156 197.605469 C 121.191406 199.1875 122.832031 200.640625 124.589844 201.964844 C 126.34375 203.292969 128.191406 204.472656 130.132812 205.507812 C 132.074219 206.542969 134.082031 207.421875 136.160156 208.144531 C 138.238281 208.867188 140.363281 209.421875 142.527344 209.8125 C 144.691406 210.203125 146.875 210.421875 149.074219 210.46875 C 151.273438 210.515625 153.464844 210.394531 155.644531 210.101562 C 157.824219 209.804688 159.96875 209.34375 162.074219 208.714844 C 164.183594 208.082031 166.230469 207.292969 168.214844 206.34375 C 170.199219 205.394531 172.097656 204.296875 173.910156 203.050781 C 175.722656 201.800781 177.425781 200.421875 179.023438 198.910156 C 180.621094 197.394531 182.089844 195.765625 183.429688 194.023438 C 184.773438 192.28125 185.972656 190.441406 187.027344 188.511719 C 188.078125 186.582031 188.976562 184.582031 189.71875 182.507812 C 190.460938 180.4375 191.035156 178.320312 191.445312 176.160156 C 191.859375 174 192.097656 171.820312 192.167969 169.621094 C 192.234375 167.421875 192.132812 165.230469 191.859375 163.046875 Z M 233.71875 157.804688 " fill-opacity="1" fill-rule="nonzero"/></g></g><g clip-path="url(#087ed408a5)"><g clip-path="url(#d8340914f2)"><path fill="#009450" d="M 92.328125 229.878906 C 90.570312 228.234375 88.886719 226.519531 87.277344 224.730469 C 85.667969 222.941406 84.140625 221.085938 82.6875 219.164062 C 81.238281 217.246094 79.871094 215.269531 78.589844 213.230469 C 77.308594 211.195312 76.113281 209.105469 75.011719 206.96875 C 73.910156 204.828125 72.898438 202.648438 71.984375 200.421875 C 71.066406 198.199219 70.246094 195.9375 69.523438 193.640625 C 68.800781 191.347656 68.175781 189.023438 67.652344 186.675781 C 67.128906 184.328125 66.703125 181.960938 66.382812 179.574219 C 66.0625 177.191406 65.839844 174.796875 65.726562 172.394531 C 65.609375 169.988281 65.59375 167.585938 65.683594 165.179688 C 65.769531 162.777344 65.960938 160.378906 66.257812 157.992188 C 66.550781 155.601562 66.945312 153.230469 67.441406 150.875 C 67.9375 148.523438 68.535156 146.191406 69.230469 143.890625 C 69.925781 141.585938 70.71875 139.316406 71.609375 137.082031 C 72.5 134.84375 73.484375 132.652344 74.5625 130.5 C 75.640625 128.347656 76.808594 126.246094 78.066406 124.195312 L 114.03125 146.242188 C 113.402344 147.269531 112.820312 148.320312 112.28125 149.394531 C 111.742188 150.472656 111.25 151.566406 110.804688 152.6875 C 110.359375 153.804688 109.964844 154.9375 109.617188 156.089844 C 109.265625 157.242188 108.96875 158.40625 108.722656 159.585938 C 108.472656 160.761719 108.273438 161.945312 108.128906 163.140625 C 107.980469 164.335938 107.886719 165.535156 107.839844 166.734375 C 107.796875 167.9375 107.804688 169.140625 107.863281 170.34375 C 107.921875 171.542969 108.03125 172.742188 108.191406 173.933594 C 108.351562 175.125 108.5625 176.308594 108.824219 177.484375 C 109.089844 178.65625 109.398438 179.820312 109.761719 180.964844 C 110.125 182.113281 110.53125 183.246094 110.992188 184.355469 C 111.449219 185.46875 111.953125 186.558594 112.507812 187.628906 C 113.058594 188.699219 113.652344 189.742188 114.292969 190.761719 C 114.933594 191.78125 115.617188 192.769531 116.34375 193.730469 C 117.070312 194.6875 117.835938 195.617188 118.640625 196.511719 C 119.445312 197.40625 120.285156 198.261719 121.164062 199.085938 Z M 92.328125 229.878906 " fill-opacity="1" fill-rule="nonzero"/></g></g><g clip-path="url(#79b0e6bb2e)"><g clip-path="url(#3a6fe82bfc)"><path fill="#007169" d="M 75.949219 127.84375 C 78.835938 122.558594 82.25 117.640625 86.191406 113.085938 C 90.132812 108.53125 94.507812 104.445312 99.324219 100.828125 L 124.660156 134.558594 C 119.792969 138.21875 115.894531 142.722656 112.976562 148.066406 Z M 75.949219 127.84375 " fill-opacity="1" fill-rule="nonzero"/></g></g><g clip-path="url(#a225125b42)"><g clip-path="url(#d0d3a1b2cc)"><path fill="#004c64" d="M 96.015625 103.445312 C 98.910156 101.035156 101.957031 98.828125 105.148438 96.824219 C 108.339844 94.824219 111.648438 93.042969 115.078125 91.480469 C 118.507812 89.921875 122.027344 88.597656 125.636719 87.511719 C 129.242188 86.421875 132.90625 85.582031 136.625 84.984375 C 140.347656 84.386719 144.089844 84.039062 147.855469 83.945312 C 151.625 83.847656 155.378906 84.003906 159.125 84.410156 C 162.871094 84.820312 166.574219 85.472656 170.230469 86.378906 C 173.890625 87.28125 177.472656 88.425781 180.976562 89.808594 C 184.480469 91.191406 187.878906 92.804688 191.167969 94.640625 C 194.457031 96.480469 197.609375 98.53125 200.625 100.792969 C 203.636719 103.050781 206.488281 105.503906 209.175781 108.148438 C 211.859375 110.789062 214.359375 113.597656 216.667969 116.574219 C 218.976562 119.554688 221.078125 122.671875 222.96875 125.929688 C 224.863281 129.1875 226.527344 132.558594 227.96875 136.039062 C 229.410156 139.519531 230.609375 143.082031 231.574219 146.722656 C 232.535156 150.367188 233.25 154.058594 233.71875 157.792969 L 191.859375 163.042969 C 191.625 161.171875 191.265625 159.328125 190.785156 157.507812 C 190.304688 155.6875 189.703125 153.90625 188.984375 152.164062 C 188.261719 150.421875 187.429688 148.738281 186.484375 147.109375 C 185.539062 145.480469 184.488281 143.921875 183.332031 142.433594 C 182.179688 140.945312 180.929688 139.539062 179.585938 138.21875 C 178.242188 136.894531 176.816406 135.671875 175.3125 134.539062 C 173.804688 133.410156 172.226562 132.386719 170.582031 131.464844 C 168.9375 130.546875 167.238281 129.742188 165.488281 129.050781 C 163.734375 128.359375 161.945312 127.785156 160.117188 127.335938 C 158.285156 126.882812 156.4375 126.554688 154.5625 126.351562 C 152.691406 126.148438 150.8125 126.070312 148.929688 126.117188 C 147.046875 126.164062 145.171875 126.339844 143.3125 126.636719 C 141.453125 126.9375 139.621094 127.355469 137.816406 127.902344 C 136.015625 128.445312 134.253906 129.105469 132.539062 129.886719 C 130.824219 130.667969 129.167969 131.558594 127.574219 132.558594 C 125.976562 133.558594 124.457031 134.664062 123.007812 135.867188 Z M 96.015625 103.445312 " fill-opacity="1" fill-rule="nonzero"/></g></g><g clip-path="url(#4a49947232)"><g clip-path="url(#d18afe4065)"><path fill="#002943" d="M 233.652344 157.277344 C 233.675781 157.457031 233.699219 157.628906 233.71875 157.792969 L 191.859375 163.042969 C 191.847656 162.957031 191.839844 162.871094 191.828125 162.785156 Z M 233.652344 157.277344 " fill-opacity="1" fill-rule="nonzero"/></g></g><g fill="#000000" fill-opacity="1"><g transform="translate(222.066615, 241.826158)"><g><path d="M 2.9375 0 L 0.75 0 L 0.75 -6.3125 L 2.515625 -6.3125 C 3.148438 -6.3125 3.664062 -6.164062 4.0625 -5.875 C 4.457031 -5.59375 4.65625 -5.191406 4.65625 -4.671875 C 4.65625 -4.296875 4.550781 -3.972656 4.34375 -3.703125 C 4.132812 -3.441406 3.863281 -3.28125 3.53125 -3.21875 C 3.882812 -3.175781 4.191406 -3.019531 4.453125 -2.75 C 4.710938 -2.488281 4.84375 -2.128906 4.84375 -1.671875 C 4.84375 -1.171875 4.675781 -0.765625 4.34375 -0.453125 C 4.019531 -0.148438 3.550781 0 2.9375 0 Z M 2.578125 -5.796875 L 1.328125 -5.796875 L 1.328125 -3.453125 L 2.46875 -3.453125 C 3.007812 -3.453125 3.40625 -3.566406 3.65625 -3.796875 C 3.914062 -4.035156 4.046875 -4.335938 4.046875 -4.703125 C 4.046875 -5.015625 3.921875 -5.273438 3.671875 -5.484375 C 3.429688 -5.691406 3.066406 -5.796875 2.578125 -5.796875 Z M 2.765625 -2.9375 L 1.328125 -2.9375 L 1.328125 -0.515625 L 2.9375 -0.515625 C 3.34375 -0.515625 3.660156 -0.613281 3.890625 -0.8125 C 4.117188 -1.019531 4.234375 -1.316406 4.234375 -1.703125 C 4.234375 -2.085938 4.101562 -2.390625 3.84375 -2.609375 C 3.582031 -2.828125 3.222656 -2.9375 2.765625 -2.9375 Z M 2.765625 -2.9375 "/></g></g></g><g fill="#000000" fill-opacity="1"><g transform="translate(227.332783, 241.826158)"><g><path d="M 1.28125 0 L 0.71875 0 L 0.71875 -4.75 L 1.28125 -4.75 L 1.28125 -3.953125 C 1.539062 -4.523438 1.984375 -4.8125 2.609375 -4.8125 C 2.660156 -4.8125 2.738281 -4.804688 2.84375 -4.796875 L 2.84375 -4.203125 C 2.71875 -4.242188 2.59375 -4.265625 2.46875 -4.265625 C 2.132812 -4.265625 1.851562 -4.097656 1.625 -3.765625 C 1.394531 -3.429688 1.28125 -3.0625 1.28125 -2.65625 Z M 1.28125 0 "/></g></g></g><g fill="#000000" fill-opacity="1"><g transform="translate(230.27509, 241.826158)"><g><path d="M 4.84375 -2.359375 C 4.84375 -1.648438 4.640625 -1.066406 4.234375 -0.609375 C 3.835938 -0.148438 3.296875 0.078125 2.609375 0.078125 C 1.941406 0.078125 1.410156 -0.148438 1.015625 -0.609375 C 0.617188 -1.066406 0.421875 -1.648438 0.421875 -2.359375 C 0.421875 -3.046875 0.625 -3.625 1.03125 -4.09375 C 1.4375 -4.570312 1.960938 -4.8125 2.609375 -4.8125 C 3.316406 -4.8125 3.863281 -4.578125 4.25 -4.109375 C 4.644531 -3.648438 4.84375 -3.066406 4.84375 -2.359375 Z M 1.015625 -2.359375 C 1.015625 -1.835938 1.160156 -1.390625 1.453125 -1.015625 C 1.742188 -0.640625 2.128906 -0.453125 2.609375 -0.453125 C 3.128906 -0.453125 3.53125 -0.632812 3.8125 -1 C 4.09375 -1.375 4.234375 -1.828125 4.234375 -2.359375 C 4.234375 -2.898438 4.097656 -3.351562 3.828125 -3.71875 C 3.566406 -4.09375 3.160156 -4.28125 2.609375 -4.28125 C 2.109375 -4.28125 1.71875 -4.09375 1.4375 -3.71875 C 1.15625 -3.34375 1.015625 -2.890625 1.015625 -2.359375 Z M 1.015625 -2.359375 "/></g></g></g><g fill="#000000" fill-opacity="1"><g transform="translate(235.531889, 241.826158)"><g><path d="M 4.84375 -2.359375 C 4.84375 -1.648438 4.640625 -1.066406 4.234375 -0.609375 C 3.835938 -0.148438 3.296875 0.078125 2.609375 0.078125 C 1.941406 0.078125 1.410156 -0.148438 1.015625 -0.609375 C 0.617188 -1.066406 0.421875 -1.648438 0.421875 -2.359375 C 0.421875 -3.046875 0.625 -3.625 1.03125 -4.09375 C 1.4375 -4.570312 1.960938 -4.8125 2.609375 -4.8125 C 3.316406 -4.8125 3.863281 -4.578125 4.25 -4.109375 C 4.644531 -3.648438 4.84375 -3.066406 4.84375 -2.359375 Z M 1.015625 -2.359375 C 1.015625 -1.835938 1.160156 -1.390625 1.453125 -1.015625 C 1.742188 -0.640625 2.128906 -0.453125 2.609375 -0.453125 C 3.128906 -0.453125 3.53125 -0.632812 3.8125 -1 C 4.09375 -1.375 4.234375 -1.828125 4.234375 -2.359375 C 4.234375 -2.898438 4.097656 -3.351562 3.828125 -3.71875 C 3.566406 -4.09375 3.160156 -4.28125 2.609375 -4.28125 C 2.109375 -4.28125 1.71875 -4.09375 1.4375 -3.71875 C 1.15625 -3.34375 1.015625 -2.890625 1.015625 -2.359375 Z M 1.015625 -2.359375 "/></g></g></g><g fill="#000000" fill-opacity="1"><g transform="translate(240.788687, 241.826158)"><g><path d="M 1.28125 0 L 0.71875 0 L 0.71875 -6.625 L 1.28125 -6.625 Z M 2.125 -2.5 L 4.125 0 L 3.40625 0 L 1.421875 -2.5 L 3.359375 -4.75 L 4.0625 -4.75 Z M 2.125 -2.5 "/></g></g></g><g fill="#000000" fill-opacity="1"><g transform="translate(245.117817, 241.826158)"><g><path d="M 1.328125 0 L 0.75 0 L 0.75 -6.625 L 1.328125 -6.625 Z M 1.328125 0 "/></g></g></g><g fill="#000000" fill-opacity="1"><g transform="translate(247.188679, 241.826158)"><g><path d="M 2.609375 -0.125 C 2.378906 0.519531 2.097656 0.960938 1.765625 1.203125 C 1.441406 1.453125 1.078125 1.578125 0.671875 1.578125 C 0.546875 1.578125 0.425781 1.5625 0.3125 1.53125 L 0.3125 0.96875 C 0.425781 1 0.53125 1.015625 0.625 1.015625 C 1.289062 1.015625 1.757812 0.632812 2.03125 -0.125 L 0.078125 -4.75 L 0.734375 -4.75 L 1.390625 -3.15625 L 2.3125 -0.875 C 2.351562 -1.019531 2.625 -1.78125 3.125 -3.15625 L 3.703125 -4.75 L 4.34375 -4.75 Z M 2.609375 -0.125 "/></g></g></g><g fill="#000000" fill-opacity="1"><g transform="translate(251.705215, 241.826158)"><g><path d="M 4.296875 0 L 3.734375 0 L 3.734375 -3.140625 C 3.734375 -3.503906 3.640625 -3.785156 3.453125 -3.984375 C 3.265625 -4.179688 3.015625 -4.28125 2.703125 -4.28125 C 2.316406 -4.28125 1.984375 -4.128906 1.703125 -3.828125 C 1.421875 -3.535156 1.28125 -3.132812 1.28125 -2.625 L 1.28125 0 L 0.71875 0 L 0.71875 -4.75 L 1.28125 -4.75 L 1.28125 -3.9375 C 1.570312 -4.53125 2.078125 -4.828125 2.796875 -4.828125 C 3.253906 -4.828125 3.617188 -4.6875 3.890625 -4.40625 C 4.160156 -4.125 4.296875 -3.757812 4.296875 -3.3125 Z M 4.296875 0 "/></g></g></g><g fill="#000000" fill-opacity="1"><g transform="translate(210.59506, 97.831757)"><g><path d="M 6.015625 -3.1875 C 6.015625 -2.445312 5.875 -1.8125 5.59375 -1.28125 C 5.3125 -0.757812 4.914062 -0.382812 4.40625 -0.15625 L 6.265625 1.046875 L 5.65625 1.296875 L 3.765625 0.03125 C 3.617188 0.0625 3.445312 0.078125 3.25 0.078125 C 2.414062 0.078125 1.742188 -0.21875 1.234375 -0.8125 C 0.722656 -1.40625 0.46875 -2.195312 0.46875 -3.1875 C 0.46875 -4.175781 0.710938 -4.96875 1.203125 -5.5625 C 1.703125 -6.15625 2.378906 -6.453125 3.234375 -6.453125 C 4.109375 -6.453125 4.789062 -6.160156 5.28125 -5.578125 C 5.769531 -4.992188 6.015625 -4.195312 6.015625 -3.1875 Z M 1.0625 -3.1875 C 1.0625 -2.351562 1.257812 -1.691406 1.65625 -1.203125 C 2.0625 -0.722656 2.59375 -0.484375 3.25 -0.484375 C 3.9375 -0.484375 4.46875 -0.722656 4.84375 -1.203125 C 5.21875 -1.679688 5.40625 -2.34375 5.40625 -3.1875 C 5.40625 -4.039062 5.21875 -4.703125 4.84375 -5.171875 C 4.46875 -5.648438 3.929688 -5.890625 3.234375 -5.890625 C 2.554688 -5.890625 2.023438 -5.648438 1.640625 -5.171875 C 1.253906 -4.691406 1.0625 -4.03125 1.0625 -3.1875 Z M 1.0625 -3.1875 "/></g></g></g><g fill="#000000" fill-opacity="1"><g transform="translate(217.163718, 97.831757)"><g><path d="M 4.25 0 L 3.671875 0 L 3.671875 -0.859375 C 3.421875 -0.242188 2.921875 0.0625 2.171875 0.0625 C 1.703125 0.0625 1.332031 -0.0703125 1.0625 -0.34375 C 0.789062 -0.625 0.65625 -0.992188 0.65625 -1.453125 L 0.65625 -4.75 L 1.234375 -4.75 L 1.234375 -1.609375 C 1.234375 -1.242188 1.328125 -0.960938 1.515625 -0.765625 C 1.703125 -0.578125 1.953125 -0.484375 2.265625 -0.484375 C 2.679688 -0.484375 3.019531 -0.632812 3.28125 -0.9375 C 3.539062 -1.238281 3.671875 -1.628906 3.671875 -2.109375 L 3.671875 -4.75 L 4.25 -4.75 Z M 4.25 0 "/></g></g></g><g fill="#000000" fill-opacity="1"><g transform="translate(222.120663, 97.831757)"><g><path d="M 4.109375 -0.234375 C 3.734375 -0.046875 3.296875 0.046875 2.796875 0.046875 C 2.097656 0.046875 1.523438 -0.171875 1.078125 -0.609375 C 0.640625 -1.054688 0.421875 -1.640625 0.421875 -2.359375 C 0.421875 -3.117188 0.613281 -3.71875 1 -4.15625 C 1.382812 -4.59375 1.890625 -4.8125 2.515625 -4.8125 C 3.097656 -4.8125 3.5625 -4.617188 3.90625 -4.234375 C 4.25 -3.859375 4.421875 -3.320312 4.421875 -2.625 C 4.421875 -2.414062 4.40625 -2.25 4.375 -2.125 L 1.015625 -2.125 C 1.066406 -1.59375 1.25 -1.1875 1.5625 -0.90625 C 1.882812 -0.632812 2.304688 -0.5 2.828125 -0.5 C 3.367188 -0.5 3.796875 -0.601562 4.109375 -0.8125 Z M 2.5 -4.28125 C 2.09375 -4.28125 1.753906 -4.140625 1.484375 -3.859375 C 1.222656 -3.578125 1.066406 -3.171875 1.015625 -2.640625 L 3.828125 -2.640625 L 3.828125 -2.859375 C 3.828125 -3.285156 3.707031 -3.628906 3.46875 -3.890625 C 3.226562 -4.148438 2.90625 -4.28125 2.5 -4.28125 Z M 2.5 -4.28125 "/></g></g></g><g fill="#000000" fill-opacity="1"><g transform="translate(226.983906, 97.831757)"><g><path d="M 4.109375 -0.234375 C 3.734375 -0.046875 3.296875 0.046875 2.796875 0.046875 C 2.097656 0.046875 1.523438 -0.171875 1.078125 -0.609375 C 0.640625 -1.054688 0.421875 -1.640625 0.421875 -2.359375 C 0.421875 -3.117188 0.613281 -3.71875 1 -4.15625 C 1.382812 -4.59375 1.890625 -4.8125 2.515625 -4.8125 C 3.097656 -4.8125 3.5625 -4.617188 3.90625 -4.234375 C 4.25 -3.859375 4.421875 -3.320312 4.421875 -2.625 C 4.421875 -2.414062 4.40625 -2.25 4.375 -2.125 L 1.015625 -2.125 C 1.066406 -1.59375 1.25 -1.1875 1.5625 -0.90625 C 1.882812 -0.632812 2.304688 -0.5 2.828125 -0.5 C 3.367188 -0.5 3.796875 -0.601562 4.109375 -0.8125 Z M 2.5 -4.28125 C 2.09375 -4.28125 1.753906 -4.140625 1.484375 -3.859375 C 1.222656 -3.578125 1.066406 -3.171875 1.015625 -2.640625 L 3.828125 -2.640625 L 3.828125 -2.859375 C 3.828125 -3.285156 3.707031 -3.628906 3.46875 -3.890625 C 3.226562 -4.148438 2.90625 -4.28125 2.5 -4.28125 Z M 2.5 -4.28125 "/></g></g></g><g fill="#000000" fill-opacity="1"><g transform="translate(231.847148, 97.831757)"><g><path d="M 4.296875 0 L 3.734375 0 L 3.734375 -3.140625 C 3.734375 -3.503906 3.640625 -3.785156 3.453125 -3.984375 C 3.265625 -4.179688 3.015625 -4.28125 2.703125 -4.28125 C 2.316406 -4.28125 1.984375 -4.128906 1.703125 -3.828125 C 1.421875 -3.535156 1.28125 -3.132812 1.28125 -2.625 L 1.28125 0 L 0.71875 0 L 0.71875 -4.75 L 1.28125 -4.75 L 1.28125 -3.9375 C 1.570312 -4.53125 2.078125 -4.828125 2.796875 -4.828125 C 3.253906 -4.828125 3.617188 -4.6875 3.890625 -4.40625 C 4.160156 -4.125 4.296875 -3.757812 4.296875 -3.3125 Z M 4.296875 0 "/></g></g></g><g fill="#000000" fill-opacity="1"><g transform="translate(236.804094, 97.831757)"><g><path d="M 3.484375 -1.21875 C 3.484375 -0.820312 3.34375 -0.507812 3.0625 -0.28125 C 2.789062 -0.0507812 2.421875 0.0625 1.953125 0.0625 C 1.378906 0.0625 0.914062 -0.03125 0.5625 -0.21875 L 0.5625 -0.8125 C 0.976562 -0.570312 1.425781 -0.453125 1.90625 -0.453125 C 2.226562 -0.453125 2.472656 -0.519531 2.640625 -0.65625 C 2.804688 -0.789062 2.890625 -0.960938 2.890625 -1.171875 C 2.890625 -1.421875 2.800781 -1.613281 2.625 -1.75 C 2.457031 -1.882812 2.175781 -2.03125 1.78125 -2.1875 C 1.394531 -2.34375 1.085938 -2.519531 0.859375 -2.71875 C 0.640625 -2.914062 0.53125 -3.191406 0.53125 -3.546875 C 0.53125 -3.921875 0.671875 -4.222656 0.953125 -4.453125 C 1.234375 -4.679688 1.585938 -4.796875 2.015625 -4.796875 C 2.523438 -4.796875 2.921875 -4.722656 3.203125 -4.578125 L 3.203125 -4.015625 C 2.898438 -4.179688 2.5 -4.265625 2 -4.265625 C 1.726562 -4.265625 1.507812 -4.195312 1.34375 -4.0625 C 1.1875 -3.9375 1.109375 -3.773438 1.109375 -3.578125 C 1.109375 -3.453125 1.128906 -3.34375 1.171875 -3.25 C 1.222656 -3.15625 1.304688 -3.066406 1.421875 -2.984375 C 1.546875 -2.910156 1.644531 -2.851562 1.71875 -2.8125 C 1.800781 -2.769531 1.9375 -2.710938 2.125 -2.640625 C 2.5625 -2.460938 2.894531 -2.269531 3.125 -2.0625 C 3.363281 -1.851562 3.484375 -1.570312 3.484375 -1.21875 Z M 3.484375 -1.21875 "/></g></g></g><g fill="#000000" fill-opacity="1"><g transform="translate(30.209227, 105.223029)"><g><path d="M 4.328125 -1.625 C 4.328125 -1.082031 4.140625 -0.664062 3.765625 -0.375 C 3.398438 -0.0820312 2.929688 0.0625 2.359375 0.0625 C 1.710938 0.0625 1.160156 -0.0703125 0.703125 -0.34375 L 0.703125 -1 C 0.890625 -0.851562 1.128906 -0.734375 1.421875 -0.640625 C 1.722656 -0.546875 2.023438 -0.5 2.328125 -0.5 C 2.773438 -0.5 3.117188 -0.59375 3.359375 -0.78125 C 3.609375 -0.976562 3.734375 -1.257812 3.734375 -1.625 C 3.734375 -1.894531 3.640625 -2.113281 3.453125 -2.28125 C 3.265625 -2.457031 2.992188 -2.625 2.640625 -2.78125 C 2.585938 -2.8125 2.476562 -2.859375 2.3125 -2.921875 C 2.144531 -2.992188 2.023438 -3.046875 1.953125 -3.078125 C 1.890625 -3.109375 1.785156 -3.160156 1.640625 -3.234375 C 1.492188 -3.316406 1.390625 -3.382812 1.328125 -3.4375 C 1.265625 -3.5 1.179688 -3.578125 1.078125 -3.671875 C 0.972656 -3.765625 0.898438 -3.859375 0.859375 -3.953125 C 0.816406 -4.046875 0.773438 -4.15625 0.734375 -4.28125 C 0.703125 -4.40625 0.6875 -4.539062 0.6875 -4.6875 C 0.6875 -5.21875 0.875 -5.628906 1.25 -5.921875 C 1.632812 -6.222656 2.101562 -6.375 2.65625 -6.375 C 3.175781 -6.375 3.613281 -6.28125 3.96875 -6.09375 L 3.96875 -5.453125 C 3.8125 -5.546875 3.613281 -5.625 3.375 -5.6875 C 3.132812 -5.757812 2.894531 -5.796875 2.65625 -5.796875 C 2.238281 -5.796875 1.90625 -5.695312 1.65625 -5.5 C 1.40625 -5.3125 1.28125 -5.050781 1.28125 -4.71875 C 1.28125 -4.550781 1.3125 -4.398438 1.375 -4.265625 C 1.445312 -4.140625 1.5625 -4.019531 1.71875 -3.90625 C 1.875 -3.800781 2.007812 -3.71875 2.125 -3.65625 C 2.238281 -3.601562 2.414062 -3.523438 2.65625 -3.421875 C 2.875 -3.328125 3.035156 -3.253906 3.140625 -3.203125 C 3.253906 -3.148438 3.398438 -3.066406 3.578125 -2.953125 C 3.753906 -2.835938 3.882812 -2.722656 3.96875 -2.609375 C 4.0625 -2.503906 4.144531 -2.363281 4.21875 -2.1875 C 4.289062 -2.019531 4.328125 -1.832031 4.328125 -1.625 Z M 4.328125 -1.625 "/></g></g></g><g fill="#000000" fill-opacity="1"><g transform="translate(35.147433, 105.223029)"><g><path d="M 2.984375 -0.125 C 2.804688 -0.0078125 2.597656 0.046875 2.359375 0.046875 C 1.460938 0.046875 1.015625 -0.414062 1.015625 -1.34375 L 1.015625 -4.265625 L 0.234375 -4.265625 L 0.234375 -4.75 L 1.015625 -4.75 L 1.015625 -5.9375 L 1.59375 -5.9375 L 1.59375 -4.75 L 2.953125 -4.75 L 2.953125 -4.265625 L 1.59375 -4.265625 L 1.59375 -1.3125 C 1.59375 -0.769531 1.847656 -0.5 2.359375 -0.5 C 2.609375 -0.5 2.816406 -0.570312 2.984375 -0.71875 Z M 2.984375 -0.125 "/></g></g></g><g fill="#000000" fill-opacity="1"><g transform="translate(38.558264, 105.223029)"><g><path d="M 2.09375 -0.484375 C 2.46875 -0.484375 2.765625 -0.582031 2.984375 -0.78125 C 3.210938 -0.988281 3.328125 -1.253906 3.328125 -1.578125 L 3.328125 -2.265625 L 2.40625 -2.265625 C 1.957031 -2.265625 1.625 -2.175781 1.40625 -2 C 1.1875 -1.832031 1.078125 -1.617188 1.078125 -1.359375 C 1.078125 -1.097656 1.160156 -0.882812 1.328125 -0.71875 C 1.503906 -0.5625 1.757812 -0.484375 2.09375 -0.484375 Z M 3.328125 -0.546875 C 3.066406 -0.148438 2.609375 0.046875 1.953125 0.046875 C 1.515625 0.046875 1.15625 -0.0820312 0.875 -0.34375 C 0.601562 -0.601562 0.46875 -0.9375 0.46875 -1.34375 C 0.46875 -1.800781 0.644531 -2.15625 1 -2.40625 C 1.351562 -2.65625 1.820312 -2.78125 2.40625 -2.78125 L 3.328125 -2.78125 L 3.328125 -3 C 3.328125 -3.425781 3.234375 -3.742188 3.046875 -3.953125 C 2.867188 -4.171875 2.566406 -4.28125 2.140625 -4.28125 C 1.648438 -4.28125 1.207031 -4.144531 0.8125 -3.875 L 0.8125 -4.5 C 1.175781 -4.71875 1.625 -4.828125 2.15625 -4.828125 C 3.320312 -4.828125 3.90625 -4.21875 3.90625 -3 L 3.90625 0 L 3.328125 0 Z M 3.328125 -0.546875 "/></g></g></g><g fill="#000000" fill-opacity="1"><g transform="translate(43.112283, 105.223029)"><g><path d="M 2.984375 -0.125 C 2.804688 -0.0078125 2.597656 0.046875 2.359375 0.046875 C 1.460938 0.046875 1.015625 -0.414062 1.015625 -1.34375 L 1.015625 -4.265625 L 0.234375 -4.265625 L 0.234375 -4.75 L 1.015625 -4.75 L 1.015625 -5.9375 L 1.59375 -5.9375 L 1.59375 -4.75 L 2.953125 -4.75 L 2.953125 -4.265625 L 1.59375 -4.265625 L 1.59375 -1.3125 C 1.59375 -0.769531 1.847656 -0.5 2.359375 -0.5 C 2.609375 -0.5 2.816406 -0.570312 2.984375 -0.71875 Z M 2.984375 -0.125 "/></g></g></g><g fill="#000000" fill-opacity="1"><g transform="translate(46.523114, 105.223029)"><g><path d="M 4.109375 -0.234375 C 3.734375 -0.046875 3.296875 0.046875 2.796875 0.046875 C 2.097656 0.046875 1.523438 -0.171875 1.078125 -0.609375 C 0.640625 -1.054688 0.421875 -1.640625 0.421875 -2.359375 C 0.421875 -3.117188 0.613281 -3.71875 1 -4.15625 C 1.382812 -4.59375 1.890625 -4.8125 2.515625 -4.8125 C 3.097656 -4.8125 3.5625 -4.617188 3.90625 -4.234375 C 4.25 -3.859375 4.421875 -3.320312 4.421875 -2.625 C 4.421875 -2.414062 4.40625 -2.25 4.375 -2.125 L 1.015625 -2.125 C 1.066406 -1.59375 1.25 -1.1875 1.5625 -0.90625 C 1.882812 -0.632812 2.304688 -0.5 2.828125 -0.5 C 3.367188 -0.5 3.796875 -0.601562 4.109375 -0.8125 Z M 2.5 -4.28125 C 2.09375 -4.28125 1.753906 -4.140625 1.484375 -3.859375 C 1.222656 -3.578125 1.066406 -3.171875 1.015625 -2.640625 L 3.828125 -2.640625 L 3.828125 -2.859375 C 3.828125 -3.285156 3.707031 -3.628906 3.46875 -3.890625 C 3.226562 -4.148438 2.90625 -4.28125 2.5 -4.28125 Z M 2.5 -4.28125 "/></g></g></g><g fill="#000000" fill-opacity="1"><g transform="translate(51.386356, 105.223029)"><g><path d="M 4.296875 0 L 3.734375 0 L 3.734375 -3.140625 C 3.734375 -3.503906 3.640625 -3.785156 3.453125 -3.984375 C 3.265625 -4.179688 3.015625 -4.28125 2.703125 -4.28125 C 2.316406 -4.28125 1.984375 -4.128906 1.703125 -3.828125 C 1.421875 -3.535156 1.28125 -3.132812 1.28125 -2.625 L 1.28125 0 L 0.71875 0 L 0.71875 -4.75 L 1.28125 -4.75 L 1.28125 -3.9375 C 1.570312 -4.53125 2.078125 -4.828125 2.796875 -4.828125 C 3.253906 -4.828125 3.617188 -4.6875 3.890625 -4.40625 C 4.160156 -4.125 4.296875 -3.757812 4.296875 -3.3125 Z M 4.296875 0 "/></g></g></g><g fill="#000000" fill-opacity="1"><g transform="translate(56.343302, 105.223029)"><g/></g></g><g fill="#000000" fill-opacity="1"><g transform="translate(58.610939, 105.223029)"><g><path d="M 1.375 0 L 0.796875 0 L 0.796875 -6.3125 L 1.375 -6.3125 Z M 1.375 0 "/></g></g></g><g fill="#000000" fill-opacity="1"><g transform="translate(60.784874, 105.223029)"><g><path d="M 3.484375 -1.21875 C 3.484375 -0.820312 3.34375 -0.507812 3.0625 -0.28125 C 2.789062 -0.0507812 2.421875 0.0625 1.953125 0.0625 C 1.378906 0.0625 0.914062 -0.03125 0.5625 -0.21875 L 0.5625 -0.8125 C 0.976562 -0.570312 1.425781 -0.453125 1.90625 -0.453125 C 2.226562 -0.453125 2.472656 -0.519531 2.640625 -0.65625 C 2.804688 -0.789062 2.890625 -0.960938 2.890625 -1.171875 C 2.890625 -1.421875 2.800781 -1.613281 2.625 -1.75 C 2.457031 -1.882812 2.175781 -2.03125 1.78125 -2.1875 C 1.394531 -2.34375 1.085938 -2.519531 0.859375 -2.71875 C 0.640625 -2.914062 0.53125 -3.191406 0.53125 -3.546875 C 0.53125 -3.921875 0.671875 -4.222656 0.953125 -4.453125 C 1.234375 -4.679688 1.585938 -4.796875 2.015625 -4.796875 C 2.523438 -4.796875 2.921875 -4.722656 3.203125 -4.578125 L 3.203125 -4.015625 C 2.898438 -4.179688 2.5 -4.265625 2 -4.265625 C 1.726562 -4.265625 1.507812 -4.195312 1.34375 -4.0625 C 1.1875 -3.9375 1.109375 -3.773438 1.109375 -3.578125 C 1.109375 -3.453125 1.128906 -3.34375 1.171875 -3.25 C 1.222656 -3.15625 1.304688 -3.066406 1.421875 -2.984375 C 1.546875 -2.910156 1.644531 -2.851562 1.71875 -2.8125 C 1.800781 -2.769531 1.9375 -2.710938 2.125 -2.640625 C 2.5625 -2.460938 2.894531 -2.269531 3.125 -2.0625 C 3.363281 -1.851562 3.484375 -1.570312 3.484375 -1.21875 Z M 3.484375 -1.21875 "/></g></g></g><g fill="#000000" fill-opacity="1"><g transform="translate(64.589261, 105.223029)"><g><path d="M 1.328125 0 L 0.75 0 L 0.75 -6.625 L 1.328125 -6.625 Z M 1.328125 0 "/></g></g></g><g fill="#000000" fill-opacity="1"><g transform="translate(66.660123, 105.223029)"><g><path d="M 2.09375 -0.484375 C 2.46875 -0.484375 2.765625 -0.582031 2.984375 -0.78125 C 3.210938 -0.988281 3.328125 -1.253906 3.328125 -1.578125 L 3.328125 -2.265625 L 2.40625 -2.265625 C 1.957031 -2.265625 1.625 -2.175781 1.40625 -2 C 1.1875 -1.832031 1.078125 -1.617188 1.078125 -1.359375 C 1.078125 -1.097656 1.160156 -0.882812 1.328125 -0.71875 C 1.503906 -0.5625 1.757812 -0.484375 2.09375 -0.484375 Z M 3.328125 -0.546875 C 3.066406 -0.148438 2.609375 0.046875 1.953125 0.046875 C 1.515625 0.046875 1.15625 -0.0820312 0.875 -0.34375 C 0.601562 -0.601562 0.46875 -0.9375 0.46875 -1.34375 C 0.46875 -1.800781 0.644531 -2.15625 1 -2.40625 C 1.351562 -2.65625 1.820312 -2.78125 2.40625 -2.78125 L 3.328125 -2.78125 L 3.328125 -3 C 3.328125 -3.425781 3.234375 -3.742188 3.046875 -3.953125 C 2.867188 -4.171875 2.566406 -4.28125 2.140625 -4.28125 C 1.648438 -4.28125 1.207031 -4.144531 0.8125 -3.875 L 0.8125 -4.5 C 1.175781 -4.71875 1.625 -4.828125 2.15625 -4.828125 C 3.320312 -4.828125 3.90625 -4.21875 3.90625 -3 L 3.90625 0 L 3.328125 0 Z M 3.328125 -0.546875 "/></g></g></g><g fill="#000000" fill-opacity="1"><g transform="translate(71.214142, 105.223029)"><g><path d="M 4.296875 0 L 3.734375 0 L 3.734375 -3.140625 C 3.734375 -3.503906 3.640625 -3.785156 3.453125 -3.984375 C 3.265625 -4.179688 3.015625 -4.28125 2.703125 -4.28125 C 2.316406 -4.28125 1.984375 -4.128906 1.703125 -3.828125 C 1.421875 -3.535156 1.28125 -3.132812 1.28125 -2.625 L 1.28125 0 L 0.71875 0 L 0.71875 -4.75 L 1.28125 -4.75 L 1.28125 -3.9375 C 1.570312 -4.53125 2.078125 -4.828125 2.796875 -4.828125 C 3.253906 -4.828125 3.617188 -4.6875 3.890625 -4.40625 C 4.160156 -4.125 4.296875 -3.757812 4.296875 -3.3125 Z M 4.296875 0 "/></g></g></g><g fill="#000000" fill-opacity="1"><g transform="translate(76.171088, 105.223029)"><g><path d="M 1.015625 -2.3125 C 1.015625 -1.769531 1.144531 -1.328125 1.40625 -0.984375 C 1.675781 -0.640625 2.015625 -0.46875 2.421875 -0.46875 C 2.828125 -0.46875 3.175781 -0.613281 3.46875 -0.90625 C 3.769531 -1.207031 3.921875 -1.707031 3.921875 -2.40625 C 3.921875 -2.75 3.867188 -3.050781 3.765625 -3.3125 C 3.671875 -3.570312 3.546875 -3.769531 3.390625 -3.90625 C 3.242188 -4.039062 3.09375 -4.132812 2.9375 -4.1875 C 2.78125 -4.25 2.628906 -4.28125 2.484375 -4.28125 C 2.054688 -4.28125 1.703125 -4.109375 1.421875 -3.765625 C 1.148438 -3.429688 1.015625 -2.945312 1.015625 -2.3125 Z M 4.484375 0 L 3.921875 0 L 3.921875 -0.6875 C 3.585938 -0.175781 3.097656 0.078125 2.453125 0.078125 C 1.804688 0.078125 1.304688 -0.15625 0.953125 -0.625 C 0.597656 -1.09375 0.421875 -1.660156 0.421875 -2.328125 C 0.421875 -3.066406 0.609375 -3.664062 0.984375 -4.125 C 1.367188 -4.59375 1.863281 -4.828125 2.46875 -4.828125 C 3.082031 -4.828125 3.566406 -4.566406 3.921875 -4.046875 L 3.921875 -6.625 L 4.484375 -6.625 Z M 4.484375 0 "/></g></g></g><g fill="#000000" fill-opacity="1"><g transform="translate(26.306792, 178.956416)"><g><path d="M 2.9375 0 L 0.75 0 L 0.75 -6.3125 L 2.515625 -6.3125 C 3.148438 -6.3125 3.664062 -6.164062 4.0625 -5.875 C 4.457031 -5.59375 4.65625 -5.191406 4.65625 -4.671875 C 4.65625 -4.296875 4.550781 -3.972656 4.34375 -3.703125 C 4.132812 -3.441406 3.863281 -3.28125 3.53125 -3.21875 C 3.882812 -3.175781 4.191406 -3.019531 4.453125 -2.75 C 4.710938 -2.488281 4.84375 -2.128906 4.84375 -1.671875 C 4.84375 -1.171875 4.675781 -0.765625 4.34375 -0.453125 C 4.019531 -0.148438 3.550781 0 2.9375 0 Z M 2.578125 -5.796875 L 1.328125 -5.796875 L 1.328125 -3.453125 L 2.46875 -3.453125 C 3.007812 -3.453125 3.40625 -3.566406 3.65625 -3.796875 C 3.914062 -4.035156 4.046875 -4.335938 4.046875 -4.703125 C 4.046875 -5.015625 3.921875 -5.273438 3.671875 -5.484375 C 3.429688 -5.691406 3.066406 -5.796875 2.578125 -5.796875 Z M 2.765625 -2.9375 L 1.328125 -2.9375 L 1.328125 -0.515625 L 2.9375 -0.515625 C 3.34375 -0.515625 3.660156 -0.613281 3.890625 -0.8125 C 4.117188 -1.019531 4.234375 -1.316406 4.234375 -1.703125 C 4.234375 -2.085938 4.101562 -2.390625 3.84375 -2.609375 C 3.582031 -2.828125 3.222656 -2.9375 2.765625 -2.9375 Z M 2.765625 -2.9375 "/></g></g></g><g fill="#000000" fill-opacity="1"><g transform="translate(31.572961, 178.956416)"><g><path d="M 1.28125 0 L 0.71875 0 L 0.71875 -4.75 L 1.28125 -4.75 L 1.28125 -3.953125 C 1.539062 -4.523438 1.984375 -4.8125 2.609375 -4.8125 C 2.660156 -4.8125 2.738281 -4.804688 2.84375 -4.796875 L 2.84375 -4.203125 C 2.71875 -4.242188 2.59375 -4.265625 2.46875 -4.265625 C 2.132812 -4.265625 1.851562 -4.097656 1.625 -3.765625 C 1.394531 -3.429688 1.28125 -3.0625 1.28125 -2.65625 Z M 1.28125 0 "/></g></g></g><g fill="#000000" fill-opacity="1"><g transform="translate(34.515268, 178.956416)"><g><path d="M 4.84375 -2.359375 C 4.84375 -1.648438 4.640625 -1.066406 4.234375 -0.609375 C 3.835938 -0.148438 3.296875 0.078125 2.609375 0.078125 C 1.941406 0.078125 1.410156 -0.148438 1.015625 -0.609375 C 0.617188 -1.066406 0.421875 -1.648438 0.421875 -2.359375 C 0.421875 -3.046875 0.625 -3.625 1.03125 -4.09375 C 1.4375 -4.570312 1.960938 -4.8125 2.609375 -4.8125 C 3.316406 -4.8125 3.863281 -4.578125 4.25 -4.109375 C 4.644531 -3.648438 4.84375 -3.066406 4.84375 -2.359375 Z M 1.015625 -2.359375 C 1.015625 -1.835938 1.160156 -1.390625 1.453125 -1.015625 C 1.742188 -0.640625 2.128906 -0.453125 2.609375 -0.453125 C 3.128906 -0.453125 3.53125 -0.632812 3.8125 -1 C 4.09375 -1.375 4.234375 -1.828125 4.234375 -2.359375 C 4.234375 -2.898438 4.097656 -3.351562 3.828125 -3.71875 C 3.566406 -4.09375 3.160156 -4.28125 2.609375 -4.28125 C 2.109375 -4.28125 1.71875 -4.09375 1.4375 -3.71875 C 1.15625 -3.34375 1.015625 -2.890625 1.015625 -2.359375 Z M 1.015625 -2.359375 "/></g></g></g><g fill="#000000" fill-opacity="1"><g transform="translate(39.772066, 178.956416)"><g><path d="M 4.296875 0 L 3.734375 0 L 3.734375 -3.140625 C 3.734375 -3.503906 3.640625 -3.785156 3.453125 -3.984375 C 3.265625 -4.179688 3.015625 -4.28125 2.703125 -4.28125 C 2.316406 -4.28125 1.984375 -4.128906 1.703125 -3.828125 C 1.421875 -3.535156 1.28125 -3.132812 1.28125 -2.625 L 1.28125 0 L 0.71875 0 L 0.71875 -4.75 L 1.28125 -4.75 L 1.28125 -3.9375 C 1.570312 -4.53125 2.078125 -4.828125 2.796875 -4.828125 C 3.253906 -4.828125 3.617188 -4.6875 3.890625 -4.40625 C 4.160156 -4.125 4.296875 -3.757812 4.296875 -3.3125 Z M 4.296875 0 "/></g></g></g><g fill="#000000" fill-opacity="1"><g transform="translate(44.729011, 178.956416)"><g><path d="M 0.90625 0 L 0.25 0 L 1.8125 -2.453125 L 0.34375 -4.765625 L 1.015625 -4.765625 L 2.1875 -2.890625 L 3.34375 -4.765625 L 4 -4.765625 L 2.515625 -2.4375 L 4.109375 0 L 3.421875 0 L 2.171875 -2 Z M 0.90625 0 "/></g></g></g><g fill="#000000" fill-opacity="1"><g transform="translate(241.543559, 159.148639)"><g><path d="M 1.28125 0 L 0.703125 0 L 1.140625 -6.3125 L 1.9375 -6.3125 L 2.765625 -4 L 3.875 -0.78125 C 4.3125 -1.96875 4.707031 -3.039062 5.0625 -4 L 5.921875 -6.3125 L 6.71875 -6.3125 L 7.25 0 L 6.671875 0 L 6.453125 -2.5 L 6.203125 -5.5625 C 5.828125 -4.519531 5.457031 -3.5 5.09375 -2.5 L 4.21875 -0.15625 L 3.53125 -0.15625 L 2.703125 -2.5 L 1.65625 -5.5 C 1.601562 -4.550781 1.539062 -3.550781 1.46875 -2.5 Z M 1.28125 0 "/></g></g></g><g fill="#000000" fill-opacity="1"><g transform="translate(249.489665, 159.148639)"><g><path d="M 2.09375 -0.484375 C 2.46875 -0.484375 2.765625 -0.582031 2.984375 -0.78125 C 3.210938 -0.988281 3.328125 -1.253906 3.328125 -1.578125 L 3.328125 -2.265625 L 2.40625 -2.265625 C 1.957031 -2.265625 1.625 -2.175781 1.40625 -2 C 1.1875 -1.832031 1.078125 -1.617188 1.078125 -1.359375 C 1.078125 -1.097656 1.160156 -0.882812 1.328125 -0.71875 C 1.503906 -0.5625 1.757812 -0.484375 2.09375 -0.484375 Z M 3.328125 -0.546875 C 3.066406 -0.148438 2.609375 0.046875 1.953125 0.046875 C 1.515625 0.046875 1.15625 -0.0820312 0.875 -0.34375 C 0.601562 -0.601562 0.46875 -0.9375 0.46875 -1.34375 C 0.46875 -1.800781 0.644531 -2.15625 1 -2.40625 C 1.351562 -2.65625 1.820312 -2.78125 2.40625 -2.78125 L 3.328125 -2.78125 L 3.328125 -3 C 3.328125 -3.425781 3.234375 -3.742188 3.046875 -3.953125 C 2.867188 -4.171875 2.566406 -4.28125 2.140625 -4.28125 C 1.648438 -4.28125 1.207031 -4.144531 0.8125 -3.875 L 0.8125 -4.5 C 1.175781 -4.71875 1.625 -4.828125 2.15625 -4.828125 C 3.320312 -4.828125 3.90625 -4.21875 3.90625 -3 L 3.90625 0 L 3.328125 0 Z M 3.328125 -0.546875 "/></g></g></g><g fill="#000000" fill-opacity="1"><g transform="translate(254.043685, 159.148639)"><g><path d="M 4.296875 0 L 3.734375 0 L 3.734375 -3.140625 C 3.734375 -3.503906 3.640625 -3.785156 3.453125 -3.984375 C 3.265625 -4.179688 3.015625 -4.28125 2.703125 -4.28125 C 2.316406 -4.28125 1.984375 -4.128906 1.703125 -3.828125 C 1.421875 -3.535156 1.28125 -3.132812 1.28125 -2.625 L 1.28125 0 L 0.71875 0 L 0.71875 -4.75 L 1.28125 -4.75 L 1.28125 -3.9375 C 1.570312 -4.53125 2.078125 -4.828125 2.796875 -4.828125 C 3.253906 -4.828125 3.617188 -4.6875 3.890625 -4.40625 C 4.160156 -4.125 4.296875 -3.757812 4.296875 -3.3125 Z M 4.296875 0 "/></g></g></g><g fill="#000000" fill-opacity="1"><g transform="translate(259.00063, 159.148639)"><g><path d="M 4.296875 0 L 3.734375 0 L 3.734375 -3.140625 C 3.734375 -3.503906 3.640625 -3.785156 3.453125 -3.984375 C 3.265625 -4.179688 3.015625 -4.28125 2.703125 -4.28125 C 2.316406 -4.28125 1.984375 -4.128906 1.703125 -3.828125 C 1.421875 -3.535156 1.28125 -3.132812 1.28125 -2.625 L 1.28125 0 L 0.71875 0 L 0.71875 -6.625 L 1.28125 -6.625 L 1.28125 -3.9375 C 1.570312 -4.53125 2.078125 -4.828125 2.796875 -4.828125 C 3.253906 -4.828125 3.617188 -4.6875 3.890625 -4.40625 C 4.160156 -4.125 4.296875 -3.757812 4.296875 -3.3125 Z M 4.296875 0 "/></g></g></g><g fill="#000000" fill-opacity="1"><g transform="translate(263.957575, 159.148639)"><g><path d="M 2.09375 -0.484375 C 2.46875 -0.484375 2.765625 -0.582031 2.984375 -0.78125 C 3.210938 -0.988281 3.328125 -1.253906 3.328125 -1.578125 L 3.328125 -2.265625 L 2.40625 -2.265625 C 1.957031 -2.265625 1.625 -2.175781 1.40625 -2 C 1.1875 -1.832031 1.078125 -1.617188 1.078125 -1.359375 C 1.078125 -1.097656 1.160156 -0.882812 1.328125 -0.71875 C 1.503906 -0.5625 1.757812 -0.484375 2.09375 -0.484375 Z M 3.328125 -0.546875 C 3.066406 -0.148438 2.609375 0.046875 1.953125 0.046875 C 1.515625 0.046875 1.15625 -0.0820312 0.875 -0.34375 C 0.601562 -0.601562 0.46875 -0.9375 0.46875 -1.34375 C 0.46875 -1.800781 0.644531 -2.15625 1 -2.40625 C 1.351562 -2.65625 1.820312 -2.78125 2.40625 -2.78125 L 3.328125 -2.78125 L 3.328125 -3 C 3.328125 -3.425781 3.234375 -3.742188 3.046875 -3.953125 C 2.867188 -4.171875 2.566406 -4.28125 2.140625 -4.28125 C 1.648438 -4.28125 1.207031 -4.144531 0.8125 -3.875 L 0.8125 -4.5 C 1.175781 -4.71875 1.625 -4.828125 2.15625 -4.828125 C 3.320312 -4.828125 3.90625 -4.21875 3.90625 -3 L 3.90625 0 L 3.328125 0 Z M 3.328125 -0.546875 "/></g></g></g><g fill="#000000" fill-opacity="1"><g transform="translate(268.511595, 159.148639)"><g><path d="M 2.984375 -0.125 C 2.804688 -0.0078125 2.597656 0.046875 2.359375 0.046875 C 1.460938 0.046875 1.015625 -0.414062 1.015625 -1.34375 L 1.015625 -4.265625 L 0.234375 -4.265625 L 0.234375 -4.75 L 1.015625 -4.75 L 1.015625 -5.9375 L 1.59375 -5.9375 L 1.59375 -4.75 L 2.953125 -4.75 L 2.953125 -4.265625 L 1.59375 -4.265625 L 1.59375 -1.3125 C 1.59375 -0.769531 1.847656 -0.5 2.359375 -0.5 C 2.609375 -0.5 2.816406 -0.570312 2.984375 -0.71875 Z M 2.984375 -0.125 "/></g></g></g><g fill="#000000" fill-opacity="1"><g transform="translate(271.922426, 159.148639)"><g><path d="M 2.984375 -0.125 C 2.804688 -0.0078125 2.597656 0.046875 2.359375 0.046875 C 1.460938 0.046875 1.015625 -0.414062 1.015625 -1.34375 L 1.015625 -4.265625 L 0.234375 -4.265625 L 0.234375 -4.75 L 1.015625 -4.75 L 1.015625 -5.9375 L 1.59375 -5.9375 L 1.59375 -4.75 L 2.953125 -4.75 L 2.953125 -4.265625 L 1.59375 -4.265625 L 1.59375 -1.3125 C 1.59375 -0.769531 1.847656 -0.5 2.359375 -0.5 C 2.609375 -0.5 2.816406 -0.570312 2.984375 -0.71875 Z M 2.984375 -0.125 "/></g></g></g><g fill="#000000" fill-opacity="1"><g transform="translate(275.333257, 159.148639)"><g><path d="M 2.09375 -0.484375 C 2.46875 -0.484375 2.765625 -0.582031 2.984375 -0.78125 C 3.210938 -0.988281 3.328125 -1.253906 3.328125 -1.578125 L 3.328125 -2.265625 L 2.40625 -2.265625 C 1.957031 -2.265625 1.625 -2.175781 1.40625 -2 C 1.1875 -1.832031 1.078125 -1.617188 1.078125 -1.359375 C 1.078125 -1.097656 1.160156 -0.882812 1.328125 -0.71875 C 1.503906 -0.5625 1.757812 -0.484375 2.09375 -0.484375 Z M 3.328125 -0.546875 C 3.066406 -0.148438 2.609375 0.046875 1.953125 0.046875 C 1.515625 0.046875 1.15625 -0.0820312 0.875 -0.34375 C 0.601562 -0.601562 0.46875 -0.9375 0.46875 -1.34375 C 0.46875 -1.800781 0.644531 -2.15625 1 -2.40625 C 1.351562 -2.65625 1.820312 -2.78125 2.40625 -2.78125 L 3.328125 -2.78125 L 3.328125 -3 C 3.328125 -3.425781 3.234375 -3.742188 3.046875 -3.953125 C 2.867188 -4.171875 2.566406 -4.28125 2.140625 -4.28125 C 1.648438 -4.28125 1.207031 -4.144531 0.8125 -3.875 L 0.8125 -4.5 C 1.175781 -4.71875 1.625 -4.828125 2.15625 -4.828125 C 3.320312 -4.828125 3.90625 -4.21875 3.90625 -3 L 3.90625 0 L 3.328125 0 Z M 3.328125 -0.546875 "/></g></g></g><g fill="#000000" fill-opacity="1"><g transform="translate(279.887276, 159.148639)"><g><path d="M 4.296875 0 L 3.734375 0 L 3.734375 -3.140625 C 3.734375 -3.503906 3.640625 -3.785156 3.453125 -3.984375 C 3.265625 -4.179688 3.015625 -4.28125 2.703125 -4.28125 C 2.316406 -4.28125 1.984375 -4.128906 1.703125 -3.828125 C 1.421875 -3.535156 1.28125 -3.132812 1.28125 -2.625 L 1.28125 0 L 0.71875 0 L 0.71875 -4.75 L 1.28125 -4.75 L 1.28125 -3.9375 C 1.570312 -4.53125 2.078125 -4.828125 2.796875 -4.828125 C 3.253906 -4.828125 3.617188 -4.6875 3.890625 -4.40625 C 4.160156 -4.125 4.296875 -3.757812 4.296875 -3.3125 Z M 4.296875 0 "/></g></g></g><g fill="#f3eff5" fill-opacity="1"><g transform="translate(93.163863, 128.989655)"><g><path d="M 0.546875 -2.9375 C 0.546875 -4.289062 0.804688 -5.300781 1.328125 -5.96875 C 1.859375 -6.632812 2.640625 -6.96875 3.671875 -6.96875 C 4.023438 -6.96875 4.300781 -6.9375 4.5 -6.875 L 4.5 -6.203125 C 4.257812 -6.285156 3.984375 -6.328125 3.671875 -6.328125 C 2.941406 -6.328125 2.378906 -6.097656 1.984375 -5.640625 C 1.597656 -5.179688 1.382812 -4.457031 1.34375 -3.46875 L 1.40625 -3.46875 C 1.75 -4.007812 2.296875 -4.28125 3.046875 -4.28125 C 3.660156 -4.28125 4.144531 -4.09375 4.5 -3.71875 C 4.851562 -3.34375 5.03125 -2.835938 5.03125 -2.203125 C 5.03125 -1.484375 4.832031 -0.921875 4.4375 -0.515625 C 4.050781 -0.109375 3.523438 0.09375 2.859375 0.09375 C 2.148438 0.09375 1.585938 -0.171875 1.171875 -0.703125 C 0.753906 -1.242188 0.546875 -1.988281 0.546875 -2.9375 Z M 2.859375 -0.5625 C 3.304688 -0.5625 3.648438 -0.703125 3.890625 -0.984375 C 4.140625 -1.265625 4.265625 -1.671875 4.265625 -2.203125 C 4.265625 -2.660156 4.148438 -3.019531 3.921875 -3.28125 C 3.691406 -3.539062 3.347656 -3.671875 2.890625 -3.671875 C 2.609375 -3.671875 2.347656 -3.609375 2.109375 -3.484375 C 1.878906 -3.367188 1.691406 -3.207031 1.546875 -3 C 1.410156 -2.800781 1.34375 -2.59375 1.34375 -2.375 C 1.34375 -2.050781 1.40625 -1.75 1.53125 -1.46875 C 1.65625 -1.195312 1.832031 -0.976562 2.0625 -0.8125 C 2.300781 -0.644531 2.566406 -0.5625 2.859375 -0.5625 Z M 2.859375 -0.5625 "/></g></g></g><g fill="#f3eff5" fill-opacity="1"><g transform="translate(98.668234, 128.989655)"><g><path d="M 1.140625 -4.828125 C 1.140625 -4.285156 1.195312 -3.878906 1.3125 -3.609375 C 1.425781 -3.347656 1.613281 -3.21875 1.875 -3.21875 C 2.382812 -3.21875 2.640625 -3.753906 2.640625 -4.828125 C 2.640625 -5.878906 2.382812 -6.40625 1.875 -6.40625 C 1.613281 -6.40625 1.425781 -6.273438 1.3125 -6.015625 C 1.195312 -5.753906 1.140625 -5.359375 1.140625 -4.828125 Z M 3.296875 -4.828125 C 3.296875 -4.109375 3.175781 -3.566406 2.9375 -3.203125 C 2.695312 -2.835938 2.34375 -2.65625 1.875 -2.65625 C 1.4375 -2.65625 1.09375 -2.84375 0.84375 -3.21875 C 0.601562 -3.59375 0.484375 -4.128906 0.484375 -4.828125 C 0.484375 -5.535156 0.597656 -6.066406 0.828125 -6.421875 C 1.066406 -6.785156 1.414062 -6.96875 1.875 -6.96875 C 2.332031 -6.96875 2.679688 -6.78125 2.921875 -6.40625 C 3.171875 -6.03125 3.296875 -5.503906 3.296875 -4.828125 Z M 5.265625 -2.0625 C 5.265625 -1.53125 5.320312 -1.128906 5.4375 -0.859375 C 5.5625 -0.597656 5.753906 -0.46875 6.015625 -0.46875 C 6.273438 -0.46875 6.46875 -0.597656 6.59375 -0.859375 C 6.71875 -1.117188 6.78125 -1.519531 6.78125 -2.0625 C 6.78125 -2.601562 6.71875 -3 6.59375 -3.25 C 6.46875 -3.507812 6.273438 -3.640625 6.015625 -3.640625 C 5.753906 -3.640625 5.5625 -3.507812 5.4375 -3.25 C 5.320312 -3 5.265625 -2.601562 5.265625 -2.0625 Z M 7.4375 -2.0625 C 7.4375 -1.351562 7.316406 -0.816406 7.078125 -0.453125 C 6.835938 -0.0859375 6.484375 0.09375 6.015625 0.09375 C 5.566406 0.09375 5.222656 -0.09375 4.984375 -0.46875 C 4.742188 -0.84375 4.625 -1.375 4.625 -2.0625 C 4.625 -2.78125 4.738281 -3.316406 4.96875 -3.671875 C 5.207031 -4.035156 5.554688 -4.21875 6.015625 -4.21875 C 6.460938 -4.21875 6.8125 -4.03125 7.0625 -3.65625 C 7.3125 -3.289062 7.4375 -2.757812 7.4375 -2.0625 Z M 6.21875 -6.875 L 2.40625 0 L 1.71875 0 L 5.53125 -6.875 Z M 6.21875 -6.875 "/></g></g></g><g fill="#f3eff5" fill-opacity="1"><g transform="translate(81.710265, 191.567754)"><g><path d="M 4.984375 0 L 0.46875 0 L 0.46875 -0.671875 L 2.28125 -2.484375 C 2.832031 -3.046875 3.195312 -3.445312 3.375 -3.6875 C 3.550781 -3.925781 3.679688 -4.15625 3.765625 -4.375 C 3.847656 -4.601562 3.890625 -4.847656 3.890625 -5.109375 C 3.890625 -5.472656 3.78125 -5.757812 3.5625 -5.96875 C 3.34375 -6.1875 3.035156 -6.296875 2.640625 -6.296875 C 2.347656 -6.296875 2.070312 -6.25 1.8125 -6.15625 C 1.5625 -6.0625 1.28125 -5.894531 0.96875 -5.65625 L 0.5625 -6.1875 C 1.195312 -6.707031 1.882812 -6.96875 2.625 -6.96875 C 3.269531 -6.96875 3.773438 -6.800781 4.140625 -6.46875 C 4.503906 -6.144531 4.6875 -5.703125 4.6875 -5.140625 C 4.6875 -4.703125 4.566406 -4.269531 4.328125 -3.84375 C 4.085938 -3.414062 3.628906 -2.878906 2.953125 -2.234375 L 1.453125 -0.765625 L 1.453125 -0.71875 L 4.984375 -0.71875 Z M 4.984375 0 "/></g></g></g><g fill="#f3eff5" fill-opacity="1"><g transform="translate(87.214636, 191.567754)"><g><path d="M 3.359375 0 L 2.59375 0 L 2.59375 -4.890625 C 2.59375 -5.304688 2.609375 -5.691406 2.640625 -6.046875 C 2.566406 -5.984375 2.488281 -5.914062 2.40625 -5.84375 C 2.332031 -5.769531 1.960938 -5.46875 1.296875 -4.9375 L 0.890625 -5.46875 L 2.703125 -6.875 L 3.359375 -6.875 Z M 3.359375 0 "/></g></g></g><g fill="#f3eff5" fill-opacity="1"><g transform="translate(92.719007, 191.567754)"><g><path d="M 1.140625 -4.828125 C 1.140625 -4.285156 1.195312 -3.878906 1.3125 -3.609375 C 1.425781 -3.347656 1.613281 -3.21875 1.875 -3.21875 C 2.382812 -3.21875 2.640625 -3.753906 2.640625 -4.828125 C 2.640625 -5.878906 2.382812 -6.40625 1.875 -6.40625 C 1.613281 -6.40625 1.425781 -6.273438 1.3125 -6.015625 C 1.195312 -5.753906 1.140625 -5.359375 1.140625 -4.828125 Z M 3.296875 -4.828125 C 3.296875 -4.109375 3.175781 -3.566406 2.9375 -3.203125 C 2.695312 -2.835938 2.34375 -2.65625 1.875 -2.65625 C 1.4375 -2.65625 1.09375 -2.84375 0.84375 -3.21875 C 0.601562 -3.59375 0.484375 -4.128906 0.484375 -4.828125 C 0.484375 -5.535156 0.597656 -6.066406 0.828125 -6.421875 C 1.066406 -6.785156 1.414062 -6.96875 1.875 -6.96875 C 2.332031 -6.96875 2.679688 -6.78125 2.921875 -6.40625 C 3.171875 -6.03125 3.296875 -5.503906 3.296875 -4.828125 Z M 5.265625 -2.0625 C 5.265625 -1.53125 5.320312 -1.128906 5.4375 -0.859375 C 5.5625 -0.597656 5.753906 -0.46875 6.015625 -0.46875 C 6.273438 -0.46875 6.46875 -0.597656 6.59375 -0.859375 C 6.71875 -1.117188 6.78125 -1.519531 6.78125 -2.0625 C 6.78125 -2.601562 6.71875 -3 6.59375 -3.25 C 6.46875 -3.507812 6.273438 -3.640625 6.015625 -3.640625 C 5.753906 -3.640625 5.5625 -3.507812 5.4375 -3.25 C 5.320312 -3 5.265625 -2.601562 5.265625 -2.0625 Z M 7.4375 -2.0625 C 7.4375 -1.351562 7.316406 -0.816406 7.078125 -0.453125 C 6.835938 -0.0859375 6.484375 0.09375 6.015625 0.09375 C 5.566406 0.09375 5.222656 -0.09375 4.984375 -0.46875 C 4.742188 -0.84375 4.625 -1.375 4.625 -2.0625 C 4.625 -2.78125 4.738281 -3.316406 4.96875 -3.671875 C 5.207031 -4.035156 5.554688 -4.21875 6.015625 -4.21875 C 6.460938 -4.21875 6.8125 -4.03125 7.0625 -3.65625 C 7.3125 -3.289062 7.4375 -2.757812 7.4375 -2.0625 Z M 6.21875 -6.875 L 2.40625 0 L 1.71875 0 L 5.53125 -6.875 Z M 6.21875 -6.875 "/></g></g></g><g fill="#f3eff5" fill-opacity="1"><g transform="translate(167.803689, 115.706086)"><g><path d="M 4.734375 -5.25 C 4.734375 -4.8125 4.609375 -4.453125 4.359375 -4.171875 C 4.109375 -3.898438 3.757812 -3.71875 3.3125 -3.625 L 3.3125 -3.578125 C 3.863281 -3.515625 4.269531 -3.335938 4.53125 -3.046875 C 4.800781 -2.765625 4.9375 -2.398438 4.9375 -1.953125 C 4.9375 -1.296875 4.707031 -0.789062 4.25 -0.4375 C 3.800781 -0.0820312 3.160156 0.09375 2.328125 0.09375 C 1.960938 0.09375 1.628906 0.0625 1.328125 0 C 1.023438 -0.0507812 0.726562 -0.144531 0.4375 -0.28125 L 0.4375 -1.015625 C 0.738281 -0.867188 1.054688 -0.753906 1.390625 -0.671875 C 1.734375 -0.597656 2.050781 -0.5625 2.34375 -0.5625 C 3.53125 -0.5625 4.125 -1.03125 4.125 -1.96875 C 4.125 -2.800781 3.472656 -3.21875 2.171875 -3.21875 L 1.484375 -3.21875 L 1.484375 -3.890625 L 2.171875 -3.890625 C 2.710938 -3.890625 3.140625 -4.003906 3.453125 -4.234375 C 3.765625 -4.472656 3.921875 -4.800781 3.921875 -5.21875 C 3.921875 -5.5625 3.804688 -5.828125 3.578125 -6.015625 C 3.347656 -6.203125 3.035156 -6.296875 2.640625 -6.296875 C 2.335938 -6.296875 2.050781 -6.253906 1.78125 -6.171875 C 1.519531 -6.097656 1.21875 -5.953125 0.875 -5.734375 L 0.484375 -6.25 C 0.765625 -6.476562 1.085938 -6.65625 1.453125 -6.78125 C 1.816406 -6.90625 2.207031 -6.96875 2.625 -6.96875 C 3.289062 -6.96875 3.804688 -6.8125 4.171875 -6.5 C 4.546875 -6.195312 4.734375 -5.78125 4.734375 -5.25 Z M 4.734375 -5.25 "/></g></g></g><g fill="#f3eff5" fill-opacity="1"><g transform="translate(173.30806, 115.706086)"><g><path d="M 5.3125 -1.578125 L 4.296875 -1.578125 L 4.296875 0 L 3.546875 0 L 3.546875 -1.578125 L 0.203125 -1.578125 L 0.203125 -2.265625 L 3.46875 -6.90625 L 4.296875 -6.90625 L 4.296875 -2.28125 L 5.3125 -2.28125 Z M 3.546875 -2.28125 L 3.546875 -4.578125 C 3.546875 -5.023438 3.5625 -5.53125 3.59375 -6.09375 L 3.546875 -6.09375 C 3.398438 -5.789062 3.257812 -5.539062 3.125 -5.34375 L 0.984375 -2.28125 Z M 3.546875 -2.28125 "/></g></g></g><g fill="#f3eff5" fill-opacity="1"><g transform="translate(178.812431, 115.706086)"><g><path d="M 1.140625 -4.828125 C 1.140625 -4.285156 1.195312 -3.878906 1.3125 -3.609375 C 1.425781 -3.347656 1.613281 -3.21875 1.875 -3.21875 C 2.382812 -3.21875 2.640625 -3.753906 2.640625 -4.828125 C 2.640625 -5.878906 2.382812 -6.40625 1.875 -6.40625 C 1.613281 -6.40625 1.425781 -6.273438 1.3125 -6.015625 C 1.195312 -5.753906 1.140625 -5.359375 1.140625 -4.828125 Z M 3.296875 -4.828125 C 3.296875 -4.109375 3.175781 -3.566406 2.9375 -3.203125 C 2.695312 -2.835938 2.34375 -2.65625 1.875 -2.65625 C 1.4375 -2.65625 1.09375 -2.84375 0.84375 -3.21875 C 0.601562 -3.59375 0.484375 -4.128906 0.484375 -4.828125 C 0.484375 -5.535156 0.597656 -6.066406 0.828125 -6.421875 C 1.066406 -6.785156 1.414062 -6.96875 1.875 -6.96875 C 2.332031 -6.96875 2.679688 -6.78125 2.921875 -6.40625 C 3.171875 -6.03125 3.296875 -5.503906 3.296875 -4.828125 Z M 5.265625 -2.0625 C 5.265625 -1.53125 5.320312 -1.128906 5.4375 -0.859375 C 5.5625 -0.597656 5.753906 -0.46875 6.015625 -0.46875 C 6.273438 -0.46875 6.46875 -0.597656 6.59375 -0.859375 C 6.71875 -1.117188 6.78125 -1.519531 6.78125 -2.0625 C 6.78125 -2.601562 6.71875 -3 6.59375 -3.25 C 6.46875 -3.507812 6.273438 -3.640625 6.015625 -3.640625 C 5.753906 -3.640625 5.5625 -3.507812 5.4375 -3.25 C 5.320312 -3 5.265625 -2.601562 5.265625 -2.0625 Z M 7.4375 -2.0625 C 7.4375 -1.351562 7.316406 -0.816406 7.078125 -0.453125 C 6.835938 -0.0859375 6.484375 0.09375 6.015625 0.09375 C 5.566406 0.09375 5.222656 -0.09375 4.984375 -0.46875 C 4.742188 -0.84375 4.625 -1.375 4.625 -2.0625 C 4.625 -2.78125 4.738281 -3.316406 4.96875 -3.671875 C 5.207031 -4.035156 5.554688 -4.21875 6.015625 -4.21875 C 6.460938 -4.21875 6.8125 -4.03125 7.0625 -3.65625 C 7.3125 -3.289062 7.4375 -2.757812 7.4375 -2.0625 Z M 6.21875 -6.875 L 2.40625 0 L 1.71875 0 L 5.53125 -6.875 Z M 6.21875 -6.875 "/></g></g></g><g fill="#f3eff5" fill-opacity="1"><g transform="translate(181.031739, 225.541477)"><g><path d="M 4.734375 -5.25 C 4.734375 -4.8125 4.609375 -4.453125 4.359375 -4.171875 C 4.109375 -3.898438 3.757812 -3.71875 3.3125 -3.625 L 3.3125 -3.578125 C 3.863281 -3.515625 4.269531 -3.335938 4.53125 -3.046875 C 4.800781 -2.765625 4.9375 -2.398438 4.9375 -1.953125 C 4.9375 -1.296875 4.707031 -0.789062 4.25 -0.4375 C 3.800781 -0.0820312 3.160156 0.09375 2.328125 0.09375 C 1.960938 0.09375 1.628906 0.0625 1.328125 0 C 1.023438 -0.0507812 0.726562 -0.144531 0.4375 -0.28125 L 0.4375 -1.015625 C 0.738281 -0.867188 1.054688 -0.753906 1.390625 -0.671875 C 1.734375 -0.597656 2.050781 -0.5625 2.34375 -0.5625 C 3.53125 -0.5625 4.125 -1.03125 4.125 -1.96875 C 4.125 -2.800781 3.472656 -3.21875 2.171875 -3.21875 L 1.484375 -3.21875 L 1.484375 -3.890625 L 2.171875 -3.890625 C 2.710938 -3.890625 3.140625 -4.003906 3.453125 -4.234375 C 3.765625 -4.472656 3.921875 -4.800781 3.921875 -5.21875 C 3.921875 -5.5625 3.804688 -5.828125 3.578125 -6.015625 C 3.347656 -6.203125 3.035156 -6.296875 2.640625 -6.296875 C 2.335938 -6.296875 2.050781 -6.253906 1.78125 -6.171875 C 1.519531 -6.097656 1.21875 -5.953125 0.875 -5.734375 L 0.484375 -6.25 C 0.765625 -6.476562 1.085938 -6.65625 1.453125 -6.78125 C 1.816406 -6.90625 2.207031 -6.96875 2.625 -6.96875 C 3.289062 -6.96875 3.804688 -6.8125 4.171875 -6.5 C 4.546875 -6.195312 4.734375 -5.78125 4.734375 -5.25 Z M 4.734375 -5.25 "/></g></g></g><g fill="#f3eff5" fill-opacity="1"><g transform="translate(186.53611, 225.541477)"><g><path d="M 4.984375 -3.9375 C 4.984375 -1.25 3.941406 0.09375 1.859375 0.09375 C 1.503906 0.09375 1.21875 0.0625 1 0 L 1 -0.671875 C 1.25 -0.585938 1.535156 -0.546875 1.859375 -0.546875 C 2.609375 -0.546875 3.175781 -0.78125 3.5625 -1.25 C 3.945312 -1.71875 4.15625 -2.429688 4.1875 -3.390625 L 4.125 -3.390625 C 3.957031 -3.128906 3.726562 -2.929688 3.4375 -2.796875 C 3.15625 -2.660156 2.835938 -2.59375 2.484375 -2.59375 C 1.867188 -2.59375 1.382812 -2.773438 1.03125 -3.140625 C 0.675781 -3.503906 0.5 -4.007812 0.5 -4.65625 C 0.5 -5.375 0.695312 -5.9375 1.09375 -6.34375 C 1.5 -6.757812 2.023438 -6.96875 2.671875 -6.96875 C 3.140625 -6.96875 3.546875 -6.847656 3.890625 -6.609375 C 4.242188 -6.367188 4.515625 -6.019531 4.703125 -5.5625 C 4.890625 -5.101562 4.984375 -4.5625 4.984375 -3.9375 Z M 2.671875 -6.296875 C 2.222656 -6.296875 1.875 -6.148438 1.625 -5.859375 C 1.382812 -5.578125 1.265625 -5.179688 1.265625 -4.671875 C 1.265625 -4.210938 1.378906 -3.851562 1.609375 -3.59375 C 1.835938 -3.34375 2.179688 -3.21875 2.640625 -3.21875 C 2.921875 -3.21875 3.179688 -3.273438 3.421875 -3.390625 C 3.660156 -3.503906 3.847656 -3.660156 3.984375 -3.859375 C 4.128906 -4.054688 4.203125 -4.269531 4.203125 -4.5 C 4.203125 -4.820312 4.132812 -5.125 4 -5.40625 C 3.875 -5.6875 3.695312 -5.90625 3.46875 -6.0625 C 3.238281 -6.21875 2.972656 -6.296875 2.671875 -6.296875 Z M 2.671875 -6.296875 "/></g></g></g><g fill="#f3eff5" fill-opacity="1"><g transform="translate(192.040481, 225.541477)"><g><path d="M 1.140625 -4.828125 C 1.140625 -4.285156 1.195312 -3.878906 1.3125 -3.609375 C 1.425781 -3.347656 1.613281 -3.21875 1.875 -3.21875 C 2.382812 -3.21875 2.640625 -3.753906 2.640625 -4.828125 C 2.640625 -5.878906 2.382812 -6.40625 1.875 -6.40625 C 1.613281 -6.40625 1.425781 -6.273438 1.3125 -6.015625 C 1.195312 -5.753906 1.140625 -5.359375 1.140625 -4.828125 Z M 3.296875 -4.828125 C 3.296875 -4.109375 3.175781 -3.566406 2.9375 -3.203125 C 2.695312 -2.835938 2.34375 -2.65625 1.875 -2.65625 C 1.4375 -2.65625 1.09375 -2.84375 0.84375 -3.21875 C 0.601562 -3.59375 0.484375 -4.128906 0.484375 -4.828125 C 0.484375 -5.535156 0.597656 -6.066406 0.828125 -6.421875 C 1.066406 -6.785156 1.414062 -6.96875 1.875 -6.96875 C 2.332031 -6.96875 2.679688 -6.78125 2.921875 -6.40625 C 3.171875 -6.03125 3.296875 -5.503906 3.296875 -4.828125 Z M 5.265625 -2.0625 C 5.265625 -1.53125 5.320312 -1.128906 5.4375 -0.859375 C 5.5625 -0.597656 5.753906 -0.46875 6.015625 -0.46875 C 6.273438 -0.46875 6.46875 -0.597656 6.59375 -0.859375 C 6.71875 -1.117188 6.78125 -1.519531 6.78125 -2.0625 C 6.78125 -2.601562 6.71875 -3 6.59375 -3.25 C 6.46875 -3.507812 6.273438 -3.640625 6.015625 -3.640625 C 5.753906 -3.640625 5.5625 -3.507812 5.4375 -3.25 C 5.320312 -3 5.265625 -2.601562 5.265625 -2.0625 Z M 7.4375 -2.0625 C 7.4375 -1.351562 7.316406 -0.816406 7.078125 -0.453125 C 6.835938 -0.0859375 6.484375 0.09375 6.015625 0.09375 C 5.566406 0.09375 5.222656 -0.09375 4.984375 -0.46875 C 4.742188 -0.84375 4.625 -1.375 4.625 -2.0625 C 4.625 -2.78125 4.738281 -3.316406 4.96875 -3.671875 C 5.207031 -4.035156 5.554688 -4.21875 6.015625 -4.21875 C 6.460938 -4.21875 6.8125 -4.03125 7.0625 -3.65625 C 7.3125 -3.289062 7.4375 -2.757812 7.4375 -2.0625 Z M 6.21875 -6.875 L 2.40625 0 L 1.71875 0 L 5.53125 -6.875 Z M 6.21875 -6.875 "/></g></g></g><g fill="#f3eff5" fill-opacity="1"><g transform="translate(211.294633, 163.827116)"><g><path d="M 5.03125 -3.4375 C 5.03125 -2.25 4.84375 -1.363281 4.46875 -0.78125 C 4.09375 -0.195312 3.519531 0.09375 2.75 0.09375 C 2.007812 0.09375 1.445312 -0.203125 1.0625 -0.796875 C 0.675781 -1.398438 0.484375 -2.28125 0.484375 -3.4375 C 0.484375 -4.632812 0.664062 -5.523438 1.03125 -6.109375 C 1.40625 -6.691406 1.976562 -6.984375 2.75 -6.984375 C 3.488281 -6.984375 4.050781 -6.679688 4.4375 -6.078125 C 4.832031 -5.472656 5.03125 -4.59375 5.03125 -3.4375 Z M 1.265625 -3.4375 C 1.265625 -2.445312 1.378906 -1.722656 1.609375 -1.265625 C 1.847656 -0.804688 2.226562 -0.578125 2.75 -0.578125 C 3.269531 -0.578125 3.644531 -0.804688 3.875 -1.265625 C 4.101562 -1.734375 4.21875 -2.457031 4.21875 -3.4375 C 4.21875 -4.425781 4.101562 -5.148438 3.875 -5.609375 C 3.644531 -6.066406 3.269531 -6.296875 2.75 -6.296875 C 2.226562 -6.296875 1.847656 -6.066406 1.609375 -5.609375 C 1.378906 -5.160156 1.265625 -4.4375 1.265625 -3.4375 Z M 1.265625 -3.4375 "/></g></g></g><g fill="#f3eff5" fill-opacity="1"><g transform="translate(216.799004, 163.827116)"><g><path d="M 1.140625 -4.828125 C 1.140625 -4.285156 1.195312 -3.878906 1.3125 -3.609375 C 1.425781 -3.347656 1.613281 -3.21875 1.875 -3.21875 C 2.382812 -3.21875 2.640625 -3.753906 2.640625 -4.828125 C 2.640625 -5.878906 2.382812 -6.40625 1.875 -6.40625 C 1.613281 -6.40625 1.425781 -6.273438 1.3125 -6.015625 C 1.195312 -5.753906 1.140625 -5.359375 1.140625 -4.828125 Z M 3.296875 -4.828125 C 3.296875 -4.109375 3.175781 -3.566406 2.9375 -3.203125 C 2.695312 -2.835938 2.34375 -2.65625 1.875 -2.65625 C 1.4375 -2.65625 1.09375 -2.84375 0.84375 -3.21875 C 0.601562 -3.59375 0.484375 -4.128906 0.484375 -4.828125 C 0.484375 -5.535156 0.597656 -6.066406 0.828125 -6.421875 C 1.066406 -6.785156 1.414062 -6.96875 1.875 -6.96875 C 2.332031 -6.96875 2.679688 -6.78125 2.921875 -6.40625 C 3.171875 -6.03125 3.296875 -5.503906 3.296875 -4.828125 Z M 5.265625 -2.0625 C 5.265625 -1.53125 5.320312 -1.128906 5.4375 -0.859375 C 5.5625 -0.597656 5.753906 -0.46875 6.015625 -0.46875 C 6.273438 -0.46875 6.46875 -0.597656 6.59375 -0.859375 C 6.71875 -1.117188 6.78125 -1.519531 6.78125 -2.0625 C 6.78125 -2.601562 6.71875 -3 6.59375 -3.25 C 6.46875 -3.507812 6.273438 -3.640625 6.015625 -3.640625 C 5.753906 -3.640625 5.5625 -3.507812 5.4375 -3.25 C 5.320312 -3 5.265625 -2.601562 5.265625 -2.0625 Z M 7.4375 -2.0625 C 7.4375 -1.351562 7.316406 -0.816406 7.078125 -0.453125 C 6.835938 -0.0859375 6.484375 0.09375 6.015625 0.09375 C 5.566406 0.09375 5.222656 -0.09375 4.984375 -0.46875 C 4.742188 -0.84375 4.625 -1.375 4.625 -2.0625 C 4.625 -2.78125 4.738281 -3.316406 4.96875 -3.671875 C 5.207031 -4.035156 5.554688 -4.21875 6.015625 -4.21875 C 6.460938 -4.21875 6.8125 -4.03125 7.0625 -3.65625 C 7.3125 -3.289062 7.4375 -2.757812 7.4375 -2.0625 Z M 6.21875 -6.875 L 2.40625 0 L 1.71875 0 L 5.53125 -6.875 Z M 6.21875 -6.875 "/></g></g></g><g fill="#000000" fill-opacity="1"><g transform="translate(36.820224, 62.197259)"><g><path d="M 3.375 -3.203125 L 2.03125 -3.203125 L 2.03125 0 L 1 0 L 1 -8.6875 L 3.28125 -8.6875 C 4.28125 -8.6875 5.066406 -8.425781 5.640625 -7.90625 C 6.222656 -7.382812 6.515625 -6.710938 6.515625 -5.890625 C 6.515625 -5.117188 6.226562 -4.476562 5.65625 -3.96875 C 5.082031 -3.457031 4.320312 -3.203125 3.375 -3.203125 Z M 3.28125 -7.796875 L 2.03125 -7.796875 L 2.03125 -4.09375 L 3.375 -4.09375 C 4.03125 -4.09375 4.539062 -4.257812 4.90625 -4.59375 C 5.28125 -4.9375 5.46875 -5.367188 5.46875 -5.890625 C 5.46875 -6.472656 5.273438 -6.9375 4.890625 -7.28125 C 4.515625 -7.625 3.976562 -7.796875 3.28125 -7.796875 Z M 3.28125 -7.796875 "/></g></g></g><g fill="#000000" fill-opacity="1"><g transform="translate(43.843127, 62.197259)"><g><path d="M 5.703125 -0.328125 C 5.203125 -0.0664062 4.585938 0.0625 3.859375 0.0625 C 2.867188 0.0625 2.066406 -0.238281 1.453125 -0.84375 C 0.847656 -1.445312 0.546875 -2.25 0.546875 -3.25 C 0.546875 -4.289062 0.816406 -5.109375 1.359375 -5.703125 C 1.898438 -6.304688 2.597656 -6.609375 3.453125 -6.609375 C 4.265625 -6.609375 4.910156 -6.347656 5.390625 -5.828125 C 5.878906 -5.304688 6.125 -4.5625 6.125 -3.59375 C 6.125 -3.320312 6.101562 -3.066406 6.0625 -2.828125 L 1.59375 -2.828125 C 1.675781 -2.191406 1.921875 -1.703125 2.328125 -1.359375 C 2.742188 -1.015625 3.285156 -0.84375 3.953125 -0.84375 C 4.679688 -0.84375 5.265625 -0.988281 5.703125 -1.28125 Z M 3.453125 -5.71875 C 2.960938 -5.71875 2.546875 -5.539062 2.203125 -5.1875 C 1.859375 -4.84375 1.65625 -4.34375 1.59375 -3.6875 L 5.109375 -3.6875 L 5.109375 -3.9375 C 5.109375 -4.476562 4.960938 -4.910156 4.671875 -5.234375 C 4.378906 -5.554688 3.972656 -5.71875 3.453125 -5.71875 Z M 3.453125 -5.71875 "/></g></g></g><g fill="#000000" fill-opacity="1"><g transform="translate(50.569651, 62.197259)"><g><path d="M 1.953125 0 L 0.921875 0 L 0.9375 -6.53125 L 1.953125 -6.53125 L 1.953125 -5.390625 C 2.296875 -6.191406 2.882812 -6.59375 3.71875 -6.59375 C 3.875 -6.59375 4 -6.585938 4.09375 -6.578125 L 4.09375 -5.5625 C 3.90625 -5.625 3.71875 -5.65625 3.53125 -5.65625 C 3.070312 -5.65625 2.691406 -5.441406 2.390625 -5.015625 C 2.097656 -4.597656 1.953125 -4.117188 1.953125 -3.578125 Z M 1.953125 0 "/></g></g></g><g fill="#000000" fill-opacity="1"><g transform="translate(54.770504, 62.197259)"><g><path d="M 5.4375 -0.234375 C 5.03125 0.015625 4.523438 0.140625 3.921875 0.140625 C 2.890625 0.140625 2.066406 -0.1875 1.453125 -0.84375 C 0.847656 -1.5 0.546875 -2.300781 0.546875 -3.25 C 0.546875 -4.175781 0.847656 -4.972656 1.453125 -5.640625 C 2.066406 -6.316406 2.894531 -6.65625 3.9375 -6.65625 C 4.5 -6.65625 5 -6.535156 5.4375 -6.296875 L 5.4375 -5.328125 C 5.039062 -5.585938 4.578125 -5.71875 4.046875 -5.71875 C 3.304688 -5.71875 2.710938 -5.476562 2.265625 -5 C 1.828125 -4.53125 1.609375 -3.941406 1.609375 -3.234375 C 1.617188 -2.523438 1.832031 -1.9375 2.25 -1.46875 C 2.675781 -1 3.273438 -0.765625 4.046875 -0.765625 C 4.546875 -0.765625 5.007812 -0.910156 5.4375 -1.203125 Z M 5.4375 -0.234375 "/></g></g></g><g fill="#000000" fill-opacity="1"><g transform="translate(60.839838, 62.197259)"><g><path d="M 5.703125 -0.328125 C 5.203125 -0.0664062 4.585938 0.0625 3.859375 0.0625 C 2.867188 0.0625 2.066406 -0.238281 1.453125 -0.84375 C 0.847656 -1.445312 0.546875 -2.25 0.546875 -3.25 C 0.546875 -4.289062 0.816406 -5.109375 1.359375 -5.703125 C 1.898438 -6.304688 2.597656 -6.609375 3.453125 -6.609375 C 4.265625 -6.609375 4.910156 -6.347656 5.390625 -5.828125 C 5.878906 -5.304688 6.125 -4.5625 6.125 -3.59375 C 6.125 -3.320312 6.101562 -3.066406 6.0625 -2.828125 L 1.59375 -2.828125 C 1.675781 -2.191406 1.921875 -1.703125 2.328125 -1.359375 C 2.742188 -1.015625 3.285156 -0.84375 3.953125 -0.84375 C 4.679688 -0.84375 5.265625 -0.988281 5.703125 -1.28125 Z M 3.453125 -5.71875 C 2.960938 -5.71875 2.546875 -5.539062 2.203125 -5.1875 C 1.859375 -4.84375 1.65625 -4.34375 1.59375 -3.6875 L 5.109375 -3.6875 L 5.109375 -3.9375 C 5.109375 -4.476562 4.960938 -4.910156 4.671875 -5.234375 C 4.378906 -5.554688 3.972656 -5.71875 3.453125 -5.71875 Z M 3.453125 -5.71875 "/></g></g></g><g fill="#000000" fill-opacity="1"><g transform="translate(67.566361, 62.197259)"><g><path d="M 6.09375 0 L 5.078125 0 L 5.078125 -4.234375 C 5.078125 -4.710938 4.953125 -5.078125 4.703125 -5.328125 C 4.460938 -5.578125 4.144531 -5.703125 3.75 -5.703125 C 3.257812 -5.703125 2.835938 -5.515625 2.484375 -5.140625 C 2.128906 -4.765625 1.953125 -4.242188 1.953125 -3.578125 L 1.953125 0 L 0.9375 0 L 0.9375 -6.53125 L 1.953125 -6.53125 L 1.953125 -5.40625 C 2.335938 -6.21875 3.023438 -6.625 4.015625 -6.625 C 4.648438 -6.625 5.15625 -6.429688 5.53125 -6.046875 C 5.90625 -5.660156 6.09375 -5.144531 6.09375 -4.5 Z M 6.09375 0 "/></g></g></g><g fill="#000000" fill-opacity="1"><g transform="translate(74.524833, 62.197259)"><g><path d="M 4.21875 -0.171875 C 3.9375 -0.015625 3.617188 0.0625 3.265625 0.0625 C 1.972656 0.0625 1.328125 -0.59375 1.328125 -1.90625 L 1.328125 -5.703125 L 0.28125 -5.703125 L 0.28125 -6.53125 L 1.328125 -6.53125 L 1.328125 -8.15625 L 2.34375 -8.15625 L 2.34375 -6.53125 L 4.15625 -6.53125 L 4.15625 -5.703125 L 2.34375 -5.703125 L 2.34375 -1.875 C 2.34375 -1.1875 2.671875 -0.84375 3.328125 -0.84375 C 3.660156 -0.84375 3.957031 -0.941406 4.21875 -1.140625 Z M 4.21875 -0.171875 "/></g></g></g><g fill="#000000" fill-opacity="1"><g transform="translate(79.279791, 62.197259)"><g><path d="M 2.9375 -0.78125 C 3.40625 -0.78125 3.773438 -0.910156 4.046875 -1.171875 C 4.316406 -1.441406 4.453125 -1.773438 4.453125 -2.171875 L 4.453125 -3.015625 L 3.328125 -3.015625 C 2.773438 -3.015625 2.359375 -2.90625 2.078125 -2.6875 C 1.804688 -2.476562 1.671875 -2.207031 1.671875 -1.875 C 1.671875 -1.550781 1.773438 -1.285156 1.984375 -1.078125 C 2.203125 -0.878906 2.519531 -0.78125 2.9375 -0.78125 Z M 4.46875 -0.765625 C 4.132812 -0.210938 3.523438 0.0625 2.640625 0.0625 C 2.035156 0.0625 1.546875 -0.113281 1.171875 -0.46875 C 0.796875 -0.832031 0.609375 -1.289062 0.609375 -1.84375 C 0.609375 -2.46875 0.84375 -2.953125 1.3125 -3.296875 C 1.789062 -3.648438 2.445312 -3.828125 3.28125 -3.828125 L 4.453125 -3.828125 L 4.453125 -4.15625 C 4.453125 -4.675781 4.335938 -5.066406 4.109375 -5.328125 C 3.878906 -5.585938 3.488281 -5.71875 2.9375 -5.71875 C 2.238281 -5.71875 1.617188 -5.535156 1.078125 -5.171875 L 1.078125 -6.1875 C 1.566406 -6.488281 2.210938 -6.640625 3.015625 -6.640625 C 4.660156 -6.640625 5.484375 -5.804688 5.484375 -4.140625 L 5.484375 0 L 4.46875 0 Z M 4.46875 -0.765625 "/></g></g></g><g fill="#000000" fill-opacity="1"><g transform="translate(85.619732, 62.197259)"><g><path d="M 6.21875 -0.53125 C 6.21875 0.46875 5.941406 1.21875 5.390625 1.71875 C 4.835938 2.21875 4.128906 2.46875 3.265625 2.46875 C 2.472656 2.46875 1.796875 2.335938 1.234375 2.078125 L 1.234375 1.0625 C 1.785156 1.375 2.429688 1.53125 3.171875 1.53125 C 3.796875 1.53125 4.285156 1.363281 4.640625 1.03125 C 5.003906 0.695312 5.1875 0.171875 5.1875 -0.546875 L 5.1875 -1.28125 C 4.757812 -0.539062 4.125 -0.171875 3.28125 -0.171875 C 2.53125 -0.171875 1.890625 -0.441406 1.359375 -0.984375 C 0.828125 -1.535156 0.5625 -2.300781 0.5625 -3.28125 C 0.5625 -4.257812 0.804688 -5.0625 1.296875 -5.6875 C 1.785156 -6.3125 2.425781 -6.625 3.21875 -6.625 C 4.113281 -6.625 4.769531 -6.234375 5.1875 -5.453125 L 5.1875 -6.53125 L 6.21875 -6.53125 Z M 1.625 -3.3125 C 1.625 -2.582031 1.800781 -2.023438 2.15625 -1.640625 C 2.519531 -1.253906 2.929688 -1.0625 3.390625 -1.0625 C 3.859375 -1.0625 4.273438 -1.242188 4.640625 -1.609375 C 5.003906 -1.984375 5.1875 -2.53125 5.1875 -3.25 C 5.1875 -4.082031 5.007812 -4.695312 4.65625 -5.09375 C 4.3125 -5.5 3.90625 -5.703125 3.4375 -5.703125 C 2.882812 -5.703125 2.441406 -5.476562 2.109375 -5.03125 C 1.785156 -4.59375 1.625 -4.019531 1.625 -3.3125 Z M 1.625 -3.3125 "/></g></g></g><g fill="#000000" fill-opacity="1"><g transform="translate(92.694178, 62.197259)"><g><path d="M 5.703125 -0.328125 C 5.203125 -0.0664062 4.585938 0.0625 3.859375 0.0625 C 2.867188 0.0625 2.066406 -0.238281 1.453125 -0.84375 C 0.847656 -1.445312 0.546875 -2.25 0.546875 -3.25 C 0.546875 -4.289062 0.816406 -5.109375 1.359375 -5.703125 C 1.898438 -6.304688 2.597656 -6.609375 3.453125 -6.609375 C 4.265625 -6.609375 4.910156 -6.347656 5.390625 -5.828125 C 5.878906 -5.304688 6.125 -4.5625 6.125 -3.59375 C 6.125 -3.320312 6.101562 -3.066406 6.0625 -2.828125 L 1.59375 -2.828125 C 1.675781 -2.191406 1.921875 -1.703125 2.328125 -1.359375 C 2.742188 -1.015625 3.285156 -0.84375 3.953125 -0.84375 C 4.679688 -0.84375 5.265625 -0.988281 5.703125 -1.28125 Z M 3.453125 -5.71875 C 2.960938 -5.71875 2.546875 -5.539062 2.203125 -5.1875 C 1.859375 -4.84375 1.65625 -4.34375 1.59375 -3.6875 L 5.109375 -3.6875 L 5.109375 -3.9375 C 5.109375 -4.476562 4.960938 -4.910156 4.671875 -5.234375 C 4.378906 -5.554688 3.972656 -5.71875 3.453125 -5.71875 Z M 3.453125 -5.71875 "/></g></g></g><g fill="#000000" fill-opacity="1"><g transform="translate(99.420702, 62.197259)"><g/></g></g><g fill="#000000" fill-opacity="1"><g transform="translate(102.564899, 62.197259)"><g><path d="M 6.6875 -3.25 C 6.6875 -2.28125 6.410156 -1.476562 5.859375 -0.84375 C 5.316406 -0.207031 4.5625 0.109375 3.59375 0.109375 C 2.65625 0.109375 1.910156 -0.203125 1.359375 -0.828125 C 0.816406 -1.460938 0.546875 -2.257812 0.546875 -3.21875 C 0.546875 -4.1875 0.828125 -4.992188 1.390625 -5.640625 C 1.960938 -6.296875 2.695312 -6.625 3.59375 -6.625 C 4.582031 -6.625 5.34375 -6.304688 5.875 -5.671875 C 6.414062 -5.035156 6.6875 -4.226562 6.6875 -3.25 Z M 1.609375 -3.234375 C 1.609375 -2.554688 1.785156 -1.976562 2.140625 -1.5 C 2.503906 -1.019531 2.988281 -0.78125 3.59375 -0.78125 C 4.25 -0.78125 4.753906 -1.015625 5.109375 -1.484375 C 5.460938 -1.953125 5.640625 -2.535156 5.640625 -3.234375 C 5.640625 -3.953125 5.46875 -4.546875 5.125 -5.015625 C 4.789062 -5.484375 4.28125 -5.71875 3.59375 -5.71875 C 2.976562 -5.71875 2.492188 -5.476562 2.140625 -5 C 1.785156 -4.519531 1.609375 -3.929688 1.609375 -3.234375 Z M 1.609375 -3.234375 "/></g></g></g><g fill="#000000" fill-opacity="1"><g transform="translate(109.806863, 62.197259)"><g><path d="M 3.96875 -5.703125 L 2.53125 -5.703125 L 2.53125 0 L 1.515625 0 L 1.515625 -5.703125 L 0.390625 -5.703125 L 0.390625 -6.53125 L 1.515625 -6.53125 L 1.515625 -7.140625 C 1.515625 -7.773438 1.679688 -8.273438 2.015625 -8.640625 C 2.359375 -9.015625 2.828125 -9.203125 3.421875 -9.203125 C 3.628906 -9.203125 3.84375 -9.171875 4.0625 -9.109375 L 4.0625 -8.1875 C 3.851562 -8.25 3.65625 -8.28125 3.46875 -8.28125 C 3.195312 -8.28125 2.972656 -8.1875 2.796875 -8 C 2.617188 -7.8125 2.53125 -7.519531 2.53125 -7.125 L 2.53125 -6.53125 L 3.96875 -6.53125 Z M 3.96875 -5.703125 "/></g></g></g><g fill="#000000" fill-opacity="1"><g transform="translate(114.04638, 62.197259)"><g/></g></g><g fill="#000000" fill-opacity="1"><g transform="translate(117.190572, 62.197259)"><g><path d="M 5.96875 -7.765625 L 3.625 -7.765625 L 3.625 0 L 2.578125 0 L 2.578125 -7.765625 L 0.234375 -7.765625 L 0.234375 -8.6875 L 5.96875 -8.6875 Z M 5.96875 -7.765625 "/></g></g></g><g fill="#000000" fill-opacity="1"><g transform="translate(123.401656, 62.197259)"><g><path d="M 1.953125 0 L 0.921875 0 L 0.9375 -6.53125 L 1.953125 -6.53125 L 1.953125 -5.390625 C 2.296875 -6.191406 2.882812 -6.59375 3.71875 -6.59375 C 3.875 -6.59375 4 -6.585938 4.09375 -6.578125 L 4.09375 -5.5625 C 3.90625 -5.625 3.71875 -5.65625 3.53125 -5.65625 C 3.070312 -5.65625 2.691406 -5.441406 2.390625 -5.015625 C 2.097656 -4.597656 1.953125 -4.117188 1.953125 -3.578125 Z M 1.953125 0 "/></g></g></g><g fill="#000000" fill-opacity="1"><g transform="translate(127.602513, 62.197259)"><g><path d="M 5.703125 -0.328125 C 5.203125 -0.0664062 4.585938 0.0625 3.859375 0.0625 C 2.867188 0.0625 2.066406 -0.238281 1.453125 -0.84375 C 0.847656 -1.445312 0.546875 -2.25 0.546875 -3.25 C 0.546875 -4.289062 0.816406 -5.109375 1.359375 -5.703125 C 1.898438 -6.304688 2.597656 -6.609375 3.453125 -6.609375 C 4.265625 -6.609375 4.910156 -6.347656 5.390625 -5.828125 C 5.878906 -5.304688 6.125 -4.5625 6.125 -3.59375 C 6.125 -3.320312 6.101562 -3.066406 6.0625 -2.828125 L 1.59375 -2.828125 C 1.675781 -2.191406 1.921875 -1.703125 2.328125 -1.359375 C 2.742188 -1.015625 3.285156 -0.84375 3.953125 -0.84375 C 4.679688 -0.84375 5.265625 -0.988281 5.703125 -1.28125 Z M 3.453125 -5.71875 C 2.960938 -5.71875 2.546875 -5.539062 2.203125 -5.1875 C 1.859375 -4.84375 1.65625 -4.34375 1.59375 -3.6875 L 5.109375 -3.6875 L 5.109375 -3.9375 C 5.109375 -4.476562 4.960938 -4.910156 4.671875 -5.234375 C 4.378906 -5.554688 3.972656 -5.71875 3.453125 -5.71875 Z M 3.453125 -5.71875 "/></g></g></g><g fill="#000000" fill-opacity="1"><g transform="translate(134.329037, 62.197259)"><g><path d="M 5.703125 -0.328125 C 5.203125 -0.0664062 4.585938 0.0625 3.859375 0.0625 C 2.867188 0.0625 2.066406 -0.238281 1.453125 -0.84375 C 0.847656 -1.445312 0.546875 -2.25 0.546875 -3.25 C 0.546875 -4.289062 0.816406 -5.109375 1.359375 -5.703125 C 1.898438 -6.304688 2.597656 -6.609375 3.453125 -6.609375 C 4.265625 -6.609375 4.910156 -6.347656 5.390625 -5.828125 C 5.878906 -5.304688 6.125 -4.5625 6.125 -3.59375 C 6.125 -3.320312 6.101562 -3.066406 6.0625 -2.828125 L 1.59375 -2.828125 C 1.675781 -2.191406 1.921875 -1.703125 2.328125 -1.359375 C 2.742188 -1.015625 3.285156 -0.84375 3.953125 -0.84375 C 4.679688 -0.84375 5.265625 -0.988281 5.703125 -1.28125 Z M 3.453125 -5.71875 C 2.960938 -5.71875 2.546875 -5.539062 2.203125 -5.1875 C 1.859375 -4.84375 1.65625 -4.34375 1.59375 -3.6875 L 5.109375 -3.6875 L 5.109375 -3.9375 C 5.109375 -4.476562 4.960938 -4.910156 4.671875 -5.234375 C 4.378906 -5.554688 3.972656 -5.71875 3.453125 -5.71875 Z M 3.453125 -5.71875 "/></g></g></g><g fill="#000000" fill-opacity="1"><g transform="translate(141.05556, 62.197259)"><g><path d="M 4.875 -1.734375 C 4.875 -1.179688 4.675781 -0.738281 4.28125 -0.40625 C 3.894531 -0.0820312 3.363281 0.078125 2.6875 0.078125 C 1.894531 0.078125 1.253906 -0.0546875 0.765625 -0.328125 L 0.765625 -1.3125 C 1.335938 -0.96875 1.953125 -0.796875 2.609375 -0.796875 C 3.003906 -0.796875 3.304688 -0.875 3.515625 -1.03125 C 3.722656 -1.1875 3.828125 -1.394531 3.828125 -1.65625 C 3.828125 -1.96875 3.710938 -2.207031 3.484375 -2.375 C 3.253906 -2.550781 2.875 -2.75 2.34375 -2.96875 C 1.851562 -3.15625 1.457031 -3.390625 1.15625 -3.671875 C 0.863281 -3.953125 0.71875 -4.335938 0.71875 -4.828125 C 0.71875 -5.367188 0.921875 -5.796875 1.328125 -6.109375 C 1.742188 -6.429688 2.253906 -6.59375 2.859375 -6.59375 C 3.535156 -6.59375 4.082031 -6.5 4.5 -6.3125 L 4.5 -5.34375 C 4.101562 -5.582031 3.5625 -5.703125 2.875 -5.703125 C 2.53125 -5.703125 2.253906 -5.625 2.046875 -5.46875 C 1.847656 -5.3125 1.75 -5.109375 1.75 -4.859375 C 1.75 -4.703125 1.78125 -4.566406 1.84375 -4.453125 C 1.90625 -4.335938 2.023438 -4.222656 2.203125 -4.109375 C 2.378906 -3.992188 2.503906 -3.914062 2.578125 -3.875 C 2.660156 -3.84375 2.84375 -3.765625 3.125 -3.640625 C 3.664062 -3.421875 4.09375 -3.171875 4.40625 -2.890625 C 4.71875 -2.609375 4.875 -2.222656 4.875 -1.734375 Z M 4.875 -1.734375 "/></g></g></g><g fill="#000000" fill-opacity="1"><g transform="translate(146.364617, 62.197259)"><g/></g></g><g fill="#000000" fill-opacity="1"><g transform="translate(149.50881, 62.197259)"><g><path d="M 3.375 -3.203125 L 2.03125 -3.203125 L 2.03125 0 L 1 0 L 1 -8.6875 L 3.28125 -8.6875 C 4.28125 -8.6875 5.066406 -8.425781 5.640625 -7.90625 C 6.222656 -7.382812 6.515625 -6.710938 6.515625 -5.890625 C 6.515625 -5.117188 6.226562 -4.476562 5.65625 -3.96875 C 5.082031 -3.457031 4.320312 -3.203125 3.375 -3.203125 Z M 3.28125 -7.796875 L 2.03125 -7.796875 L 2.03125 -4.09375 L 3.375 -4.09375 C 4.03125 -4.09375 4.539062 -4.257812 4.90625 -4.59375 C 5.28125 -4.9375 5.46875 -5.367188 5.46875 -5.890625 C 5.46875 -6.472656 5.273438 -6.9375 4.890625 -7.28125 C 4.515625 -7.625 3.976562 -7.796875 3.28125 -7.796875 Z M 3.28125 -7.796875 "/></g></g></g><g fill="#000000" fill-opacity="1"><g transform="translate(156.531709, 62.197259)"><g><path d="M 2.015625 0 L 1 0 L 1 -9.109375 L 2.015625 -9.109375 Z M 2.015625 0 "/></g></g></g><g fill="#000000" fill-opacity="1"><g transform="translate(159.534155, 62.197259)"><g><path d="M 2.9375 -0.78125 C 3.40625 -0.78125 3.773438 -0.910156 4.046875 -1.171875 C 4.316406 -1.441406 4.453125 -1.773438 4.453125 -2.171875 L 4.453125 -3.015625 L 3.328125 -3.015625 C 2.773438 -3.015625 2.359375 -2.90625 2.078125 -2.6875 C 1.804688 -2.476562 1.671875 -2.207031 1.671875 -1.875 C 1.671875 -1.550781 1.773438 -1.285156 1.984375 -1.078125 C 2.203125 -0.878906 2.519531 -0.78125 2.9375 -0.78125 Z M 4.46875 -0.765625 C 4.132812 -0.210938 3.523438 0.0625 2.640625 0.0625 C 2.035156 0.0625 1.546875 -0.113281 1.171875 -0.46875 C 0.796875 -0.832031 0.609375 -1.289062 0.609375 -1.84375 C 0.609375 -2.46875 0.84375 -2.953125 1.3125 -3.296875 C 1.789062 -3.648438 2.445312 -3.828125 3.28125 -3.828125 L 4.453125 -3.828125 L 4.453125 -4.15625 C 4.453125 -4.675781 4.335938 -5.066406 4.109375 -5.328125 C 3.878906 -5.585938 3.488281 -5.71875 2.9375 -5.71875 C 2.238281 -5.71875 1.617188 -5.535156 1.078125 -5.171875 L 1.078125 -6.1875 C 1.566406 -6.488281 2.210938 -6.640625 3.015625 -6.640625 C 4.660156 -6.640625 5.484375 -5.804688 5.484375 -4.140625 L 5.484375 0 L 4.46875 0 Z M 4.46875 -0.765625 "/></g></g></g><g fill="#000000" fill-opacity="1"><g transform="translate(165.874092, 62.197259)"><g><path d="M 6.09375 0 L 5.078125 0 L 5.078125 -4.234375 C 5.078125 -4.710938 4.953125 -5.078125 4.703125 -5.328125 C 4.460938 -5.578125 4.144531 -5.703125 3.75 -5.703125 C 3.257812 -5.703125 2.835938 -5.515625 2.484375 -5.140625 C 2.128906 -4.765625 1.953125 -4.242188 1.953125 -3.578125 L 1.953125 0 L 0.9375 0 L 0.9375 -6.53125 L 1.953125 -6.53125 L 1.953125 -5.40625 C 2.335938 -6.21875 3.023438 -6.625 4.015625 -6.625 C 4.648438 -6.625 5.15625 -6.429688 5.53125 -6.046875 C 5.90625 -5.660156 6.09375 -5.144531 6.09375 -4.5 Z M 6.09375 0 "/></g></g></g><g fill="#000000" fill-opacity="1"><g transform="translate(172.832565, 62.197259)"><g><path d="M 4.21875 -0.171875 C 3.9375 -0.015625 3.617188 0.0625 3.265625 0.0625 C 1.972656 0.0625 1.328125 -0.59375 1.328125 -1.90625 L 1.328125 -5.703125 L 0.28125 -5.703125 L 0.28125 -6.53125 L 1.328125 -6.53125 L 1.328125 -8.15625 L 2.34375 -8.15625 L 2.34375 -6.53125 L 4.15625 -6.53125 L 4.15625 -5.703125 L 2.34375 -5.703125 L 2.34375 -1.875 C 2.34375 -1.1875 2.671875 -0.84375 3.328125 -0.84375 C 3.660156 -0.84375 3.957031 -0.941406 4.21875 -1.140625 Z M 4.21875 -0.171875 "/></g></g></g><g fill="#000000" fill-opacity="1"><g transform="translate(177.587522, 62.197259)"><g><path d="M 5.703125 -0.328125 C 5.203125 -0.0664062 4.585938 0.0625 3.859375 0.0625 C 2.867188 0.0625 2.066406 -0.238281 1.453125 -0.84375 C 0.847656 -1.445312 0.546875 -2.25 0.546875 -3.25 C 0.546875 -4.289062 0.816406 -5.109375 1.359375 -5.703125 C 1.898438 -6.304688 2.597656 -6.609375 3.453125 -6.609375 C 4.265625 -6.609375 4.910156 -6.347656 5.390625 -5.828125 C 5.878906 -5.304688 6.125 -4.5625 6.125 -3.59375 C 6.125 -3.320312 6.101562 -3.066406 6.0625 -2.828125 L 1.59375 -2.828125 C 1.675781 -2.191406 1.921875 -1.703125 2.328125 -1.359375 C 2.742188 -1.015625 3.285156 -0.84375 3.953125 -0.84375 C 4.679688 -0.84375 5.265625 -0.988281 5.703125 -1.28125 Z M 3.453125 -5.71875 C 2.960938 -5.71875 2.546875 -5.539062 2.203125 -5.1875 C 1.859375 -4.84375 1.65625 -4.34375 1.59375 -3.6875 L 5.109375 -3.6875 L 5.109375 -3.9375 C 5.109375 -4.476562 4.960938 -4.910156 4.671875 -5.234375 C 4.378906 -5.554688 3.972656 -5.71875 3.453125 -5.71875 Z M 3.453125 -5.71875 "/></g></g></g><g fill="#000000" fill-opacity="1"><g transform="translate(184.314045, 62.197259)"><g><path d="M 1.609375 -3.203125 C 1.609375 -2.492188 1.78125 -1.921875 2.125 -1.484375 C 2.46875 -1.046875 2.898438 -0.828125 3.421875 -0.828125 C 3.960938 -0.828125 4.414062 -1.023438 4.78125 -1.421875 C 5.15625 -1.816406 5.34375 -2.445312 5.34375 -3.3125 C 5.34375 -4.132812 5.148438 -4.738281 4.765625 -5.125 C 4.378906 -5.507812 3.957031 -5.703125 3.5 -5.703125 C 2.957031 -5.703125 2.503906 -5.484375 2.140625 -5.046875 C 1.785156 -4.617188 1.609375 -4.003906 1.609375 -3.203125 Z M 6.375 0 L 5.34375 0 L 5.34375 -0.96875 C 4.882812 -0.25 4.21875 0.109375 3.34375 0.109375 C 2.46875 0.109375 1.78125 -0.210938 1.28125 -0.859375 C 0.789062 -1.503906 0.546875 -2.285156 0.546875 -3.203125 C 0.546875 -4.234375 0.804688 -5.0625 1.328125 -5.6875 C 1.859375 -6.320312 2.535156 -6.640625 3.359375 -6.640625 C 4.210938 -6.640625 4.875 -6.273438 5.34375 -5.546875 L 5.34375 -9.109375 L 6.375 -9.109375 Z M 6.375 0 "/></g></g></g><g fill="#000000" fill-opacity="1"><g transform="translate(191.620436, 62.197259)"><g/></g></g><g fill="#000000" fill-opacity="1"><g transform="translate(194.764628, 62.197259)"><g><path d="M 1.953125 2.546875 L 0.9375 2.546875 L 0.9375 -6.53125 L 1.953125 -6.53125 L 1.953125 -5.546875 C 2.398438 -6.273438 3.070312 -6.640625 3.96875 -6.640625 C 4.832031 -6.640625 5.507812 -6.320312 6 -5.6875 C 6.5 -5.0625 6.75 -4.273438 6.75 -3.328125 C 6.75 -2.316406 6.488281 -1.488281 5.96875 -0.84375 C 5.445312 -0.207031 4.769531 0.109375 3.9375 0.109375 C 3.082031 0.109375 2.421875 -0.257812 1.953125 -1 Z M 1.953125 -3.265625 C 1.953125 -2.429688 2.144531 -1.816406 2.53125 -1.421875 C 2.914062 -1.023438 3.34375 -0.828125 3.8125 -0.828125 C 4.363281 -0.828125 4.816406 -1.039062 5.171875 -1.46875 C 5.523438 -1.90625 5.703125 -2.523438 5.703125 -3.328125 C 5.703125 -4.035156 5.53125 -4.609375 5.1875 -5.046875 C 4.84375 -5.484375 4.40625 -5.703125 3.875 -5.703125 C 3.351562 -5.703125 2.898438 -5.507812 2.515625 -5.125 C 2.140625 -4.75 1.953125 -4.128906 1.953125 -3.265625 Z M 1.953125 -3.265625 "/></g></g></g><g fill="#000000" fill-opacity="1"><g transform="translate(202.071019, 62.197259)"><g><path d="M 5.703125 -0.328125 C 5.203125 -0.0664062 4.585938 0.0625 3.859375 0.0625 C 2.867188 0.0625 2.066406 -0.238281 1.453125 -0.84375 C 0.847656 -1.445312 0.546875 -2.25 0.546875 -3.25 C 0.546875 -4.289062 0.816406 -5.109375 1.359375 -5.703125 C 1.898438 -6.304688 2.597656 -6.609375 3.453125 -6.609375 C 4.265625 -6.609375 4.910156 -6.347656 5.390625 -5.828125 C 5.878906 -5.304688 6.125 -4.5625 6.125 -3.59375 C 6.125 -3.320312 6.101562 -3.066406 6.0625 -2.828125 L 1.59375 -2.828125 C 1.675781 -2.191406 1.921875 -1.703125 2.328125 -1.359375 C 2.742188 -1.015625 3.285156 -0.84375 3.953125 -0.84375 C 4.679688 -0.84375 5.265625 -0.988281 5.703125 -1.28125 Z M 3.453125 -5.71875 C 2.960938 -5.71875 2.546875 -5.539062 2.203125 -5.1875 C 1.859375 -4.84375 1.65625 -4.34375 1.59375 -3.6875 L 5.109375 -3.6875 L 5.109375 -3.9375 C 5.109375 -4.476562 4.960938 -4.910156 4.671875 -5.234375 C 4.378906 -5.554688 3.972656 -5.71875 3.453125 -5.71875 Z M 3.453125 -5.71875 "/></g></g></g><g fill="#000000" fill-opacity="1"><g transform="translate(208.797551, 62.197259)"><g><path d="M 1.953125 0 L 0.921875 0 L 0.9375 -6.53125 L 1.953125 -6.53125 L 1.953125 -5.390625 C 2.296875 -6.191406 2.882812 -6.59375 3.71875 -6.59375 C 3.875 -6.59375 4 -6.585938 4.09375 -6.578125 L 4.09375 -5.5625 C 3.90625 -5.625 3.71875 -5.65625 3.53125 -5.65625 C 3.070312 -5.65625 2.691406 -5.441406 2.390625 -5.015625 C 2.097656 -4.597656 1.953125 -4.117188 1.953125 -3.578125 Z M 1.953125 0 "/></g></g></g><g fill="#000000" fill-opacity="1"><g transform="translate(216.142601, 62.197259)"><g><path d="M 4.15625 0 L 1 0 L 1 -8.6875 L 3.609375 -8.6875 C 4.503906 -8.6875 5.21875 -8.476562 5.75 -8.0625 C 6.289062 -7.65625 6.5625 -7.101562 6.5625 -6.40625 C 6.5625 -5.90625 6.421875 -5.472656 6.140625 -5.109375 C 5.859375 -4.742188 5.5 -4.515625 5.0625 -4.421875 C 5.539062 -4.347656 5.953125 -4.128906 6.296875 -3.765625 C 6.640625 -3.410156 6.8125 -2.925781 6.8125 -2.3125 C 6.8125 -1.625 6.578125 -1.066406 6.109375 -0.640625 C 5.648438 -0.210938 5 0 4.15625 0 Z M 3.609375 -7.796875 L 2.03125 -7.796875 L 2.03125 -4.828125 L 3.421875 -4.828125 C 4.117188 -4.828125 4.632812 -4.972656 4.96875 -5.265625 C 5.3125 -5.554688 5.484375 -5.9375 5.484375 -6.40625 C 5.484375 -6.8125 5.320312 -7.144531 5 -7.40625 C 4.6875 -7.664062 4.222656 -7.796875 3.609375 -7.796875 Z M 3.8125 -3.9375 L 2.03125 -3.9375 L 2.03125 -0.890625 L 4.015625 -0.890625 C 4.554688 -0.890625 4.972656 -1.015625 5.265625 -1.265625 C 5.566406 -1.523438 5.71875 -1.898438 5.71875 -2.390625 C 5.71875 -2.878906 5.550781 -3.257812 5.21875 -3.53125 C 4.894531 -3.800781 4.425781 -3.9375 3.8125 -3.9375 Z M 3.8125 -3.9375 "/></g></g></g><g fill="#000000" fill-opacity="1"><g transform="translate(223.500544, 62.197259)"><g><path d="M 6.6875 -3.25 C 6.6875 -2.28125 6.410156 -1.476562 5.859375 -0.84375 C 5.316406 -0.207031 4.5625 0.109375 3.59375 0.109375 C 2.65625 0.109375 1.910156 -0.203125 1.359375 -0.828125 C 0.816406 -1.460938 0.546875 -2.257812 0.546875 -3.21875 C 0.546875 -4.1875 0.828125 -4.992188 1.390625 -5.640625 C 1.960938 -6.296875 2.695312 -6.625 3.59375 -6.625 C 4.582031 -6.625 5.34375 -6.304688 5.875 -5.671875 C 6.414062 -5.035156 6.6875 -4.226562 6.6875 -3.25 Z M 1.609375 -3.234375 C 1.609375 -2.554688 1.785156 -1.976562 2.140625 -1.5 C 2.503906 -1.019531 2.988281 -0.78125 3.59375 -0.78125 C 4.25 -0.78125 4.753906 -1.015625 5.109375 -1.484375 C 5.460938 -1.953125 5.640625 -2.535156 5.640625 -3.234375 C 5.640625 -3.953125 5.46875 -4.546875 5.125 -5.015625 C 4.789062 -5.484375 4.28125 -5.71875 3.59375 -5.71875 C 2.976562 -5.71875 2.492188 -5.476562 2.140625 -5 C 1.785156 -4.519531 1.609375 -3.929688 1.609375 -3.234375 Z M 1.609375 -3.234375 "/></g></g></g><g fill="#000000" fill-opacity="1"><g transform="translate(230.742507, 62.197259)"><g><path d="M 1.953125 0 L 0.921875 0 L 0.9375 -6.53125 L 1.953125 -6.53125 L 1.953125 -5.390625 C 2.296875 -6.191406 2.882812 -6.59375 3.71875 -6.59375 C 3.875 -6.59375 4 -6.585938 4.09375 -6.578125 L 4.09375 -5.5625 C 3.90625 -5.625 3.71875 -5.65625 3.53125 -5.65625 C 3.070312 -5.65625 2.691406 -5.441406 2.390625 -5.015625 C 2.097656 -4.597656 1.953125 -4.117188 1.953125 -3.578125 Z M 1.953125 0 "/></g></g></g><g fill="#000000" fill-opacity="1"><g transform="translate(234.943365, 62.197259)"><g><path d="M 6.6875 -3.25 C 6.6875 -2.28125 6.410156 -1.476562 5.859375 -0.84375 C 5.316406 -0.207031 4.5625 0.109375 3.59375 0.109375 C 2.65625 0.109375 1.910156 -0.203125 1.359375 -0.828125 C 0.816406 -1.460938 0.546875 -2.257812 0.546875 -3.21875 C 0.546875 -4.1875 0.828125 -4.992188 1.390625 -5.640625 C 1.960938 -6.296875 2.695312 -6.625 3.59375 -6.625 C 4.582031 -6.625 5.34375 -6.304688 5.875 -5.671875 C 6.414062 -5.035156 6.6875 -4.226562 6.6875 -3.25 Z M 1.609375 -3.234375 C 1.609375 -2.554688 1.785156 -1.976562 2.140625 -1.5 C 2.503906 -1.019531 2.988281 -0.78125 3.59375 -0.78125 C 4.25 -0.78125 4.753906 -1.015625 5.109375 -1.484375 C 5.460938 -1.953125 5.640625 -2.535156 5.640625 -3.234375 C 5.640625 -3.953125 5.46875 -4.546875 5.125 -5.015625 C 4.789062 -5.484375 4.28125 -5.71875 3.59375 -5.71875 C 2.976562 -5.71875 2.492188 -5.476562 2.140625 -5 C 1.785156 -4.519531 1.609375 -3.929688 1.609375 -3.234375 Z M 1.609375 -3.234375 "/></g></g></g><g fill="#000000" fill-opacity="1"><g transform="translate(242.185329, 62.197259)"><g><path d="M 6.015625 0 L 5 0 L 5 -1.140625 C 4.65625 -0.328125 3.972656 0.078125 2.953125 0.078125 C 2.304688 0.078125 1.796875 -0.109375 1.421875 -0.484375 C 1.046875 -0.867188 0.859375 -1.382812 0.859375 -2.03125 L 0.859375 -6.53125 L 1.875 -6.53125 L 1.875 -2.296875 C 1.875 -1.816406 1.992188 -1.453125 2.234375 -1.203125 C 2.484375 -0.960938 2.8125 -0.84375 3.21875 -0.84375 C 3.757812 -0.84375 4.191406 -1.03125 4.515625 -1.40625 C 4.835938 -1.78125 5 -2.289062 5 -2.9375 L 5 -6.53125 L 6.015625 -6.53125 Z M 6.015625 0 "/></g></g></g><g fill="#000000" fill-opacity="1"><g transform="translate(249.143801, 62.197259)"><g><path d="M 6.21875 -0.53125 C 6.21875 0.46875 5.941406 1.21875 5.390625 1.71875 C 4.835938 2.21875 4.128906 2.46875 3.265625 2.46875 C 2.472656 2.46875 1.796875 2.335938 1.234375 2.078125 L 1.234375 1.0625 C 1.785156 1.375 2.429688 1.53125 3.171875 1.53125 C 3.796875 1.53125 4.285156 1.363281 4.640625 1.03125 C 5.003906 0.695312 5.1875 0.171875 5.1875 -0.546875 L 5.1875 -1.28125 C 4.757812 -0.539062 4.125 -0.171875 3.28125 -0.171875 C 2.53125 -0.171875 1.890625 -0.441406 1.359375 -0.984375 C 0.828125 -1.535156 0.5625 -2.300781 0.5625 -3.28125 C 0.5625 -4.257812 0.804688 -5.0625 1.296875 -5.6875 C 1.785156 -6.3125 2.425781 -6.625 3.21875 -6.625 C 4.113281 -6.625 4.769531 -6.234375 5.1875 -5.453125 L 5.1875 -6.53125 L 6.21875 -6.53125 Z M 1.625 -3.3125 C 1.625 -2.582031 1.800781 -2.023438 2.15625 -1.640625 C 2.519531 -1.253906 2.929688 -1.0625 3.390625 -1.0625 C 3.859375 -1.0625 4.273438 -1.242188 4.640625 -1.609375 C 5.003906 -1.984375 5.1875 -2.53125 5.1875 -3.25 C 5.1875 -4.082031 5.007812 -4.695312 4.65625 -5.09375 C 4.3125 -5.5 3.90625 -5.703125 3.4375 -5.703125 C 2.882812 -5.703125 2.441406 -5.476562 2.109375 -5.03125 C 1.785156 -4.59375 1.625 -4.019531 1.625 -3.3125 Z M 1.625 -3.3125 "/></g></g></g><g fill="#000000" fill-opacity="1"><g transform="translate(256.218252, 62.197259)"><g><path d="M 6.09375 0 L 5.078125 0 L 5.078125 -4.234375 C 5.078125 -4.703125 4.953125 -5.0625 4.703125 -5.3125 C 4.460938 -5.570312 4.144531 -5.703125 3.75 -5.703125 C 3.269531 -5.703125 2.847656 -5.519531 2.484375 -5.15625 C 2.128906 -4.789062 1.953125 -4.265625 1.953125 -3.578125 L 1.953125 0 L 0.9375 0 L 0.9375 -9.109375 L 1.953125 -9.109375 L 1.953125 -5.40625 C 2.335938 -6.21875 3.023438 -6.625 4.015625 -6.625 C 4.640625 -6.625 5.140625 -6.429688 5.515625 -6.046875 C 5.898438 -5.660156 6.09375 -5.132812 6.09375 -4.46875 Z M 6.09375 0 "/></g></g></g></svg>