<svg xmlns="http://www.w3.org/2000/svg" xmlns:xlink="http://www.w3.org/1999/xlink" width="40" zoomAndPan="magnify" viewBox="0 0 30 30.000001" height="40" preserveAspectRatio="xMidYMid meet" version="1.0"><defs><filter x="0%" y="0%" width="100%" height="100%" id="7cfba46e88"><feColorMatrix values="0 0 0 0 1 0 0 0 0 1 0 0 0 0 1 0 0 0 1 0" color-interpolation-filters="sRGB"/></filter><g/><clipPath id="e21abe25a3"><path d="M 4.402344 1.453125 L 27.34375 1.453125 L 27.34375 3 L 4.402344 3 Z M 4.402344 1.453125 " clip-rule="nonzero"/></clipPath><mask id="333ad7f24a"><g filter="url(#7cfba46e88)"><rect x="-3" width="36" fill="#000000" y="-3" height="36.000001" fill-opacity="0.2471"/></g></mask><clipPath id="a743d8410a"><path d="M 0.402344 0.453125 L 23.34375 0.453125 L 23.34375 1.324219 L 0.402344 1.324219 Z M 0.402344 0.453125 " clip-rule="nonzero"/></clipPath><clipPath id="8efd70f47a"><rect x="0" width="24" y="0" height="2"/></clipPath><clipPath id="ffc4dfa07a"><path d="M 4.402344 6 L 27.34375 6 L 27.34375 7 L 4.402344 7 Z M 4.402344 6 " clip-rule="nonzero"/></clipPath><mask id="797404400f"><g filter="url(#7cfba46e88)"><rect x="-3" width="36" fill="#000000" y="-3" height="36.000001" fill-opacity="0.2471"/></g></mask><clipPath id="c1756727b4"><path d="M 0.402344 0.0390625 L 23.34375 0.0390625 L 23.34375 0.96875 L 0.402344 0.96875 Z M 0.402344 0.0390625 " clip-rule="nonzero"/></clipPath><clipPath id="2714a5a72a"><rect x="0" width="24" y="0" height="1"/></clipPath><clipPath id="1d5aa7d063"><path d="M 4.402344 10 L 27.34375 10 L 27.34375 12 L 4.402344 12 Z M 4.402344 10 " clip-rule="nonzero"/></clipPath><mask id="ae132727df"><g filter="url(#7cfba46e88)"><rect x="-3" width="36" fill="#000000" y="-3" height="36.000001" fill-opacity="0.2471"/></g></mask><clipPath id="78e818400c"><path d="M 0.402344 0.453125 L 23.34375 0.453125 L 23.34375 1.613281 L 0.402344 1.613281 Z M 0.402344 0.453125 " clip-rule="nonzero"/></clipPath><clipPath id="9e2345efb6"><rect x="0" width="24" y="0" height="2"/></clipPath><clipPath id="524ae3bcba"><path d="M 4.402344 15 L 27.34375 15 L 27.34375 17 L 4.402344 17 Z M 4.402344 15 " clip-rule="nonzero"/></clipPath><mask id="144e8d1dc7"><g filter="url(#7cfba46e88)"><rect x="-3" width="36" fill="#000000" y="-3" height="36.000001" fill-opacity="0.2471"/></g></mask><clipPath id="129a0c3071"><path d="M 0.402344 0.0976562 L 23.34375 0.0976562 L 23.34375 1 L 0.402344 1 Z M 0.402344 0.0976562 " clip-rule="nonzero"/></clipPath><clipPath id="77467076c5"><rect x="0" width="24" y="0" height="2"/></clipPath><clipPath id="06e185cd33"><path d="M 4.402344 19 L 27.34375 19 L 27.34375 21 L 4.402344 21 Z M 4.402344 19 " clip-rule="nonzero"/></clipPath><mask id="f82d204ce0"><g filter="url(#7cfba46e88)"><rect x="-3" width="36" fill="#000000" y="-3" height="36.000001" fill-opacity="0.2471"/></g></mask><clipPath id="444ca47bc9"><path d="M 0.402344 0.742188 L 23.34375 0.742188 L 23.34375 1.671875 L 0.402344 1.671875 Z M 0.402344 0.742188 " clip-rule="nonzero"/></clipPath><clipPath id="a6e9f2efa2"><rect x="0" width="24" y="0" height="2"/></clipPath><clipPath id="c100c991be"><path d="M 4.402344 24 L 27.34375 24 L 27.34375 25.15625 L 4.402344 25.15625 Z M 4.402344 24 " clip-rule="nonzero"/></clipPath><mask id="6c757bae03"><g filter="url(#7cfba46e88)"><rect x="-3" width="36" fill="#000000" y="-3" height="36.000001" fill-opacity="0.6"/></g></mask><clipPath id="e312b14ee7"><path d="M 0.402344 0.386719 L 23.34375 0.386719 L 23.34375 1.15625 L 0.402344 1.15625 Z M 0.402344 0.386719 " clip-rule="nonzero"/></clipPath><clipPath id="9a1e6a06f7"><rect x="0" width="24" y="0" height="2"/></clipPath><clipPath id="36b62a830b"><path d="M 4.402344 19 L 9 19 L 9 25.15625 L 4.402344 25.15625 Z M 4.402344 19 " clip-rule="nonzero"/></clipPath><clipPath id="cb52544cc3"><path d="M 9 15 L 14 15 L 14 25.15625 L 9 25.15625 Z M 9 15 " clip-rule="nonzero"/></clipPath><clipPath id="beb0c4d3b5"><path d="M 13 10 L 18 10 L 18 25.15625 L 13 25.15625 Z M 13 10 " clip-rule="nonzero"/></clipPath><clipPath id="34948f320d"><path d="M 18 6 L 23 6 L 23 25.15625 L 18 25.15625 Z M 18 6 " clip-rule="nonzero"/></clipPath><clipPath id="71e6f15830"><path d="M 23 1.453125 L 27.34375 1.453125 L 27.34375 25.15625 L 23 25.15625 Z M 23 1.453125 " clip-rule="nonzero"/></clipPath><clipPath id="ee332006c3"><path d="M 4.402344 22 L 9 22 L 9 25.15625 L 4.402344 25.15625 Z M 4.402344 22 " clip-rule="nonzero"/></clipPath><clipPath id="1f88dc9e8e"><path d="M 9 17 L 14 17 L 14 25.15625 L 9 25.15625 Z M 9 17 " clip-rule="nonzero"/></clipPath><clipPath id="3cf252c843"><path d="M 13 13 L 18 13 L 18 25.15625 L 13 25.15625 Z M 13 13 " clip-rule="nonzero"/></clipPath><clipPath id="7f79bf2742"><path d="M 18 9 L 23 9 L 23 25.15625 L 18 25.15625 Z M 18 9 " clip-rule="nonzero"/></clipPath><clipPath id="d38ec72613"><path d="M 23 5 L 27.34375 5 L 27.34375 25.15625 L 23 25.15625 Z M 23 5 " clip-rule="nonzero"/></clipPath><clipPath id="4d804bcaa4"><path d="M 9 21 L 14 21 L 14 25.15625 L 9 25.15625 Z M 9 21 " clip-rule="nonzero"/></clipPath><clipPath id="7f6fa42e4f"><path d="M 13 17 L 18 17 L 18 25.15625 L 13 25.15625 Z M 13 17 " clip-rule="nonzero"/></clipPath><clipPath id="26f48dc544"><path d="M 18 16 L 23 16 L 23 25.15625 L 18 25.15625 Z M 18 16 " clip-rule="nonzero"/></clipPath><clipPath id="dabc35b6aa"><path d="M 23 14 L 27.34375 14 L 27.34375 25.15625 L 23 25.15625 Z M 23 14 " clip-rule="nonzero"/></clipPath></defs><g fill="#000000" fill-opacity="1"><g transform="translate(5.10532, 27.635963)"><g><path d="M 0.0625 -0.0625 L -0.40625 -0.53125 L -0.375 -0.5625 L 0.09375 -0.09375 Z M 0.0625 -0.0625 "/></g></g></g><g fill="#000000" fill-opacity="1"><g transform="translate(5.267105, 27.474179)"><g><path d="M 0.140625 -0.171875 C 0.160156 -0.191406 0.171875 -0.210938 0.171875 -0.234375 L 0.203125 -0.203125 C 0.203125 -0.179688 0.191406 -0.160156 0.171875 -0.140625 C 0.128906 -0.0976562 0.09375 -0.0820312 0.0625 -0.09375 C 0.03125 -0.101562 0 -0.125 -0.03125 -0.15625 L -0.25 -0.375 L -0.296875 -0.328125 L -0.3125 -0.34375 L -0.296875 -0.421875 L -0.34375 -0.5 L -0.328125 -0.515625 L -0.25 -0.4375 L -0.15625 -0.53125 L -0.125 -0.5 L -0.21875 -0.40625 L 0 -0.1875 C 0.0195312 -0.164062 0.0390625 -0.148438 0.0625 -0.140625 C 0.09375 -0.140625 0.117188 -0.148438 0.140625 -0.171875 Z M 0.140625 -0.171875 "/></g></g></g><g fill="#000000" fill-opacity="1"><g transform="translate(5.482191, 27.259092)"><g><path d="M 0.203125 -0.171875 C 0.160156 -0.128906 0.109375 -0.113281 0.046875 -0.125 C -0.015625 -0.132812 -0.0703125 -0.164062 -0.125 -0.21875 C -0.175781 -0.269531 -0.207031 -0.328125 -0.21875 -0.390625 C -0.226562 -0.453125 -0.210938 -0.503906 -0.171875 -0.546875 C -0.128906 -0.585938 -0.0820312 -0.601562 -0.03125 -0.59375 C 0.0195312 -0.582031 0.0703125 -0.550781 0.125 -0.5 L 0.140625 -0.484375 L -0.09375 -0.25 C -0.0390625 -0.195312 0.00390625 -0.164062 0.046875 -0.15625 C 0.0859375 -0.144531 0.128906 -0.160156 0.171875 -0.203125 C 0.191406 -0.222656 0.207031 -0.242188 0.21875 -0.265625 C 0.238281 -0.296875 0.25 -0.320312 0.25 -0.34375 L 0.28125 -0.3125 C 0.28125 -0.289062 0.269531 -0.265625 0.25 -0.234375 C 0.238281 -0.210938 0.222656 -0.191406 0.203125 -0.171875 Z M -0.140625 -0.515625 C -0.171875 -0.484375 -0.179688 -0.441406 -0.171875 -0.390625 C -0.171875 -0.347656 -0.148438 -0.304688 -0.109375 -0.265625 L 0.09375 -0.46875 C 0.0507812 -0.507812 0.0078125 -0.535156 -0.03125 -0.546875 C -0.0703125 -0.554688 -0.109375 -0.546875 -0.140625 -0.515625 Z M -0.140625 -0.515625 "/></g></g></g><g fill="#000000" fill-opacity="1"><g transform="translate(5.834607, 26.906677)"><g><path d="M 0.484375 -0.484375 L 0.265625 -0.703125 C 0.222656 -0.742188 0.1875 -0.765625 0.15625 -0.765625 C 0.132812 -0.773438 0.109375 -0.765625 0.078125 -0.734375 C 0.046875 -0.703125 0.03125 -0.664062 0.03125 -0.625 C 0.03125 -0.582031 0.0507812 -0.539062 0.09375 -0.5 L 0.296875 -0.296875 L 0.28125 -0.28125 L 0.046875 -0.515625 C -0.015625 -0.578125 -0.078125 -0.578125 -0.140625 -0.515625 C -0.171875 -0.484375 -0.179688 -0.445312 -0.171875 -0.40625 C -0.171875 -0.375 -0.144531 -0.332031 -0.09375 -0.28125 L 0.09375 -0.09375 L 0.0625 -0.0625 L -0.28125 -0.40625 L -0.265625 -0.421875 L -0.203125 -0.390625 C -0.210938 -0.421875 -0.210938 -0.445312 -0.203125 -0.46875 C -0.203125 -0.5 -0.191406 -0.523438 -0.171875 -0.546875 C -0.109375 -0.609375 -0.0507812 -0.625 0 -0.59375 C -0.0078125 -0.625 -0.0078125 -0.65625 0 -0.6875 C 0.0078125 -0.71875 0.0234375 -0.742188 0.046875 -0.765625 C 0.0859375 -0.804688 0.125 -0.820312 0.15625 -0.8125 C 0.195312 -0.8125 0.242188 -0.785156 0.296875 -0.734375 L 0.515625 -0.515625 Z M 0.484375 -0.484375 "/></g></g></g><g fill="#000000" fill-opacity="1"><g transform="translate(6.401481, 26.339803)"><g/></g></g><g fill="#000000" fill-opacity="1"><g transform="translate(6.568282, 26.173002)"><g><path d="M 0.21875 -0.21875 L 0.1875 -0.1875 L -0.140625 -0.515625 C -0.179688 -0.554688 -0.21875 -0.59375 -0.25 -0.625 C -0.238281 -0.613281 -0.234375 -0.601562 -0.234375 -0.59375 C -0.242188 -0.59375 -0.253906 -0.535156 -0.265625 -0.421875 L -0.296875 -0.421875 L -0.28125 -0.65625 L -0.25 -0.6875 Z M 0.21875 -0.21875 "/></g></g></g><g fill="#000000" fill-opacity="1"><g transform="translate(9.808318, 27.635963)"><g><path d="M 0.0625 -0.0625 L -0.40625 -0.53125 L -0.375 -0.5625 L 0.09375 -0.09375 Z M 0.0625 -0.0625 "/></g></g></g><g fill="#000000" fill-opacity="1"><g transform="translate(9.970103, 27.474179)"><g><path d="M 0.140625 -0.171875 C 0.160156 -0.191406 0.171875 -0.210938 0.171875 -0.234375 L 0.203125 -0.203125 C 0.203125 -0.179688 0.191406 -0.160156 0.171875 -0.140625 C 0.128906 -0.0976562 0.09375 -0.0820312 0.0625 -0.09375 C 0.03125 -0.101562 0 -0.125 -0.03125 -0.15625 L -0.25 -0.375 L -0.296875 -0.328125 L -0.3125 -0.34375 L -0.296875 -0.421875 L -0.34375 -0.5 L -0.328125 -0.515625 L -0.25 -0.4375 L -0.15625 -0.53125 L -0.125 -0.5 L -0.21875 -0.40625 L 0 -0.1875 C 0.0195312 -0.164062 0.0390625 -0.148438 0.0625 -0.140625 C 0.09375 -0.140625 0.117188 -0.148438 0.140625 -0.171875 Z M 0.140625 -0.171875 "/></g></g></g><g fill="#000000" fill-opacity="1"><g transform="translate(10.185189, 27.259092)"><g><path d="M 0.203125 -0.171875 C 0.160156 -0.128906 0.109375 -0.113281 0.046875 -0.125 C -0.015625 -0.132812 -0.0703125 -0.164062 -0.125 -0.21875 C -0.175781 -0.269531 -0.207031 -0.328125 -0.21875 -0.390625 C -0.226562 -0.453125 -0.210938 -0.503906 -0.171875 -0.546875 C -0.128906 -0.585938 -0.0820312 -0.601562 -0.03125 -0.59375 C 0.0195312 -0.582031 0.0703125 -0.550781 0.125 -0.5 L 0.140625 -0.484375 L -0.09375 -0.25 C -0.0390625 -0.195312 0.00390625 -0.164062 0.046875 -0.15625 C 0.0859375 -0.144531 0.128906 -0.160156 0.171875 -0.203125 C 0.191406 -0.222656 0.207031 -0.242188 0.21875 -0.265625 C 0.238281 -0.296875 0.25 -0.320312 0.25 -0.34375 L 0.28125 -0.3125 C 0.28125 -0.289062 0.269531 -0.265625 0.25 -0.234375 C 0.238281 -0.210938 0.222656 -0.191406 0.203125 -0.171875 Z M -0.140625 -0.515625 C -0.171875 -0.484375 -0.179688 -0.441406 -0.171875 -0.390625 C -0.171875 -0.347656 -0.148438 -0.304688 -0.109375 -0.265625 L 0.09375 -0.46875 C 0.0507812 -0.507812 0.0078125 -0.535156 -0.03125 -0.546875 C -0.0703125 -0.554688 -0.109375 -0.546875 -0.140625 -0.515625 Z M -0.140625 -0.515625 "/></g></g></g><g fill="#000000" fill-opacity="1"><g transform="translate(10.537604, 26.906677)"><g><path d="M 0.484375 -0.484375 L 0.265625 -0.703125 C 0.222656 -0.742188 0.1875 -0.765625 0.15625 -0.765625 C 0.132812 -0.773438 0.109375 -0.765625 0.078125 -0.734375 C 0.046875 -0.703125 0.03125 -0.664062 0.03125 -0.625 C 0.03125 -0.582031 0.0507812 -0.539062 0.09375 -0.5 L 0.296875 -0.296875 L 0.28125 -0.28125 L 0.046875 -0.515625 C -0.015625 -0.578125 -0.078125 -0.578125 -0.140625 -0.515625 C -0.171875 -0.484375 -0.179688 -0.445312 -0.171875 -0.40625 C -0.171875 -0.375 -0.144531 -0.332031 -0.09375 -0.28125 L 0.09375 -0.09375 L 0.0625 -0.0625 L -0.28125 -0.40625 L -0.265625 -0.421875 L -0.203125 -0.390625 C -0.210938 -0.421875 -0.210938 -0.445312 -0.203125 -0.46875 C -0.203125 -0.5 -0.191406 -0.523438 -0.171875 -0.546875 C -0.109375 -0.609375 -0.0507812 -0.625 0 -0.59375 C -0.0078125 -0.625 -0.0078125 -0.65625 0 -0.6875 C 0.0078125 -0.71875 0.0234375 -0.742188 0.046875 -0.765625 C 0.0859375 -0.804688 0.125 -0.820312 0.15625 -0.8125 C 0.195312 -0.8125 0.242188 -0.785156 0.296875 -0.734375 L 0.515625 -0.515625 Z M 0.484375 -0.484375 "/></g></g></g><g fill="#000000" fill-opacity="1"><g transform="translate(11.104478, 26.339803)"><g/></g></g><g fill="#000000" fill-opacity="1"><g transform="translate(11.271279, 26.173002)"><g><path d="M 0.328125 -0.328125 L 0.046875 -0.046875 L 0.015625 -0.078125 L 0 -0.3125 C 0 -0.394531 0 -0.445312 0 -0.46875 C -0.0078125 -0.5 -0.0195312 -0.53125 -0.03125 -0.5625 C -0.0390625 -0.59375 -0.0507812 -0.613281 -0.0625 -0.625 C -0.09375 -0.65625 -0.128906 -0.671875 -0.171875 -0.671875 C -0.210938 -0.671875 -0.25 -0.65625 -0.28125 -0.625 C -0.3125 -0.59375 -0.328125 -0.535156 -0.328125 -0.453125 L -0.375 -0.46875 C -0.375 -0.53125 -0.347656 -0.585938 -0.296875 -0.640625 C -0.253906 -0.679688 -0.210938 -0.703125 -0.171875 -0.703125 C -0.128906 -0.703125 -0.0859375 -0.679688 -0.046875 -0.640625 C -0.015625 -0.609375 0.00390625 -0.570312 0.015625 -0.53125 C 0.0351562 -0.5 0.0390625 -0.4375 0.03125 -0.34375 L 0.046875 -0.109375 L 0.296875 -0.359375 Z M 0.328125 -0.328125 "/></g></g></g><g fill="#000000" fill-opacity="1"><g transform="translate(14.511313, 27.635963)"><g><path d="M 0.0625 -0.0625 L -0.40625 -0.53125 L -0.375 -0.5625 L 0.09375 -0.09375 Z M 0.0625 -0.0625 "/></g></g></g><g fill="#000000" fill-opacity="1"><g transform="translate(14.673098, 27.474179)"><g><path d="M 0.140625 -0.171875 C 0.160156 -0.191406 0.171875 -0.210938 0.171875 -0.234375 L 0.203125 -0.203125 C 0.203125 -0.179688 0.191406 -0.160156 0.171875 -0.140625 C 0.128906 -0.0976562 0.09375 -0.0820312 0.0625 -0.09375 C 0.03125 -0.101562 0 -0.125 -0.03125 -0.15625 L -0.25 -0.375 L -0.296875 -0.328125 L -0.3125 -0.34375 L -0.296875 -0.421875 L -0.34375 -0.5 L -0.328125 -0.515625 L -0.25 -0.4375 L -0.15625 -0.53125 L -0.125 -0.5 L -0.21875 -0.40625 L 0 -0.1875 C 0.0195312 -0.164062 0.0390625 -0.148438 0.0625 -0.140625 C 0.09375 -0.140625 0.117188 -0.148438 0.140625 -0.171875 Z M 0.140625 -0.171875 "/></g></g></g><g fill="#000000" fill-opacity="1"><g transform="translate(14.888184, 27.259092)"><g><path d="M 0.203125 -0.171875 C 0.160156 -0.128906 0.109375 -0.113281 0.046875 -0.125 C -0.015625 -0.132812 -0.0703125 -0.164062 -0.125 -0.21875 C -0.175781 -0.269531 -0.207031 -0.328125 -0.21875 -0.390625 C -0.226562 -0.453125 -0.210938 -0.503906 -0.171875 -0.546875 C -0.128906 -0.585938 -0.0820312 -0.601562 -0.03125 -0.59375 C 0.0195312 -0.582031 0.0703125 -0.550781 0.125 -0.5 L 0.140625 -0.484375 L -0.09375 -0.25 C -0.0390625 -0.195312 0.00390625 -0.164062 0.046875 -0.15625 C 0.0859375 -0.144531 0.128906 -0.160156 0.171875 -0.203125 C 0.191406 -0.222656 0.207031 -0.242188 0.21875 -0.265625 C 0.238281 -0.296875 0.25 -0.320312 0.25 -0.34375 L 0.28125 -0.3125 C 0.28125 -0.289062 0.269531 -0.265625 0.25 -0.234375 C 0.238281 -0.210938 0.222656 -0.191406 0.203125 -0.171875 Z M -0.140625 -0.515625 C -0.171875 -0.484375 -0.179688 -0.441406 -0.171875 -0.390625 C -0.171875 -0.347656 -0.148438 -0.304688 -0.109375 -0.265625 L 0.09375 -0.46875 C 0.0507812 -0.507812 0.0078125 -0.535156 -0.03125 -0.546875 C -0.0703125 -0.554688 -0.109375 -0.546875 -0.140625 -0.515625 Z M -0.140625 -0.515625 "/></g></g></g><g fill="#000000" fill-opacity="1"><g transform="translate(15.240599, 26.906677)"><g><path d="M 0.484375 -0.484375 L 0.265625 -0.703125 C 0.222656 -0.742188 0.1875 -0.765625 0.15625 -0.765625 C 0.132812 -0.773438 0.109375 -0.765625 0.078125 -0.734375 C 0.046875 -0.703125 0.03125 -0.664062 0.03125 -0.625 C 0.03125 -0.582031 0.0507812 -0.539062 0.09375 -0.5 L 0.296875 -0.296875 L 0.28125 -0.28125 L 0.046875 -0.515625 C -0.015625 -0.578125 -0.078125 -0.578125 -0.140625 -0.515625 C -0.171875 -0.484375 -0.179688 -0.445312 -0.171875 -0.40625 C -0.171875 -0.375 -0.144531 -0.332031 -0.09375 -0.28125 L 0.09375 -0.09375 L 0.0625 -0.0625 L -0.28125 -0.40625 L -0.265625 -0.421875 L -0.203125 -0.390625 C -0.210938 -0.421875 -0.210938 -0.445312 -0.203125 -0.46875 C -0.203125 -0.5 -0.191406 -0.523438 -0.171875 -0.546875 C -0.109375 -0.609375 -0.0507812 -0.625 0 -0.59375 C -0.0078125 -0.625 -0.0078125 -0.65625 0 -0.6875 C 0.0078125 -0.71875 0.0234375 -0.742188 0.046875 -0.765625 C 0.0859375 -0.804688 0.125 -0.820312 0.15625 -0.8125 C 0.195312 -0.8125 0.242188 -0.785156 0.296875 -0.734375 L 0.515625 -0.515625 Z M 0.484375 -0.484375 "/></g></g></g><g fill="#000000" fill-opacity="1"><g transform="translate(15.807473, 26.339803)"><g/></g></g><g fill="#000000" fill-opacity="1"><g transform="translate(15.974275, 26.173002)"><g><path d="M -0.046875 -0.671875 C -0.015625 -0.640625 0 -0.601562 0 -0.5625 C 0 -0.519531 -0.0078125 -0.488281 -0.03125 -0.46875 C 0.0078125 -0.488281 0.046875 -0.5 0.078125 -0.5 C 0.117188 -0.507812 0.160156 -0.492188 0.203125 -0.453125 C 0.242188 -0.410156 0.257812 -0.359375 0.25 -0.296875 C 0.25 -0.242188 0.222656 -0.191406 0.171875 -0.140625 C 0.117188 -0.0859375 0.0664062 -0.0546875 0.015625 -0.046875 L -0.015625 -0.078125 C 0.00390625 -0.0976562 0.03125 -0.113281 0.0625 -0.125 C 0.09375 -0.132812 0.117188 -0.148438 0.140625 -0.171875 C 0.179688 -0.210938 0.203125 -0.253906 0.203125 -0.296875 C 0.210938 -0.347656 0.203125 -0.390625 0.171875 -0.421875 C 0.140625 -0.453125 0.101562 -0.460938 0.0625 -0.453125 C 0.0195312 -0.441406 -0.0195312 -0.414062 -0.0625 -0.375 L -0.125 -0.3125 L -0.15625 -0.34375 L -0.09375 -0.40625 C -0.0507812 -0.445312 -0.03125 -0.488281 -0.03125 -0.53125 C -0.03125 -0.570312 -0.046875 -0.609375 -0.078125 -0.640625 C -0.0976562 -0.660156 -0.128906 -0.671875 -0.171875 -0.671875 C -0.210938 -0.671875 -0.25 -0.65625 -0.28125 -0.625 C -0.300781 -0.601562 -0.316406 -0.578125 -0.328125 -0.546875 C -0.335938 -0.515625 -0.34375 -0.476562 -0.34375 -0.4375 L -0.390625 -0.453125 C -0.390625 -0.492188 -0.378906 -0.53125 -0.359375 -0.5625 C -0.335938 -0.59375 -0.316406 -0.617188 -0.296875 -0.640625 C -0.242188 -0.691406 -0.195312 -0.71875 -0.15625 -0.71875 C -0.113281 -0.71875 -0.078125 -0.703125 -0.046875 -0.671875 Z M -0.046875 -0.671875 "/></g></g></g><g fill="#000000" fill-opacity="1"><g transform="translate(19.214311, 27.635963)"><g><path d="M 0.0625 -0.0625 L -0.40625 -0.53125 L -0.375 -0.5625 L 0.09375 -0.09375 Z M 0.0625 -0.0625 "/></g></g></g><g fill="#000000" fill-opacity="1"><g transform="translate(19.376096, 27.474179)"><g><path d="M 0.140625 -0.171875 C 0.160156 -0.191406 0.171875 -0.210938 0.171875 -0.234375 L 0.203125 -0.203125 C 0.203125 -0.179688 0.191406 -0.160156 0.171875 -0.140625 C 0.128906 -0.0976562 0.09375 -0.0820312 0.0625 -0.09375 C 0.03125 -0.101562 0 -0.125 -0.03125 -0.15625 L -0.25 -0.375 L -0.296875 -0.328125 L -0.3125 -0.34375 L -0.296875 -0.421875 L -0.34375 -0.5 L -0.328125 -0.515625 L -0.25 -0.4375 L -0.15625 -0.53125 L -0.125 -0.5 L -0.21875 -0.40625 L 0 -0.1875 C 0.0195312 -0.164062 0.0390625 -0.148438 0.0625 -0.140625 C 0.09375 -0.140625 0.117188 -0.148438 0.140625 -0.171875 Z M 0.140625 -0.171875 "/></g></g></g><g fill="#000000" fill-opacity="1"><g transform="translate(19.591182, 27.259092)"><g><path d="M 0.203125 -0.171875 C 0.160156 -0.128906 0.109375 -0.113281 0.046875 -0.125 C -0.015625 -0.132812 -0.0703125 -0.164062 -0.125 -0.21875 C -0.175781 -0.269531 -0.207031 -0.328125 -0.21875 -0.390625 C -0.226562 -0.453125 -0.210938 -0.503906 -0.171875 -0.546875 C -0.128906 -0.585938 -0.0820312 -0.601562 -0.03125 -0.59375 C 0.0195312 -0.582031 0.0703125 -0.550781 0.125 -0.5 L 0.140625 -0.484375 L -0.09375 -0.25 C -0.0390625 -0.195312 0.00390625 -0.164062 0.046875 -0.15625 C 0.0859375 -0.144531 0.128906 -0.160156 0.171875 -0.203125 C 0.191406 -0.222656 0.207031 -0.242188 0.21875 -0.265625 C 0.238281 -0.296875 0.25 -0.320312 0.25 -0.34375 L 0.28125 -0.3125 C 0.28125 -0.289062 0.269531 -0.265625 0.25 -0.234375 C 0.238281 -0.210938 0.222656 -0.191406 0.203125 -0.171875 Z M -0.140625 -0.515625 C -0.171875 -0.484375 -0.179688 -0.441406 -0.171875 -0.390625 C -0.171875 -0.347656 -0.148438 -0.304688 -0.109375 -0.265625 L 0.09375 -0.46875 C 0.0507812 -0.507812 0.0078125 -0.535156 -0.03125 -0.546875 C -0.0703125 -0.554688 -0.109375 -0.546875 -0.140625 -0.515625 Z M -0.140625 -0.515625 "/></g></g></g><g fill="#000000" fill-opacity="1"><g transform="translate(19.943597, 26.906677)"><g><path d="M 0.484375 -0.484375 L 0.265625 -0.703125 C 0.222656 -0.742188 0.1875 -0.765625 0.15625 -0.765625 C 0.132812 -0.773438 0.109375 -0.765625 0.078125 -0.734375 C 0.046875 -0.703125 0.03125 -0.664062 0.03125 -0.625 C 0.03125 -0.582031 0.0507812 -0.539062 0.09375 -0.5 L 0.296875 -0.296875 L 0.28125 -0.28125 L 0.046875 -0.515625 C -0.015625 -0.578125 -0.078125 -0.578125 -0.140625 -0.515625 C -0.171875 -0.484375 -0.179688 -0.445312 -0.171875 -0.40625 C -0.171875 -0.375 -0.144531 -0.332031 -0.09375 -0.28125 L 0.09375 -0.09375 L 0.0625 -0.0625 L -0.28125 -0.40625 L -0.265625 -0.421875 L -0.203125 -0.390625 C -0.210938 -0.421875 -0.210938 -0.445312 -0.203125 -0.46875 C -0.203125 -0.5 -0.191406 -0.523438 -0.171875 -0.546875 C -0.109375 -0.609375 -0.0507812 -0.625 0 -0.59375 C -0.0078125 -0.625 -0.0078125 -0.65625 0 -0.6875 C 0.0078125 -0.71875 0.0234375 -0.742188 0.046875 -0.765625 C 0.0859375 -0.804688 0.125 -0.820312 0.15625 -0.8125 C 0.195312 -0.8125 0.242188 -0.785156 0.296875 -0.734375 L 0.515625 -0.515625 Z M 0.484375 -0.484375 "/></g></g></g><g fill="#000000" fill-opacity="1"><g transform="translate(20.510471, 26.339803)"><g/></g></g><g fill="#000000" fill-opacity="1"><g transform="translate(20.677273, 26.173002)"><g><path d="M 0.234375 -0.484375 L 0.15625 -0.40625 L 0.28125 -0.28125 L 0.25 -0.25 L 0.125 -0.375 L -0.109375 -0.140625 L -0.125 -0.15625 L -0.21875 -0.71875 L -0.1875 -0.75 L 0.140625 -0.421875 L 0.21875 -0.5 Z M 0.109375 -0.390625 L -0.03125 -0.53125 C -0.09375 -0.59375 -0.144531 -0.644531 -0.1875 -0.6875 C -0.175781 -0.675781 -0.164062 -0.644531 -0.15625 -0.59375 L -0.09375 -0.1875 Z M 0.109375 -0.390625 "/></g></g></g><g fill="#000000" fill-opacity="1"><g transform="translate(23.917307, 27.635963)"><g><path d="M 0.0625 -0.0625 L -0.40625 -0.53125 L -0.375 -0.5625 L 0.09375 -0.09375 Z M 0.0625 -0.0625 "/></g></g></g><g fill="#000000" fill-opacity="1"><g transform="translate(24.079091, 27.474179)"><g><path d="M 0.140625 -0.171875 C 0.160156 -0.191406 0.171875 -0.210938 0.171875 -0.234375 L 0.203125 -0.203125 C 0.203125 -0.179688 0.191406 -0.160156 0.171875 -0.140625 C 0.128906 -0.0976562 0.09375 -0.0820312 0.0625 -0.09375 C 0.03125 -0.101562 0 -0.125 -0.03125 -0.15625 L -0.25 -0.375 L -0.296875 -0.328125 L -0.3125 -0.34375 L -0.296875 -0.421875 L -0.34375 -0.5 L -0.328125 -0.515625 L -0.25 -0.4375 L -0.15625 -0.53125 L -0.125 -0.5 L -0.21875 -0.40625 L 0 -0.1875 C 0.0195312 -0.164062 0.0390625 -0.148438 0.0625 -0.140625 C 0.09375 -0.140625 0.117188 -0.148438 0.140625 -0.171875 Z M 0.140625 -0.171875 "/></g></g></g><g fill="#000000" fill-opacity="1"><g transform="translate(24.294178, 27.259092)"><g><path d="M 0.203125 -0.171875 C 0.160156 -0.128906 0.109375 -0.113281 0.046875 -0.125 C -0.015625 -0.132812 -0.0703125 -0.164062 -0.125 -0.21875 C -0.175781 -0.269531 -0.207031 -0.328125 -0.21875 -0.390625 C -0.226562 -0.453125 -0.210938 -0.503906 -0.171875 -0.546875 C -0.128906 -0.585938 -0.0820312 -0.601562 -0.03125 -0.59375 C 0.0195312 -0.582031 0.0703125 -0.550781 0.125 -0.5 L 0.140625 -0.484375 L -0.09375 -0.25 C -0.0390625 -0.195312 0.00390625 -0.164062 0.046875 -0.15625 C 0.0859375 -0.144531 0.128906 -0.160156 0.171875 -0.203125 C 0.191406 -0.222656 0.207031 -0.242188 0.21875 -0.265625 C 0.238281 -0.296875 0.25 -0.320312 0.25 -0.34375 L 0.28125 -0.3125 C 0.28125 -0.289062 0.269531 -0.265625 0.25 -0.234375 C 0.238281 -0.210938 0.222656 -0.191406 0.203125 -0.171875 Z M -0.140625 -0.515625 C -0.171875 -0.484375 -0.179688 -0.441406 -0.171875 -0.390625 C -0.171875 -0.347656 -0.148438 -0.304688 -0.109375 -0.265625 L 0.09375 -0.46875 C 0.0507812 -0.507812 0.0078125 -0.535156 -0.03125 -0.546875 C -0.0703125 -0.554688 -0.109375 -0.546875 -0.140625 -0.515625 Z M -0.140625 -0.515625 "/></g></g></g><g fill="#000000" fill-opacity="1"><g transform="translate(24.646593, 26.906677)"><g><path d="M 0.484375 -0.484375 L 0.265625 -0.703125 C 0.222656 -0.742188 0.1875 -0.765625 0.15625 -0.765625 C 0.132812 -0.773438 0.109375 -0.765625 0.078125 -0.734375 C 0.046875 -0.703125 0.03125 -0.664062 0.03125 -0.625 C 0.03125 -0.582031 0.0507812 -0.539062 0.09375 -0.5 L 0.296875 -0.296875 L 0.28125 -0.28125 L 0.046875 -0.515625 C -0.015625 -0.578125 -0.078125 -0.578125 -0.140625 -0.515625 C -0.171875 -0.484375 -0.179688 -0.445312 -0.171875 -0.40625 C -0.171875 -0.375 -0.144531 -0.332031 -0.09375 -0.28125 L 0.09375 -0.09375 L 0.0625 -0.0625 L -0.28125 -0.40625 L -0.265625 -0.421875 L -0.203125 -0.390625 C -0.210938 -0.421875 -0.210938 -0.445312 -0.203125 -0.46875 C -0.203125 -0.5 -0.191406 -0.523438 -0.171875 -0.546875 C -0.109375 -0.609375 -0.0507812 -0.625 0 -0.59375 C -0.0078125 -0.625 -0.0078125 -0.65625 0 -0.6875 C 0.0078125 -0.71875 0.0234375 -0.742188 0.046875 -0.765625 C 0.0859375 -0.804688 0.125 -0.820312 0.15625 -0.8125 C 0.195312 -0.8125 0.242188 -0.785156 0.296875 -0.734375 L 0.515625 -0.515625 Z M 0.484375 -0.484375 "/></g></g></g><g fill="#000000" fill-opacity="1"><g transform="translate(25.213467, 26.339803)"><g/></g></g><g fill="#000000" fill-opacity="1"><g transform="translate(25.380268, 26.173002)"><g><path d="M -0.109375 -0.453125 C -0.0546875 -0.503906 -0.00390625 -0.53125 0.046875 -0.53125 C 0.0976562 -0.53125 0.144531 -0.507812 0.1875 -0.46875 C 0.226562 -0.425781 0.25 -0.375 0.25 -0.3125 C 0.257812 -0.257812 0.234375 -0.203125 0.171875 -0.140625 C 0.148438 -0.117188 0.125 -0.101562 0.09375 -0.09375 C 0.0703125 -0.09375 0.0507812 -0.0820312 0.03125 -0.0625 L 0 -0.09375 C 0.03125 -0.101562 0.0546875 -0.113281 0.078125 -0.125 C 0.0976562 -0.132812 0.117188 -0.148438 0.140625 -0.171875 C 0.179688 -0.210938 0.203125 -0.253906 0.203125 -0.296875 C 0.210938 -0.347656 0.195312 -0.394531 0.15625 -0.4375 C 0.125 -0.46875 0.0820312 -0.476562 0.03125 -0.46875 C -0.0078125 -0.46875 -0.0507812 -0.445312 -0.09375 -0.40625 C -0.113281 -0.382812 -0.140625 -0.359375 -0.171875 -0.328125 L -0.1875 -0.3125 L -0.390625 -0.546875 L -0.171875 -0.765625 L -0.140625 -0.734375 L -0.328125 -0.546875 L -0.1875 -0.375 C -0.15625 -0.40625 -0.128906 -0.429688 -0.109375 -0.453125 Z M -0.109375 -0.453125 "/></g></g></g><g clip-path="url(#e21abe25a3)"><g mask="url(#333ad7f24a)"><g transform="matrix(1, 0, 0, 1, 4, 1)"><g clip-path="url(#8efd70f47a)"><g clip-path="url(#a743d8410a)"><path fill="#000000" d="M 0.402344 0.453125 L 23.34375 0.453125 L 23.34375 1.214844 L 0.402344 1.214844 L 0.402344 0.453125 " fill-opacity="1" fill-rule="nonzero"/></g></g></g></g></g><g clip-path="url(#ffc4dfa07a)"><g mask="url(#797404400f)"><g transform="matrix(1, 0, 0, 1, 4, 6)"><g clip-path="url(#2714a5a72a)"><g clip-path="url(#c1756727b4)"><path fill="#000000" d="M 0.402344 0.0390625 L 23.34375 0.0390625 L 23.34375 0.804688 L 0.402344 0.804688 L 0.402344 0.0390625 " fill-opacity="1" fill-rule="nonzero"/></g></g></g></g></g><g clip-path="url(#1d5aa7d063)"><g mask="url(#ae132727df)"><g transform="matrix(1, 0, 0, 1, 4, 10)"><g clip-path="url(#9e2345efb6)"><g clip-path="url(#78e818400c)"><path fill="#000000" d="M 0.402344 0.628906 L 23.34375 0.628906 L 23.34375 1.394531 L 0.402344 1.394531 L 0.402344 0.628906 " fill-opacity="1" fill-rule="nonzero"/></g></g></g></g></g><g clip-path="url(#524ae3bcba)"><g mask="url(#144e8d1dc7)"><g transform="matrix(1, 0, 0, 1, 4, 15)"><g clip-path="url(#77467076c5)"><g clip-path="url(#129a0c3071)"><path fill="#000000" d="M 0.402344 0.214844 L 23.34375 0.214844 L 23.34375 0.980469 L 0.402344 0.980469 L 0.402344 0.214844 " fill-opacity="1" fill-rule="nonzero"/></g></g></g></g></g><g clip-path="url(#06e185cd33)"><g mask="url(#f82d204ce0)"><g transform="matrix(1, 0, 0, 1, 4, 19)"><g clip-path="url(#a6e9f2efa2)"><g clip-path="url(#444ca47bc9)"><path fill="#000000" d="M 0.402344 0.804688 L 23.34375 0.804688 L 23.34375 1.570312 L 0.402344 1.570312 L 0.402344 0.804688 " fill-opacity="1" fill-rule="nonzero"/></g></g></g></g></g><g clip-path="url(#c100c991be)"><g mask="url(#6c757bae03)"><g transform="matrix(1, 0, 0, 1, 4, 24)"><g clip-path="url(#9a1e6a06f7)"><g clip-path="url(#e312b14ee7)"><path fill="#000000" d="M 0.402344 0.394531 L 23.34375 0.394531 L 23.34375 1.15625 L 0.402344 1.15625 L 0.402344 0.394531 " fill-opacity="1" fill-rule="nonzero"/></g></g></g></g></g><g fill="#000000" fill-opacity="1"><g transform="translate(2.690479, 2.21633)"><g><path d="M 0.25 -0.390625 C 0.3125 -0.390625 0.363281 -0.367188 0.40625 -0.328125 C 0.445312 -0.296875 0.46875 -0.253906 0.46875 -0.203125 C 0.46875 -0.128906 0.445312 -0.0703125 0.40625 -0.03125 C 0.363281 0 0.304688 0.015625 0.234375 0.015625 C 0.203125 0.015625 0.171875 0.0078125 0.140625 0 C 0.109375 -0.0078125 0.0820312 -0.0195312 0.0625 -0.03125 L 0.0625 -0.078125 C 0.09375 -0.0546875 0.117188 -0.0390625 0.140625 -0.03125 C 0.171875 -0.03125 0.203125 -0.03125 0.234375 -0.03125 C 0.285156 -0.03125 0.328125 -0.0390625 0.359375 -0.0625 C 0.398438 -0.09375 0.421875 -0.140625 0.421875 -0.203125 C 0.421875 -0.242188 0.398438 -0.28125 0.359375 -0.3125 C 0.328125 -0.34375 0.285156 -0.359375 0.234375 -0.359375 C 0.191406 -0.359375 0.148438 -0.351562 0.109375 -0.34375 L 0.09375 -0.359375 L 0.109375 -0.65625 L 0.4375 -0.65625 L 0.4375 -0.609375 L 0.15625 -0.609375 L 0.125 -0.390625 C 0.175781 -0.390625 0.21875 -0.390625 0.25 -0.390625 Z M 0.25 -0.390625 "/></g></g></g><g fill="#000000" fill-opacity="1"><g transform="translate(3.208823, 2.21633)"><g><path d="M 0.46875 -0.328125 C 0.46875 -0.210938 0.453125 -0.125 0.421875 -0.0625 C 0.390625 -0.0078125 0.335938 0.015625 0.265625 0.015625 C 0.191406 0.015625 0.140625 -0.0078125 0.109375 -0.0625 C 0.078125 -0.125 0.0625 -0.210938 0.0625 -0.328125 C 0.0625 -0.441406 0.078125 -0.523438 0.109375 -0.578125 C 0.140625 -0.628906 0.191406 -0.65625 0.265625 -0.65625 C 0.328125 -0.65625 0.375 -0.628906 0.40625 -0.578125 C 0.445312 -0.523438 0.46875 -0.441406 0.46875 -0.328125 Z M 0.09375 -0.328125 C 0.09375 -0.222656 0.109375 -0.144531 0.140625 -0.09375 C 0.171875 -0.0507812 0.210938 -0.03125 0.265625 -0.03125 C 0.316406 -0.03125 0.359375 -0.0546875 0.390625 -0.109375 C 0.421875 -0.160156 0.4375 -0.234375 0.4375 -0.328125 C 0.4375 -0.421875 0.421875 -0.492188 0.390625 -0.546875 C 0.359375 -0.597656 0.316406 -0.625 0.265625 -0.625 C 0.203125 -0.625 0.15625 -0.597656 0.125 -0.546875 C 0.101562 -0.492188 0.09375 -0.421875 0.09375 -0.328125 Z M 0.09375 -0.328125 "/></g></g></g><g fill="#000000" fill-opacity="1"><g transform="translate(3.718065, 2.21633)"><g/></g></g><g fill="#000000" fill-opacity="1"><g transform="translate(2.690479, 6.804621)"><g><path d="M 0.515625 -0.171875 L 0.40625 -0.171875 L 0.40625 0 L 0.359375 0 L 0.359375 -0.171875 L 0.015625 -0.171875 L 0.015625 -0.203125 L 0.34375 -0.65625 L 0.40625 -0.65625 L 0.40625 -0.203125 L 0.515625 -0.203125 Z M 0.359375 -0.203125 L 0.359375 -0.390625 C 0.359375 -0.484375 0.359375 -0.554688 0.359375 -0.609375 C 0.347656 -0.609375 0.328125 -0.582031 0.296875 -0.53125 L 0.078125 -0.203125 Z M 0.359375 -0.203125 "/></g></g></g><g fill="#000000" fill-opacity="1"><g transform="translate(3.208823, 6.804621)"><g><path d="M 0.46875 -0.328125 C 0.46875 -0.210938 0.453125 -0.125 0.421875 -0.0625 C 0.390625 -0.0078125 0.335938 0.015625 0.265625 0.015625 C 0.191406 0.015625 0.140625 -0.0078125 0.109375 -0.0625 C 0.078125 -0.125 0.0625 -0.210938 0.0625 -0.328125 C 0.0625 -0.441406 0.078125 -0.523438 0.109375 -0.578125 C 0.140625 -0.628906 0.191406 -0.65625 0.265625 -0.65625 C 0.328125 -0.65625 0.375 -0.628906 0.40625 -0.578125 C 0.445312 -0.523438 0.46875 -0.441406 0.46875 -0.328125 Z M 0.09375 -0.328125 C 0.09375 -0.222656 0.109375 -0.144531 0.140625 -0.09375 C 0.171875 -0.0507812 0.210938 -0.03125 0.265625 -0.03125 C 0.316406 -0.03125 0.359375 -0.0546875 0.390625 -0.109375 C 0.421875 -0.160156 0.4375 -0.234375 0.4375 -0.328125 C 0.4375 -0.421875 0.421875 -0.492188 0.390625 -0.546875 C 0.359375 -0.597656 0.316406 -0.625 0.265625 -0.625 C 0.203125 -0.625 0.15625 -0.597656 0.125 -0.546875 C 0.101562 -0.492188 0.09375 -0.421875 0.09375 -0.328125 Z M 0.09375 -0.328125 "/></g></g></g><g fill="#000000" fill-opacity="1"><g transform="translate(3.718065, 6.804621)"><g/></g></g><g fill="#000000" fill-opacity="1"><g transform="translate(2.690479, 11.392908)"><g><path d="M 0.4375 -0.5 C 0.4375 -0.457031 0.421875 -0.421875 0.390625 -0.390625 C 0.367188 -0.367188 0.335938 -0.351562 0.296875 -0.34375 C 0.347656 -0.332031 0.382812 -0.316406 0.40625 -0.296875 C 0.4375 -0.273438 0.453125 -0.238281 0.453125 -0.1875 C 0.453125 -0.125 0.429688 -0.0703125 0.390625 -0.03125 C 0.347656 0 0.289062 0.015625 0.21875 0.015625 C 0.144531 0.015625 0.0859375 0 0.046875 -0.03125 L 0.046875 -0.078125 C 0.078125 -0.0664062 0.101562 -0.0546875 0.125 -0.046875 C 0.15625 -0.0351562 0.1875 -0.03125 0.21875 -0.03125 C 0.28125 -0.03125 0.328125 -0.0390625 0.359375 -0.0625 C 0.398438 -0.09375 0.421875 -0.132812 0.421875 -0.1875 C 0.421875 -0.226562 0.398438 -0.257812 0.359375 -0.28125 C 0.328125 -0.300781 0.28125 -0.3125 0.21875 -0.3125 L 0.140625 -0.3125 L 0.140625 -0.359375 L 0.21875 -0.359375 C 0.269531 -0.359375 0.3125 -0.367188 0.34375 -0.390625 C 0.375 -0.421875 0.390625 -0.457031 0.390625 -0.5 C 0.390625 -0.539062 0.375 -0.570312 0.34375 -0.59375 C 0.320312 -0.613281 0.289062 -0.625 0.25 -0.625 C 0.21875 -0.625 0.1875 -0.617188 0.15625 -0.609375 C 0.125 -0.609375 0.0976562 -0.59375 0.078125 -0.5625 L 0.046875 -0.609375 C 0.078125 -0.617188 0.109375 -0.628906 0.140625 -0.640625 C 0.179688 -0.648438 0.21875 -0.65625 0.25 -0.65625 C 0.3125 -0.65625 0.359375 -0.640625 0.390625 -0.609375 C 0.421875 -0.585938 0.4375 -0.550781 0.4375 -0.5 Z M 0.4375 -0.5 "/></g></g></g><g fill="#000000" fill-opacity="1"><g transform="translate(3.208823, 11.392908)"><g><path d="M 0.46875 -0.328125 C 0.46875 -0.210938 0.453125 -0.125 0.421875 -0.0625 C 0.390625 -0.0078125 0.335938 0.015625 0.265625 0.015625 C 0.191406 0.015625 0.140625 -0.0078125 0.109375 -0.0625 C 0.078125 -0.125 0.0625 -0.210938 0.0625 -0.328125 C 0.0625 -0.441406 0.078125 -0.523438 0.109375 -0.578125 C 0.140625 -0.628906 0.191406 -0.65625 0.265625 -0.65625 C 0.328125 -0.65625 0.375 -0.628906 0.40625 -0.578125 C 0.445312 -0.523438 0.46875 -0.441406 0.46875 -0.328125 Z M 0.09375 -0.328125 C 0.09375 -0.222656 0.109375 -0.144531 0.140625 -0.09375 C 0.171875 -0.0507812 0.210938 -0.03125 0.265625 -0.03125 C 0.316406 -0.03125 0.359375 -0.0546875 0.390625 -0.109375 C 0.421875 -0.160156 0.4375 -0.234375 0.4375 -0.328125 C 0.4375 -0.421875 0.421875 -0.492188 0.390625 -0.546875 C 0.359375 -0.597656 0.316406 -0.625 0.265625 -0.625 C 0.203125 -0.625 0.15625 -0.597656 0.125 -0.546875 C 0.101562 -0.492188 0.09375 -0.421875 0.09375 -0.328125 Z M 0.09375 -0.328125 "/></g></g></g><g fill="#000000" fill-opacity="1"><g transform="translate(3.718065, 11.392908)"><g/></g></g><g fill="#000000" fill-opacity="1"><g transform="translate(2.690479, 15.981196)"><g><path d="M 0.453125 0 L 0.0625 0 L 0.0625 -0.046875 L 0.234375 -0.21875 C 0.273438 -0.269531 0.304688 -0.304688 0.328125 -0.328125 C 0.347656 -0.359375 0.363281 -0.382812 0.375 -0.40625 C 0.382812 -0.4375 0.390625 -0.460938 0.390625 -0.484375 C 0.390625 -0.523438 0.375 -0.554688 0.34375 -0.578125 C 0.320312 -0.609375 0.289062 -0.625 0.25 -0.625 C 0.195312 -0.625 0.144531 -0.601562 0.09375 -0.5625 L 0.078125 -0.609375 C 0.117188 -0.640625 0.175781 -0.65625 0.25 -0.65625 C 0.300781 -0.65625 0.34375 -0.640625 0.375 -0.609375 C 0.414062 -0.585938 0.4375 -0.546875 0.4375 -0.484375 C 0.4375 -0.453125 0.425781 -0.410156 0.40625 -0.359375 C 0.382812 -0.316406 0.335938 -0.269531 0.265625 -0.21875 L 0.109375 -0.046875 L 0.453125 -0.046875 Z M 0.453125 0 "/></g></g></g><g fill="#000000" fill-opacity="1"><g transform="translate(3.208823, 15.981196)"><g><path d="M 0.46875 -0.328125 C 0.46875 -0.210938 0.453125 -0.125 0.421875 -0.0625 C 0.390625 -0.0078125 0.335938 0.015625 0.265625 0.015625 C 0.191406 0.015625 0.140625 -0.0078125 0.109375 -0.0625 C 0.078125 -0.125 0.0625 -0.210938 0.0625 -0.328125 C 0.0625 -0.441406 0.078125 -0.523438 0.109375 -0.578125 C 0.140625 -0.628906 0.191406 -0.65625 0.265625 -0.65625 C 0.328125 -0.65625 0.375 -0.628906 0.40625 -0.578125 C 0.445312 -0.523438 0.46875 -0.441406 0.46875 -0.328125 Z M 0.09375 -0.328125 C 0.09375 -0.222656 0.109375 -0.144531 0.140625 -0.09375 C 0.171875 -0.0507812 0.210938 -0.03125 0.265625 -0.03125 C 0.316406 -0.03125 0.359375 -0.0546875 0.390625 -0.109375 C 0.421875 -0.160156 0.4375 -0.234375 0.4375 -0.328125 C 0.4375 -0.421875 0.421875 -0.492188 0.390625 -0.546875 C 0.359375 -0.597656 0.316406 -0.625 0.265625 -0.625 C 0.203125 -0.625 0.15625 -0.597656 0.125 -0.546875 C 0.101562 -0.492188 0.09375 -0.421875 0.09375 -0.328125 Z M 0.09375 -0.328125 "/></g></g></g><g fill="#000000" fill-opacity="1"><g transform="translate(3.718065, 15.981196)"><g/></g></g><g fill="#000000" fill-opacity="1"><g transform="translate(2.690479, 20.569491)"><g><path d="M 0.296875 0 L 0.265625 0 L 0.265625 -0.46875 C 0.265625 -0.519531 0.265625 -0.566406 0.265625 -0.609375 C 0.265625 -0.609375 0.257812 -0.601562 0.25 -0.59375 C 0.25 -0.59375 0.203125 -0.554688 0.109375 -0.484375 L 0.09375 -0.515625 L 0.265625 -0.65625 L 0.296875 -0.65625 Z M 0.296875 0 "/></g></g></g><g fill="#000000" fill-opacity="1"><g transform="translate(3.208823, 20.569491)"><g><path d="M 0.46875 -0.328125 C 0.46875 -0.210938 0.453125 -0.125 0.421875 -0.0625 C 0.390625 -0.0078125 0.335938 0.015625 0.265625 0.015625 C 0.191406 0.015625 0.140625 -0.0078125 0.109375 -0.0625 C 0.078125 -0.125 0.0625 -0.210938 0.0625 -0.328125 C 0.0625 -0.441406 0.078125 -0.523438 0.109375 -0.578125 C 0.140625 -0.628906 0.191406 -0.65625 0.265625 -0.65625 C 0.328125 -0.65625 0.375 -0.628906 0.40625 -0.578125 C 0.445312 -0.523438 0.46875 -0.441406 0.46875 -0.328125 Z M 0.09375 -0.328125 C 0.09375 -0.222656 0.109375 -0.144531 0.140625 -0.09375 C 0.171875 -0.0507812 0.210938 -0.03125 0.265625 -0.03125 C 0.316406 -0.03125 0.359375 -0.0546875 0.390625 -0.109375 C 0.421875 -0.160156 0.4375 -0.234375 0.4375 -0.328125 C 0.4375 -0.421875 0.421875 -0.492188 0.390625 -0.546875 C 0.359375 -0.597656 0.316406 -0.625 0.265625 -0.625 C 0.203125 -0.625 0.15625 -0.597656 0.125 -0.546875 C 0.101562 -0.492188 0.09375 -0.421875 0.09375 -0.328125 Z M 0.09375 -0.328125 "/></g></g></g><g fill="#000000" fill-opacity="1"><g transform="translate(3.718065, 20.569491)"><g/></g></g><g fill="#000000" fill-opacity="1"><g transform="translate(3.204272, 25.157774)"><g><path d="M 0.46875 -0.328125 C 0.46875 -0.210938 0.453125 -0.125 0.421875 -0.0625 C 0.390625 -0.0078125 0.335938 0.015625 0.265625 0.015625 C 0.191406 0.015625 0.140625 -0.0078125 0.109375 -0.0625 C 0.078125 -0.125 0.0625 -0.210938 0.0625 -0.328125 C 0.0625 -0.441406 0.078125 -0.523438 0.109375 -0.578125 C 0.140625 -0.628906 0.191406 -0.65625 0.265625 -0.65625 C 0.328125 -0.65625 0.375 -0.628906 0.40625 -0.578125 C 0.445312 -0.523438 0.46875 -0.441406 0.46875 -0.328125 Z M 0.09375 -0.328125 C 0.09375 -0.222656 0.109375 -0.144531 0.140625 -0.09375 C 0.171875 -0.0507812 0.210938 -0.03125 0.265625 -0.03125 C 0.316406 -0.03125 0.359375 -0.0546875 0.390625 -0.109375 C 0.421875 -0.160156 0.4375 -0.234375 0.4375 -0.328125 C 0.4375 -0.421875 0.421875 -0.492188 0.390625 -0.546875 C 0.359375 -0.597656 0.316406 -0.625 0.265625 -0.625 C 0.203125 -0.625 0.15625 -0.597656 0.125 -0.546875 C 0.101562 -0.492188 0.09375 -0.421875 0.09375 -0.328125 Z M 0.09375 -0.328125 "/></g></g></g><g fill="#000000" fill-opacity="1"><g transform="translate(3.718065, 25.157774)"><g/></g></g><g clip-path="url(#36b62a830b)"><path fill="#25632d" d="M 4.402344 19.71875 L 8.535156 19.71875 L 8.535156 25.15625 L 4.402344 25.15625 L 4.402344 19.71875 " fill-opacity="1" fill-rule="nonzero"/></g><g clip-path="url(#cb52544cc3)"><path fill="#25632d" d="M 9.105469 25.15625 L 9.105469 15.777344 C 9.105469 15.59375 9.253906 15.441406 9.4375 15.441406 L 12.90625 15.441406 C 13.089844 15.441406 13.238281 15.59375 13.238281 15.777344 L 13.238281 25.15625 L 9.105469 25.15625 " fill-opacity="1" fill-rule="nonzero"/></g><g clip-path="url(#beb0c4d3b5)"><path fill="#25632d" d="M 13.808594 25.15625 L 13.808594 11.113281 C 13.808594 11.023438 13.84375 10.941406 13.90625 10.878906 C 13.96875 10.8125 14.050781 10.777344 14.140625 10.777344 L 17.609375 10.777344 C 17.792969 10.777344 17.9375 10.929688 17.9375 11.113281 L 17.9375 25.15625 L 13.808594 25.15625 " fill-opacity="1" fill-rule="nonzero"/></g><g clip-path="url(#34948f320d)"><path fill="#25632d" d="M 18.511719 25.15625 L 18.511719 6.449219 C 18.511719 6.265625 18.660156 6.113281 18.84375 6.113281 L 22.3125 6.113281 C 22.496094 6.113281 22.640625 6.265625 22.640625 6.449219 L 22.640625 25.15625 L 18.511719 25.15625 " fill-opacity="1" fill-rule="nonzero"/></g><g clip-path="url(#71e6f15830)"><path fill="#25632d" d="M 23.214844 25.15625 L 23.214844 1.789062 C 23.214844 1.601562 23.363281 1.453125 23.546875 1.453125 L 27.015625 1.453125 C 27.199219 1.453125 27.34375 1.601562 27.34375 1.789062 L 27.34375 25.15625 L 23.214844 25.15625 " fill-opacity="1" fill-rule="nonzero"/></g><g clip-path="url(#ee332006c3)"><path fill="#3f7d20" d="M 4.402344 22.4375 L 8.535156 22.4375 L 8.535156 25.15625 L 4.402344 25.15625 L 4.402344 22.4375 " fill-opacity="1" fill-rule="nonzero"/></g><g clip-path="url(#1f88dc9e8e)"><path fill="#3f7d20" d="M 9.105469 17.386719 L 13.238281 17.386719 L 13.238281 25.15625 L 9.105469 25.15625 L 9.105469 17.386719 " fill-opacity="1" fill-rule="nonzero"/></g><g clip-path="url(#3cf252c843)"><path fill="#3f7d20" d="M 13.808594 13.175781 L 17.9375 13.175781 L 17.9375 25.15625 L 13.808594 25.15625 L 13.808594 13.175781 " fill-opacity="1" fill-rule="nonzero"/></g><g clip-path="url(#7f79bf2742)"><path fill="#3f7d20" d="M 18.511719 9.921875 L 22.640625 9.921875 L 22.640625 25.15625 L 18.511719 25.15625 L 18.511719 9.921875 " fill-opacity="1" fill-rule="nonzero"/></g><g clip-path="url(#d38ec72613)"><path fill="#3f7d20" d="M 23.214844 5.246094 L 27.34375 5.246094 L 27.34375 25.15625 L 23.214844 25.15625 L 23.214844 5.246094 " fill-opacity="1" fill-rule="nonzero"/></g><g clip-path="url(#4d804bcaa4)"><path fill="#72b01d" d="M 9.105469 21.273438 L 13.238281 21.273438 L 13.238281 25.15625 L 9.105469 25.15625 L 9.105469 21.273438 " fill-opacity="1" fill-rule="nonzero"/></g><g clip-path="url(#7f6fa42e4f)"><path fill="#72b01d" d="M 13.808594 17.96875 L 17.9375 17.96875 L 17.9375 25.15625 L 13.808594 25.15625 L 13.808594 17.96875 " fill-opacity="1" fill-rule="nonzero"/></g><g clip-path="url(#26f48dc544)"><path fill="#72b01d" d="M 18.511719 16.589844 L 22.640625 16.589844 L 22.640625 25.15625 L 18.511719 25.15625 L 18.511719 16.589844 " fill-opacity="1" fill-rule="nonzero"/></g><g clip-path="url(#dabc35b6aa)"><path fill="#72b01d" d="M 23.214844 14.726562 L 27.34375 14.726562 L 27.34375 25.15625 L 23.214844 25.15625 L 23.214844 14.726562 " fill-opacity="1" fill-rule="nonzero"/></g></svg>