<svg width="809" height="897" viewBox="0 0 809 897" fill="none" xmlns="http://www.w3.org/2000/svg">
<g style="mix-blend-mode:luminosity" opacity="0.8">
<path d="M110.111 697.277L92.1204 681.82C90.0423 680.068 88.897 677.691 88.897 675.202V593.312C88.897 591.632 88.1613 590.055 86.7734 588.903L79.3937 582.558C77.3535 580.773 76.2083 578.422 76.2083 575.934V485.602C76.2083 483.921 75.4347 482.378 74.0846 481.192L63.2389 471.832C61.1532 470.08 60.0155 467.735 60.0155 465.214V454.701C60.0155 453.053 59.2799 451.477 57.8919 450.285L26.2345 423.097C24.1564 421.305 23.0111 418.96 23.0111 416.472V321.724C23.0111 320.083 22.2755 318.5 20.8875 317.314L18.7715 315.49C16.6857 313.699 15.5481 311.354 15.5481 308.833V169.799C15.5481 167.311 16.6857 164.959 18.7715 163.174L28.1079 155.117C29.4958 153.958 30.2315 152.381 30.2315 150.701V135.882C30.2315 133.355 31.4147 131.01 33.4549 129.258L65.7266 101.542C67.1146 100.35 67.8427 98.8062 67.8427 97.1256V56.4086H71.4756V97.1256C71.4756 99.6139 70.338 101.959 68.2977 103.75L36.026 131.466C34.6381 132.658 33.9024 134.195 33.9024 135.882V150.701C33.9024 153.222 32.7647 155.573 30.7245 157.325L21.2971 165.383C19.9546 166.575 19.1734 168.151 19.1734 169.799V308.833C19.1734 310.514 19.9546 312.09 21.2971 313.282L23.4586 315.106C25.5368 316.891 26.682 319.236 26.682 321.724V416.472C26.682 418.153 27.4177 419.696 28.8056 420.888L60.463 448.077C62.5032 449.861 63.6409 452.213 63.6409 454.701V465.214C63.6409 466.895 64.4221 468.471 65.81 469.624L76.6558 478.984C78.696 480.736 79.8412 483.081 79.8412 485.602V575.934C79.8412 577.582 80.5769 579.158 81.9649 580.35L89.3445 586.694C91.4302 588.447 92.53 590.792 92.53 593.312V675.202C92.53 676.883 93.3036 678.459 94.6915 679.619L112.682 695.069L110.111 697.277Z" fill="#F3EFF5"/>
<path d="M416.491 690.125H384.591C381.694 690.125 378.918 689.181 376.878 687.396L349.263 663.673C347.913 662.514 346.039 661.849 344.12 661.849H212.88C210.961 661.849 209.125 662.481 207.737 663.673L189.868 679.019C187.828 680.804 185.098 681.755 182.155 681.755H155.928C153.031 681.755 150.255 680.804 148.215 679.019L145.363 676.531C143.277 674.779 142.178 672.434 142.178 669.907V650.952C142.178 649.271 141.404 647.695 140.016 646.536L120.843 630.036C119.493 628.844 117.619 628.18 115.662 628.18H101.707C98.7719 628.18 96.0339 627.229 93.9937 625.444L89.4279 621.556L91.999 619.347L96.5648 623.236C97.9149 624.428 99.7503 625.06 101.707 625.06H115.662C118.598 625.06 121.328 626.044 123.414 627.828L142.587 644.334C144.665 646.086 145.81 648.431 145.81 650.952V669.907C145.81 671.594 146.546 673.17 147.927 674.323L150.786 676.811C152.174 678.003 154.009 678.635 155.928 678.635H182.155C184.074 678.635 185.955 677.971 187.297 676.811L205.166 661.465C207.252 659.68 209.982 658.729 212.88 658.729H344.12C347.018 658.729 349.794 659.68 351.834 661.465L379.449 685.188C380.837 686.38 382.634 687.012 384.591 687.012H416.491C418.455 687.012 420.291 686.38 421.633 685.188L428.611 679.195C430.689 677.443 433.427 676.459 436.324 676.459H493.192C495.111 676.459 496.984 675.795 498.334 674.642L610.159 578.63L612.73 580.839L500.944 676.85C498.865 678.602 496.127 679.58 493.192 679.58H436.324C434.36 679.58 432.57 680.244 431.182 681.403L424.204 687.396C422.164 689.181 419.388 690.125 416.491 690.125Z" fill="#F3EFF5"/>
<path d="M233.236 717.105H144.339C141.442 717.105 138.711 716.16 136.626 714.376L124.271 703.758C122.231 701.974 121.085 699.622 121.085 697.134V652.391C121.085 649.864 122.231 647.519 124.271 645.767L139.364 632.766C140.752 631.613 141.525 630.036 141.525 628.356V569.205C141.525 567.564 140.752 565.981 139.364 564.795L138.385 563.949C136.345 562.164 135.2 559.819 135.2 557.331V61.7042H138.833V557.331C138.833 558.979 139.606 560.555 140.956 561.747L141.935 562.587C144.013 564.372 145.158 566.717 145.158 569.205V628.356C145.158 630.877 144.013 633.222 141.935 634.974L126.842 647.975C125.454 649.135 124.718 650.711 124.718 652.391V697.134C124.718 698.782 125.454 700.358 126.842 701.55L139.197 712.168C140.585 713.36 142.42 713.991 144.339 713.991H233.236C235.155 713.991 237.028 713.32 238.378 712.168L290.756 667.177C292.797 665.393 295.572 664.442 298.47 664.442H339.183C342.126 664.442 344.818 665.393 346.896 667.177L374.473 690.861C375.861 692.053 377.659 692.685 379.615 692.685H419.843C421.755 692.685 423.635 692.021 424.978 690.861L430.53 686.061C432.608 684.276 435.346 683.292 438.235 683.292H497.235C499.146 683.292 500.981 682.628 502.369 681.475L518.122 667.946L520.686 670.154L504.94 683.683C502.9 685.429 500.086 686.445 497.235 686.445H438.235C436.324 686.445 434.489 687.077 433.101 688.269L427.549 693.069C425.509 694.822 422.695 695.805 419.843 695.805H379.615C376.718 695.805 373.988 694.822 371.902 693.069L344.325 669.386C342.983 668.226 341.102 667.562 339.183 667.562H298.47C296.513 667.562 294.677 668.194 293.327 669.386L240.949 714.376C238.909 716.128 236.095 717.105 233.236 717.105Z" fill="#F3EFF5"/>
<path d="M138.302 276.278L135.731 274.07L140.175 270.253C142.261 268.501 144.991 267.524 147.889 267.524H205.78C207.699 267.524 209.573 266.853 210.923 265.7L233.357 246.393C234.707 245.234 235.519 243.625 235.519 241.977V206.836C235.519 204.308 236.619 201.963 238.704 200.211L331.348 120.601C332.736 119.409 333.517 117.872 333.517 116.185V88.052H337.105V116.185C337.105 118.673 336.005 121.057 333.919 122.809L241.276 202.419C239.888 203.572 239.114 205.149 239.114 206.836V241.977C239.114 244.465 237.969 246.882 235.928 248.634L213.494 267.908C211.454 269.621 208.632 270.637 205.78 270.637H147.889C145.932 270.637 144.134 271.269 142.746 272.461L138.302 276.278Z" fill="#F3EFF5"/>
<path d="M138.302 266.853L135.731 264.645L152.295 250.386C154.373 248.634 157.111 247.65 160.046 247.65H193.259C195.17 247.65 197.051 246.986 198.393 245.833L223.854 223.967C225.242 222.775 225.978 221.198 225.978 219.55V166.536C225.978 164.047 227.115 161.702 229.194 159.918L255.102 137.667C256.452 136.507 257.226 134.931 257.226 133.251V22.7394H260.859V133.251C260.859 135.771 259.713 138.123 257.673 139.875L231.765 162.126C230.377 163.318 229.603 164.894 229.603 166.536V219.55C229.603 222.039 228.503 224.39 226.425 226.175L200.964 248.041C198.924 249.754 196.11 250.771 193.259 250.771H160.046C158.09 250.771 156.254 251.435 154.866 252.594L138.302 266.853Z" fill="#F3EFF5"/>
<path d="M100.076 273.373L97.5053 271.165L118.962 252.731C121.002 250.985 123.74 250.002 126.675 250.002H138.143C140.054 250.002 141.935 249.337 143.277 248.178L148.586 243.625C150.619 241.873 153.395 240.889 156.292 240.889H189.421C191.34 240.889 193.175 240.225 194.563 239.072L216.55 220.15C217.938 218.99 218.712 217.381 218.712 215.733V164.894C218.712 162.367 219.857 160.022 221.897 158.27L234.055 147.789C235.398 146.636 236.217 145.027 236.217 143.379V94.0056C236.217 92.3251 235.436 90.7813 234.055 89.5893L199.417 59.8087C197.332 58.0565 196.194 55.7116 196.194 53.1843V7.80996H199.865V53.1843C199.865 54.8714 200.6 56.4477 201.988 57.6006L236.619 87.3877C238.705 89.1399 239.804 91.5174 239.804 94.0056V143.379C239.804 145.868 238.659 148.284 236.619 149.997L224.461 160.478C223.081 161.67 222.345 163.207 222.345 164.894V215.733C222.345 218.183 221.162 220.606 219.122 222.358L197.134 241.274C195.049 243.026 192.318 244.009 189.421 244.009H156.292C154.335 244.009 152.5 244.674 151.15 245.833L145.848 250.386C143.77 252.138 141.032 253.122 138.143 253.122H126.675C124.718 253.122 122.883 253.786 121.533 254.939L100.076 273.373Z" fill="#F3EFF5"/>
<path d="M26.5606 344.75L23.9895 342.542L31.4526 336.093C33.4928 334.341 36.2308 333.358 39.1659 333.358H82.7764C84.6952 333.358 86.5686 332.693 87.9186 331.54L95.3817 325.124C96.7317 323.932 97.5053 322.395 97.5053 320.708V262.163C97.5053 260.515 96.7317 258.939 95.3817 257.747L93.5462 256.17C92.2038 255.011 90.3229 254.347 88.404 254.347H79.3937V251.227H88.404C91.3013 251.227 94.0772 252.21 96.1174 253.962L97.9528 255.539C99.993 257.323 101.138 259.675 101.138 262.163V320.708C101.138 323.196 99.993 325.58 97.9528 327.332L90.4897 333.742C88.4495 335.494 85.6357 336.478 82.7764 336.478H39.1659C37.2092 336.478 35.3737 337.142 34.0237 338.334L26.5606 344.75Z" fill="#F3EFF5"/>
<path d="M340.161 880.807H336.536V663.25C336.536 661.745 335.838 660.345 334.617 659.296L333.76 658.521C332.493 657.472 330.863 656.912 329.111 656.912H291.78C290.028 656.912 288.39 657.472 287.169 658.521L239.683 699.31C237.764 700.958 235.193 701.863 232.5 701.863H140.911C138.181 701.863 135.609 700.958 133.691 699.31L108.844 677.971C106.933 676.323 105.871 674.115 105.871 671.802V653.303C105.871 650.952 106.933 648.783 108.844 647.135L111.051 645.24C112.272 644.191 112.97 642.79 112.97 641.286V633.749C112.97 631.404 113.986 629.229 115.905 627.581L120.228 623.868C121.495 622.819 122.147 621.412 122.147 619.908V619.315C122.147 616.964 123.209 614.794 125.128 613.147L126.675 611.818C127.896 610.763 128.594 609.362 128.594 607.857V522.398C128.594 520.887 127.896 519.486 126.675 518.438L75.1085 474.144C73.1896 472.497 72.1278 470.295 72.1278 467.943V445.308C72.1278 442.963 73.1896 440.788 75.1085 439.14C77.0273 437.459 79.5985 436.547 82.2909 436.547H235.238C236.945 436.547 238.621 435.955 239.842 434.939L261.427 416.401C262.649 415.352 263.346 413.951 263.346 412.44V337.11H266.972V412.44C266.972 414.753 265.917 416.961 263.999 418.609L242.413 437.147C240.54 438.756 237.931 439.7 235.238 439.7H82.2909C80.5314 439.7 78.9007 440.267 77.6796 441.348C76.4509 442.403 75.7607 443.804 75.7607 445.308V467.943C75.7607 469.448 76.4509 470.855 77.6796 471.936L129.246 516.19C131.165 517.877 132.227 520.046 132.227 522.398V607.857C132.227 610.202 131.165 612.378 129.246 614.019L127.691 615.355C126.47 616.403 125.78 617.843 125.78 619.315V619.908C125.78 622.22 124.718 624.428 122.799 626.076L118.476 629.789C117.248 630.844 116.557 632.245 116.557 633.749V641.286C116.557 643.631 115.541 645.8 113.622 647.448L111.415 649.343C110.194 650.392 109.496 651.792 109.496 653.303V671.802C109.496 673.274 110.194 674.707 111.415 675.763L136.262 697.102C137.483 698.15 139.159 698.749 140.911 698.749H232.5C234.252 698.749 235.891 698.15 237.112 697.102L284.598 656.313C286.517 654.665 289.042 653.792 291.78 653.792H329.111C331.841 653.792 334.412 654.665 336.331 656.313L337.188 657.088C339.1 658.729 340.161 660.905 340.161 663.25V880.807Z" fill="#F3EFF5"/>
<path d="M258.363 439.7H228.215V436.547H256.854L286.229 411.359V402.351L299.327 391.101H324.09L332.008 397.934H536.643V401.054H330.537L322.581 394.254H300.836L289.862 403.647V412.655L258.363 439.7Z" fill="#F3EFF5"/>
<path d="M248.086 458.271H57.4443C54.585 458.271 51.938 457.326 49.9737 455.646L46.8337 452.949C44.839 451.229 43.7317 448.956 43.7317 446.533V255.89C43.7317 253.467 44.839 251.194 46.8337 249.474L55.7302 241.84C57.7249 240.121 60.3795 239.176 63.1933 239.176H119.288C121.123 239.176 122.837 238.577 124.149 237.457L148.093 216.886C149.398 215.766 150.134 214.294 150.134 212.718V93.3413C150.134 90.9247 151.195 88.684 153.19 86.9644L168.329 73.963L170.9 76.1712L155.761 89.1725C154.457 90.2929 153.721 91.765 153.721 93.3413V212.718C153.721 215.134 152.659 217.414 150.664 219.095L126.758 239.665C124.756 241.384 122.109 242.29 119.288 242.29H63.1933C61.3579 242.29 59.6059 242.922 58.3014 244.042L49.4048 251.682C48.1003 252.803 47.3646 254.314 47.3646 255.89V446.533C47.3646 448.109 48.1003 449.62 49.4048 450.708L52.5448 453.437C53.8114 454.525 55.6089 455.157 57.4443 455.157H248.086C249.96 455.157 251.674 454.558 252.978 453.437L256.695 450.213C257.999 449.093 258.735 447.621 258.735 446.044C258.735 443.628 259.835 441.348 261.837 439.635L291.082 414.512C292.395 413.391 293.123 411.88 293.123 410.304V408.799C293.123 406.383 294.185 404.103 296.187 402.383L298.022 400.807C300.017 399.094 302.671 398.182 305.485 398.182H317.438C320.252 398.182 322.907 399.094 324.909 400.807L325.068 400.983L327.275 403.614C328.58 404.663 330.294 405.262 332.084 405.262H536.643V408.376H332.084C329.27 408.376 326.578 407.399 324.621 405.718L324.454 405.542L322.217 402.95C320.904 401.862 319.236 401.302 317.438 401.302H305.485C303.65 401.302 301.852 401.934 300.593 403.015L298.758 404.591C297.453 405.718 296.718 407.223 296.718 408.799V410.304C296.718 412.72 295.656 415 293.654 416.72L264.408 441.843C263.096 442.963 262.368 444.435 262.368 446.044C262.368 448.461 261.26 450.741 259.266 452.421L255.549 455.646C253.555 457.326 250.9 458.271 248.086 458.271Z" fill="#F3EFF5"/>
<path d="M354.807 718.72V774.92C354.807 776.601 355.588 778.177 356.93 779.337L361.337 783.121C362.725 784.313 364.56 784.945 366.479 784.945H377.818C380.715 784.945 383.491 785.922 385.531 787.713L421.102 818.23C423.142 820.015 424.288 822.366 424.288 824.854V838.696C424.288 840.305 425.061 841.953 426.411 843.106L456.476 868.9C457.864 870.085 459.654 870.756 461.618 870.756H488.702C491.562 870.756 494.375 871.733 496.416 873.486L517.993 892.024C519.381 893.216 521.217 893.88 523.181 893.88H524.645C526.564 893.88 528.437 893.216 529.787 892.024L536.234 886.519C537.576 885.327 538.357 883.751 538.357 882.103V877.166C538.357 875.518 537.576 873.909 536.234 872.75L424.083 776.393C422.005 774.64 420.86 772.295 420.86 769.807V759.157C420.86 757.509 420.124 755.933 418.736 754.741L378.918 720.577C377.575 719.385 375.694 718.72 373.783 718.72H354.807ZM524.645 897H523.181C520.238 897 517.508 896.016 515.43 894.232L493.845 875.694C492.502 874.502 490.621 873.837 488.702 873.837H461.618C458.721 873.837 455.945 872.893 453.905 871.102L423.84 845.314C421.8 843.529 420.655 841.178 420.655 838.696V824.854C420.655 823.206 419.919 821.63 418.531 820.471L382.96 789.882C381.572 788.729 379.775 788.059 377.818 788.059H366.479C363.582 788.059 360.852 787.082 358.766 785.329L354.359 781.545C352.319 779.76 351.181 777.409 351.181 774.92V718.72H319.524C316.665 718.72 313.851 717.737 311.811 715.985L307.852 712.584C305.774 710.8 304.628 708.455 304.628 705.967V649.903C304.628 648.223 303.893 646.679 302.512 645.487L269.99 617.563C268.61 616.371 266.812 615.739 264.856 615.739H199.903C197.005 615.739 194.275 614.755 192.197 612.971L186.971 608.489C184.893 606.698 183.748 604.353 183.748 601.826V589.847C183.748 588.199 182.974 586.584 181.632 585.431L173.835 578.702C172.492 577.549 170.612 576.878 168.693 576.878H134.138C131.241 576.878 128.51 575.901 126.432 574.149L101.464 552.667C99.3786 550.915 98.241 548.57 98.241 546.049V434.867C98.241 432.346 99.3786 429.995 101.464 428.21L104.24 425.826C106.318 424.074 109.049 423.097 111.946 423.097H300.267C302.179 423.097 304.059 422.426 305.402 421.273L314.26 413.632C316.339 411.88 319.069 410.903 322.012 410.903H647.649C649.606 410.903 651.487 410.232 652.829 409.079L718.92 352.28L721.491 354.488L655.4 411.287C653.36 413 650.546 414.017 647.649 414.017H322.012C320.055 414.017 318.212 414.648 316.832 415.84L307.973 423.481C305.978 425.194 303.119 426.21 300.267 426.21H111.946C110.027 426.21 108.192 426.842 106.804 428.034L104.035 430.418C102.648 431.61 101.912 433.186 101.912 434.867V546.049C101.912 547.73 102.648 549.273 104.035 550.459L129.003 571.941C130.384 573.133 132.227 573.765 134.138 573.765H168.693C171.635 573.765 174.366 574.742 176.406 576.494L184.195 583.19C186.235 584.942 187.419 587.359 187.419 589.847V601.826C187.419 603.513 188.154 605.089 189.542 606.281L194.768 610.763C196.148 611.955 197.991 612.586 199.903 612.586H264.856C267.753 612.586 270.521 613.57 272.561 615.355L305.076 643.279C307.161 645.031 308.261 647.382 308.261 649.903V705.967C308.261 707.615 309.035 709.191 310.423 710.383L314.382 713.776C315.724 714.936 317.605 715.6 319.524 715.6H351.181V650.496C351.181 648.815 350.446 647.239 349.058 646.086L348.489 645.591C347.139 644.399 345.304 643.767 343.347 643.767H339.676V640.615H343.347C346.244 640.615 349.02 641.631 351.06 643.383L351.629 643.878C353.669 645.63 354.807 647.975 354.807 650.496V715.6H373.783C376.68 715.6 379.449 716.616 381.489 718.336L421.307 752.533C423.393 754.318 424.493 756.669 424.493 759.157V769.807C424.493 771.455 425.266 773.031 426.654 774.184L538.805 870.541C540.845 872.294 541.983 874.678 541.983 877.166V882.103C541.983 884.591 540.845 886.943 538.805 888.728L532.358 894.232C530.318 895.984 527.542 897 524.645 897Z" fill="#F3EFF5"/>
<path d="M573.724 866.06H570.091V858.035C570.091 856.354 569.317 854.778 567.975 853.619L448.93 751.654C446.889 749.901 445.744 747.556 445.744 745.036V723.905C445.744 722.225 444.971 720.681 443.583 719.489L399.889 681.964C398.546 680.804 396.665 680.14 394.747 680.14H385.774C382.877 680.14 380.147 679.163 378.061 677.371L317.56 625.412C316.217 624.252 314.336 623.588 312.425 623.588H188.033C185.136 623.588 182.405 622.604 180.32 620.82L170.452 612.339C168.412 610.587 167.267 608.203 167.267 605.721V591.319C167.267 589.632 166.493 588.056 165.143 586.903L152.947 576.422L155.519 574.221L167.714 584.695C169.755 586.447 170.9 588.831 170.9 591.319V605.721C170.9 607.401 171.636 608.978 173.023 610.131L182.891 618.611C184.279 619.803 186.114 620.435 188.033 620.435H312.425C315.322 620.435 318.053 621.412 320.131 623.204L380.632 675.163C382.02 676.355 383.855 676.987 385.774 676.987H394.747C397.689 676.987 400.42 677.971 402.46 679.755L446.154 717.281C448.232 719.033 449.377 721.384 449.377 723.905V745.036C449.377 746.716 450.113 748.292 451.501 749.445L570.546 851.411C572.586 853.163 573.724 855.514 573.724 858.035V866.06Z" fill="#F3EFF5"/>
<path d="M532.48 897H532.153C529.256 897 526.526 896.016 524.486 894.264L516.325 887.255C514.285 885.503 513.139 883.087 513.139 880.638V878.638C513.139 877.062 512.449 875.557 511.182 874.398L465.039 832.032C463.696 830.775 461.74 830.039 459.737 830.039H362.558C359.668 830.039 356.931 829.056 354.852 827.304L336.574 811.605L339.145 809.365L357.423 825.095C358.811 826.255 360.601 826.919 362.558 826.919H459.737C462.756 826.919 465.653 828.007 467.693 829.896L513.837 872.261C515.71 873.974 516.772 876.254 516.772 878.638V880.638C516.772 882.246 517.546 883.855 518.896 885.047L527.057 892.056C528.437 893.215 530.235 893.88 532.153 893.88H532.442C532.442 893.88 532.442 893.88 532.48 893.88C534.398 893.88 536.234 893.215 537.622 892.056L561.444 871.597C562.794 870.405 563.568 868.828 563.568 867.18V860.347C563.568 858.667 562.794 857.091 561.444 855.899L442.892 754.077C440.807 752.324 439.669 749.973 439.669 747.452V725.586C439.669 723.905 438.933 722.362 437.545 721.169L398.015 687.22C396.665 686.061 394.792 685.396 392.873 685.396H385.243C382.346 685.396 379.616 684.413 377.537 682.628L318.258 631.717C316.87 630.558 314.996 629.893 313.077 629.893H185.303C182.405 629.893 179.667 628.916 177.589 627.125L168.207 619.1C166.857 617.914 164.984 617.244 163.065 617.244H139.811C136.914 617.244 134.184 616.299 132.098 614.514L129.125 611.922L131.696 609.714L134.669 612.306C136.057 613.498 137.892 614.13 139.811 614.13H163.065C166 614.13 168.738 615.107 170.778 616.898L180.16 624.917C181.548 626.109 183.384 626.741 185.303 626.741H313.077C316.013 626.741 318.743 627.724 320.829 629.509L380.101 680.42C381.489 681.612 383.324 682.276 385.243 682.276H392.873C395.808 682.276 398.546 683.26 400.624 685.012L440.116 718.961C442.195 720.714 443.34 723.065 443.34 725.586V747.452C443.34 749.133 444.076 750.709 445.463 751.868L564.016 853.723C566.056 855.475 567.201 857.827 567.201 860.347V867.18C567.201 869.669 566.056 872.013 564.016 873.805L540.193 894.264C538.153 896.016 535.339 897 532.48 897Z" fill="#F3EFF5"/>
<path d="M471.652 881.79H456.924C453.988 881.79 451.25 880.807 449.21 879.055L415.968 850.499C413.927 848.714 412.782 846.369 412.782 843.881V827.903C412.782 826.255 412.009 824.678 410.659 823.486L380.958 798.011C379.616 796.859 377.735 796.188 375.861 796.188H363.339C360.442 796.188 357.704 795.211 355.626 793.419L346.729 785.785C344.689 784.033 343.552 781.682 343.552 779.161V663.321C343.552 661.641 342.778 660.065 341.428 658.905L334.822 653.232C333.472 652.072 331.599 651.408 329.68 651.408H288.185C286.274 651.408 284.439 652.072 283.051 653.232L236.786 692.998C234.745 694.75 231.932 695.734 229.072 695.734H146.137C143.201 695.734 140.463 694.789 138.423 692.998L135.647 690.62C133.569 688.829 132.469 686.484 132.469 683.996V651.271C132.469 648.783 133.569 646.431 135.647 644.647L144.787 636.798C146.175 635.606 146.91 634.029 146.91 632.381V609.115C146.91 606.594 148.055 604.249 150.134 602.458L154.54 598.673C156.618 596.888 159.356 595.944 162.253 595.944H195.011C196.929 595.944 198.765 595.279 200.107 594.087L218.795 578.07C220.874 576.286 223.611 575.302 226.547 575.302H406.457C408.376 575.302 410.249 574.638 411.599 573.485L465.001 527.648C466.351 526.462 467.125 524.886 467.125 523.199V477.545H470.758V523.199C470.758 525.726 469.612 528.071 467.572 529.856L414.17 575.693C412.13 577.438 409.316 578.422 406.457 578.422H226.547C224.59 578.422 222.754 579.086 221.404 580.278L202.678 596.296C200.638 598.08 197.908 599.064 195.011 599.064H162.253C160.289 599.064 158.499 599.689 157.111 600.881L152.705 604.666C151.317 605.858 150.543 607.434 150.543 609.115V632.381C150.543 634.87 149.436 637.221 147.358 639.006L138.218 646.855C136.831 648.047 136.057 649.584 136.057 651.271V683.996C136.057 685.644 136.831 687.22 138.218 688.412L140.994 690.796C142.382 691.982 144.218 692.613 146.137 692.613H229.072C230.953 692.613 232.827 691.949 234.215 690.796L280.479 651.024C282.558 649.271 285.296 648.288 288.185 648.288H329.68C332.577 648.288 335.353 649.271 337.393 651.024L343.999 656.697C346.039 658.449 347.185 660.801 347.185 663.321V779.161C347.185 780.809 347.913 782.385 349.301 783.577L358.197 791.218C359.585 792.403 361.375 793.035 363.339 793.035H375.861C378.721 793.035 381.534 794.051 383.529 795.803L413.23 821.278C415.27 823.063 416.415 825.414 416.415 827.903V843.881C416.415 845.529 417.189 847.105 418.531 848.291L451.781 876.814C453.131 878.006 454.967 878.67 456.924 878.67H471.652V881.79Z" fill="#F3EFF5"/>
<path d="M525.547 568.86H421.353V565.74H525.547C527.421 565.74 529.294 565.075 530.682 563.916L577.599 523.583C578.987 522.43 579.723 520.854 579.723 519.206V502.739C579.723 500.251 580.861 497.9 582.901 496.115L650.501 438.059C652.586 436.306 655.317 435.323 658.214 435.323H676.576C678.487 435.323 680.368 434.658 681.711 433.466L720.141 400.461L722.712 402.67L684.282 435.707C682.242 437.427 679.428 438.443 676.576 438.443H658.214C656.295 438.443 654.46 439.075 653.072 440.267L585.472 498.323C584.129 499.515 583.356 501.059 583.356 502.739V519.206C583.356 521.694 582.211 524.039 580.17 525.791L533.253 566.124C531.213 567.844 528.399 568.86 525.547 568.86Z" fill="#F3EFF5"/>
<path d="M775.833 688.132H762.53C759.595 688.132 756.865 687.148 754.825 685.396L703.053 640.966C701.013 639.182 699.868 636.83 699.868 634.309V523.238C699.868 521.59 699.094 520.014 697.744 518.822L680.126 503.684C678.776 502.531 676.902 501.86 674.983 501.86H661.233V498.747H674.983C677.881 498.747 680.611 499.724 682.689 501.476L700.315 516.614C702.355 518.366 703.501 520.75 703.501 523.238V634.309C703.501 635.99 704.274 637.566 705.624 638.758L757.388 683.188C758.738 684.348 760.574 685.012 762.53 685.012H775.833C777.79 685.012 779.626 684.348 780.976 683.188L797.783 668.786C799.125 667.594 799.899 666.018 799.899 664.377V630.701H803.532V664.377C803.532 666.858 802.394 669.21 800.354 670.994L783.539 685.396C781.499 687.148 778.769 688.132 775.833 688.132Z" fill="#F3EFF5"/>
<path d="M736.667 759.998L734.096 757.789L754.825 740.02C756.167 738.835 756.941 737.252 756.941 735.61V686.588H760.573V735.61C760.573 738.098 759.428 740.443 757.388 742.228L736.667 759.998Z" fill="#F3EFF5"/>
<path d="M340.161 675.691H310.218C307.321 675.691 304.59 674.707 302.512 672.955L301.405 671.978C299.327 670.226 298.227 667.875 298.227 665.354V652.952C298.227 651.336 297.491 649.832 296.225 648.64C291.864 644.718 290.226 643.422 289.657 642.999H237.074C235.155 642.999 233.32 643.663 231.932 644.823L223.938 651.727C221.852 653.479 219.122 654.456 216.186 654.456H138.014C135.117 654.456 132.386 653.479 130.308 651.727L104.073 629.196C101.995 627.405 100.85 625.06 100.85 622.539V570.54C100.85 568.86 100.114 567.277 98.7264 566.124L86.4473 555.539C85.0593 554.386 83.2239 553.722 81.3126 553.722H61.4793C58.5821 553.722 55.8517 552.739 53.7736 550.986L38.3468 537.744C36.3142 535.992 35.169 533.575 35.169 531.087V233.92C35.169 232.239 34.3954 230.663 33.0074 229.503L3.22338 203.891C1.14525 202.1 0 199.755 0 197.267V161.878C0 159.357 1.14525 157.006 3.22338 155.254L16.6857 143.659L19.2568 145.868L5.7945 157.462C4.40655 158.621 3.63294 160.198 3.63294 161.878V197.267C3.63294 198.915 4.40655 200.491 5.7945 201.683L35.5785 227.295C37.6567 229.047 38.7564 231.392 38.7564 233.92V531.087C38.7564 532.728 39.53 534.344 40.918 535.497L56.3447 548.778C57.7251 549.938 59.5681 550.602 61.4793 550.602H81.3126C84.2023 550.602 86.9402 551.586 89.0184 553.37L101.298 563.916C103.383 565.668 104.521 568.052 104.521 570.54V622.539C104.521 624.181 105.257 625.796 106.645 626.988L132.879 649.519C134.267 650.672 136.102 651.336 138.014 651.336H216.186C218.143 651.336 219.979 650.672 221.367 649.519L229.361 642.614C231.439 640.862 234.177 639.879 237.074 639.879H290.226C291.166 639.879 291.492 639.879 298.834 646.503C300.798 648.255 301.815 650.535 301.815 652.952V665.354C301.815 667.002 302.588 668.611 303.976 669.77L305.076 670.753C306.464 671.906 308.299 672.571 310.218 672.571H340.161C342.042 672.571 343.916 671.906 345.304 670.753L360.563 657.609C362.604 655.857 365.38 654.88 368.269 654.88H394.223C396.134 654.88 398.015 654.215 399.358 653.023L465.653 596.081C467.739 594.328 470.469 593.351 473.367 593.351H499.192C501.11 593.351 502.984 592.68 504.326 591.528L527.057 572.013C529.097 570.221 531.865 569.244 534.763 569.244H593.875C595.794 569.244 597.675 568.58 599.018 567.42L633.087 538.161C634.475 536.969 635.203 535.432 635.203 533.745V524.71C635.203 522.222 636.348 519.838 638.426 518.086L704.965 460.935L707.536 463.143L640.997 520.294C639.61 521.486 638.836 523.023 638.836 524.71V533.745C638.836 536.272 637.736 538.617 635.658 540.369L601.589 569.628C599.549 571.381 596.735 572.358 593.875 572.358H534.763C532.806 572.358 530.97 573.029 529.62 574.221L506.897 593.736C504.857 595.449 502.043 596.465 499.192 596.465H473.367C471.448 596.465 469.612 597.136 468.224 598.289L401.929 655.264C399.889 656.977 397.075 657.993 394.223 657.993H368.269C366.312 657.993 364.523 658.625 363.135 659.817L347.875 672.955C345.835 674.707 343.021 675.691 340.161 675.691Z" fill="#F3EFF5"/>
<path d="M255.838 455.854L253.229 453.646L303.286 410.655C305.364 408.903 308.094 407.92 310.992 407.92H652.67C655.522 407.92 658.335 408.936 660.376 410.655L669.227 418.296C670.615 419.488 672.45 420.113 674.369 420.113H678.366C680.285 420.113 682.166 419.449 683.508 418.296L711.783 394.013L714.354 396.221L686.079 420.504C684.039 422.256 681.225 423.233 678.366 423.233H674.369C671.472 423.233 668.741 422.289 666.663 420.504L657.805 412.896C656.462 411.704 654.581 411.04 652.67 411.04H310.992C309.035 411.04 307.237 411.704 305.857 412.896L255.838 455.854Z" fill="#F3EFF5"/>
<path d="M38.2254 475.056L35.6998 472.816L56.1398 455.613L58.711 457.821L38.2254 475.056Z" fill="#F3EFF5"/>
<path d="M516.81 747.101L437.629 679.124L440.2 676.915L519.381 744.892L516.81 747.101Z" fill="#F3EFF5"/>
<path d="M522.362 742.652L456.392 685.996L458.964 683.787L524.933 740.443L522.362 742.652Z" fill="#F3EFF5"/>
<path d="M318.91 680.563H306.464V677.476H318.91C320.783 677.476 322.664 676.811 324.052 675.619L383.575 624.5C386.426 622.044 386.426 618.084 383.575 615.667L241.678 493.803C239.637 492.05 238.5 489.706 238.5 487.178V480.033C238.5 477.544 239.637 475.2 241.678 473.408L257.59 459.743L260.161 461.951L244.249 475.616C242.906 476.808 242.133 478.385 242.133 480.033V487.178C242.133 488.865 242.906 490.442 244.249 491.595L386.138 613.459C390.385 617.107 390.385 623.06 386.138 626.708L326.623 677.827C324.583 679.58 321.762 680.563 318.91 680.563Z" fill="#F3EFF5"/>
<path d="M245.477 484.521H77.4748V481.401H245.477C245.963 481.401 246.41 481.257 246.736 480.945L250.491 477.72C250.817 477.44 251.022 477.017 251.022 476.633V469.135C251.022 468.295 250.21 467.592 249.232 467.592C246.205 467.592 243.763 465.527 243.763 462.934V439.42C243.763 438.163 244.332 437.003 245.394 436.091L252.698 429.819C253.714 428.946 255.102 428.457 256.573 428.457H334.45C334.943 428.457 335.391 428.281 335.717 428.001L479.032 304.906L481.603 307.114L338.288 430.21C337.264 431.082 335.922 431.571 334.45 431.571H256.573C256.08 431.571 255.595 431.747 255.269 432.027L247.965 438.3C247.593 438.619 247.434 439.003 247.434 439.42V462.934C247.434 463.775 248.208 464.478 249.232 464.478C252.205 464.478 254.692 466.575 254.692 469.135V476.633C254.692 477.857 254.086 479.049 253.062 479.928L249.307 483.153C248.291 484.065 246.903 484.521 245.477 484.521Z" fill="#F3EFF5"/>
<path d="M617.539 657.785H613.868V635.71C613.868 634.062 613.094 632.453 611.744 631.294L527.254 558.699C525.911 557.539 524.038 556.875 522.119 556.875H517.993C515.104 556.875 512.366 555.891 510.325 554.139L485.153 532.559C483.81 531.367 481.975 530.696 480.018 530.696H415.027C413.108 530.696 411.273 531.367 409.885 532.559L393.768 546.362C391.728 548.146 388.997 549.13 386.062 549.13H370.56C367.662 549.13 364.887 548.114 362.846 546.362L355.421 540.017C354.079 538.864 352.198 538.161 350.279 538.161H39.6134V535.047H350.279C353.138 535.047 355.952 536.064 357.992 537.809L365.417 544.154C366.76 545.346 368.641 546.01 370.56 546.01H386.062C387.981 546.01 389.854 545.346 391.197 544.154L407.314 530.351C409.4 528.56 412.13 527.615 415.027 527.615H480.018C482.953 527.615 485.684 528.56 487.724 530.351L512.897 551.931C514.247 553.09 516.082 553.755 517.993 553.755H522.119C525.016 553.755 527.747 554.738 529.825 556.49L614.315 629.092C616.356 630.844 617.539 633.222 617.539 635.71V657.785Z" fill="#F3EFF5"/>
<path d="M245.273 149.893H241.64V91.2763C241.64 89.6284 240.866 88.0521 239.478 86.8601L204.476 56.7929C202.39 55.0407 201.253 52.6632 201.253 50.175V7.80996H204.923V50.175C204.923 51.8555 205.659 53.3993 207.047 54.5913L242.049 84.6519C244.127 86.4367 245.273 88.7881 245.273 91.2763V149.893Z" fill="#F3EFF5"/>
<path d="M757.76 581.894L758.776 582.734C759.633 583.47 760.816 583.926 762.045 583.926C764.366 583.926 766.451 584.662 767.999 586.023C769.591 587.359 770.448 589.143 770.448 591.039V593.417C770.448 594.504 770.934 595.52 771.791 596.256L773.02 597.312C773.877 598.048 775.098 598.465 776.319 598.465H791.783C793.005 598.465 794.188 598.048 795.045 597.312L795.492 596.921C796.395 596.185 796.88 595.136 796.88 594.087V586.414C796.88 585.359 796.395 584.31 795.492 583.574L795.007 583.118C794.066 582.35 792.883 581.894 791.745 581.894H757.76ZM791.783 601.617H776.319C774.119 601.617 771.996 600.849 770.448 599.513L769.22 598.465C767.673 597.136 766.816 595.345 766.816 593.417V591.039C766.816 589.984 766.323 588.968 765.428 588.232C764.533 587.463 763.387 587.04 762.121 587.04C759.838 587.04 757.76 586.304 756.167 584.942L755.067 583.959C753.474 582.63 752.617 580.839 752.617 578.911V576.741C752.617 575.693 752.132 574.677 751.275 573.901L749.963 572.814C749.068 572.045 747.93 571.628 746.664 571.628H701.665V568.508H746.664C748.863 568.508 750.949 569.277 752.534 570.612L753.839 571.693C755.393 573.061 756.25 574.846 756.25 576.741V578.774H791.745C793.861 578.774 795.985 579.542 797.578 580.91L798.063 581.366C799.656 582.695 800.513 584.486 800.513 586.414V594.087C800.513 595.976 799.656 597.761 798.063 599.129L797.616 599.513C796.069 600.849 793.983 601.617 791.783 601.617Z" fill="#F3EFF5"/>
<path d="M779.504 586.623C777.464 586.623 775.833 588.023 775.833 589.743C775.833 591.456 777.464 592.856 779.504 592.856H788.272C790.274 592.856 791.905 591.456 791.905 589.743C791.905 588.023 790.274 586.623 788.272 586.623H779.504ZM788.272 595.976H779.504C775.462 595.976 772.2 593.176 772.2 589.743C772.2 586.304 775.462 583.503 779.504 583.503H788.272C792.276 583.503 795.538 586.304 795.538 589.743C795.538 593.176 792.276 595.976 788.272 595.976Z" fill="#F3EFF5"/>
<path d="M25.2562 144.78C25.2562 148.212 21.9873 151.013 17.9524 151.013C13.9554 151.013 10.6865 148.212 10.6865 144.78C10.6865 141.308 13.9554 138.507 17.9524 138.507C21.9873 138.507 25.2562 141.308 25.2562 144.78Z" fill="#F3EFF5"/>
<path d="M84.7785 252.77C84.7785 256.236 81.5096 259.043 77.4747 259.043C73.4777 259.043 70.2088 256.236 70.2088 252.77C70.2088 249.338 73.4777 246.53 77.4747 246.53C81.5096 246.53 84.7785 249.338 84.7785 252.77Z" fill="#F3EFF5"/>
<path d="M76.906 56.4086C76.906 59.8804 73.6371 62.6813 69.6401 62.6813C65.6052 62.6813 62.3363 59.8804 62.3363 56.4086C62.3363 52.9759 65.6052 50.175 69.6401 50.175C73.6371 50.175 76.906 52.9759 76.906 56.4086Z" fill="#F3EFF5"/>
<path d="M144.301 61.7043C144.301 65.1696 141.032 67.9379 137.035 67.9379C133 67.9379 129.732 65.1696 129.732 61.7043C129.732 58.2325 133 55.4642 137.035 55.4642C141.032 55.4642 144.301 58.2325 144.301 61.7043Z" fill="#F3EFF5"/>
<path d="M177.263 75.0507C177.263 78.5225 174.002 81.3234 170.005 81.3234C165.962 81.3234 162.739 78.5225 162.739 75.0507C162.739 71.618 165.962 68.8171 170.005 68.8171C174.002 68.8171 177.263 71.618 177.263 75.0507Z" fill="#F3EFF5"/>
<path d="M342.573 87.557C342.573 90.9962 339.35 93.7971 335.307 93.7971C331.272 93.7971 328.049 90.9962 328.049 87.557C328.049 84.1243 331.272 81.3234 335.307 81.3234C339.35 81.3234 342.573 84.1243 342.573 87.557Z" fill="#F3EFF5"/>
<path d="M272.44 337.109C272.44 340.575 269.179 343.382 265.136 343.382C261.139 343.382 257.878 340.575 257.878 337.109C257.878 333.677 261.139 330.869 265.136 330.869C269.179 330.869 272.44 333.677 272.44 337.109Z" fill="#F3EFF5"/>
<path d="M265.136 460.869C265.136 464.302 261.913 467.103 257.878 467.103C253.881 467.103 250.612 464.302 250.612 460.869C250.612 457.398 253.881 454.597 257.878 454.597C261.913 454.597 265.136 457.398 265.136 460.869Z" fill="#F3EFF5"/>
<path d="M487.603 306.026C487.603 309.465 484.341 312.266 480.344 312.266C476.302 312.266 473.04 309.465 473.04 306.026C473.04 302.561 476.302 299.792 480.344 299.792C484.341 299.792 487.603 302.561 487.603 306.026Z" fill="#F3EFF5"/>
<path d="M728.711 353.368C728.711 356.833 725.45 359.64 721.453 359.64C717.41 359.64 714.187 356.833 714.187 353.368C714.187 349.935 717.41 347.128 721.453 347.128C725.45 347.128 728.711 349.935 728.711 353.368Z" fill="#F3EFF5"/>
<path d="M728.711 401.582C728.711 405.015 725.45 407.816 721.453 407.816C717.41 407.816 714.187 405.015 714.187 401.582C714.187 398.11 717.41 395.309 721.453 395.309C725.45 395.309 728.711 398.11 728.711 401.582Z" fill="#F3EFF5"/>
<path d="M476.142 477.544C476.142 480.977 472.874 483.785 468.877 483.785C464.88 483.785 461.618 480.977 461.618 477.544C461.618 474.079 464.88 471.272 468.877 471.272C472.874 471.272 476.142 474.079 476.142 477.544Z" fill="#F3EFF5"/>
<path d="M713.535 462.022C713.535 465.494 710.274 468.263 706.277 468.263C702.234 468.263 698.973 465.494 698.973 462.022C698.973 458.557 702.234 455.789 706.277 455.789C710.274 455.789 713.535 458.557 713.535 462.022Z" fill="#F3EFF5"/>
<path d="M809 630.629C809 634.101 805.739 636.902 801.696 636.902C797.699 636.902 794.438 634.101 794.438 630.629C794.438 627.196 797.699 624.396 801.696 624.396C805.739 624.396 809 627.196 809 630.629Z" fill="#F3EFF5"/>
<path d="M525.381 670.298C525.381 673.73 522.119 676.531 518.122 676.531C514.08 676.531 510.819 673.73 510.819 670.298C510.819 666.826 514.08 664.025 518.122 664.025C522.119 664.025 525.381 666.826 525.381 670.298Z" fill="#F3EFF5"/>
<path d="M118.681 696.189C118.681 699.622 115.412 702.423 111.377 702.423C107.38 702.423 104.111 699.622 104.111 696.189C104.111 692.718 107.38 689.949 111.377 689.949C115.412 689.949 118.681 692.718 118.681 696.189Z" fill="#F3EFF5"/>
<path d="M528.437 744.3C528.437 747.732 525.176 750.533 521.179 750.533C517.136 750.533 513.92 747.732 513.92 744.3C513.92 740.867 517.136 738.059 521.179 738.059C525.176 738.059 528.437 740.867 528.437 744.3Z" fill="#F3EFF5"/>
<path d="M618.722 579.718C618.722 583.19 615.461 585.958 611.418 585.958C607.421 585.958 604.16 583.19 604.16 579.718C604.16 576.253 607.421 573.485 611.418 573.485C615.461 573.485 618.722 576.253 618.722 579.718Z" fill="#F3EFF5"/>
<path d="M623.864 657.785C623.864 661.257 620.603 664.025 616.561 664.025C612.564 664.025 609.302 661.257 609.302 657.785C609.302 654.352 612.564 651.551 616.561 651.551C620.603 651.551 623.864 654.352 623.864 657.785Z" fill="#F3EFF5"/>
<path d="M742.667 758.871C742.667 762.342 739.443 765.143 735.401 765.143C731.366 765.143 728.142 762.342 728.142 758.871C728.142 755.438 731.366 752.637 735.401 752.637C739.443 752.637 742.667 755.438 742.667 758.871Z" fill="#F3EFF5"/>
<path d="M579.192 868.757C579.192 872.189 575.931 874.99 571.926 874.99C567.891 874.99 564.63 872.189 564.63 868.757C564.63 865.285 567.891 862.484 571.926 862.484C575.931 862.484 579.192 865.285 579.192 868.757Z" fill="#F3EFF5"/>
<path d="M478.956 880.214C478.956 883.686 475.687 886.454 471.652 886.454C467.656 886.454 464.387 883.686 464.387 880.214C464.387 876.781 467.656 873.974 471.652 873.974C475.687 873.974 478.956 876.781 478.956 880.214Z" fill="#F3EFF5"/>
<path d="M345.63 880.214C345.63 883.686 342.368 886.454 338.326 886.454C334.329 886.454 331.068 883.686 331.068 880.214C331.068 876.781 334.329 873.974 338.326 873.974C342.368 873.974 345.63 876.781 345.63 880.214Z" fill="#F3EFF5"/>
<path d="M720.346 394.501C720.346 397.934 717.084 400.742 713.042 400.742C709.045 400.742 705.784 397.934 705.784 394.501C705.784 391.036 709.045 388.229 713.042 388.229C717.084 388.229 720.346 391.036 720.346 394.501Z" fill="#F3EFF5"/>
<path d="M543.902 401.582C543.902 405.015 540.64 407.816 536.643 407.816C532.601 407.816 529.34 405.015 529.34 401.582C529.34 398.11 532.601 395.309 536.643 395.309C540.64 395.309 543.902 398.11 543.902 401.582Z" fill="#F3EFF5"/>
<path d="M207.616 6.2336C207.616 9.70539 204.393 12.5063 200.35 12.5063C196.353 12.5063 193.092 9.70539 193.092 6.2336C193.092 2.80088 196.353 0 200.35 0C204.393 0 207.616 2.80088 207.616 6.2336Z" fill="#F3EFF5"/>
<path d="M266.319 22.7393C266.319 26.2046 263.058 29.012 259.023 29.012C255.019 29.012 251.757 26.2046 251.757 22.7393C251.757 19.3066 255.019 16.4992 259.023 16.4992C263.058 16.4992 266.319 19.3066 266.319 22.7393Z" fill="#F3EFF5"/>
</g>
</svg>
