<svg xmlns="http://www.w3.org/2000/svg" xmlns:xlink="http://www.w3.org/1999/xlink" width="1080" zoomAndPan="magnify" viewBox="0 0 810 809.999993" height="1080" preserveAspectRatio="xMidYMid meet" version="1.0"><defs><clipPath id="id1"><path d="M 174 320 L 643 320 L 643 798.121094 L 174 798.121094 Z M 174 320 " clip-rule="nonzero"/></clipPath><clipPath id="id2"><path d="M 197 546 L 527 546 L 527 798.121094 L 197 798.121094 Z M 197 546 " clip-rule="nonzero"/></clipPath><clipPath id="id3"><path d="M 245 12.121094 L 257 12.121094 L 257 24 L 245 24 Z M 245 12.121094 " clip-rule="nonzero"/></clipPath></defs><path fill="#f3eff5" d="M 183.101562 623.113281 L 169.570312 609.570312 C 168.003906 608.035156 167.144531 605.949219 167.144531 603.769531 L 167.144531 532.015625 C 167.144531 530.542969 166.59375 529.160156 165.550781 528.148438 L 159.996094 522.589844 C 158.460938 521.023438 157.601562 518.96875 157.601562 516.785156 L 157.601562 437.632812 C 157.601562 436.160156 157.019531 434.808594 156.003906 433.765625 L 147.84375 425.566406 C 146.277344 424.03125 145.417969 421.976562 145.417969 419.765625 L 145.417969 410.554688 C 145.417969 409.109375 144.867188 407.730469 143.824219 406.683594 L 120.011719 382.859375 C 118.445312 381.292969 117.585938 379.238281 117.585938 377.058594 L 117.585938 294.035156 C 117.585938 292.59375 117.035156 291.210938 115.992188 290.167969 L 114.394531 288.570312 C 112.828125 287.003906 111.972656 284.949219 111.972656 282.738281 L 111.972656 160.90625 C 111.972656 158.726562 112.828125 156.671875 114.394531 155.105469 L 121.421875 148.042969 C 122.464844 147.027344 123.019531 145.648438 123.019531 144.171875 L 123.019531 131.1875 C 123.019531 128.976562 123.90625 126.917969 125.441406 125.382812 L 149.714844 101.097656 C 150.757812 100.054688 151.3125 98.703125 151.3125 97.230469 L 151.3125 61.550781 L 154.042969 61.550781 L 154.042969 97.230469 C 154.042969 99.410156 153.183594 101.464844 151.648438 103.03125 L 127.375 127.316406 C 126.332031 128.363281 125.78125 129.710938 125.78125 131.1875 L 125.78125 144.171875 C 125.78125 146.382812 124.921875 148.441406 123.386719 149.976562 L 116.296875 157.039062 C 115.285156 158.082031 114.703125 159.464844 114.703125 160.90625 L 114.703125 282.738281 C 114.703125 284.210938 115.285156 285.59375 116.296875 286.636719 L 117.925781 288.234375 C 119.488281 289.796875 120.347656 291.855469 120.347656 294.035156 L 120.347656 377.058594 C 120.347656 378.53125 120.902344 379.882812 121.945312 380.925781 L 145.757812 404.75 C 147.289062 406.316406 148.148438 408.375 148.148438 410.554688 L 148.148438 419.765625 C 148.148438 421.238281 148.734375 422.621094 149.777344 423.632812 L 157.9375 431.832031 C 159.472656 433.367188 160.332031 435.421875 160.332031 437.632812 L 160.332031 516.785156 C 160.332031 518.230469 160.886719 519.613281 161.929688 520.65625 L 167.484375 526.210938 C 169.046875 527.746094 169.875 529.804688 169.875 532.015625 L 169.875 603.769531 C 169.875 605.242188 170.460938 606.625 171.503906 607.636719 L 185.035156 621.175781 L 183.101562 623.113281 " fill-opacity="1" fill-rule="nonzero"/><path fill="#f3eff5" d="M 413.558594 616.847656 L 389.558594 616.847656 C 387.382812 616.847656 385.296875 616.019531 383.761719 614.453125 L 362.984375 593.667969 C 361.972656 592.65625 360.5625 592.070312 359.121094 592.070312 L 260.402344 592.070312 C 258.957031 592.070312 257.578125 592.625 256.535156 593.667969 L 243.09375 607.117188 C 241.558594 608.679688 239.503906 609.511719 237.292969 609.511719 L 217.5625 609.511719 C 215.382812 609.511719 213.296875 608.679688 211.761719 607.117188 L 209.613281 604.9375 C 208.050781 603.402344 207.222656 601.34375 207.222656 599.132812 L 207.222656 582.523438 C 207.222656 581.046875 206.636719 579.667969 205.59375 578.652344 L 191.171875 564.191406 C 190.160156 563.148438 188.75 562.566406 187.273438 562.566406 L 176.78125 562.566406 C 174.570312 562.566406 172.515625 561.734375 170.980469 560.171875 L 167.542969 556.761719 L 169.476562 554.828125 L 172.914062 558.234375 C 173.925781 559.28125 175.308594 559.832031 176.78125 559.832031 L 187.273438 559.832031 C 189.484375 559.832031 191.539062 560.691406 193.105469 562.257812 L 207.527344 576.71875 C 209.09375 578.253906 209.953125 580.3125 209.953125 582.523438 L 209.953125 599.132812 C 209.953125 600.605469 210.503906 601.988281 211.546875 603 L 213.695312 605.179688 C 214.738281 606.226562 216.121094 606.777344 217.5625 606.777344 L 237.292969 606.777344 C 238.738281 606.777344 240.148438 606.195312 241.160156 605.179688 L 254.601562 591.734375 C 256.167969 590.167969 258.222656 589.339844 260.402344 589.339844 L 359.121094 589.339844 C 361.296875 589.339844 363.386719 590.167969 364.917969 591.734375 L 385.695312 612.519531 C 386.738281 613.5625 388.085938 614.117188 389.558594 614.117188 L 413.558594 614.117188 C 415.03125 614.117188 416.410156 613.5625 417.425781 612.519531 L 422.671875 607.269531 C 424.234375 605.734375 426.292969 604.875 428.472656 604.875 L 471.246094 604.875 C 472.691406 604.875 474.101562 604.289062 475.113281 603.277344 L 559.226562 519.152344 L 561.160156 521.085938 L 477.078125 605.210938 C 475.511719 606.746094 473.457031 607.605469 471.246094 607.605469 L 428.472656 607.605469 C 426.996094 607.605469 425.648438 608.191406 424.605469 609.203125 L 419.355469 614.453125 C 417.824219 616.019531 415.734375 616.847656 413.558594 616.847656 " fill-opacity="1" fill-rule="nonzero"/><path fill="#f3eff5" d="M 275.714844 640.488281 L 208.847656 640.488281 C 206.667969 640.488281 204.613281 639.660156 203.046875 638.09375 L 193.75 628.792969 C 192.214844 627.226562 191.355469 625.167969 191.355469 622.988281 L 191.355469 583.78125 C 191.355469 581.570312 192.214844 579.511719 193.75 577.976562 L 205.105469 566.585938 C 206.148438 565.574219 206.730469 564.191406 206.730469 562.71875 L 206.730469 510.890625 C 206.730469 509.449219 206.148438 508.066406 205.105469 507.023438 L 204.367188 506.285156 C 202.832031 504.71875 201.972656 502.664062 201.972656 500.484375 L 201.972656 66.1875 L 204.707031 66.1875 L 204.707031 500.484375 C 204.707031 501.925781 205.289062 503.308594 206.300781 504.351562 L 207.039062 505.089844 C 208.601562 506.65625 209.460938 508.710938 209.460938 510.890625 L 209.460938 562.71875 C 209.460938 564.929688 208.601562 566.988281 207.039062 568.523438 L 195.683594 579.914062 C 194.640625 580.925781 194.085938 582.308594 194.085938 583.78125 L 194.085938 622.988281 C 194.085938 624.433594 194.640625 625.8125 195.683594 626.859375 L 204.980469 636.160156 C 206.023438 637.203125 207.40625 637.757812 208.847656 637.757812 L 275.714844 637.757812 C 277.15625 637.757812 278.566406 637.175781 279.582031 636.160156 L 318.980469 596.738281 C 320.515625 595.171875 322.601562 594.34375 324.78125 594.34375 L 355.40625 594.34375 C 357.617188 594.34375 359.640625 595.171875 361.207031 596.738281 L 381.949219 617.492188 C 382.992188 618.535156 384.34375 619.089844 385.816406 619.089844 L 416.074219 619.089844 C 417.515625 619.089844 418.925781 618.507812 419.941406 617.492188 L 424.113281 613.285156 C 425.679688 611.722656 427.734375 610.859375 429.914062 610.859375 L 474.285156 610.859375 C 475.726562 610.859375 477.109375 610.277344 478.152344 609.265625 L 489.996094 597.414062 L 491.929688 599.347656 L 480.085938 611.199219 C 478.550781 612.734375 476.433594 613.625 474.285156 613.625 L 429.914062 613.625 C 428.472656 613.625 427.089844 614.175781 426.046875 615.222656 L 421.875 619.425781 C 420.339844 620.960938 418.222656 621.824219 416.074219 621.824219 L 385.816406 621.824219 C 383.636719 621.824219 381.582031 620.960938 380.015625 619.425781 L 359.273438 598.671875 C 358.261719 597.660156 356.847656 597.074219 355.40625 597.074219 L 324.78125 597.074219 C 323.308594 597.074219 321.925781 597.628906 320.914062 598.671875 L 281.511719 638.09375 C 279.980469 639.628906 277.863281 640.488281 275.714844 640.488281 " fill-opacity="1" fill-rule="nonzero"/><path fill="#f3eff5" d="M 204.304688 254.214844 L 202.375 252.28125 L 205.71875 248.933594 C 207.28125 247.398438 209.339844 246.539062 211.519531 246.539062 L 255.0625 246.539062 C 256.503906 246.539062 257.914062 245.953125 258.929688 244.941406 L 275.804688 228.023438 C 276.820312 227.011719 277.433594 225.597656 277.433594 224.15625 L 277.433594 193.359375 C 277.433594 191.148438 278.261719 189.09375 279.824219 187.558594 L 349.515625 117.800781 C 350.558594 116.757812 351.140625 115.40625 351.140625 113.929688 L 351.140625 89.277344 L 353.839844 89.277344 L 353.839844 113.929688 C 353.839844 116.109375 353.011719 118.199219 351.449219 119.734375 L 281.757812 189.492188 C 280.714844 190.503906 280.132812 191.886719 280.132812 193.359375 L 280.132812 224.15625 C 280.132812 226.335938 279.273438 228.453125 277.738281 229.988281 L 260.863281 246.875 C 259.328125 248.378906 257.210938 249.269531 255.0625 249.269531 L 211.519531 249.269531 C 210.042969 249.269531 208.695312 249.824219 207.652344 250.867188 L 204.304688 254.214844 " fill-opacity="1" fill-rule="nonzero"/><path fill="#f3eff5" d="M 204.304688 245.953125 L 202.375 244.019531 L 214.832031 231.523438 C 216.398438 229.988281 218.453125 229.128906 220.664062 229.128906 L 245.640625 229.128906 C 247.082031 229.128906 248.496094 228.546875 249.507812 227.53125 L 268.65625 208.375 C 269.699219 207.332031 270.25 205.949219 270.25 204.503906 L 270.25 158.050781 C 270.25 155.871094 271.109375 153.816406 272.675781 152.25 L 292.160156 132.753906 C 293.175781 131.738281 293.757812 130.355469 293.757812 128.882812 L 293.757812 32.046875 L 296.488281 32.046875 L 296.488281 128.882812 C 296.488281 131.09375 295.628906 133.152344 294.09375 134.6875 L 274.609375 154.183594 C 273.566406 155.226562 272.984375 156.609375 272.984375 158.050781 L 272.984375 204.503906 C 272.984375 206.683594 272.152344 208.742188 270.589844 210.308594 L 251.441406 229.46875 C 249.90625 230.972656 247.789062 231.863281 245.640625 231.863281 L 220.664062 231.863281 C 219.1875 231.863281 217.808594 232.445312 216.765625 233.457031 L 204.304688 245.953125 " fill-opacity="1" fill-rule="nonzero"/><path fill="#f3eff5" d="M 175.554688 251.664062 L 173.621094 249.730469 L 189.761719 233.582031 C 191.296875 232.046875 193.351562 231.1875 195.5625 231.1875 L 204.183594 231.1875 C 205.625 231.1875 207.039062 230.601562 208.050781 229.589844 L 212.039062 225.597656 C 213.574219 224.0625 215.660156 223.203125 217.839844 223.203125 L 242.757812 223.203125 C 244.199219 223.203125 245.578125 222.621094 246.621094 221.605469 L 263.164062 205.027344 C 264.207031 204.015625 264.789062 202.601562 264.789062 201.160156 L 264.789062 156.609375 C 264.789062 154.398438 265.648438 152.339844 267.183594 150.804688 L 276.328125 141.625 C 277.339844 140.613281 277.953125 139.199219 277.953125 137.757812 L 277.953125 94.496094 C 277.953125 93.023438 277.371094 91.671875 276.328125 90.628906 L 250.273438 64.53125 C 248.710938 62.996094 247.851562 60.9375 247.851562 58.726562 L 247.851562 18.964844 L 250.613281 18.964844 L 250.613281 58.726562 C 250.613281 60.199219 251.164062 61.582031 252.207031 62.59375 L 278.261719 88.691406 C 279.824219 90.226562 280.652344 92.316406 280.652344 94.496094 L 280.652344 137.757812 C 280.652344 139.9375 279.796875 142.054688 278.261719 143.558594 L 269.117188 152.738281 C 268.074219 153.785156 267.519531 155.136719 267.519531 156.609375 L 267.519531 201.160156 C 267.519531 203.308594 266.628906 205.425781 265.097656 206.960938 L 248.554688 223.542969 C 246.992188 225.078125 244.933594 225.9375 242.757812 225.9375 L 217.839844 225.9375 C 216.367188 225.9375 214.984375 226.519531 213.972656 227.53125 L 209.984375 231.523438 C 208.417969 233.058594 206.363281 233.917969 204.183594 233.917969 L 195.5625 233.917969 C 194.085938 233.917969 192.707031 234.503906 191.695312 235.515625 L 175.554688 251.664062 " fill-opacity="1" fill-rule="nonzero"/><path fill="#f3eff5" d="M 120.257812 314.207031 L 118.324219 312.273438 L 123.9375 306.625 C 125.472656 305.089844 127.527344 304.230469 129.738281 304.230469 L 162.542969 304.230469 C 163.984375 304.230469 165.394531 303.644531 166.410156 302.632812 L 172.023438 297.015625 C 173.035156 295.96875 173.621094 294.617188 173.621094 293.144531 L 173.621094 241.839844 C 173.621094 240.398438 173.035156 239.015625 172.023438 237.972656 L 170.644531 236.589844 C 169.628906 235.578125 168.21875 234.992188 166.777344 234.992188 L 159.996094 234.992188 L 159.996094 232.261719 L 166.777344 232.261719 C 168.957031 232.261719 171.042969 233.121094 172.578125 234.65625 L 173.957031 236.039062 C 175.492188 237.601562 176.351562 239.660156 176.351562 241.839844 L 176.351562 293.144531 C 176.351562 295.324219 175.492188 297.414062 173.957031 298.949219 L 168.339844 304.566406 C 166.808594 306.101562 164.691406 306.960938 162.542969 306.960938 L 129.738281 306.960938 C 128.265625 306.960938 126.882812 307.546875 125.871094 308.589844 L 120.257812 314.207031 " fill-opacity="1" fill-rule="nonzero"/><path fill="#f3eff5" d="M 356.144531 783.933594 L 353.410156 783.933594 L 353.410156 593.300781 C 353.410156 591.980469 352.890625 590.75 351.96875 589.828125 L 351.324219 589.152344 C 350.375 588.234375 349.144531 587.742188 347.828125 587.742188 L 319.75 587.742188 C 318.429688 587.742188 317.203125 588.234375 316.28125 589.152344 L 280.5625 624.894531 C 279.121094 626.335938 277.1875 627.132812 275.160156 627.132812 L 206.269531 627.132812 C 204.214844 627.132812 202.28125 626.335938 200.839844 624.894531 L 182.152344 606.195312 C 180.707031 604.75 179.910156 602.816406 179.910156 600.789062 L 179.910156 584.578125 C 179.910156 582.523438 180.707031 580.617188 182.152344 579.175781 L 183.808594 577.519531 C 184.726562 576.597656 185.25 575.367188 185.25 574.046875 L 185.25 567.445312 C 185.25 565.390625 186.015625 563.488281 187.460938 562.042969 L 190.710938 558.789062 C 191.664062 557.867188 192.15625 556.640625 192.15625 555.320312 L 192.15625 554.796875 C 192.15625 552.742188 192.953125 550.835938 194.394531 549.394531 L 195.5625 548.226562 C 196.480469 547.304688 197.003906 546.078125 197.003906 544.757812 L 197.003906 469.871094 C 197.003906 468.550781 196.480469 467.324219 195.5625 466.402344 L 156.773438 427.59375 C 155.332031 426.152344 154.53125 424.21875 154.53125 422.160156 L 154.53125 402.324219 C 154.53125 400.269531 155.332031 398.363281 156.773438 396.921875 C 158.214844 395.449219 160.148438 394.648438 162.171875 394.648438 L 277.21875 394.648438 C 278.507812 394.648438 279.765625 394.128906 280.683594 393.238281 L 296.917969 376.996094 C 297.839844 376.074219 298.359375 374.847656 298.359375 373.527344 L 298.359375 307.515625 L 301.089844 307.515625 L 301.089844 373.527344 C 301.089844 375.550781 300.292969 377.488281 298.851562 378.929688 L 282.617188 395.171875 C 281.207031 396.585938 279.242188 397.414062 277.21875 397.414062 L 162.171875 397.414062 C 160.855469 397.414062 159.625 397.90625 158.707031 398.855469 C 157.785156 399.777344 157.265625 401.003906 157.265625 402.324219 L 157.265625 422.160156 C 157.265625 423.480469 157.785156 424.707031 158.707031 425.660156 L 197.492188 464.4375 C 198.9375 465.910156 199.734375 467.816406 199.734375 469.871094 L 199.734375 544.757812 C 199.734375 546.816406 198.9375 548.71875 197.492188 550.160156 L 196.328125 551.328125 C 195.40625 552.25 194.886719 553.507812 194.886719 554.796875 L 194.886719 555.320312 C 194.886719 557.347656 194.085938 559.28125 192.644531 560.722656 L 189.394531 563.976562 C 188.472656 564.898438 187.949219 566.125 187.949219 567.445312 L 187.949219 574.046875 C 187.949219 576.105469 187.183594 578.007812 185.742188 579.453125 L 184.082031 581.109375 C 183.164062 582.03125 182.640625 583.257812 182.640625 584.578125 L 182.640625 600.789062 C 182.640625 602.082031 183.164062 603.339844 184.082031 604.261719 L 202.773438 622.957031 C 203.691406 623.878906 204.949219 624.402344 206.269531 624.402344 L 275.160156 624.402344 C 276.480469 624.402344 277.707031 623.878906 278.628906 622.957031 L 314.347656 587.21875 C 315.789062 585.777344 317.691406 585.007812 319.75 585.007812 L 347.828125 585.007812 C 349.882812 585.007812 351.816406 585.777344 353.257812 587.21875 L 353.902344 587.894531 C 355.34375 589.339844 356.144531 591.242188 356.144531 593.300781 L 356.144531 783.933594 " fill-opacity="1" fill-rule="nonzero"/><path fill="#f3eff5" d="M 294.617188 397.414062 L 271.9375 397.414062 L 271.9375 394.648438 L 293.480469 394.648438 L 315.574219 372.574219 L 315.574219 364.683594 L 325.425781 354.828125 L 344.050781 354.828125 L 350.003906 360.816406 L 503.929688 360.816406 L 503.929688 363.546875 L 348.902344 363.546875 L 342.917969 357.589844 L 326.5625 357.589844 L 318.304688 365.820312 L 318.304688 373.710938 L 294.617188 397.414062 " fill-opacity="1" fill-rule="nonzero"/><path fill="#f3eff5" d="M 286.882812 413.6875 L 143.484375 413.6875 C 141.335938 413.6875 139.34375 412.855469 137.871094 411.382812 L 135.507812 409.019531 C 134.003906 407.515625 133.175781 405.519531 133.175781 403.398438 L 133.175781 236.34375 C 133.175781 234.226562 134.003906 232.230469 135.507812 230.726562 L 142.195312 224.03125 C 143.699219 222.527344 145.695312 221.699219 147.8125 221.699219 L 190.007812 221.699219 C 191.386719 221.699219 192.675781 221.175781 193.65625 220.195312 L 211.671875 202.171875 C 212.652344 201.191406 213.207031 199.898438 213.207031 198.519531 L 213.207031 93.914062 C 213.207031 91.792969 214.003906 89.828125 215.507812 88.324219 L 226.890625 76.933594 L 228.824219 78.867188 L 217.441406 90.257812 C 216.457031 91.242188 215.90625 92.53125 215.90625 93.914062 L 215.90625 198.519531 C 215.90625 200.636719 215.109375 202.632812 213.605469 204.105469 L 195.621094 222.128906 C 194.117188 223.632812 192.125 224.433594 190.007812 224.433594 L 147.8125 224.433594 C 146.429688 224.433594 145.113281 224.984375 144.128906 225.96875 L 137.441406 232.660156 C 136.457031 233.644531 135.90625 234.964844 135.90625 236.34375 L 135.90625 403.398438 C 135.90625 404.78125 136.457031 406.101562 137.441406 407.054688 L 139.804688 409.449219 C 140.753906 410.402344 142.105469 410.953125 143.484375 410.953125 L 286.882812 410.953125 C 288.296875 410.953125 289.585938 410.429688 290.566406 409.449219 L 293.359375 406.625 C 294.339844 405.640625 294.894531 404.351562 294.894531 402.96875 C 294.894531 400.851562 295.722656 398.855469 297.226562 397.351562 L 319.226562 375.335938 C 320.210938 374.355469 320.761719 373.035156 320.761719 371.652344 L 320.761719 370.332031 C 320.761719 368.214844 321.558594 366.21875 323.0625 364.714844 L 324.445312 363.332031 C 325.949219 361.828125 327.941406 361.03125 330.058594 361.03125 L 339.050781 361.03125 C 341.167969 361.03125 343.164062 361.828125 344.667969 363.332031 L 344.789062 363.484375 L 346.445312 365.789062 C 347.429688 366.710938 348.71875 367.230469 350.066406 367.230469 L 503.929688 367.230469 L 503.929688 369.964844 L 350.066406 369.964844 C 347.949219 369.964844 345.925781 369.105469 344.453125 367.632812 L 344.328125 367.476562 L 342.640625 365.207031 C 341.660156 364.253906 340.402344 363.761719 339.050781 363.761719 L 330.058594 363.761719 C 328.679688 363.761719 327.328125 364.316406 326.378906 365.265625 L 324.996094 366.648438 C 324.015625 367.632812 323.460938 368.953125 323.460938 370.332031 L 323.460938 371.652344 C 323.460938 373.773438 322.664062 375.765625 321.160156 377.273438 L 299.15625 399.285156 C 298.175781 400.269531 297.625 401.558594 297.625 402.96875 C 297.625 405.089844 296.796875 407.085938 295.292969 408.558594 L 292.5 411.382812 C 290.996094 412.855469 289 413.6875 286.882812 413.6875 " fill-opacity="1" fill-rule="nonzero"/><g clip-path="url(#id1)"><path fill="#f3eff5" d="M 367.160156 641.902344 L 367.160156 691.148438 C 367.160156 692.625 367.742188 694.003906 368.753906 695.019531 L 372.070312 698.335938 C 373.113281 699.378906 374.492188 699.929688 375.9375 699.929688 L 384.464844 699.929688 C 386.644531 699.929688 388.730469 700.789062 390.265625 702.355469 L 417.023438 729.097656 C 418.558594 730.664062 419.417969 732.722656 419.417969 734.902344 L 419.417969 747.03125 C 419.417969 748.441406 420 749.886719 421.015625 750.898438 L 443.628906 773.496094 C 444.671875 774.539062 446.023438 775.121094 447.496094 775.121094 L 467.871094 775.121094 C 470.019531 775.121094 472.136719 775.984375 473.671875 777.519531 L 489.90625 793.761719 C 490.949219 794.804688 492.328125 795.386719 493.800781 795.386719 L 494.90625 795.386719 C 496.347656 795.386719 497.761719 794.804688 498.773438 793.761719 L 503.621094 788.9375 C 504.636719 787.894531 505.21875 786.515625 505.21875 785.070312 L 505.21875 780.742188 C 505.21875 779.296875 504.636719 777.886719 503.621094 776.875 L 419.265625 692.441406 C 417.699219 690.90625 416.839844 688.847656 416.839844 686.667969 L 416.839844 677.332031 C 416.839844 675.890625 416.289062 674.507812 415.246094 673.464844 L 385.296875 643.53125 C 384.28125 642.484375 382.871094 641.902344 381.429688 641.902344 Z M 494.90625 798.121094 L 493.800781 798.121094 C 491.59375 798.121094 489.535156 797.261719 487.972656 795.695312 L 471.738281 779.453125 C 470.726562 778.410156 469.316406 777.824219 467.871094 777.824219 L 447.496094 777.824219 C 445.316406 777.824219 443.230469 776.996094 441.695312 775.429688 L 419.082031 752.832031 C 417.546875 751.265625 416.6875 749.210938 416.6875 747.03125 L 416.6875 734.902344 C 416.6875 733.457031 416.136719 732.078125 415.089844 731.0625 L 388.332031 704.261719 C 387.289062 703.246094 385.941406 702.664062 384.464844 702.664062 L 375.9375 702.664062 C 373.757812 702.664062 371.699219 701.804688 370.136719 700.269531 L 366.820312 696.953125 C 365.289062 695.386719 364.429688 693.328125 364.429688 691.148438 L 364.429688 641.902344 L 340.617188 641.902344 C 338.46875 641.902344 336.351562 641.042969 334.816406 639.507812 L 331.839844 636.527344 C 330.273438 634.964844 329.414062 632.90625 329.414062 630.726562 L 329.414062 581.601562 C 329.414062 580.128906 328.863281 578.777344 327.820312 577.734375 L 303.363281 553.261719 C 302.320312 552.21875 300.96875 551.664062 299.496094 551.664062 L 250.644531 551.664062 C 248.464844 551.664062 246.40625 550.804688 244.84375 549.238281 L 240.914062 545.308594 C 239.351562 543.746094 238.492188 541.6875 238.492188 539.476562 L 238.492188 528.976562 C 238.492188 527.53125 237.90625 526.121094 236.894531 525.109375 L 231.035156 519.210938 C 230.023438 518.199219 228.609375 517.617188 227.167969 517.617188 L 201.175781 517.617188 C 198.996094 517.617188 196.941406 516.757812 195.375 515.222656 L 176.597656 496.398438 C 175.03125 494.863281 174.171875 492.808594 174.171875 490.597656 L 174.171875 393.175781 C 174.171875 390.964844 175.03125 388.910156 176.597656 387.34375 L 178.683594 385.253906 C 180.25 383.71875 182.304688 382.859375 184.484375 382.859375 L 326.132812 382.859375 C 327.574219 382.859375 328.984375 382.277344 330 381.261719 L 336.65625 374.570312 C 338.222656 373.035156 340.277344 372.175781 342.488281 372.175781 L 587.425781 372.175781 C 588.898438 372.175781 590.3125 371.59375 591.324219 370.578125 L 641.035156 320.808594 L 642.96875 322.742188 L 593.257812 372.511719 C 591.722656 374.015625 589.605469 374.90625 587.425781 374.90625 L 342.488281 374.90625 C 341.015625 374.90625 339.632812 375.460938 338.589844 376.503906 L 331.929688 383.199219 C 330.425781 384.703125 328.28125 385.59375 326.132812 385.59375 L 184.484375 385.59375 C 183.039062 385.59375 181.660156 386.144531 180.617188 387.1875 L 178.53125 389.277344 C 177.488281 390.320312 176.933594 391.703125 176.933594 393.175781 L 176.933594 490.597656 C 176.933594 492.070312 177.488281 493.421875 178.53125 494.464844 L 197.308594 513.285156 C 198.351562 514.332031 199.734375 514.882812 201.175781 514.882812 L 227.167969 514.882812 C 229.378906 514.882812 231.433594 515.742188 232.96875 517.277344 L 238.828125 523.140625 C 240.363281 524.675781 241.253906 526.796875 241.253906 528.976562 L 241.253906 539.476562 C 241.253906 540.949219 241.804688 542.332031 242.847656 543.375 L 246.777344 547.304688 C 247.820312 548.351562 249.199219 548.902344 250.644531 548.902344 L 299.496094 548.902344 C 301.675781 548.902344 303.761719 549.761719 305.296875 551.328125 L 329.753906 575.796875 C 331.316406 577.332031 332.144531 579.390625 332.144531 581.601562 L 332.144531 630.726562 C 332.144531 632.167969 332.730469 633.550781 333.773438 634.59375 L 336.75 637.574219 C 337.761719 638.585938 339.171875 639.167969 340.617188 639.167969 L 364.429688 639.167969 L 364.429688 582.125 C 364.429688 580.648438 363.875 579.269531 362.832031 578.253906 L 362.402344 577.824219 C 361.390625 576.78125 360.007812 576.226562 358.535156 576.226562 L 355.773438 576.226562 L 355.773438 573.464844 L 358.535156 573.464844 C 360.714844 573.464844 362.800781 574.355469 364.335938 575.890625 L 364.765625 576.320312 C 366.300781 577.855469 367.160156 579.914062 367.160156 582.125 L 367.160156 639.167969 L 381.429688 639.167969 C 383.605469 639.167969 385.695312 640.058594 387.226562 641.5625 L 417.179688 671.53125 C 418.742188 673.097656 419.570312 675.152344 419.570312 677.332031 L 419.570312 686.667969 C 419.570312 688.109375 420.15625 689.492188 421.199219 690.503906 L 505.554688 774.9375 C 507.089844 776.472656 507.949219 778.5625 507.949219 780.742188 L 507.949219 785.070312 C 507.949219 787.25 507.089844 789.308594 505.554688 790.875 L 500.707031 795.695312 C 499.171875 797.230469 497.085938 798.121094 494.90625 798.121094 " fill-opacity="1" fill-rule="nonzero"/></g><path fill="#f3eff5" d="M 531.824219 771.007812 L 529.09375 771.007812 L 529.09375 763.976562 C 529.09375 762.503906 528.507812 761.121094 527.496094 760.109375 L 437.953125 670.761719 C 436.417969 669.226562 435.558594 667.171875 435.558594 664.960938 L 435.558594 646.445312 C 435.558594 644.972656 434.976562 643.621094 433.933594 642.578125 L 401.066406 609.695312 C 400.054688 608.679688 398.644531 608.097656 397.203125 608.097656 L 390.449219 608.097656 C 388.273438 608.097656 386.214844 607.238281 384.652344 605.671875 L 339.144531 560.140625 C 338.128906 559.125 336.71875 558.542969 335.277344 558.542969 L 241.714844 558.542969 C 239.535156 558.542969 237.476562 557.683594 235.914062 556.117188 L 228.488281 548.6875 C 226.953125 547.152344 226.09375 545.066406 226.09375 542.882812 L 226.09375 530.265625 C 226.09375 528.792969 225.511719 527.410156 224.496094 526.398438 L 215.324219 517.214844 L 217.257812 515.28125 L 226.429688 524.460938 C 227.964844 525.996094 228.824219 528.085938 228.824219 530.265625 L 228.824219 542.882812 C 228.824219 544.359375 229.378906 545.738281 230.421875 546.753906 L 237.847656 554.183594 C 238.890625 555.226562 240.269531 555.78125 241.714844 555.78125 L 335.277344 555.78125 C 337.453125 555.78125 339.511719 556.640625 341.074219 558.207031 L 386.582031 603.738281 C 387.628906 604.78125 389.007812 605.335938 390.449219 605.335938 L 397.203125 605.335938 C 399.410156 605.335938 401.46875 606.195312 403 607.761719 L 435.867188 640.644531 C 437.429688 642.179688 438.289062 644.234375 438.289062 646.445312 L 438.289062 664.960938 C 438.289062 666.433594 438.84375 667.816406 439.886719 668.828125 L 529.429688 758.175781 C 530.964844 759.710938 531.824219 761.765625 531.824219 763.976562 L 531.824219 771.007812 " fill-opacity="1" fill-rule="nonzero"/><g clip-path="url(#id2)"><path fill="#f3eff5" d="M 500.800781 798.121094 C 500.800781 798.121094 500.769531 798.121094 500.769531 798.121094 L 500.554688 798.121094 C 498.375 798.121094 496.320312 797.261719 494.785156 795.726562 L 488.648438 789.585938 C 487.113281 788.050781 486.253906 785.929688 486.253906 783.78125 L 486.253906 782.03125 C 486.253906 780.648438 485.730469 779.328125 484.78125 778.316406 L 450.074219 741.195312 C 449.0625 740.089844 447.589844 739.445312 446.085938 739.445312 L 372.988281 739.445312 C 370.8125 739.445312 368.753906 738.585938 367.191406 737.050781 L 353.441406 723.296875 L 355.375 721.332031 L 369.125 735.117188 C 370.167969 736.128906 371.515625 736.714844 372.988281 736.714844 L 446.085938 736.714844 C 448.355469 736.714844 450.535156 737.664062 452.070312 739.324219 L 486.773438 776.441406 C 488.1875 777.949219 488.984375 779.945312 488.984375 782.03125 L 488.984375 783.78125 C 488.984375 785.195312 489.566406 786.605469 490.582031 787.648438 L 496.71875 793.789062 C 497.761719 794.804688 499.109375 795.386719 500.554688 795.386719 L 500.769531 795.386719 C 500.769531 795.386719 500.769531 795.386719 500.800781 795.386719 C 502.242188 795.386719 503.621094 794.804688 504.664062 793.789062 L 522.585938 775.859375 C 523.597656 774.816406 524.183594 773.433594 524.183594 771.992188 L 524.183594 766.003906 C 524.183594 764.53125 523.597656 763.148438 522.585938 762.105469 L 433.410156 672.882812 C 431.847656 671.347656 430.988281 669.289062 430.988281 667.078125 L 430.988281 647.921875 C 430.988281 646.445312 430.433594 645.09375 429.390625 644.050781 L 399.65625 614.300781 C 398.644531 613.285156 397.230469 612.703125 395.789062 612.703125 L 390.050781 612.703125 C 387.871094 612.703125 385.816406 611.84375 384.25 610.277344 L 339.664062 565.667969 C 338.621094 564.652344 337.210938 564.070312 335.765625 564.070312 L 239.65625 564.070312 C 237.476562 564.070312 235.421875 563.210938 233.855469 561.644531 L 226.800781 554.613281 C 225.785156 553.570312 224.375 552.984375 222.933594 552.984375 L 205.441406 552.984375 C 203.261719 552.984375 201.207031 552.15625 199.640625 550.589844 L 197.402344 548.320312 L 199.335938 546.382812 L 201.574219 548.65625 C 202.617188 549.699219 204 550.253906 205.441406 550.253906 L 222.933594 550.253906 C 225.140625 550.253906 227.199219 551.113281 228.734375 552.679688 L 235.789062 559.710938 C 236.832031 560.753906 238.214844 561.304688 239.65625 561.304688 L 335.765625 561.304688 C 337.976562 561.304688 340.03125 562.167969 341.597656 563.730469 L 386.183594 608.34375 C 387.226562 609.386719 388.609375 609.972656 390.050781 609.972656 L 395.789062 609.972656 C 398 609.972656 400.054688 610.832031 401.621094 612.367188 L 431.324219 642.117188 C 432.890625 643.652344 433.75 645.710938 433.75 647.921875 L 433.75 667.078125 C 433.75 668.550781 434.300781 669.933594 435.34375 670.949219 L 524.519531 760.203125 C 526.054688 761.738281 526.914062 763.792969 526.914062 766.003906 L 526.914062 771.992188 C 526.914062 774.171875 526.054688 776.226562 524.519531 777.792969 L 506.597656 795.726562 C 505.0625 797.261719 502.945312 798.121094 500.800781 798.121094 " fill-opacity="1" fill-rule="nonzero"/></g><path fill="#f3eff5" d="M 455.046875 784.792969 L 443.96875 784.792969 C 441.757812 784.792969 439.703125 783.933594 438.167969 782.398438 L 413.160156 757.375 C 411.625 755.8125 410.765625 753.753906 410.765625 751.574219 L 410.765625 737.574219 C 410.765625 736.128906 410.183594 734.75 409.167969 733.703125 L 386.828125 711.382812 C 385.816406 710.371094 384.40625 709.785156 382.992188 709.785156 L 373.574219 709.785156 C 371.394531 709.785156 369.339844 708.925781 367.773438 707.359375 L 361.082031 700.667969 C 359.550781 699.132812 358.691406 697.074219 358.691406 694.863281 L 358.691406 593.359375 C 358.691406 591.886719 358.105469 590.503906 357.09375 589.492188 L 352.121094 584.519531 C 351.109375 583.503906 349.699219 582.921875 348.257812 582.921875 L 317.046875 582.921875 C 315.605469 582.921875 314.226562 583.503906 313.183594 584.519531 L 278.382812 619.367188 C 276.847656 620.902344 274.730469 621.761719 272.582031 621.761719 L 210.199219 621.761719 C 207.988281 621.761719 205.933594 620.933594 204.398438 619.367188 L 202.3125 617.277344 C 200.746094 615.710938 199.917969 613.65625 199.917969 611.476562 L 199.917969 582.796875 C 199.917969 580.617188 200.746094 578.5625 202.3125 576.996094 L 209.183594 570.117188 C 210.230469 569.074219 210.78125 567.691406 210.78125 566.25 L 210.78125 545.863281 C 210.78125 543.652344 211.640625 541.59375 213.207031 540.027344 L 216.519531 536.714844 C 218.085938 535.148438 220.140625 534.320312 222.320312 534.320312 L 246.960938 534.320312 C 248.402344 534.320312 249.785156 533.734375 250.796875 532.691406 L 264.851562 518.660156 C 266.414062 517.09375 268.472656 516.234375 270.679688 516.234375 L 406.007812 516.234375 C 407.449219 516.234375 408.863281 515.652344 409.875 514.636719 L 450.042969 474.476562 C 451.054688 473.433594 451.640625 472.050781 451.640625 470.578125 L 451.640625 430.574219 L 454.371094 430.574219 L 454.371094 470.578125 C 454.371094 472.789062 453.511719 474.847656 451.976562 476.414062 L 411.808594 516.570312 C 410.273438 518.105469 408.15625 518.96875 406.007812 518.96875 L 270.679688 518.96875 C 269.207031 518.96875 267.828125 519.550781 266.816406 520.59375 L 252.730469 534.625 C 251.195312 536.191406 249.140625 537.050781 246.960938 537.050781 L 222.320312 537.050781 C 220.847656 537.050781 219.496094 537.605469 218.453125 538.648438 L 215.136719 541.964844 C 214.09375 543.007812 213.511719 544.390625 213.511719 545.863281 L 213.511719 566.25 C 213.511719 568.429688 212.683594 570.488281 211.117188 572.050781 L 204.246094 578.929688 C 203.203125 579.972656 202.617188 581.324219 202.617188 582.796875 L 202.617188 611.476562 C 202.617188 612.917969 203.203125 614.300781 204.246094 615.34375 L 206.332031 617.433594 C 207.375 618.476562 208.757812 619.027344 210.199219 619.027344 L 272.582031 619.027344 C 273.996094 619.027344 275.40625 618.445312 276.449219 617.433594 L 311.25 582.582031 C 312.8125 581.046875 314.871094 580.1875 317.046875 580.1875 L 348.257812 580.1875 C 350.433594 580.1875 352.523438 581.046875 354.054688 582.582031 L 359.027344 587.558594 C 360.5625 589.09375 361.421875 591.148438 361.421875 593.359375 L 361.421875 694.863281 C 361.421875 696.308594 361.972656 697.691406 363.015625 698.734375 L 369.707031 705.425781 C 370.75 706.472656 372.101562 707.023438 373.574219 707.023438 L 382.992188 707.023438 C 385.140625 707.023438 387.257812 707.914062 388.761719 709.449219 L 411.101562 731.769531 C 412.636719 733.335938 413.496094 735.394531 413.496094 737.574219 L 413.496094 751.574219 C 413.496094 753.015625 414.078125 754.398438 415.089844 755.441406 L 440.101562 780.433594 C 441.113281 781.480469 442.496094 782.0625 443.96875 782.0625 L 455.046875 782.0625 L 455.046875 784.792969 " fill-opacity="1" fill-rule="nonzero"/><path fill="#f3eff5" d="M 495.582031 510.585938 L 417.210938 510.585938 L 417.210938 507.851562 L 495.582031 507.851562 C 496.992188 507.851562 498.40625 507.269531 499.449219 506.253906 L 534.738281 470.917969 C 535.78125 469.902344 536.332031 468.523438 536.332031 467.078125 L 536.332031 452.648438 C 536.332031 450.46875 537.191406 448.410156 538.726562 446.84375 L 589.574219 395.96875 C 591.140625 394.433594 593.195312 393.574219 595.375 393.574219 L 609.183594 393.574219 C 610.625 393.574219 612.039062 392.992188 613.050781 391.949219 L 641.957031 363.027344 L 643.890625 364.960938 L 614.984375 393.914062 C 613.449219 395.417969 611.332031 396.308594 609.183594 396.308594 L 595.375 396.308594 C 593.933594 396.308594 592.550781 396.859375 591.507812 397.90625 L 540.660156 448.78125 C 539.648438 449.824219 539.066406 451.175781 539.066406 452.648438 L 539.066406 467.078125 C 539.066406 469.257812 538.207031 471.316406 536.671875 472.851562 L 501.382812 508.191406 C 499.847656 509.695312 497.730469 510.585938 495.582031 510.585938 " fill-opacity="1" fill-rule="nonzero"/><path fill="#f3eff5" d="M 683.84375 615.097656 L 673.839844 615.097656 C 671.628906 615.097656 669.574219 614.238281 668.039062 612.703125 L 629.097656 573.773438 C 627.566406 572.207031 626.707031 570.148438 626.707031 567.9375 L 626.707031 470.609375 C 626.707031 469.167969 626.121094 467.785156 625.109375 466.742188 L 611.851562 453.476562 C 610.839844 452.464844 609.429688 451.878906 607.988281 451.878906 L 597.644531 451.878906 L 597.644531 449.148438 L 607.988281 449.148438 C 610.164062 449.148438 612.222656 450.007812 613.785156 451.542969 L 627.042969 464.804688 C 628.578125 466.339844 629.4375 468.429688 629.4375 470.609375 L 629.4375 567.9375 C 629.4375 569.410156 630.019531 570.792969 631.03125 571.835938 L 669.972656 610.769531 C 670.984375 611.78125 672.367188 612.367188 673.839844 612.367188 L 683.84375 612.367188 C 685.316406 612.367188 686.699219 611.78125 687.710938 610.769531 L 700.351562 598.148438 C 701.367188 597.105469 701.949219 595.726562 701.949219 594.28125 L 701.949219 564.777344 L 704.679688 564.777344 L 704.679688 594.28125 C 704.679688 596.460938 703.820312 598.519531 702.285156 600.085938 L 689.644531 612.703125 C 688.109375 614.238281 686.054688 615.097656 683.84375 615.097656 " fill-opacity="1" fill-rule="nonzero"/><path fill="#f3eff5" d="M 654.382812 678.070312 L 652.453125 676.136719 L 668.039062 660.570312 C 669.054688 659.527344 669.636719 658.144531 669.636719 656.699219 L 669.636719 613.746094 L 672.367188 613.746094 L 672.367188 656.699219 C 672.367188 658.882812 671.507812 660.9375 669.972656 662.503906 L 654.382812 678.070312 " fill-opacity="1" fill-rule="nonzero"/><path fill="#f3eff5" d="M 356.144531 604.199219 L 333.617188 604.199219 C 331.441406 604.199219 329.382812 603.339844 327.820312 601.804688 L 326.992188 600.945312 C 325.425781 599.410156 324.597656 597.351562 324.597656 595.140625 L 324.597656 584.273438 C 324.597656 582.859375 324.042969 581.539062 323.09375 580.496094 C 319.808594 577.058594 318.582031 575.921875 318.152344 575.550781 L 278.597656 575.550781 C 277.15625 575.550781 275.773438 576.136719 274.730469 577.148438 L 268.71875 583.199219 C 267.152344 584.734375 265.097656 585.59375 262.886719 585.59375 L 204.089844 585.59375 C 201.914062 585.59375 199.855469 584.734375 198.292969 583.199219 L 178.558594 563.457031 C 176.996094 561.890625 176.136719 559.832031 176.136719 557.621094 L 176.136719 512.058594 C 176.136719 510.585938 175.582031 509.203125 174.539062 508.191406 L 165.304688 498.917969 C 164.261719 497.90625 162.878906 497.320312 161.4375 497.320312 L 146.523438 497.320312 C 144.34375 497.320312 142.289062 496.460938 140.722656 494.925781 L 129.125 483.320312 C 127.589844 481.785156 126.730469 479.667969 126.730469 477.488281 L 126.730469 217.09375 C 126.730469 215.621094 126.148438 214.238281 125.105469 213.226562 L 102.703125 190.78125 C 101.136719 189.214844 100.277344 187.15625 100.277344 184.976562 L 100.277344 153.96875 C 100.277344 151.757812 101.136719 149.699219 102.703125 148.164062 L 112.828125 138.003906 L 114.761719 139.9375 L 104.636719 150.097656 C 103.59375 151.113281 103.011719 152.496094 103.011719 153.96875 L 103.011719 184.976562 C 103.011719 186.421875 103.59375 187.804688 104.636719 188.847656 L 127.039062 211.289062 C 128.601562 212.824219 129.429688 214.882812 129.429688 217.09375 L 129.429688 477.488281 C 129.429688 478.929688 130.015625 480.34375 131.058594 481.355469 L 142.65625 492.992188 C 143.699219 494.003906 145.082031 494.589844 146.523438 494.589844 L 161.4375 494.589844 C 163.617188 494.589844 165.671875 495.449219 167.238281 497.015625 L 176.472656 506.253906 C 178.039062 507.789062 178.898438 509.878906 178.898438 512.058594 L 178.898438 557.621094 C 178.898438 559.066406 179.449219 560.476562 180.492188 561.519531 L 200.226562 581.261719 C 201.269531 582.277344 202.648438 582.859375 204.089844 582.859375 L 262.886719 582.859375 C 264.359375 582.859375 265.742188 582.277344 266.785156 581.261719 L 272.796875 575.214844 C 274.363281 573.679688 276.417969 572.820312 278.597656 572.820312 L 318.582031 572.820312 C 319.289062 572.820312 319.535156 572.820312 325.058594 578.621094 C 326.53125 580.15625 327.296875 582.152344 327.296875 584.273438 L 327.296875 595.140625 C 327.296875 596.585938 327.878906 597.996094 328.925781 599.011719 L 329.753906 599.871094 C 330.796875 600.882812 332.175781 601.464844 333.617188 601.464844 L 356.144531 601.464844 C 357.554688 601.464844 358.964844 600.882812 360.007812 599.871094 L 371.484375 588.355469 C 373.019531 586.820312 375.105469 585.960938 377.285156 585.960938 L 396.800781 585.960938 C 398.246094 585.960938 399.65625 585.378906 400.667969 584.332031 L 450.535156 534.441406 C 452.097656 532.90625 454.15625 532.046875 456.335938 532.046875 L 475.757812 532.046875 C 477.199219 532.046875 478.613281 531.464844 479.625 530.449219 L 496.71875 513.347656 C 498.253906 511.78125 500.339844 510.921875 502.515625 510.921875 L 546.980469 510.921875 C 548.425781 510.921875 549.835938 510.339844 550.847656 509.324219 L 576.472656 483.6875 C 577.515625 482.644531 578.066406 481.292969 578.066406 479.820312 L 578.066406 471.898438 C 578.066406 469.71875 578.925781 467.632812 580.492188 466.097656 L 630.542969 416.019531 L 632.476562 417.953125 L 582.425781 468.03125 C 581.382812 469.074219 580.796875 470.425781 580.796875 471.898438 L 580.796875 479.820312 C 580.796875 482.03125 579.96875 484.089844 578.40625 485.625 L 552.78125 511.261719 C 551.246094 512.796875 549.128906 513.65625 546.980469 513.65625 L 502.515625 513.65625 C 501.042969 513.65625 499.664062 514.238281 498.652344 515.28125 L 481.558594 532.382812 C 480.023438 533.886719 477.90625 534.777344 475.757812 534.777344 L 456.335938 534.777344 C 454.890625 534.777344 453.511719 535.363281 452.46875 536.375 L 402.601562 586.296875 C 401.066406 587.804688 398.949219 588.695312 396.800781 588.695312 L 377.285156 588.695312 C 375.8125 588.695312 374.460938 589.246094 373.417969 590.289062 L 361.941406 601.804688 C 360.410156 603.339844 358.292969 604.199219 356.144531 604.199219 " fill-opacity="1" fill-rule="nonzero"/><path fill="#f3eff5" d="M 292.714844 411.566406 L 290.75 409.632812 L 328.402344 371.960938 C 329.96875 370.425781 332.023438 369.566406 334.203125 369.566406 L 591.203125 369.566406 C 593.347656 369.566406 595.464844 370.457031 597 371.960938 L 603.660156 378.652344 C 604.703125 379.699219 606.085938 380.25 607.527344 380.25 L 610.535156 380.25 C 611.976562 380.25 613.386719 379.667969 614.398438 378.652344 L 635.664062 357.375 L 637.597656 359.3125 L 616.332031 380.585938 C 614.800781 382.121094 612.683594 382.984375 610.535156 382.984375 L 607.527344 382.984375 C 605.347656 382.984375 603.292969 382.152344 601.726562 380.585938 L 595.066406 373.925781 C 594.054688 372.882812 592.644531 372.296875 591.203125 372.296875 L 334.203125 372.296875 C 332.730469 372.296875 331.378906 372.882812 330.335938 373.925781 L 292.714844 411.566406 " fill-opacity="1" fill-rule="nonzero"/><path fill="#f3eff5" d="M 129.03125 428.394531 L 127.128906 426.425781 L 142.503906 411.351562 L 144.4375 413.285156 L 129.03125 428.394531 " fill-opacity="1" fill-rule="nonzero"/><path fill="#f3eff5" d="M 489.015625 666.773438 L 429.453125 607.207031 L 431.386719 605.273438 L 490.949219 664.835938 L 489.015625 666.773438 " fill-opacity="1" fill-rule="nonzero"/><path fill="#f3eff5" d="M 493.1875 662.871094 L 443.570312 613.226562 L 445.503906 611.292969 L 495.121094 660.9375 L 493.1875 662.871094 " fill-opacity="1" fill-rule="nonzero"/><path fill="#f3eff5" d="M 340.15625 608.464844 L 330.796875 608.464844 L 330.796875 605.765625 L 340.15625 605.765625 C 341.566406 605.765625 342.976562 605.179688 344.023438 604.136719 L 388.792969 559.339844 C 390.941406 557.191406 390.941406 553.722656 388.792969 551.605469 L 282.066406 444.820312 C 280.53125 443.285156 279.671875 441.226562 279.671875 439.015625 L 279.671875 432.753906 C 279.671875 430.574219 280.53125 428.515625 282.066406 426.949219 L 294.035156 414.976562 L 295.96875 416.910156 L 284 428.882812 C 282.988281 429.929688 282.402344 431.308594 282.402344 432.753906 L 282.402344 439.015625 C 282.402344 440.488281 282.988281 441.871094 284 442.882812 L 390.726562 549.671875 C 393.917969 552.863281 393.917969 558.082031 390.726562 561.277344 L 345.953125 606.070312 C 344.421875 607.605469 342.304688 608.464844 340.15625 608.464844 " fill-opacity="1" fill-rule="nonzero"/><path fill="#f3eff5" d="M 284.917969 436.683594 L 158.554688 436.683594 L 158.554688 433.949219 L 284.917969 433.949219 C 285.289062 433.949219 285.625 433.828125 285.871094 433.550781 L 288.695312 430.726562 C 288.941406 430.480469 289.09375 430.113281 289.09375 429.773438 L 289.09375 423.203125 C 289.09375 422.46875 288.480469 421.851562 287.742188 421.851562 C 285.472656 421.851562 283.628906 420.042969 283.628906 417.769531 L 283.628906 397.167969 C 283.628906 396.0625 284.058594 395.050781 284.859375 394.25 L 290.351562 388.753906 C 291.117188 387.988281 292.160156 387.558594 293.265625 387.558594 L 351.847656 387.558594 C 352.214844 387.558594 352.550781 387.402344 352.796875 387.160156 L 460.601562 279.296875 L 462.53125 281.234375 L 354.730469 389.09375 C 353.964844 389.859375 352.953125 390.289062 351.847656 390.289062 L 293.265625 390.289062 C 292.898438 390.289062 292.53125 390.445312 292.285156 390.6875 L 286.792969 396.183594 C 286.515625 396.460938 286.394531 396.800781 286.394531 397.167969 L 286.394531 417.769531 C 286.394531 418.507812 286.976562 419.121094 287.742188 419.121094 C 289.984375 419.121094 291.855469 420.960938 291.855469 423.203125 L 291.855469 429.773438 C 291.855469 430.847656 291.394531 431.894531 290.628906 432.660156 L 287.804688 435.484375 C 287.035156 436.285156 285.992188 436.683594 284.917969 436.683594 " fill-opacity="1" fill-rule="nonzero"/><path fill="#f3eff5" d="M 564.78125 588.507812 L 562.019531 588.507812 L 562.019531 569.167969 C 562.019531 567.722656 561.433594 566.3125 560.421875 565.296875 L 496.871094 501.679688 C 495.859375 500.667969 494.445312 500.085938 493.003906 500.085938 L 489.90625 500.085938 C 487.726562 500.085938 485.671875 499.226562 484.136719 497.691406 L 465.203125 478.777344 C 464.191406 477.734375 462.808594 477.148438 461.335938 477.148438 L 412.453125 477.148438 C 411.011719 477.148438 409.628906 477.734375 408.585938 478.777344 L 396.464844 490.875 C 394.929688 492.4375 392.875 493.300781 390.664062 493.300781 L 379.003906 493.300781 C 376.824219 493.300781 374.738281 492.410156 373.203125 490.875 L 367.621094 485.316406 C 366.605469 484.304688 365.195312 483.6875 363.753906 483.6875 L 130.074219 483.6875 L 130.074219 480.957031 L 363.753906 480.957031 C 365.902344 480.957031 368.019531 481.847656 369.554688 483.382812 L 375.136719 488.9375 C 376.152344 489.984375 377.5625 490.566406 379.003906 490.566406 L 390.664062 490.566406 C 392.109375 490.566406 393.519531 489.984375 394.53125 488.9375 L 406.652344 476.84375 C 408.21875 475.277344 410.273438 474.449219 412.453125 474.449219 L 461.335938 474.449219 C 463.546875 474.449219 465.601562 475.277344 467.136719 476.84375 L 486.070312 495.753906 C 487.082031 496.769531 488.464844 497.351562 489.90625 497.351562 L 493.003906 497.351562 C 495.183594 497.351562 497.238281 498.210938 498.804688 499.746094 L 562.355469 563.363281 C 563.890625 564.898438 564.78125 566.988281 564.78125 569.167969 L 564.78125 588.507812 " fill-opacity="1" fill-rule="nonzero"/><path fill="#f3eff5" d="M 284.765625 143.46875 L 282.035156 143.46875 L 282.035156 92.101562 C 282.035156 90.660156 281.453125 89.277344 280.410156 88.234375 L 254.078125 61.890625 C 252.515625 60.355469 251.65625 58.265625 251.65625 56.085938 L 251.65625 18.964844 L 254.417969 18.964844 L 254.417969 56.085938 C 254.417969 57.558594 254.96875 58.910156 256.011719 59.957031 L 282.34375 86.296875 C 283.90625 87.863281 284.765625 89.921875 284.765625 92.101562 L 284.765625 143.46875 " fill-opacity="1" fill-rule="nonzero"/><path fill="#f3eff5" d="M 670.25 522.007812 L 671.015625 522.742188 C 671.660156 523.386719 672.550781 523.789062 673.472656 523.789062 C 675.222656 523.789062 676.785156 524.433594 677.953125 525.628906 C 679.148438 526.796875 679.792969 528.363281 679.792969 530.019531 L 679.792969 532.109375 C 679.792969 533.058594 680.160156 533.949219 680.804688 534.59375 L 681.726562 535.515625 C 682.371094 536.160156 683.292969 536.527344 684.210938 536.527344 L 695.84375 536.527344 C 696.761719 536.527344 697.652344 536.160156 698.296875 535.515625 L 698.632812 535.179688 C 699.308594 534.535156 699.679688 533.613281 699.679688 532.691406 L 699.679688 525.96875 C 699.679688 525.046875 699.308594 524.125 698.632812 523.480469 L 698.265625 523.082031 C 697.5625 522.40625 696.671875 522.007812 695.8125 522.007812 Z M 695.84375 539.292969 L 684.210938 539.292969 C 682.554688 539.292969 680.960938 538.617188 679.792969 537.449219 L 678.871094 536.527344 C 677.707031 535.363281 677.0625 533.796875 677.0625 532.109375 L 677.0625 530.019531 C 677.0625 529.097656 676.695312 528.207031 676.019531 527.5625 C 675.34375 526.886719 674.484375 526.519531 673.53125 526.519531 C 671.816406 526.519531 670.25 525.875 669.054688 524.675781 L 668.222656 523.816406 C 667.027344 522.652344 666.382812 521.085938 666.382812 519.398438 L 666.382812 517.492188 C 666.382812 516.570312 666.015625 515.679688 665.371094 515.007812 L 664.386719 514.054688 C 663.714844 513.378906 662.855469 513.011719 661.902344 513.011719 L 628.054688 513.011719 L 628.054688 510.277344 L 661.902344 510.277344 C 663.558594 510.277344 665.125 510.953125 666.320312 512.121094 L 667.304688 513.070312 C 668.46875 514.269531 669.113281 515.835938 669.113281 517.492188 L 669.113281 519.273438 L 695.8125 519.273438 C 697.40625 519.273438 699.003906 519.949219 700.199219 521.148438 L 700.566406 521.546875 C 701.765625 522.710938 702.410156 524.277344 702.410156 525.96875 L 702.410156 532.691406 C 702.410156 534.347656 701.765625 535.914062 700.566406 537.113281 L 700.230469 537.449219 C 699.0625 538.617188 697.5 539.292969 695.84375 539.292969 " fill-opacity="1" fill-rule="nonzero"/><path fill="#f3eff5" d="M 686.605469 526.152344 C 685.070312 526.152344 683.84375 527.378906 683.84375 528.882812 C 683.84375 530.386719 685.070312 531.617188 686.605469 531.617188 L 693.203125 531.617188 C 694.707031 531.617188 695.933594 530.386719 695.933594 528.882812 C 695.933594 527.378906 694.707031 526.152344 693.203125 526.152344 Z M 693.203125 534.347656 L 686.605469 534.347656 C 683.566406 534.347656 681.113281 531.894531 681.113281 528.882812 C 681.113281 525.875 683.566406 523.417969 686.605469 523.417969 L 693.203125 523.417969 C 696.210938 523.417969 698.664062 525.875 698.664062 528.882812 C 698.664062 531.894531 696.210938 534.347656 693.203125 534.347656 " fill-opacity="1" fill-rule="nonzero"/><path fill="#f3eff5" d="M 119.273438 138.984375 C 119.273438 141.992188 116.820312 144.449219 113.78125 144.449219 C 110.773438 144.449219 108.320312 141.992188 108.320312 138.984375 C 108.320312 135.945312 110.773438 133.488281 113.78125 133.488281 C 116.820312 133.488281 119.273438 135.945312 119.273438 138.984375 " fill-opacity="1" fill-rule="nonzero"/><path fill="#f3eff5" d="M 164.046875 233.613281 C 164.046875 236.652344 161.589844 239.109375 158.554688 239.109375 C 155.546875 239.109375 153.089844 236.652344 153.089844 233.613281 C 153.089844 230.601562 155.546875 228.148438 158.554688 228.148438 C 161.589844 228.148438 164.046875 230.601562 164.046875 233.613281 " fill-opacity="1" fill-rule="nonzero"/><path fill="#f3eff5" d="M 158.125 61.550781 C 158.125 64.589844 155.667969 67.046875 152.660156 67.046875 C 149.621094 67.046875 147.167969 64.589844 147.167969 61.550781 C 147.167969 58.542969 149.621094 56.085938 152.660156 56.085938 C 155.667969 56.085938 158.125 58.542969 158.125 61.550781 " fill-opacity="1" fill-rule="nonzero"/><path fill="#f3eff5" d="M 208.816406 66.1875 C 208.816406 69.226562 206.363281 71.652344 203.355469 71.652344 C 200.316406 71.652344 197.863281 69.226562 197.863281 66.1875 C 197.863281 63.148438 200.316406 60.722656 203.355469 60.722656 C 206.363281 60.722656 208.816406 63.148438 208.816406 66.1875 " fill-opacity="1" fill-rule="nonzero"/><path fill="#f3eff5" d="M 233.613281 77.886719 C 233.613281 80.925781 231.15625 83.382812 228.148438 83.382812 C 225.113281 83.382812 222.6875 80.925781 222.6875 77.886719 C 222.6875 74.875 225.113281 72.421875 228.148438 72.421875 C 231.15625 72.421875 233.613281 74.875 233.613281 77.886719 " fill-opacity="1" fill-rule="nonzero"/><path fill="#f3eff5" d="M 357.953125 88.847656 C 357.953125 91.855469 355.527344 94.3125 352.492188 94.3125 C 349.453125 94.3125 347.027344 91.855469 347.027344 88.847656 C 347.027344 85.835938 349.453125 83.382812 352.492188 83.382812 C 355.527344 83.382812 357.953125 85.835938 357.953125 88.847656 " fill-opacity="1" fill-rule="nonzero"/><path fill="#f3eff5" d="M 305.203125 307.515625 C 305.203125 310.554688 302.75 313.011719 299.710938 313.011719 C 296.703125 313.011719 294.25 310.554688 294.25 307.515625 C 294.25 304.503906 296.703125 302.050781 299.710938 302.050781 C 302.75 302.050781 305.203125 304.503906 305.203125 307.515625 " fill-opacity="1" fill-rule="nonzero"/><path fill="#f3eff5" d="M 299.710938 415.957031 C 299.710938 418.964844 297.285156 421.421875 294.25 421.421875 C 291.242188 421.421875 288.785156 418.964844 288.785156 415.957031 C 288.785156 412.917969 291.242188 410.460938 294.25 410.460938 C 297.285156 410.460938 299.710938 412.917969 299.710938 415.957031 " fill-opacity="1" fill-rule="nonzero"/><path fill="#f3eff5" d="M 467.042969 280.28125 C 467.042969 283.289062 464.589844 285.746094 461.582031 285.746094 C 458.542969 285.746094 456.089844 283.289062 456.089844 280.28125 C 456.089844 277.242188 458.542969 274.816406 461.582031 274.816406 C 464.589844 274.816406 467.042969 277.242188 467.042969 280.28125 " fill-opacity="1" fill-rule="nonzero"/><path fill="#f3eff5" d="M 648.402344 321.761719 C 648.402344 324.800781 645.945312 327.257812 642.9375 327.257812 C 639.902344 327.257812 637.476562 324.800781 637.476562 321.761719 C 637.476562 318.75 639.902344 316.296875 642.9375 316.296875 C 645.945312 316.296875 648.402344 318.75 648.402344 321.761719 " fill-opacity="1" fill-rule="nonzero"/><path fill="#f3eff5" d="M 648.402344 364.007812 C 648.402344 367.015625 645.945312 369.472656 642.9375 369.472656 C 639.902344 369.472656 637.476562 367.015625 637.476562 364.007812 C 637.476562 360.96875 639.902344 358.511719 642.9375 358.511719 C 645.945312 358.511719 648.402344 360.96875 648.402344 364.007812 " fill-opacity="1" fill-rule="nonzero"/><path fill="#f3eff5" d="M 458.421875 430.574219 C 458.421875 433.582031 455.964844 436.039062 452.957031 436.039062 C 449.953125 436.039062 447.496094 433.582031 447.496094 430.574219 C 447.496094 427.53125 449.953125 425.078125 452.957031 425.078125 C 455.964844 425.078125 458.421875 427.53125 458.421875 430.574219 " fill-opacity="1" fill-rule="nonzero"/><path fill="#f3eff5" d="M 636.984375 416.972656 C 636.984375 420.011719 634.53125 422.4375 631.523438 422.4375 C 628.484375 422.4375 626.03125 420.011719 626.03125 416.972656 C 626.03125 413.929688 628.484375 411.507812 631.523438 411.507812 C 634.53125 411.507812 636.984375 413.929688 636.984375 416.972656 " fill-opacity="1" fill-rule="nonzero"/><path fill="#f3eff5" d="M 708.792969 564.714844 C 708.792969 567.753906 706.335938 570.210938 703.300781 570.210938 C 700.292969 570.210938 697.835938 567.753906 697.835938 564.714844 C 697.835938 561.707031 700.292969 559.25 703.300781 559.25 C 706.335938 559.25 708.792969 561.707031 708.792969 564.714844 " fill-opacity="1" fill-rule="nonzero"/><path fill="#f3eff5" d="M 495.460938 599.46875 C 495.460938 602.480469 493.003906 604.9375 489.996094 604.9375 C 486.960938 604.9375 484.503906 602.480469 484.503906 599.46875 C 484.503906 596.429688 486.960938 593.972656 489.996094 593.972656 C 493.003906 593.972656 495.460938 596.429688 495.460938 599.46875 " fill-opacity="1" fill-rule="nonzero"/><path fill="#f3eff5" d="M 189.546875 622.160156 C 189.546875 625.167969 187.089844 627.625 184.054688 627.625 C 181.046875 627.625 178.589844 625.167969 178.589844 622.160156 C 178.589844 619.121094 181.046875 616.695312 184.054688 616.695312 C 187.089844 616.695312 189.546875 619.121094 189.546875 622.160156 " fill-opacity="1" fill-rule="nonzero"/><path fill="#f3eff5" d="M 497.761719 664.316406 C 497.761719 667.324219 495.304688 669.78125 492.300781 669.78125 C 489.261719 669.78125 486.835938 667.324219 486.835938 664.316406 C 486.835938 661.304688 489.261719 658.851562 492.300781 658.851562 C 495.304688 658.851562 497.761719 661.304688 497.761719 664.316406 " fill-opacity="1" fill-rule="nonzero"/><path fill="#f3eff5" d="M 565.671875 520.101562 C 565.671875 523.140625 563.214844 525.566406 560.175781 525.566406 C 557.171875 525.566406 554.714844 523.140625 554.714844 520.101562 C 554.714844 517.0625 557.171875 514.636719 560.175781 514.636719 C 563.214844 514.636719 565.671875 517.0625 565.671875 520.101562 " fill-opacity="1" fill-rule="nonzero"/><path fill="#f3eff5" d="M 569.535156 588.507812 C 569.535156 591.550781 567.082031 593.972656 564.042969 593.972656 C 561.035156 593.972656 558.582031 591.550781 558.582031 588.507812 C 558.582031 585.5 561.035156 583.042969 564.042969 583.042969 C 567.082031 583.042969 569.535156 585.5 569.535156 588.507812 " fill-opacity="1" fill-rule="nonzero"/><path fill="#f3eff5" d="M 658.894531 677.089844 C 658.894531 680.128906 656.472656 682.582031 653.433594 682.582031 C 650.394531 682.582031 647.972656 680.128906 647.972656 677.089844 C 647.972656 674.078125 650.394531 671.621094 653.433594 671.621094 C 656.472656 671.621094 658.894531 674.078125 658.894531 677.089844 " fill-opacity="1" fill-rule="nonzero"/><path fill="#f3eff5" d="M 535.933594 773.371094 C 535.933594 776.382812 533.480469 778.839844 530.472656 778.839844 C 527.433594 778.839844 524.980469 776.382812 524.980469 773.371094 C 524.980469 770.332031 527.433594 767.878906 530.472656 767.878906 C 533.480469 767.878906 535.933594 770.332031 535.933594 773.371094 " fill-opacity="1" fill-rule="nonzero"/><path fill="#f3eff5" d="M 460.539062 783.414062 C 460.539062 786.453125 458.082031 788.878906 455.046875 788.878906 C 452.039062 788.878906 449.582031 786.453125 449.582031 783.414062 C 449.582031 780.402344 452.039062 777.949219 455.046875 777.949219 C 458.082031 777.949219 460.539062 780.402344 460.539062 783.414062 " fill-opacity="1" fill-rule="nonzero"/><path fill="#f3eff5" d="M 360.253906 783.414062 C 360.253906 786.453125 357.800781 788.878906 354.761719 788.878906 C 351.753906 788.878906 349.300781 786.453125 349.300781 783.414062 C 349.300781 780.402344 351.753906 777.949219 354.761719 777.949219 C 357.800781 777.949219 360.253906 780.402344 360.253906 783.414062 " fill-opacity="1" fill-rule="nonzero"/><path fill="#f3eff5" d="M 642.109375 357.804688 C 642.109375 360.816406 639.65625 363.269531 636.617188 363.269531 C 633.609375 363.269531 631.15625 360.816406 631.15625 357.804688 C 631.15625 354.765625 633.609375 352.308594 636.617188 352.308594 C 639.65625 352.308594 642.109375 354.765625 642.109375 357.804688 " fill-opacity="1" fill-rule="nonzero"/><path fill="#f3eff5" d="M 509.390625 364.007812 C 509.390625 367.015625 506.9375 369.472656 503.929688 369.472656 C 500.890625 369.472656 498.4375 367.015625 498.4375 364.007812 C 498.4375 360.96875 500.890625 358.511719 503.929688 358.511719 C 506.9375 358.511719 509.390625 360.96875 509.390625 364.007812 " fill-opacity="1" fill-rule="nonzero"/><g clip-path="url(#id3)"><path fill="#f3eff5" d="M 256.441406 17.585938 C 256.441406 20.625 254.019531 23.082031 250.980469 23.082031 C 247.972656 23.082031 245.519531 20.625 245.519531 17.585938 C 245.519531 14.574219 247.972656 12.121094 250.980469 12.121094 C 254.019531 12.121094 256.441406 14.574219 256.441406 17.585938 " fill-opacity="1" fill-rule="nonzero"/></g><path fill="#f3eff5" d="M 300.601562 32.046875 C 300.601562 35.085938 298.144531 37.542969 295.109375 37.542969 C 292.101562 37.542969 289.644531 35.085938 289.644531 32.046875 C 289.644531 29.035156 292.101562 26.582031 295.109375 26.582031 C 298.144531 26.582031 300.601562 29.035156 300.601562 32.046875 " fill-opacity="1" fill-rule="nonzero"/></svg>