<svg xmlns="http://www.w3.org/2000/svg" xmlns:xlink="http://www.w3.org/1999/xlink" width="1080" zoomAndPan="magnify" viewBox="0 0 810 809.999993" height="1080" preserveAspectRatio="xMidYMid meet" version="1.0"><defs><filter x="0%" y="0%" width="100%" height="100%" id="id1"><feColorMatrix values="0 0 0 0 1 0 0 0 0 1 0 0 0 0 1 0 0 0 1 0" color-interpolation-filters="sRGB"/></filter><mask id="id2"><g filter="url(#id1)"><rect x="-81" width="972" fill="#000000" y="-80.999999" height="971.999992" fill-opacity="0.498"/></g></mask><clipPath id="id3"><path d="M 76 308 L 545 308 L 545 786.121094 L 76 786.121094 Z M 76 308 " clip-rule="nonzero"/></clipPath><clipPath id="id4"><path d="M 99 534 L 429 534 L 429 786.121094 L 99 786.121094 Z M 99 534 " clip-rule="nonzero"/></clipPath><clipPath id="id5"><path d="M 147 0.121094 L 159 0.121094 L 159 12 L 147 12 Z M 147 0.121094 " clip-rule="nonzero"/></clipPath><clipPath id="id6"><rect x="0" width="614" y="0" height="787"/></clipPath></defs><g mask="url(#id2)"><g transform="matrix(1, 0, 0, 1, 98, 12)"><g clip-path="url(#id6)"><path fill="#0d0a0b" d="M 85.101562 611.113281 L 71.570312 597.570312 C 70.003906 596.035156 69.144531 593.949219 69.144531 591.769531 L 69.144531 520.015625 C 69.144531 518.542969 68.59375 517.160156 67.550781 516.148438 L 61.996094 510.589844 C 60.460938 509.023438 59.601562 506.96875 59.601562 504.785156 L 59.601562 425.632812 C 59.601562 424.160156 59.019531 422.808594 58.003906 421.765625 L 49.84375 413.566406 C 48.277344 412.03125 47.417969 409.976562 47.417969 407.765625 L 47.417969 398.554688 C 47.417969 397.109375 46.867188 395.730469 45.824219 394.683594 L 22.011719 370.859375 C 20.445312 369.292969 19.585938 367.238281 19.585938 365.058594 L 19.585938 282.035156 C 19.585938 280.59375 19.035156 279.210938 17.992188 278.167969 L 16.394531 276.570312 C 14.828125 275.003906 13.972656 272.949219 13.972656 270.738281 L 13.972656 148.90625 C 13.972656 146.726562 14.828125 144.671875 16.394531 143.105469 L 23.421875 136.042969 C 24.464844 135.027344 25.019531 133.648438 25.019531 132.171875 L 25.019531 119.1875 C 25.019531 116.976562 25.90625 114.917969 27.441406 113.382812 L 51.714844 89.097656 C 52.757812 88.054688 53.3125 86.703125 53.3125 85.230469 L 53.3125 49.550781 L 56.042969 49.550781 L 56.042969 85.230469 C 56.042969 87.410156 55.183594 89.464844 53.648438 91.03125 L 29.375 115.316406 C 28.332031 116.363281 27.78125 117.710938 27.78125 119.1875 L 27.78125 132.171875 C 27.78125 134.382812 26.921875 136.441406 25.386719 137.976562 L 18.296875 145.039062 C 17.285156 146.082031 16.703125 147.464844 16.703125 148.90625 L 16.703125 270.738281 C 16.703125 272.210938 17.285156 273.59375 18.296875 274.636719 L 19.925781 276.234375 C 21.488281 277.796875 22.347656 279.855469 22.347656 282.035156 L 22.347656 365.058594 C 22.347656 366.53125 22.902344 367.882812 23.945312 368.925781 L 47.757812 392.75 C 49.289062 394.316406 50.148438 396.375 50.148438 398.554688 L 50.148438 407.765625 C 50.148438 409.238281 50.734375 410.621094 51.777344 411.632812 L 59.9375 419.832031 C 61.472656 421.367188 62.332031 423.421875 62.332031 425.632812 L 62.332031 504.785156 C 62.332031 506.230469 62.886719 507.613281 63.929688 508.65625 L 69.484375 514.210938 C 71.046875 515.746094 71.875 517.804688 71.875 520.015625 L 71.875 591.769531 C 71.875 593.242188 72.460938 594.625 73.503906 595.636719 L 87.035156 609.175781 L 85.101562 611.113281 " fill-opacity="1" fill-rule="nonzero"/><path fill="#0d0a0b" d="M 315.558594 604.847656 L 291.558594 604.847656 C 289.382812 604.847656 287.296875 604.019531 285.761719 602.453125 L 264.984375 581.667969 C 263.972656 580.65625 262.5625 580.070312 261.121094 580.070312 L 162.402344 580.070312 C 160.957031 580.070312 159.578125 580.625 158.535156 581.667969 L 145.09375 595.117188 C 143.558594 596.679688 141.503906 597.511719 139.292969 597.511719 L 119.5625 597.511719 C 117.382812 597.511719 115.296875 596.679688 113.761719 595.117188 L 111.613281 592.9375 C 110.050781 591.402344 109.222656 589.34375 109.222656 587.132812 L 109.222656 570.523438 C 109.222656 569.046875 108.636719 567.667969 107.59375 566.652344 L 93.171875 552.191406 C 92.160156 551.148438 90.75 550.566406 89.273438 550.566406 L 78.78125 550.566406 C 76.570312 550.566406 74.515625 549.734375 72.980469 548.171875 L 69.542969 544.761719 L 71.476562 542.828125 L 74.914062 546.234375 C 75.925781 547.28125 77.308594 547.832031 78.78125 547.832031 L 89.273438 547.832031 C 91.484375 547.832031 93.539062 548.691406 95.105469 550.257812 L 109.527344 564.71875 C 111.09375 566.253906 111.953125 568.3125 111.953125 570.523438 L 111.953125 587.132812 C 111.953125 588.605469 112.503906 589.988281 113.546875 591 L 115.695312 593.179688 C 116.738281 594.226562 118.121094 594.777344 119.5625 594.777344 L 139.292969 594.777344 C 140.738281 594.777344 142.148438 594.195312 143.160156 593.179688 L 156.601562 579.734375 C 158.167969 578.167969 160.222656 577.339844 162.402344 577.339844 L 261.121094 577.339844 C 263.296875 577.339844 265.386719 578.167969 266.917969 579.734375 L 287.695312 600.519531 C 288.738281 601.5625 290.085938 602.117188 291.558594 602.117188 L 315.558594 602.117188 C 317.03125 602.117188 318.410156 601.5625 319.425781 600.519531 L 324.671875 595.269531 C 326.234375 593.734375 328.292969 592.875 330.472656 592.875 L 373.246094 592.875 C 374.691406 592.875 376.101562 592.289062 377.113281 591.277344 L 461.226562 507.152344 L 463.160156 509.085938 L 379.078125 593.210938 C 377.511719 594.746094 375.457031 595.605469 373.246094 595.605469 L 330.472656 595.605469 C 328.996094 595.605469 327.648438 596.191406 326.605469 597.203125 L 321.355469 602.453125 C 319.824219 604.019531 317.734375 604.847656 315.558594 604.847656 " fill-opacity="1" fill-rule="nonzero"/><path fill="#0d0a0b" d="M 177.714844 628.488281 L 110.847656 628.488281 C 108.667969 628.488281 106.613281 627.660156 105.046875 626.09375 L 95.75 616.792969 C 94.214844 615.226562 93.355469 613.167969 93.355469 610.988281 L 93.355469 571.78125 C 93.355469 569.570312 94.214844 567.511719 95.75 565.976562 L 107.105469 554.585938 C 108.148438 553.574219 108.730469 552.191406 108.730469 550.71875 L 108.730469 498.890625 C 108.730469 497.449219 108.148438 496.066406 107.105469 495.023438 L 106.367188 494.285156 C 104.832031 492.71875 103.972656 490.664062 103.972656 488.484375 L 103.972656 54.1875 L 106.707031 54.1875 L 106.707031 488.484375 C 106.707031 489.925781 107.289062 491.308594 108.300781 492.351562 L 109.039062 493.089844 C 110.601562 494.65625 111.460938 496.710938 111.460938 498.890625 L 111.460938 550.71875 C 111.460938 552.929688 110.601562 554.988281 109.039062 556.523438 L 97.683594 567.914062 C 96.640625 568.925781 96.085938 570.308594 96.085938 571.78125 L 96.085938 610.988281 C 96.085938 612.433594 96.640625 613.8125 97.683594 614.859375 L 106.980469 624.160156 C 108.023438 625.203125 109.40625 625.757812 110.847656 625.757812 L 177.714844 625.757812 C 179.15625 625.757812 180.566406 625.175781 181.582031 624.160156 L 220.980469 584.738281 C 222.515625 583.171875 224.601562 582.34375 226.78125 582.34375 L 257.40625 582.34375 C 259.617188 582.34375 261.640625 583.171875 263.207031 584.738281 L 283.949219 605.492188 C 284.992188 606.535156 286.34375 607.089844 287.816406 607.089844 L 318.074219 607.089844 C 319.515625 607.089844 320.925781 606.507812 321.941406 605.492188 L 326.113281 601.285156 C 327.679688 599.722656 329.734375 598.859375 331.914062 598.859375 L 376.285156 598.859375 C 377.726562 598.859375 379.109375 598.277344 380.152344 597.265625 L 391.996094 585.414062 L 393.929688 587.347656 L 382.085938 599.199219 C 380.550781 600.734375 378.433594 601.625 376.285156 601.625 L 331.914062 601.625 C 330.472656 601.625 329.089844 602.175781 328.046875 603.222656 L 323.875 607.425781 C 322.339844 608.960938 320.222656 609.824219 318.074219 609.824219 L 287.816406 609.824219 C 285.636719 609.824219 283.582031 608.960938 282.015625 607.425781 L 261.273438 586.671875 C 260.261719 585.660156 258.847656 585.074219 257.40625 585.074219 L 226.78125 585.074219 C 225.308594 585.074219 223.925781 585.628906 222.914062 586.671875 L 183.511719 626.09375 C 181.980469 627.628906 179.863281 628.488281 177.714844 628.488281 " fill-opacity="1" fill-rule="nonzero"/><path fill="#0d0a0b" d="M 106.304688 242.214844 L 104.375 240.28125 L 107.71875 236.933594 C 109.28125 235.398438 111.339844 234.539062 113.519531 234.539062 L 157.0625 234.539062 C 158.503906 234.539062 159.914062 233.953125 160.929688 232.941406 L 177.804688 216.023438 C 178.820312 215.011719 179.433594 213.597656 179.433594 212.15625 L 179.433594 181.359375 C 179.433594 179.148438 180.261719 177.09375 181.824219 175.558594 L 251.515625 105.800781 C 252.558594 104.757812 253.140625 103.40625 253.140625 101.929688 L 253.140625 77.277344 L 255.839844 77.277344 L 255.839844 101.929688 C 255.839844 104.109375 255.011719 106.199219 253.449219 107.734375 L 183.757812 177.492188 C 182.714844 178.503906 182.132812 179.886719 182.132812 181.359375 L 182.132812 212.15625 C 182.132812 214.335938 181.273438 216.453125 179.738281 217.988281 L 162.863281 234.875 C 161.328125 236.378906 159.210938 237.269531 157.0625 237.269531 L 113.519531 237.269531 C 112.042969 237.269531 110.695312 237.824219 109.652344 238.867188 L 106.304688 242.214844 " fill-opacity="1" fill-rule="nonzero"/><path fill="#0d0a0b" d="M 106.304688 233.953125 L 104.375 232.019531 L 116.832031 219.523438 C 118.398438 217.988281 120.453125 217.128906 122.664062 217.128906 L 147.640625 217.128906 C 149.082031 217.128906 150.496094 216.546875 151.507812 215.53125 L 170.65625 196.375 C 171.699219 195.332031 172.25 193.949219 172.25 192.503906 L 172.25 146.050781 C 172.25 143.871094 173.109375 141.816406 174.675781 140.25 L 194.160156 120.753906 C 195.175781 119.738281 195.757812 118.355469 195.757812 116.882812 L 195.757812 20.046875 L 198.488281 20.046875 L 198.488281 116.882812 C 198.488281 119.09375 197.628906 121.152344 196.09375 122.6875 L 176.609375 142.183594 C 175.566406 143.226562 174.984375 144.609375 174.984375 146.050781 L 174.984375 192.503906 C 174.984375 194.683594 174.152344 196.742188 172.589844 198.308594 L 153.441406 217.46875 C 151.90625 218.972656 149.789062 219.863281 147.640625 219.863281 L 122.664062 219.863281 C 121.1875 219.863281 119.808594 220.445312 118.765625 221.457031 L 106.304688 233.953125 " fill-opacity="1" fill-rule="nonzero"/><path fill="#0d0a0b" d="M 77.554688 239.664062 L 75.621094 237.730469 L 91.761719 221.582031 C 93.296875 220.046875 95.351562 219.1875 97.5625 219.1875 L 106.183594 219.1875 C 107.625 219.1875 109.039062 218.601562 110.050781 217.589844 L 114.039062 213.597656 C 115.574219 212.0625 117.660156 211.203125 119.839844 211.203125 L 144.757812 211.203125 C 146.199219 211.203125 147.578125 210.621094 148.621094 209.605469 L 165.164062 193.027344 C 166.207031 192.015625 166.789062 190.601562 166.789062 189.160156 L 166.789062 144.609375 C 166.789062 142.398438 167.648438 140.339844 169.183594 138.804688 L 178.328125 129.625 C 179.339844 128.613281 179.953125 127.199219 179.953125 125.757812 L 179.953125 82.496094 C 179.953125 81.023438 179.371094 79.671875 178.328125 78.628906 L 152.273438 52.53125 C 150.710938 50.996094 149.851562 48.9375 149.851562 46.726562 L 149.851562 6.964844 L 152.613281 6.964844 L 152.613281 46.726562 C 152.613281 48.199219 153.164062 49.582031 154.207031 50.59375 L 180.261719 76.691406 C 181.824219 78.226562 182.652344 80.316406 182.652344 82.496094 L 182.652344 125.757812 C 182.652344 127.9375 181.796875 130.054688 180.261719 131.558594 L 171.117188 140.738281 C 170.074219 141.785156 169.519531 143.136719 169.519531 144.609375 L 169.519531 189.160156 C 169.519531 191.308594 168.628906 193.425781 167.097656 194.960938 L 150.554688 211.542969 C 148.992188 213.078125 146.933594 213.9375 144.757812 213.9375 L 119.839844 213.9375 C 118.367188 213.9375 116.984375 214.519531 115.972656 215.53125 L 111.984375 219.523438 C 110.417969 221.058594 108.363281 221.917969 106.183594 221.917969 L 97.5625 221.917969 C 96.085938 221.917969 94.707031 222.503906 93.695312 223.515625 L 77.554688 239.664062 " fill-opacity="1" fill-rule="nonzero"/><path fill="#0d0a0b" d="M 22.257812 302.207031 L 20.324219 300.273438 L 25.9375 294.625 C 27.472656 293.089844 29.527344 292.230469 31.738281 292.230469 L 64.542969 292.230469 C 65.984375 292.230469 67.394531 291.644531 68.410156 290.632812 L 74.023438 285.015625 C 75.035156 283.96875 75.621094 282.617188 75.621094 281.144531 L 75.621094 229.839844 C 75.621094 228.398438 75.035156 227.015625 74.023438 225.972656 L 72.644531 224.589844 C 71.628906 223.578125 70.21875 222.992188 68.777344 222.992188 L 61.996094 222.992188 L 61.996094 220.261719 L 68.777344 220.261719 C 70.957031 220.261719 73.042969 221.121094 74.578125 222.65625 L 75.957031 224.039062 C 77.492188 225.601562 78.351562 227.660156 78.351562 229.839844 L 78.351562 281.144531 C 78.351562 283.324219 77.492188 285.414062 75.957031 286.949219 L 70.339844 292.566406 C 68.808594 294.101562 66.691406 294.960938 64.542969 294.960938 L 31.738281 294.960938 C 30.265625 294.960938 28.882812 295.546875 27.871094 296.589844 L 22.257812 302.207031 " fill-opacity="1" fill-rule="nonzero"/><path fill="#0d0a0b" d="M 258.144531 771.933594 L 255.410156 771.933594 L 255.410156 581.300781 C 255.410156 579.980469 254.890625 578.75 253.96875 577.828125 L 253.324219 577.152344 C 252.375 576.234375 251.144531 575.742188 249.828125 575.742188 L 221.75 575.742188 C 220.429688 575.742188 219.203125 576.234375 218.28125 577.152344 L 182.5625 612.894531 C 181.121094 614.335938 179.1875 615.132812 177.160156 615.132812 L 108.269531 615.132812 C 106.214844 615.132812 104.28125 614.335938 102.839844 612.894531 L 84.152344 594.195312 C 82.707031 592.75 81.910156 590.816406 81.910156 588.789062 L 81.910156 572.578125 C 81.910156 570.523438 82.707031 568.617188 84.152344 567.175781 L 85.808594 565.519531 C 86.726562 564.597656 87.25 563.367188 87.25 562.046875 L 87.25 555.445312 C 87.25 553.390625 88.015625 551.488281 89.460938 550.042969 L 92.710938 546.789062 C 93.664062 545.867188 94.15625 544.640625 94.15625 543.320312 L 94.15625 542.796875 C 94.15625 540.742188 94.953125 538.835938 96.394531 537.394531 L 97.5625 536.226562 C 98.480469 535.304688 99.003906 534.078125 99.003906 532.757812 L 99.003906 457.871094 C 99.003906 456.550781 98.480469 455.324219 97.5625 454.402344 L 58.773438 415.59375 C 57.332031 414.152344 56.53125 412.21875 56.53125 410.160156 L 56.53125 390.324219 C 56.53125 388.269531 57.332031 386.363281 58.773438 384.921875 C 60.214844 383.449219 62.148438 382.648438 64.171875 382.648438 L 179.21875 382.648438 C 180.507812 382.648438 181.765625 382.128906 182.683594 381.238281 L 198.917969 364.996094 C 199.839844 364.074219 200.359375 362.847656 200.359375 361.527344 L 200.359375 295.515625 L 203.089844 295.515625 L 203.089844 361.527344 C 203.089844 363.550781 202.292969 365.488281 200.851562 366.929688 L 184.617188 383.171875 C 183.207031 384.585938 181.242188 385.414062 179.21875 385.414062 L 64.171875 385.414062 C 62.855469 385.414062 61.625 385.90625 60.707031 386.855469 C 59.785156 387.777344 59.265625 389.003906 59.265625 390.324219 L 59.265625 410.160156 C 59.265625 411.480469 59.785156 412.707031 60.707031 413.660156 L 99.492188 452.4375 C 100.9375 453.910156 101.734375 455.816406 101.734375 457.871094 L 101.734375 532.757812 C 101.734375 534.816406 100.9375 536.71875 99.492188 538.160156 L 98.328125 539.328125 C 97.40625 540.25 96.886719 541.507812 96.886719 542.796875 L 96.886719 543.320312 C 96.886719 545.347656 96.085938 547.28125 94.644531 548.722656 L 91.394531 551.976562 C 90.472656 552.898438 89.949219 554.125 89.949219 555.445312 L 89.949219 562.046875 C 89.949219 564.105469 89.183594 566.007812 87.742188 567.453125 L 86.082031 569.109375 C 85.164062 570.03125 84.640625 571.257812 84.640625 572.578125 L 84.640625 588.789062 C 84.640625 590.082031 85.164062 591.339844 86.082031 592.261719 L 104.773438 610.957031 C 105.691406 611.878906 106.949219 612.402344 108.269531 612.402344 L 177.160156 612.402344 C 178.480469 612.402344 179.707031 611.878906 180.628906 610.957031 L 216.347656 575.21875 C 217.789062 573.777344 219.691406 573.007812 221.75 573.007812 L 249.828125 573.007812 C 251.882812 573.007812 253.816406 573.777344 255.257812 575.21875 L 255.902344 575.894531 C 257.34375 577.339844 258.144531 579.242188 258.144531 581.300781 L 258.144531 771.933594 " fill-opacity="1" fill-rule="nonzero"/><path fill="#0d0a0b" d="M 196.617188 385.414062 L 173.9375 385.414062 L 173.9375 382.648438 L 195.480469 382.648438 L 217.574219 360.574219 L 217.574219 352.683594 L 227.425781 342.828125 L 246.050781 342.828125 L 252.003906 348.816406 L 405.929688 348.816406 L 405.929688 351.546875 L 250.902344 351.546875 L 244.917969 345.589844 L 228.5625 345.589844 L 220.304688 353.820312 L 220.304688 361.710938 L 196.617188 385.414062 " fill-opacity="1" fill-rule="nonzero"/><path fill="#0d0a0b" d="M 188.882812 401.6875 L 45.484375 401.6875 C 43.335938 401.6875 41.34375 400.855469 39.871094 399.382812 L 37.507812 397.019531 C 36.003906 395.515625 35.175781 393.519531 35.175781 391.398438 L 35.175781 224.34375 C 35.175781 222.226562 36.003906 220.230469 37.507812 218.726562 L 44.195312 212.03125 C 45.699219 210.527344 47.695312 209.699219 49.8125 209.699219 L 92.007812 209.699219 C 93.386719 209.699219 94.675781 209.175781 95.65625 208.195312 L 113.671875 190.171875 C 114.652344 189.191406 115.207031 187.898438 115.207031 186.519531 L 115.207031 81.914062 C 115.207031 79.792969 116.003906 77.828125 117.507812 76.324219 L 128.890625 64.933594 L 130.824219 66.867188 L 119.441406 78.257812 C 118.457031 79.242188 117.90625 80.53125 117.90625 81.914062 L 117.90625 186.519531 C 117.90625 188.636719 117.109375 190.632812 115.605469 192.105469 L 97.621094 210.128906 C 96.117188 211.632812 94.125 212.433594 92.007812 212.433594 L 49.8125 212.433594 C 48.429688 212.433594 47.113281 212.984375 46.128906 213.96875 L 39.441406 220.660156 C 38.457031 221.644531 37.90625 222.964844 37.90625 224.34375 L 37.90625 391.398438 C 37.90625 392.78125 38.457031 394.101562 39.441406 395.054688 L 41.804688 397.449219 C 42.753906 398.402344 44.105469 398.953125 45.484375 398.953125 L 188.882812 398.953125 C 190.296875 398.953125 191.585938 398.429688 192.566406 397.449219 L 195.359375 394.625 C 196.339844 393.640625 196.894531 392.351562 196.894531 390.96875 C 196.894531 388.851562 197.722656 386.855469 199.226562 385.351562 L 221.226562 363.335938 C 222.210938 362.355469 222.761719 361.035156 222.761719 359.652344 L 222.761719 358.332031 C 222.761719 356.214844 223.558594 354.21875 225.0625 352.714844 L 226.445312 351.332031 C 227.949219 349.828125 229.941406 349.03125 232.058594 349.03125 L 241.050781 349.03125 C 243.167969 349.03125 245.164062 349.828125 246.667969 351.332031 L 246.789062 351.484375 L 248.445312 353.789062 C 249.429688 354.710938 250.71875 355.230469 252.066406 355.230469 L 405.929688 355.230469 L 405.929688 357.964844 L 252.066406 357.964844 C 249.949219 357.964844 247.925781 357.105469 246.453125 355.632812 L 246.328125 355.476562 L 244.640625 353.207031 C 243.660156 352.253906 242.402344 351.761719 241.050781 351.761719 L 232.058594 351.761719 C 230.679688 351.761719 229.328125 352.316406 228.378906 353.265625 L 226.996094 354.648438 C 226.015625 355.632812 225.460938 356.953125 225.460938 358.332031 L 225.460938 359.652344 C 225.460938 361.773438 224.664062 363.765625 223.160156 365.273438 L 201.15625 387.285156 C 200.175781 388.269531 199.625 389.558594 199.625 390.96875 C 199.625 393.089844 198.796875 395.085938 197.292969 396.558594 L 194.5 399.382812 C 192.996094 400.855469 191 401.6875 188.882812 401.6875 " fill-opacity="1" fill-rule="nonzero"/><g clip-path="url(#id3)"><path fill="#0d0a0b" d="M 269.160156 629.902344 L 269.160156 679.148438 C 269.160156 680.625 269.742188 682.003906 270.753906 683.019531 L 274.070312 686.335938 C 275.113281 687.378906 276.492188 687.929688 277.9375 687.929688 L 286.464844 687.929688 C 288.644531 687.929688 290.730469 688.789062 292.265625 690.355469 L 319.023438 717.097656 C 320.558594 718.664062 321.417969 720.722656 321.417969 722.902344 L 321.417969 735.03125 C 321.417969 736.441406 322 737.886719 323.015625 738.898438 L 345.628906 761.496094 C 346.671875 762.539062 348.023438 763.121094 349.496094 763.121094 L 369.871094 763.121094 C 372.019531 763.121094 374.136719 763.984375 375.671875 765.519531 L 391.90625 781.761719 C 392.949219 782.804688 394.328125 783.386719 395.800781 783.386719 L 396.90625 783.386719 C 398.347656 783.386719 399.761719 782.804688 400.773438 781.761719 L 405.621094 776.9375 C 406.636719 775.894531 407.21875 774.515625 407.21875 773.070312 L 407.21875 768.742188 C 407.21875 767.296875 406.636719 765.886719 405.621094 764.875 L 321.265625 680.441406 C 319.699219 678.90625 318.839844 676.847656 318.839844 674.667969 L 318.839844 665.332031 C 318.839844 663.890625 318.289062 662.507812 317.246094 661.464844 L 287.296875 631.53125 C 286.28125 630.484375 284.871094 629.902344 283.429688 629.902344 Z M 396.90625 786.121094 L 395.800781 786.121094 C 393.59375 786.121094 391.535156 785.261719 389.972656 783.695312 L 373.738281 767.453125 C 372.726562 766.410156 371.316406 765.824219 369.871094 765.824219 L 349.496094 765.824219 C 347.316406 765.824219 345.230469 764.996094 343.695312 763.429688 L 321.082031 740.832031 C 319.546875 739.265625 318.6875 737.210938 318.6875 735.03125 L 318.6875 722.902344 C 318.6875 721.457031 318.136719 720.078125 317.089844 719.0625 L 290.332031 692.261719 C 289.289062 691.246094 287.941406 690.664062 286.464844 690.664062 L 277.9375 690.664062 C 275.757812 690.664062 273.699219 689.804688 272.136719 688.269531 L 268.820312 684.953125 C 267.289062 683.386719 266.429688 681.328125 266.429688 679.148438 L 266.429688 629.902344 L 242.617188 629.902344 C 240.46875 629.902344 238.351562 629.042969 236.816406 627.507812 L 233.839844 624.527344 C 232.273438 622.964844 231.414062 620.90625 231.414062 618.726562 L 231.414062 569.601562 C 231.414062 568.128906 230.863281 566.777344 229.820312 565.734375 L 205.363281 541.261719 C 204.320312 540.21875 202.96875 539.664062 201.496094 539.664062 L 152.644531 539.664062 C 150.464844 539.664062 148.40625 538.804688 146.84375 537.238281 L 142.914062 533.308594 C 141.351562 531.746094 140.492188 529.6875 140.492188 527.476562 L 140.492188 516.976562 C 140.492188 515.53125 139.90625 514.121094 138.894531 513.109375 L 133.035156 507.210938 C 132.023438 506.199219 130.609375 505.617188 129.167969 505.617188 L 103.175781 505.617188 C 100.996094 505.617188 98.941406 504.757812 97.375 503.222656 L 78.597656 484.398438 C 77.03125 482.863281 76.171875 480.808594 76.171875 478.597656 L 76.171875 381.175781 C 76.171875 378.964844 77.03125 376.910156 78.597656 375.34375 L 80.683594 373.253906 C 82.25 371.71875 84.304688 370.859375 86.484375 370.859375 L 228.132812 370.859375 C 229.574219 370.859375 230.984375 370.277344 232 369.261719 L 238.65625 362.570312 C 240.222656 361.035156 242.277344 360.175781 244.488281 360.175781 L 489.425781 360.175781 C 490.898438 360.175781 492.3125 359.59375 493.324219 358.578125 L 543.035156 308.808594 L 544.96875 310.742188 L 495.257812 360.511719 C 493.722656 362.015625 491.605469 362.90625 489.425781 362.90625 L 244.488281 362.90625 C 243.015625 362.90625 241.632812 363.460938 240.589844 364.503906 L 233.929688 371.199219 C 232.425781 372.703125 230.28125 373.59375 228.132812 373.59375 L 86.484375 373.59375 C 85.039062 373.59375 83.660156 374.144531 82.617188 375.1875 L 80.53125 377.277344 C 79.488281 378.320312 78.933594 379.703125 78.933594 381.175781 L 78.933594 478.597656 C 78.933594 480.070312 79.488281 481.421875 80.53125 482.464844 L 99.308594 501.285156 C 100.351562 502.332031 101.734375 502.882812 103.175781 502.882812 L 129.167969 502.882812 C 131.378906 502.882812 133.433594 503.742188 134.96875 505.277344 L 140.828125 511.140625 C 142.363281 512.675781 143.253906 514.796875 143.253906 516.976562 L 143.253906 527.476562 C 143.253906 528.949219 143.804688 530.332031 144.847656 531.375 L 148.777344 535.304688 C 149.820312 536.351562 151.199219 536.902344 152.644531 536.902344 L 201.496094 536.902344 C 203.675781 536.902344 205.761719 537.761719 207.296875 539.328125 L 231.753906 563.796875 C 233.316406 565.332031 234.144531 567.390625 234.144531 569.601562 L 234.144531 618.726562 C 234.144531 620.167969 234.730469 621.550781 235.773438 622.59375 L 238.75 625.574219 C 239.761719 626.585938 241.171875 627.167969 242.617188 627.167969 L 266.429688 627.167969 L 266.429688 570.125 C 266.429688 568.648438 265.875 567.269531 264.832031 566.253906 L 264.402344 565.824219 C 263.390625 564.78125 262.007812 564.226562 260.535156 564.226562 L 257.773438 564.226562 L 257.773438 561.464844 L 260.535156 561.464844 C 262.714844 561.464844 264.800781 562.355469 266.335938 563.890625 L 266.765625 564.320312 C 268.300781 565.855469 269.160156 567.914062 269.160156 570.125 L 269.160156 627.167969 L 283.429688 627.167969 C 285.605469 627.167969 287.695312 628.058594 289.226562 629.5625 L 319.179688 659.53125 C 320.742188 661.097656 321.570312 663.152344 321.570312 665.332031 L 321.570312 674.667969 C 321.570312 676.109375 322.15625 677.492188 323.199219 678.503906 L 407.554688 762.9375 C 409.089844 764.472656 409.949219 766.5625 409.949219 768.742188 L 409.949219 773.070312 C 409.949219 775.25 409.089844 777.308594 407.554688 778.875 L 402.707031 783.695312 C 401.171875 785.230469 399.085938 786.121094 396.90625 786.121094 " fill-opacity="1" fill-rule="nonzero"/></g><path fill="#0d0a0b" d="M 433.824219 759.007812 L 431.09375 759.007812 L 431.09375 751.976562 C 431.09375 750.503906 430.507812 749.121094 429.496094 748.109375 L 339.953125 658.761719 C 338.417969 657.226562 337.558594 655.171875 337.558594 652.960938 L 337.558594 634.445312 C 337.558594 632.972656 336.976562 631.621094 335.933594 630.578125 L 303.066406 597.695312 C 302.054688 596.679688 300.644531 596.097656 299.203125 596.097656 L 292.449219 596.097656 C 290.273438 596.097656 288.214844 595.238281 286.652344 593.671875 L 241.144531 548.140625 C 240.128906 547.125 238.71875 546.542969 237.277344 546.542969 L 143.714844 546.542969 C 141.535156 546.542969 139.476562 545.683594 137.914062 544.117188 L 130.488281 536.6875 C 128.953125 535.152344 128.09375 533.066406 128.09375 530.882812 L 128.09375 518.265625 C 128.09375 516.792969 127.511719 515.410156 126.496094 514.398438 L 117.324219 505.214844 L 119.257812 503.28125 L 128.429688 512.460938 C 129.964844 513.996094 130.824219 516.085938 130.824219 518.265625 L 130.824219 530.882812 C 130.824219 532.359375 131.378906 533.738281 132.421875 534.753906 L 139.847656 542.183594 C 140.890625 543.226562 142.269531 543.78125 143.714844 543.78125 L 237.277344 543.78125 C 239.453125 543.78125 241.511719 544.640625 243.074219 546.207031 L 288.582031 591.738281 C 289.628906 592.78125 291.007812 593.335938 292.449219 593.335938 L 299.203125 593.335938 C 301.410156 593.335938 303.46875 594.195312 305 595.761719 L 337.867188 628.644531 C 339.429688 630.179688 340.289062 632.234375 340.289062 634.445312 L 340.289062 652.960938 C 340.289062 654.433594 340.84375 655.816406 341.886719 656.828125 L 431.429688 746.175781 C 432.964844 747.710938 433.824219 749.765625 433.824219 751.976562 L 433.824219 759.007812 " fill-opacity="1" fill-rule="nonzero"/><g clip-path="url(#id4)"><path fill="#0d0a0b" d="M 402.800781 786.121094 C 402.800781 786.121094 402.769531 786.121094 402.769531 786.121094 L 402.554688 786.121094 C 400.375 786.121094 398.320312 785.261719 396.785156 783.726562 L 390.648438 777.585938 C 389.113281 776.050781 388.253906 773.929688 388.253906 771.78125 L 388.253906 770.03125 C 388.253906 768.648438 387.730469 767.328125 386.78125 766.316406 L 352.074219 729.195312 C 351.0625 728.089844 349.589844 727.445312 348.085938 727.445312 L 274.988281 727.445312 C 272.8125 727.445312 270.753906 726.585938 269.191406 725.050781 L 255.441406 711.296875 L 257.375 709.332031 L 271.125 723.117188 C 272.167969 724.128906 273.515625 724.714844 274.988281 724.714844 L 348.085938 724.714844 C 350.355469 724.714844 352.535156 725.664062 354.070312 727.324219 L 388.773438 764.441406 C 390.1875 765.949219 390.984375 767.945312 390.984375 770.03125 L 390.984375 771.78125 C 390.984375 773.195312 391.566406 774.605469 392.582031 775.648438 L 398.71875 781.789062 C 399.761719 782.804688 401.109375 783.386719 402.554688 783.386719 L 402.769531 783.386719 C 402.769531 783.386719 402.769531 783.386719 402.800781 783.386719 C 404.242188 783.386719 405.621094 782.804688 406.664062 781.789062 L 424.585938 763.859375 C 425.597656 762.816406 426.183594 761.433594 426.183594 759.992188 L 426.183594 754.003906 C 426.183594 752.53125 425.597656 751.148438 424.585938 750.105469 L 335.410156 660.882812 C 333.847656 659.347656 332.988281 657.289062 332.988281 655.078125 L 332.988281 635.921875 C 332.988281 634.445312 332.433594 633.09375 331.390625 632.050781 L 301.65625 602.300781 C 300.644531 601.285156 299.230469 600.703125 297.789062 600.703125 L 292.050781 600.703125 C 289.871094 600.703125 287.816406 599.84375 286.25 598.277344 L 241.664062 553.667969 C 240.621094 552.652344 239.210938 552.070312 237.765625 552.070312 L 141.65625 552.070312 C 139.476562 552.070312 137.421875 551.210938 135.855469 549.644531 L 128.800781 542.613281 C 127.785156 541.570312 126.375 540.984375 124.933594 540.984375 L 107.441406 540.984375 C 105.261719 540.984375 103.207031 540.15625 101.640625 538.589844 L 99.402344 536.320312 L 101.335938 534.382812 L 103.574219 536.65625 C 104.617188 537.699219 106 538.253906 107.441406 538.253906 L 124.933594 538.253906 C 127.140625 538.253906 129.199219 539.113281 130.734375 540.679688 L 137.789062 547.710938 C 138.832031 548.753906 140.214844 549.304688 141.65625 549.304688 L 237.765625 549.304688 C 239.976562 549.304688 242.03125 550.167969 243.597656 551.730469 L 288.183594 596.34375 C 289.226562 597.386719 290.609375 597.972656 292.050781 597.972656 L 297.789062 597.972656 C 300 597.972656 302.054688 598.832031 303.621094 600.367188 L 333.324219 630.117188 C 334.890625 631.652344 335.75 633.710938 335.75 635.921875 L 335.75 655.078125 C 335.75 656.550781 336.300781 657.933594 337.34375 658.949219 L 426.519531 748.203125 C 428.054688 749.738281 428.914062 751.792969 428.914062 754.003906 L 428.914062 759.992188 C 428.914062 762.171875 428.054688 764.226562 426.519531 765.792969 L 408.597656 783.726562 C 407.0625 785.261719 404.945312 786.121094 402.800781 786.121094 " fill-opacity="1" fill-rule="nonzero"/></g><path fill="#0d0a0b" d="M 357.046875 772.792969 L 345.96875 772.792969 C 343.757812 772.792969 341.703125 771.933594 340.167969 770.398438 L 315.160156 745.375 C 313.625 743.8125 312.765625 741.753906 312.765625 739.574219 L 312.765625 725.574219 C 312.765625 724.128906 312.183594 722.75 311.167969 721.703125 L 288.828125 699.382812 C 287.816406 698.371094 286.40625 697.785156 284.992188 697.785156 L 275.574219 697.785156 C 273.394531 697.785156 271.339844 696.925781 269.773438 695.359375 L 263.082031 688.667969 C 261.550781 687.132812 260.691406 685.074219 260.691406 682.863281 L 260.691406 581.359375 C 260.691406 579.886719 260.105469 578.503906 259.09375 577.492188 L 254.121094 572.519531 C 253.109375 571.503906 251.699219 570.921875 250.257812 570.921875 L 219.046875 570.921875 C 217.605469 570.921875 216.226562 571.503906 215.183594 572.519531 L 180.382812 607.367188 C 178.847656 608.902344 176.730469 609.761719 174.582031 609.761719 L 112.199219 609.761719 C 109.988281 609.761719 107.933594 608.933594 106.398438 607.367188 L 104.3125 605.277344 C 102.746094 603.710938 101.917969 601.65625 101.917969 599.476562 L 101.917969 570.796875 C 101.917969 568.617188 102.746094 566.5625 104.3125 564.996094 L 111.183594 558.117188 C 112.230469 557.074219 112.78125 555.691406 112.78125 554.25 L 112.78125 533.863281 C 112.78125 531.652344 113.640625 529.59375 115.207031 528.027344 L 118.519531 524.714844 C 120.085938 523.148438 122.140625 522.320312 124.320312 522.320312 L 148.960938 522.320312 C 150.402344 522.320312 151.785156 521.734375 152.796875 520.691406 L 166.851562 506.660156 C 168.414062 505.09375 170.472656 504.234375 172.679688 504.234375 L 308.007812 504.234375 C 309.449219 504.234375 310.863281 503.652344 311.875 502.636719 L 352.042969 462.476562 C 353.054688 461.433594 353.640625 460.050781 353.640625 458.578125 L 353.640625 418.574219 L 356.371094 418.574219 L 356.371094 458.578125 C 356.371094 460.789062 355.511719 462.847656 353.976562 464.414062 L 313.808594 504.570312 C 312.273438 506.105469 310.15625 506.96875 308.007812 506.96875 L 172.679688 506.96875 C 171.207031 506.96875 169.828125 507.550781 168.816406 508.59375 L 154.730469 522.625 C 153.195312 524.191406 151.140625 525.050781 148.960938 525.050781 L 124.320312 525.050781 C 122.847656 525.050781 121.496094 525.605469 120.453125 526.648438 L 117.136719 529.964844 C 116.09375 531.007812 115.511719 532.390625 115.511719 533.863281 L 115.511719 554.25 C 115.511719 556.429688 114.683594 558.488281 113.117188 560.050781 L 106.246094 566.929688 C 105.203125 567.972656 104.617188 569.324219 104.617188 570.796875 L 104.617188 599.476562 C 104.617188 600.917969 105.203125 602.300781 106.246094 603.34375 L 108.332031 605.433594 C 109.375 606.476562 110.757812 607.027344 112.199219 607.027344 L 174.582031 607.027344 C 175.996094 607.027344 177.40625 606.445312 178.449219 605.433594 L 213.25 570.582031 C 214.8125 569.046875 216.871094 568.1875 219.046875 568.1875 L 250.257812 568.1875 C 252.433594 568.1875 254.523438 569.046875 256.054688 570.582031 L 261.027344 575.558594 C 262.5625 577.09375 263.421875 579.148438 263.421875 581.359375 L 263.421875 682.863281 C 263.421875 684.308594 263.972656 685.691406 265.015625 686.734375 L 271.707031 693.425781 C 272.75 694.472656 274.101562 695.023438 275.574219 695.023438 L 284.992188 695.023438 C 287.140625 695.023438 289.257812 695.914062 290.761719 697.449219 L 313.101562 719.769531 C 314.636719 721.335938 315.496094 723.394531 315.496094 725.574219 L 315.496094 739.574219 C 315.496094 741.015625 316.078125 742.398438 317.089844 743.441406 L 342.101562 768.433594 C 343.113281 769.480469 344.496094 770.0625 345.96875 770.0625 L 357.046875 770.0625 L 357.046875 772.792969 " fill-opacity="1" fill-rule="nonzero"/><path fill="#0d0a0b" d="M 397.582031 498.585938 L 319.210938 498.585938 L 319.210938 495.851562 L 397.582031 495.851562 C 398.992188 495.851562 400.40625 495.269531 401.449219 494.253906 L 436.738281 458.917969 C 437.78125 457.902344 438.332031 456.523438 438.332031 455.078125 L 438.332031 440.648438 C 438.332031 438.46875 439.191406 436.410156 440.726562 434.84375 L 491.574219 383.96875 C 493.140625 382.433594 495.195312 381.574219 497.375 381.574219 L 511.183594 381.574219 C 512.625 381.574219 514.039062 380.992188 515.050781 379.949219 L 543.957031 351.027344 L 545.890625 352.960938 L 516.984375 381.914062 C 515.449219 383.417969 513.332031 384.308594 511.183594 384.308594 L 497.375 384.308594 C 495.933594 384.308594 494.550781 384.859375 493.507812 385.90625 L 442.660156 436.78125 C 441.648438 437.824219 441.066406 439.175781 441.066406 440.648438 L 441.066406 455.078125 C 441.066406 457.257812 440.207031 459.316406 438.671875 460.851562 L 403.382812 496.191406 C 401.847656 497.695312 399.730469 498.585938 397.582031 498.585938 " fill-opacity="1" fill-rule="nonzero"/><path fill="#0d0a0b" d="M 585.84375 603.097656 L 575.839844 603.097656 C 573.628906 603.097656 571.574219 602.238281 570.039062 600.703125 L 531.097656 561.773438 C 529.566406 560.207031 528.707031 558.148438 528.707031 555.9375 L 528.707031 458.609375 C 528.707031 457.167969 528.121094 455.785156 527.109375 454.742188 L 513.851562 441.476562 C 512.839844 440.464844 511.429688 439.878906 509.988281 439.878906 L 499.644531 439.878906 L 499.644531 437.148438 L 509.988281 437.148438 C 512.164062 437.148438 514.222656 438.007812 515.785156 439.542969 L 529.042969 452.804688 C 530.578125 454.339844 531.4375 456.429688 531.4375 458.609375 L 531.4375 555.9375 C 531.4375 557.410156 532.019531 558.792969 533.03125 559.835938 L 571.972656 598.769531 C 572.984375 599.78125 574.367188 600.367188 575.839844 600.367188 L 585.84375 600.367188 C 587.316406 600.367188 588.699219 599.78125 589.710938 598.769531 L 602.351562 586.148438 C 603.367188 585.105469 603.949219 583.726562 603.949219 582.28125 L 603.949219 552.777344 L 606.679688 552.777344 L 606.679688 582.28125 C 606.679688 584.460938 605.820312 586.519531 604.285156 588.085938 L 591.644531 600.703125 C 590.109375 602.238281 588.054688 603.097656 585.84375 603.097656 " fill-opacity="1" fill-rule="nonzero"/><path fill="#0d0a0b" d="M 556.382812 666.070312 L 554.453125 664.136719 L 570.039062 648.570312 C 571.054688 647.527344 571.636719 646.144531 571.636719 644.699219 L 571.636719 601.746094 L 574.367188 601.746094 L 574.367188 644.699219 C 574.367188 646.882812 573.507812 648.9375 571.972656 650.503906 L 556.382812 666.070312 " fill-opacity="1" fill-rule="nonzero"/><path fill="#0d0a0b" d="M 258.144531 592.199219 L 235.617188 592.199219 C 233.441406 592.199219 231.382812 591.339844 229.820312 589.804688 L 228.992188 588.945312 C 227.425781 587.410156 226.597656 585.351562 226.597656 583.140625 L 226.597656 572.273438 C 226.597656 570.859375 226.042969 569.539062 225.09375 568.496094 C 221.808594 565.058594 220.582031 563.921875 220.152344 563.550781 L 180.597656 563.550781 C 179.15625 563.550781 177.773438 564.136719 176.730469 565.148438 L 170.71875 571.199219 C 169.152344 572.734375 167.097656 573.59375 164.886719 573.59375 L 106.089844 573.59375 C 103.914062 573.59375 101.855469 572.734375 100.292969 571.199219 L 80.558594 551.457031 C 78.996094 549.890625 78.136719 547.832031 78.136719 545.621094 L 78.136719 500.058594 C 78.136719 498.585938 77.582031 497.203125 76.539062 496.191406 L 67.304688 486.917969 C 66.261719 485.90625 64.878906 485.320312 63.4375 485.320312 L 48.523438 485.320312 C 46.34375 485.320312 44.289062 484.460938 42.722656 482.925781 L 31.125 471.320312 C 29.589844 469.785156 28.730469 467.667969 28.730469 465.488281 L 28.730469 205.09375 C 28.730469 203.621094 28.148438 202.238281 27.105469 201.226562 L 4.703125 178.78125 C 3.136719 177.214844 2.277344 175.15625 2.277344 172.976562 L 2.277344 141.96875 C 2.277344 139.757812 3.136719 137.699219 4.703125 136.164062 L 14.828125 126.003906 L 16.761719 127.9375 L 6.636719 138.097656 C 5.59375 139.113281 5.011719 140.496094 5.011719 141.96875 L 5.011719 172.976562 C 5.011719 174.421875 5.59375 175.804688 6.636719 176.847656 L 29.039062 199.289062 C 30.601562 200.824219 31.429688 202.882812 31.429688 205.09375 L 31.429688 465.488281 C 31.429688 466.929688 32.015625 468.34375 33.058594 469.355469 L 44.65625 480.992188 C 45.699219 482.003906 47.082031 482.589844 48.523438 482.589844 L 63.4375 482.589844 C 65.617188 482.589844 67.671875 483.449219 69.238281 485.015625 L 78.472656 494.253906 C 80.039062 495.789062 80.898438 497.878906 80.898438 500.058594 L 80.898438 545.621094 C 80.898438 547.066406 81.449219 548.476562 82.492188 549.519531 L 102.226562 569.261719 C 103.269531 570.277344 104.648438 570.859375 106.089844 570.859375 L 164.886719 570.859375 C 166.359375 570.859375 167.742188 570.277344 168.785156 569.261719 L 174.796875 563.214844 C 176.363281 561.679688 178.417969 560.820312 180.597656 560.820312 L 220.582031 560.820312 C 221.289062 560.820312 221.535156 560.820312 227.058594 566.621094 C 228.53125 568.15625 229.296875 570.152344 229.296875 572.273438 L 229.296875 583.140625 C 229.296875 584.585938 229.878906 585.996094 230.925781 587.011719 L 231.753906 587.871094 C 232.796875 588.882812 234.175781 589.464844 235.617188 589.464844 L 258.144531 589.464844 C 259.554688 589.464844 260.964844 588.882812 262.007812 587.871094 L 273.484375 576.355469 C 275.019531 574.820312 277.105469 573.960938 279.285156 573.960938 L 298.800781 573.960938 C 300.246094 573.960938 301.65625 573.378906 302.667969 572.332031 L 352.535156 522.441406 C 354.097656 520.90625 356.15625 520.046875 358.335938 520.046875 L 377.757812 520.046875 C 379.199219 520.046875 380.613281 519.464844 381.625 518.449219 L 398.71875 501.347656 C 400.253906 499.78125 402.339844 498.921875 404.515625 498.921875 L 448.980469 498.921875 C 450.425781 498.921875 451.835938 498.339844 452.847656 497.324219 L 478.472656 471.6875 C 479.515625 470.644531 480.066406 469.292969 480.066406 467.820312 L 480.066406 459.898438 C 480.066406 457.71875 480.925781 455.632812 482.492188 454.097656 L 532.542969 404.019531 L 534.476562 405.953125 L 484.425781 456.03125 C 483.382812 457.074219 482.796875 458.425781 482.796875 459.898438 L 482.796875 467.820312 C 482.796875 470.03125 481.96875 472.089844 480.40625 473.625 L 454.78125 499.261719 C 453.246094 500.796875 451.128906 501.65625 448.980469 501.65625 L 404.515625 501.65625 C 403.042969 501.65625 401.664062 502.238281 400.652344 503.28125 L 383.558594 520.382812 C 382.023438 521.886719 379.90625 522.777344 377.757812 522.777344 L 358.335938 522.777344 C 356.890625 522.777344 355.511719 523.363281 354.46875 524.375 L 304.601562 574.296875 C 303.066406 575.804688 300.949219 576.695312 298.800781 576.695312 L 279.285156 576.695312 C 277.8125 576.695312 276.460938 577.246094 275.417969 578.289062 L 263.941406 589.804688 C 262.410156 591.339844 260.292969 592.199219 258.144531 592.199219 " fill-opacity="1" fill-rule="nonzero"/><path fill="#0d0a0b" d="M 194.714844 399.566406 L 192.75 397.632812 L 230.402344 359.960938 C 231.96875 358.425781 234.023438 357.566406 236.203125 357.566406 L 493.203125 357.566406 C 495.347656 357.566406 497.464844 358.457031 499 359.960938 L 505.660156 366.652344 C 506.703125 367.699219 508.085938 368.25 509.527344 368.25 L 512.535156 368.25 C 513.976562 368.25 515.386719 367.667969 516.398438 366.652344 L 537.664062 345.375 L 539.597656 347.3125 L 518.332031 368.585938 C 516.800781 370.121094 514.683594 370.984375 512.535156 370.984375 L 509.527344 370.984375 C 507.347656 370.984375 505.292969 370.152344 503.726562 368.585938 L 497.066406 361.925781 C 496.054688 360.882812 494.644531 360.296875 493.203125 360.296875 L 236.203125 360.296875 C 234.730469 360.296875 233.378906 360.882812 232.335938 361.925781 L 194.714844 399.566406 " fill-opacity="1" fill-rule="nonzero"/><path fill="#0d0a0b" d="M 31.03125 416.394531 L 29.128906 414.425781 L 44.503906 399.351562 L 46.4375 401.285156 L 31.03125 416.394531 " fill-opacity="1" fill-rule="nonzero"/><path fill="#0d0a0b" d="M 391.015625 654.773438 L 331.453125 595.207031 L 333.386719 593.273438 L 392.949219 652.835938 L 391.015625 654.773438 " fill-opacity="1" fill-rule="nonzero"/><path fill="#0d0a0b" d="M 395.1875 650.871094 L 345.570312 601.226562 L 347.503906 599.292969 L 397.121094 648.9375 L 395.1875 650.871094 " fill-opacity="1" fill-rule="nonzero"/><path fill="#0d0a0b" d="M 242.15625 596.464844 L 232.796875 596.464844 L 232.796875 593.765625 L 242.15625 593.765625 C 243.566406 593.765625 244.976562 593.179688 246.023438 592.136719 L 290.792969 547.339844 C 292.941406 545.191406 292.941406 541.722656 290.792969 539.605469 L 184.066406 432.820312 C 182.53125 431.285156 181.671875 429.226562 181.671875 427.015625 L 181.671875 420.753906 C 181.671875 418.574219 182.53125 416.515625 184.066406 414.949219 L 196.035156 402.976562 L 197.96875 404.910156 L 186 416.882812 C 184.988281 417.929688 184.402344 419.308594 184.402344 420.753906 L 184.402344 427.015625 C 184.402344 428.488281 184.988281 429.871094 186 430.882812 L 292.726562 537.671875 C 295.917969 540.863281 295.917969 546.082031 292.726562 549.277344 L 247.953125 594.070312 C 246.421875 595.605469 244.304688 596.464844 242.15625 596.464844 " fill-opacity="1" fill-rule="nonzero"/><path fill="#0d0a0b" d="M 186.917969 424.683594 L 60.554688 424.683594 L 60.554688 421.949219 L 186.917969 421.949219 C 187.289062 421.949219 187.625 421.828125 187.871094 421.550781 L 190.695312 418.726562 C 190.941406 418.480469 191.09375 418.113281 191.09375 417.773438 L 191.09375 411.203125 C 191.09375 410.46875 190.480469 409.851562 189.742188 409.851562 C 187.472656 409.851562 185.628906 408.042969 185.628906 405.769531 L 185.628906 385.167969 C 185.628906 384.0625 186.058594 383.050781 186.859375 382.25 L 192.351562 376.753906 C 193.117188 375.988281 194.160156 375.558594 195.265625 375.558594 L 253.847656 375.558594 C 254.214844 375.558594 254.550781 375.402344 254.796875 375.160156 L 362.601562 267.296875 L 364.53125 269.234375 L 256.730469 377.09375 C 255.964844 377.859375 254.953125 378.289062 253.847656 378.289062 L 195.265625 378.289062 C 194.898438 378.289062 194.53125 378.445312 194.285156 378.6875 L 188.792969 384.183594 C 188.515625 384.460938 188.394531 384.800781 188.394531 385.167969 L 188.394531 405.769531 C 188.394531 406.507812 188.976562 407.121094 189.742188 407.121094 C 191.984375 407.121094 193.855469 408.960938 193.855469 411.203125 L 193.855469 417.773438 C 193.855469 418.847656 193.394531 419.894531 192.628906 420.660156 L 189.804688 423.484375 C 189.035156 424.285156 187.992188 424.683594 186.917969 424.683594 " fill-opacity="1" fill-rule="nonzero"/><path fill="#0d0a0b" d="M 466.78125 576.507812 L 464.019531 576.507812 L 464.019531 557.167969 C 464.019531 555.722656 463.433594 554.3125 462.421875 553.296875 L 398.871094 489.679688 C 397.859375 488.667969 396.445312 488.085938 395.003906 488.085938 L 391.90625 488.085938 C 389.726562 488.085938 387.671875 487.226562 386.136719 485.691406 L 367.203125 466.777344 C 366.191406 465.734375 364.808594 465.148438 363.335938 465.148438 L 314.453125 465.148438 C 313.011719 465.148438 311.628906 465.734375 310.585938 466.777344 L 298.464844 478.875 C 296.929688 480.4375 294.875 481.300781 292.664062 481.300781 L 281.003906 481.300781 C 278.824219 481.300781 276.738281 480.410156 275.203125 478.875 L 269.621094 473.316406 C 268.605469 472.304688 267.195312 471.6875 265.753906 471.6875 L 32.074219 471.6875 L 32.074219 468.957031 L 265.753906 468.957031 C 267.902344 468.957031 270.019531 469.847656 271.554688 471.382812 L 277.136719 476.9375 C 278.152344 477.984375 279.5625 478.566406 281.003906 478.566406 L 292.664062 478.566406 C 294.109375 478.566406 295.519531 477.984375 296.53125 476.9375 L 308.652344 464.84375 C 310.21875 463.277344 312.273438 462.449219 314.453125 462.449219 L 363.335938 462.449219 C 365.546875 462.449219 367.601562 463.277344 369.136719 464.84375 L 388.070312 483.753906 C 389.082031 484.769531 390.464844 485.351562 391.90625 485.351562 L 395.003906 485.351562 C 397.183594 485.351562 399.238281 486.210938 400.804688 487.746094 L 464.355469 551.363281 C 465.890625 552.898438 466.78125 554.988281 466.78125 557.167969 L 466.78125 576.507812 " fill-opacity="1" fill-rule="nonzero"/><path fill="#0d0a0b" d="M 186.765625 131.46875 L 184.035156 131.46875 L 184.035156 80.101562 C 184.035156 78.660156 183.453125 77.277344 182.410156 76.234375 L 156.078125 49.890625 C 154.515625 48.355469 153.65625 46.265625 153.65625 44.085938 L 153.65625 6.964844 L 156.417969 6.964844 L 156.417969 44.085938 C 156.417969 45.558594 156.96875 46.910156 158.011719 47.957031 L 184.34375 74.296875 C 185.90625 75.863281 186.765625 77.921875 186.765625 80.101562 L 186.765625 131.46875 " fill-opacity="1" fill-rule="nonzero"/><path fill="#0d0a0b" d="M 572.25 510.007812 L 573.015625 510.742188 C 573.660156 511.386719 574.550781 511.789062 575.472656 511.789062 C 577.222656 511.789062 578.785156 512.433594 579.953125 513.628906 C 581.148438 514.796875 581.792969 516.363281 581.792969 518.019531 L 581.792969 520.109375 C 581.792969 521.058594 582.160156 521.949219 582.804688 522.59375 L 583.726562 523.515625 C 584.371094 524.160156 585.292969 524.527344 586.210938 524.527344 L 597.84375 524.527344 C 598.761719 524.527344 599.652344 524.160156 600.296875 523.515625 L 600.632812 523.179688 C 601.308594 522.535156 601.679688 521.613281 601.679688 520.691406 L 601.679688 513.96875 C 601.679688 513.046875 601.308594 512.125 600.632812 511.480469 L 600.265625 511.082031 C 599.5625 510.40625 598.671875 510.007812 597.8125 510.007812 Z M 597.84375 527.292969 L 586.210938 527.292969 C 584.554688 527.292969 582.960938 526.617188 581.792969 525.449219 L 580.871094 524.527344 C 579.707031 523.363281 579.0625 521.796875 579.0625 520.109375 L 579.0625 518.019531 C 579.0625 517.097656 578.695312 516.207031 578.019531 515.5625 C 577.34375 514.886719 576.484375 514.519531 575.53125 514.519531 C 573.816406 514.519531 572.25 513.875 571.054688 512.675781 L 570.222656 511.816406 C 569.027344 510.652344 568.382812 509.085938 568.382812 507.398438 L 568.382812 505.492188 C 568.382812 504.570312 568.015625 503.679688 567.371094 503.007812 L 566.386719 502.054688 C 565.714844 501.378906 564.855469 501.011719 563.902344 501.011719 L 530.054688 501.011719 L 530.054688 498.277344 L 563.902344 498.277344 C 565.558594 498.277344 567.125 498.953125 568.320312 500.121094 L 569.304688 501.070312 C 570.46875 502.269531 571.113281 503.835938 571.113281 505.492188 L 571.113281 507.273438 L 597.8125 507.273438 C 599.40625 507.273438 601.003906 507.949219 602.199219 509.148438 L 602.566406 509.546875 C 603.765625 510.710938 604.410156 512.277344 604.410156 513.96875 L 604.410156 520.691406 C 604.410156 522.347656 603.765625 523.914062 602.566406 525.113281 L 602.230469 525.449219 C 601.0625 526.617188 599.5 527.292969 597.84375 527.292969 " fill-opacity="1" fill-rule="nonzero"/><path fill="#0d0a0b" d="M 588.605469 514.152344 C 587.070312 514.152344 585.84375 515.378906 585.84375 516.882812 C 585.84375 518.386719 587.070312 519.617188 588.605469 519.617188 L 595.203125 519.617188 C 596.707031 519.617188 597.933594 518.386719 597.933594 516.882812 C 597.933594 515.378906 596.707031 514.152344 595.203125 514.152344 Z M 595.203125 522.347656 L 588.605469 522.347656 C 585.566406 522.347656 583.113281 519.894531 583.113281 516.882812 C 583.113281 513.875 585.566406 511.417969 588.605469 511.417969 L 595.203125 511.417969 C 598.210938 511.417969 600.664062 513.875 600.664062 516.882812 C 600.664062 519.894531 598.210938 522.347656 595.203125 522.347656 " fill-opacity="1" fill-rule="nonzero"/><path fill="#0d0a0b" d="M 21.273438 126.984375 C 21.273438 129.992188 18.820312 132.449219 15.78125 132.449219 C 12.773438 132.449219 10.320312 129.992188 10.320312 126.984375 C 10.320312 123.945312 12.773438 121.488281 15.78125 121.488281 C 18.820312 121.488281 21.273438 123.945312 21.273438 126.984375 " fill-opacity="1" fill-rule="nonzero"/><path fill="#0d0a0b" d="M 66.046875 221.613281 C 66.046875 224.652344 63.589844 227.109375 60.554688 227.109375 C 57.546875 227.109375 55.089844 224.652344 55.089844 221.613281 C 55.089844 218.601562 57.546875 216.148438 60.554688 216.148438 C 63.589844 216.148438 66.046875 218.601562 66.046875 221.613281 " fill-opacity="1" fill-rule="nonzero"/><path fill="#0d0a0b" d="M 60.125 49.550781 C 60.125 52.589844 57.667969 55.046875 54.660156 55.046875 C 51.621094 55.046875 49.167969 52.589844 49.167969 49.550781 C 49.167969 46.542969 51.621094 44.085938 54.660156 44.085938 C 57.667969 44.085938 60.125 46.542969 60.125 49.550781 " fill-opacity="1" fill-rule="nonzero"/><path fill="#0d0a0b" d="M 110.816406 54.1875 C 110.816406 57.226562 108.363281 59.652344 105.355469 59.652344 C 102.316406 59.652344 99.863281 57.226562 99.863281 54.1875 C 99.863281 51.148438 102.316406 48.722656 105.355469 48.722656 C 108.363281 48.722656 110.816406 51.148438 110.816406 54.1875 " fill-opacity="1" fill-rule="nonzero"/><path fill="#0d0a0b" d="M 135.613281 65.886719 C 135.613281 68.925781 133.15625 71.382812 130.148438 71.382812 C 127.113281 71.382812 124.6875 68.925781 124.6875 65.886719 C 124.6875 62.875 127.113281 60.421875 130.148438 60.421875 C 133.15625 60.421875 135.613281 62.875 135.613281 65.886719 " fill-opacity="1" fill-rule="nonzero"/><path fill="#0d0a0b" d="M 259.953125 76.847656 C 259.953125 79.855469 257.527344 82.3125 254.492188 82.3125 C 251.453125 82.3125 249.027344 79.855469 249.027344 76.847656 C 249.027344 73.835938 251.453125 71.382812 254.492188 71.382812 C 257.527344 71.382812 259.953125 73.835938 259.953125 76.847656 " fill-opacity="1" fill-rule="nonzero"/><path fill="#0d0a0b" d="M 207.203125 295.515625 C 207.203125 298.554688 204.75 301.011719 201.710938 301.011719 C 198.703125 301.011719 196.25 298.554688 196.25 295.515625 C 196.25 292.503906 198.703125 290.050781 201.710938 290.050781 C 204.75 290.050781 207.203125 292.503906 207.203125 295.515625 " fill-opacity="1" fill-rule="nonzero"/><path fill="#0d0a0b" d="M 201.710938 403.957031 C 201.710938 406.964844 199.285156 409.421875 196.25 409.421875 C 193.242188 409.421875 190.785156 406.964844 190.785156 403.957031 C 190.785156 400.917969 193.242188 398.460938 196.25 398.460938 C 199.285156 398.460938 201.710938 400.917969 201.710938 403.957031 " fill-opacity="1" fill-rule="nonzero"/><path fill="#0d0a0b" d="M 369.042969 268.28125 C 369.042969 271.289062 366.589844 273.746094 363.582031 273.746094 C 360.542969 273.746094 358.089844 271.289062 358.089844 268.28125 C 358.089844 265.242188 360.542969 262.816406 363.582031 262.816406 C 366.589844 262.816406 369.042969 265.242188 369.042969 268.28125 " fill-opacity="1" fill-rule="nonzero"/><path fill="#0d0a0b" d="M 550.402344 309.761719 C 550.402344 312.800781 547.945312 315.257812 544.9375 315.257812 C 541.902344 315.257812 539.476562 312.800781 539.476562 309.761719 C 539.476562 306.75 541.902344 304.296875 544.9375 304.296875 C 547.945312 304.296875 550.402344 306.75 550.402344 309.761719 " fill-opacity="1" fill-rule="nonzero"/><path fill="#0d0a0b" d="M 550.402344 352.007812 C 550.402344 355.015625 547.945312 357.472656 544.9375 357.472656 C 541.902344 357.472656 539.476562 355.015625 539.476562 352.007812 C 539.476562 348.96875 541.902344 346.511719 544.9375 346.511719 C 547.945312 346.511719 550.402344 348.96875 550.402344 352.007812 " fill-opacity="1" fill-rule="nonzero"/><path fill="#0d0a0b" d="M 360.421875 418.574219 C 360.421875 421.582031 357.964844 424.039062 354.957031 424.039062 C 351.953125 424.039062 349.496094 421.582031 349.496094 418.574219 C 349.496094 415.53125 351.953125 413.078125 354.957031 413.078125 C 357.964844 413.078125 360.421875 415.53125 360.421875 418.574219 " fill-opacity="1" fill-rule="nonzero"/><path fill="#0d0a0b" d="M 538.984375 404.972656 C 538.984375 408.011719 536.53125 410.4375 533.523438 410.4375 C 530.484375 410.4375 528.03125 408.011719 528.03125 404.972656 C 528.03125 401.929688 530.484375 399.507812 533.523438 399.507812 C 536.53125 399.507812 538.984375 401.929688 538.984375 404.972656 " fill-opacity="1" fill-rule="nonzero"/><path fill="#0d0a0b" d="M 610.792969 552.714844 C 610.792969 555.753906 608.335938 558.210938 605.300781 558.210938 C 602.292969 558.210938 599.835938 555.753906 599.835938 552.714844 C 599.835938 549.707031 602.292969 547.25 605.300781 547.25 C 608.335938 547.25 610.792969 549.707031 610.792969 552.714844 " fill-opacity="1" fill-rule="nonzero"/><path fill="#0d0a0b" d="M 397.460938 587.46875 C 397.460938 590.480469 395.003906 592.9375 391.996094 592.9375 C 388.960938 592.9375 386.503906 590.480469 386.503906 587.46875 C 386.503906 584.429688 388.960938 581.972656 391.996094 581.972656 C 395.003906 581.972656 397.460938 584.429688 397.460938 587.46875 " fill-opacity="1" fill-rule="nonzero"/><path fill="#0d0a0b" d="M 91.546875 610.160156 C 91.546875 613.167969 89.089844 615.625 86.054688 615.625 C 83.046875 615.625 80.589844 613.167969 80.589844 610.160156 C 80.589844 607.121094 83.046875 604.695312 86.054688 604.695312 C 89.089844 604.695312 91.546875 607.121094 91.546875 610.160156 " fill-opacity="1" fill-rule="nonzero"/><path fill="#0d0a0b" d="M 399.761719 652.316406 C 399.761719 655.324219 397.304688 657.78125 394.300781 657.78125 C 391.261719 657.78125 388.835938 655.324219 388.835938 652.316406 C 388.835938 649.304688 391.261719 646.851562 394.300781 646.851562 C 397.304688 646.851562 399.761719 649.304688 399.761719 652.316406 " fill-opacity="1" fill-rule="nonzero"/><path fill="#0d0a0b" d="M 467.671875 508.101562 C 467.671875 511.140625 465.214844 513.566406 462.175781 513.566406 C 459.171875 513.566406 456.714844 511.140625 456.714844 508.101562 C 456.714844 505.0625 459.171875 502.636719 462.175781 502.636719 C 465.214844 502.636719 467.671875 505.0625 467.671875 508.101562 " fill-opacity="1" fill-rule="nonzero"/><path fill="#0d0a0b" d="M 471.535156 576.507812 C 471.535156 579.550781 469.082031 581.972656 466.042969 581.972656 C 463.035156 581.972656 460.582031 579.550781 460.582031 576.507812 C 460.582031 573.5 463.035156 571.042969 466.042969 571.042969 C 469.082031 571.042969 471.535156 573.5 471.535156 576.507812 " fill-opacity="1" fill-rule="nonzero"/><path fill="#0d0a0b" d="M 560.894531 665.089844 C 560.894531 668.128906 558.472656 670.582031 555.433594 670.582031 C 552.394531 670.582031 549.972656 668.128906 549.972656 665.089844 C 549.972656 662.078125 552.394531 659.621094 555.433594 659.621094 C 558.472656 659.621094 560.894531 662.078125 560.894531 665.089844 " fill-opacity="1" fill-rule="nonzero"/><path fill="#0d0a0b" d="M 437.933594 761.371094 C 437.933594 764.382812 435.480469 766.839844 432.472656 766.839844 C 429.433594 766.839844 426.980469 764.382812 426.980469 761.371094 C 426.980469 758.332031 429.433594 755.878906 432.472656 755.878906 C 435.480469 755.878906 437.933594 758.332031 437.933594 761.371094 " fill-opacity="1" fill-rule="nonzero"/><path fill="#0d0a0b" d="M 362.539062 771.414062 C 362.539062 774.453125 360.082031 776.878906 357.046875 776.878906 C 354.039062 776.878906 351.582031 774.453125 351.582031 771.414062 C 351.582031 768.402344 354.039062 765.949219 357.046875 765.949219 C 360.082031 765.949219 362.539062 768.402344 362.539062 771.414062 " fill-opacity="1" fill-rule="nonzero"/><path fill="#0d0a0b" d="M 262.253906 771.414062 C 262.253906 774.453125 259.800781 776.878906 256.761719 776.878906 C 253.753906 776.878906 251.300781 774.453125 251.300781 771.414062 C 251.300781 768.402344 253.753906 765.949219 256.761719 765.949219 C 259.800781 765.949219 262.253906 768.402344 262.253906 771.414062 " fill-opacity="1" fill-rule="nonzero"/><path fill="#0d0a0b" d="M 544.109375 345.804688 C 544.109375 348.816406 541.65625 351.269531 538.617188 351.269531 C 535.609375 351.269531 533.15625 348.816406 533.15625 345.804688 C 533.15625 342.765625 535.609375 340.308594 538.617188 340.308594 C 541.65625 340.308594 544.109375 342.765625 544.109375 345.804688 " fill-opacity="1" fill-rule="nonzero"/><path fill="#0d0a0b" d="M 411.390625 352.007812 C 411.390625 355.015625 408.9375 357.472656 405.929688 357.472656 C 402.890625 357.472656 400.4375 355.015625 400.4375 352.007812 C 400.4375 348.96875 402.890625 346.511719 405.929688 346.511719 C 408.9375 346.511719 411.390625 348.96875 411.390625 352.007812 " fill-opacity="1" fill-rule="nonzero"/><g clip-path="url(#id5)"><path fill="#0d0a0b" d="M 158.441406 5.585938 C 158.441406 8.625 156.019531 11.082031 152.980469 11.082031 C 149.972656 11.082031 147.519531 8.625 147.519531 5.585938 C 147.519531 2.574219 149.972656 0.121094 152.980469 0.121094 C 156.019531 0.121094 158.441406 2.574219 158.441406 5.585938 " fill-opacity="1" fill-rule="nonzero"/></g><path fill="#0d0a0b" d="M 202.601562 20.046875 C 202.601562 23.085938 200.144531 25.542969 197.109375 25.542969 C 194.101562 25.542969 191.644531 23.085938 191.644531 20.046875 C 191.644531 17.035156 194.101562 14.582031 197.109375 14.582031 C 200.144531 14.582031 202.601562 17.035156 202.601562 20.046875 " fill-opacity="1" fill-rule="nonzero"/></g></g></g></svg>